<svg width="41" height="61" viewBox="0 0 41 61" fill="none" xmlns="http://www.w3.org/2000/svg">
<rect x="9" y="57" width="24" height="4" fill="#7D2D80"/>
<path d="M8.01963 45V36.492H6.35162V39.912H2.64363V36.492H0.987625V45H2.64363V41.472H6.35162V45H8.01963ZM11.4402 45V39.096H9.84419V45H11.4402ZM9.65219 37.164C9.65219 37.692 10.0962 38.136 10.6362 38.136C11.1882 38.136 11.6202 37.692 11.6202 37.164C11.6202 36.612 11.1882 36.168 10.6362 36.168C10.0962 36.168 9.65219 36.612 9.65219 37.164ZM12.6449 43.356C12.7169 44.028 13.3289 45.18 15.1049 45.18C16.6529 45.18 17.3969 44.196 17.3969 43.236C17.3969 42.372 16.8089 41.664 15.6449 41.424L14.8049 41.244C14.4809 41.184 14.2649 41.004 14.2649 40.716C14.2649 40.38 14.6009 40.128 15.0209 40.128C15.6929 40.128 15.9449 40.572 15.9929 40.92L17.3249 40.62C17.2529 39.984 16.6889 38.916 15.0089 38.916C13.7369 38.916 12.8009 39.792 12.8009 40.848C12.8009 41.676 13.3169 42.36 14.4569 42.612L15.2369 42.792C15.6929 42.888 15.8729 43.104 15.8729 43.368C15.8729 43.68 15.6209 43.956 15.0929 43.956C14.3969 43.956 14.0489 43.524 14.0129 43.056L12.6449 43.356ZM20.6481 37.332H19.2081V38.16C19.2081 38.688 18.9201 39.096 18.2961 39.096H17.9961V40.512H19.0641V43.26C19.0641 44.4 19.7841 45.084 20.9361 45.084C21.4041 45.084 21.6921 45 21.8361 44.94V43.62C21.7521 43.644 21.5361 43.668 21.3441 43.668C20.8881 43.668 20.6481 43.5 20.6481 42.984V40.512H21.8361V39.096H20.6481V37.332ZM25.7853 43.728C25.0053 43.728 24.2853 43.152 24.2853 42.048C24.2853 40.932 25.0053 40.368 25.7853 40.368C26.5653 40.368 27.2853 40.932 27.2853 42.048C27.2853 43.164 26.5653 43.728 25.7853 43.728ZM25.7853 38.916C24.0213 38.916 22.6893 40.224 22.6893 42.048C22.6893 43.86 24.0213 45.18 25.7853 45.18C27.5493 45.18 28.8813 43.86 28.8813 42.048C28.8813 40.224 27.5493 38.916 25.7853 38.916ZM33.7411 39.072C33.6211 39.06 33.5011 39.048 33.3691 39.048C32.8651 39.048 32.0491 39.192 31.6891 39.972V39.096H30.1411V45H31.7371V42.3C31.7371 41.028 32.4451 40.632 33.2611 40.632C33.4051 40.632 33.5611 40.644 33.7411 40.68V39.072ZM37.1615 47.328L40.8695 39.096H39.1655L37.7135 42.552L36.1415 39.096H34.3535L36.8615 44.256L35.4695 47.328H37.1615Z" fill="#7D2D80"/>
<path d="M28.5 3.5L27 2L25.5 3.5L24 2L22.5 3.5L21 2L19.5 3.5L18 2L16.5 3.5L15 2L13.5 3.5L12 2V22L13.5 20.5L15 22L16.5 20.5L18 22L19.5 20.5L21 22L22.5 20.5L24 22L25.5 20.5L27 22L28.5 20.5L30 22V2L28.5 3.5ZM28 19.09H14V4.91H28V19.09ZM15 15H27V17H15V15ZM15 11H27V13H15V11ZM15 7H27V9H15V7Z" fill="#7D2D80"/>
</svg>
