<svg width="46" height="61" viewBox="0 0 46 61" fill="none" xmlns="http://www.w3.org/2000/svg">
<rect x="11" y="57" width="24" height="4" fill="#7D2D80"/>
<path d="M6.78584 38.52C6.59384 37.56 5.80184 36.312 3.73784 36.312C2.12984 36.312 0.773844 37.464 0.773844 38.976C0.773844 40.26 1.64984 41.136 3.00584 41.412L4.19384 41.652C4.85384 41.784 5.22584 42.168 5.22584 42.66C5.22584 43.26 4.73384 43.704 3.84584 43.704C2.64584 43.704 2.05784 42.948 1.98584 42.108L0.449844 42.516C0.581844 43.728 1.57784 45.18 3.83384 45.18C5.81384 45.18 6.90584 43.86 6.90584 42.552C6.90584 41.352 6.07784 40.344 4.52984 40.044L3.34184 39.816C2.71784 39.696 2.41784 39.324 2.41784 38.856C2.41784 38.292 2.94584 37.776 3.74984 37.776C4.82984 37.776 5.21384 38.508 5.29784 38.976L6.78584 38.52ZM9.30116 41.376C9.33716 40.836 9.79316 40.212 10.6212 40.212C11.5332 40.212 11.9172 40.788 11.9412 41.376H9.30116ZM12.0972 42.912C11.9052 43.44 11.4972 43.812 10.7532 43.812C9.96116 43.812 9.30116 43.248 9.26516 42.468H13.4892C13.4892 42.444 13.5132 42.204 13.5132 41.976C13.5132 40.08 12.4212 38.916 10.5972 38.916C9.08516 38.916 7.69316 40.14 7.69316 42.024C7.69316 44.016 9.12116 45.18 10.7412 45.18C12.1932 45.18 13.1292 44.328 13.4292 43.308L12.0972 42.912ZM16.738 37.332H15.298V38.16C15.298 38.688 15.01 39.096 14.386 39.096H14.086V40.512H15.154V43.26C15.154 44.4 15.874 45.084 17.026 45.084C17.494 45.084 17.782 45 17.926 44.94V43.62C17.842 43.644 17.626 43.668 17.434 43.668C16.978 43.668 16.738 43.5 16.738 42.984V40.512H17.926V39.096H16.738V37.332ZM21.2145 37.332H19.7745V38.16C19.7745 38.688 19.4865 39.096 18.8625 39.096H18.5625V40.512H19.6305V43.26C19.6305 44.4 20.3505 45.084 21.5025 45.084C21.9705 45.084 22.2585 45 22.4025 44.94V43.62C22.3185 43.644 22.1025 43.668 21.9105 43.668C21.4545 43.668 21.2145 43.5 21.2145 42.984V40.512H22.4025V39.096H21.2145V37.332ZM25.3543 45V39.096H23.7583V45H25.3543ZM23.5663 37.164C23.5663 37.692 24.0103 38.136 24.5503 38.136C25.1023 38.136 25.5343 37.692 25.5343 37.164C25.5343 36.612 25.1023 36.168 24.5503 36.168C24.0103 36.168 23.5663 36.612 23.5663 37.164ZM28.6589 41.604C28.6589 40.92 29.0669 40.38 29.7629 40.38C30.5309 40.38 30.8549 40.896 30.8549 41.556V45H32.4509V41.28C32.4509 39.984 31.7789 38.94 30.3149 38.94C29.6789 38.94 28.9709 39.216 28.6109 39.828V39.096H27.0629V45H28.6589V41.604ZM33.6508 45.324C33.8188 46.452 34.8988 47.46 36.5188 47.46C38.7388 47.46 39.6148 45.984 39.6148 44.364V39.096H38.0788V39.792C37.8748 39.396 37.3348 38.988 36.3988 38.988C34.7788 38.988 33.6508 40.308 33.6508 41.868C33.6508 43.524 34.8268 44.736 36.3988 44.736C37.2508 44.736 37.8028 44.364 38.0428 43.98V44.412C38.0428 45.552 37.4788 46.056 36.4708 46.056C35.7148 46.056 35.1988 45.588 35.0908 44.94L33.6508 45.324ZM36.6748 43.368C35.8468 43.368 35.2588 42.792 35.2588 41.868C35.2588 40.956 35.8828 40.38 36.6748 40.38C37.4428 40.38 38.0668 40.956 38.0668 41.868C38.0668 42.78 37.4908 43.368 36.6748 43.368ZM40.7269 43.356C40.7989 44.028 41.4109 45.18 43.1869 45.18C44.7349 45.18 45.4789 44.196 45.4789 43.236C45.4789 42.372 44.8909 41.664 43.7269 41.424L42.8869 41.244C42.5629 41.184 42.3469 41.004 42.3469 40.716C42.3469 40.38 42.6829 40.128 43.1029 40.128C43.7749 40.128 44.0269 40.572 44.0749 40.92L45.4069 40.62C45.3349 39.984 44.7709 38.916 43.0909 38.916C41.8189 38.916 40.8829 39.792 40.8829 40.848C40.8829 41.676 41.3989 42.36 42.5389 42.612L43.3189 42.792C43.7749 42.888 43.9549 43.104 43.9549 43.368C43.9549 43.68 43.7029 43.956 43.1749 43.956C42.4789 43.956 42.1309 43.524 42.0949 43.056L40.7269 43.356Z" fill="#7D2D80"/>
<path d="M23.0001 8C24.0609 8 25.0784 8.42143 25.8285 9.17157C26.5787 9.92172 27.0001 10.9391 27.0001 12C27.0001 13.0609 26.5787 14.0783 25.8285 14.8284C25.0784 15.5786 24.0609 16 23.0001 16C21.9392 16 20.9218 15.5786 20.1717 14.8284C19.4215 14.0783 19.0001 13.0609 19.0001 12C19.0001 10.9391 19.4215 9.92172 20.1717 9.17157C20.9218 8.42143 21.9392 8 23.0001 8V8ZM23.0001 10C22.4697 10 21.9609 10.2107 21.5859 10.5858C21.2108 10.9609 21.0001 11.4696 21.0001 12C21.0001 12.5304 21.2108 13.0391 21.5859 13.4142C21.9609 13.7893 22.4697 14 23.0001 14C23.5305 14 24.0392 13.7893 24.4143 13.4142C24.7894 13.0391 25.0001 12.5304 25.0001 12C25.0001 11.4696 24.7894 10.9609 24.4143 10.5858C24.0392 10.2107 23.5305 10 23.0001 10ZM21.0001 22C20.7501 22 20.5401 21.82 20.5001 21.58L20.1301 18.93C19.5001 18.68 18.9601 18.34 18.4401 17.94L15.9501 18.95C15.7301 19.03 15.4601 18.95 15.3401 18.73L13.3401 15.27C13.2101 15.05 13.2701 14.78 13.4601 14.63L15.5701 12.97L15.5001 12L15.5701 11L13.4601 9.37C13.2701 9.22 13.2101 8.95 13.3401 8.73L15.3401 5.27C15.4601 5.05 15.7301 4.96 15.9501 5.05L18.4401 6.05C18.9601 5.66 19.5001 5.32 20.1301 5.07L20.5001 2.42C20.5401 2.18 20.7501 2 21.0001 2H25.0001C25.2501 2 25.4601 2.18 25.5001 2.42L25.8701 5.07C26.5001 5.32 27.0401 5.66 27.5601 6.05L30.0501 5.05C30.2701 4.96 30.5401 5.05 30.6601 5.27L32.6601 8.73C32.7901 8.95 32.7301 9.22 32.5401 9.37L30.4301 11L30.5001 12L30.4301 13L32.5401 14.63C32.7301 14.78 32.7901 15.05 32.6601 15.27L30.6601 18.73C30.5401 18.95 30.2701 19.04 30.0501 18.95L27.5601 17.95C27.0401 18.34 26.5001 18.68 25.8701 18.93L25.5001 21.58C25.4601 21.82 25.2501 22 25.0001 22H21.0001ZM22.2501 4L21.8801 6.61C20.6801 6.86 19.6201 7.5 18.8501 8.39L16.4401 7.35L15.6901 8.65L17.8001 10.2C17.4001 11.37 17.4001 12.64 17.8001 13.8L15.6801 15.36L16.4301 16.66L18.8601 15.62C19.6301 16.5 20.6801 17.14 21.8701 17.38L22.2401 20H23.7601L24.1301 17.39C25.3201 17.14 26.3701 16.5 27.1401 15.62L29.5701 16.66L30.3201 15.36L28.2001 13.81C28.6001 12.64 28.6001 11.37 28.2001 10.2L30.3101 8.65L29.5601 7.35L27.1501 8.39C26.3801 7.5 25.3201 6.86 24.1201 6.62L23.7501 4H22.2501Z" fill="#7D2D80"/>
</svg>
