<svg width="32" height="61" viewBox="0 0 32 61" fill="none" xmlns="http://www.w3.org/2000/svg">
<rect x="4" y="57" width="24" height="4" fill="#7D2D80"/>
<path d="M7.35709 38.064V36.492H0.313094V38.064H3.00109V45H4.66909V38.064H7.35709ZM11.1356 39.072C11.0156 39.06 10.8956 39.048 10.7636 39.048C10.2596 39.048 9.44359 39.192 9.08359 39.972V39.096H7.53559V45H9.13159V42.3C9.13159 41.028 9.83959 40.632 10.6556 40.632C10.7996 40.632 10.9556 40.644 11.1356 40.68V39.072ZM11.9334 43.392C11.9334 44.316 12.7014 45.168 13.9614 45.168C14.8374 45.168 15.4014 44.76 15.7014 44.292C15.7014 44.52 15.7254 44.844 15.7614 45H17.2254C17.1894 44.796 17.1534 44.376 17.1534 44.064V41.16C17.1534 39.972 16.4574 38.916 14.5854 38.916C13.0014 38.916 12.1494 39.936 12.0534 40.86L13.4694 41.16C13.5174 40.644 13.9014 40.2 14.5974 40.2C15.2694 40.2 15.5934 40.548 15.5934 40.968C15.5934 41.172 15.4854 41.34 15.1494 41.388L13.6974 41.604C12.7134 41.748 11.9334 42.336 11.9334 43.392ZM14.2974 43.98C13.7814 43.98 13.5294 43.644 13.5294 43.296C13.5294 42.84 13.8534 42.612 14.2614 42.552L15.5934 42.348V42.612C15.5934 43.656 14.9694 43.98 14.2974 43.98ZM24.3667 36.312H22.7947V39.684C22.6267 39.372 22.1467 38.952 21.1267 38.952C19.4587 38.952 18.2947 40.308 18.2947 42.036C18.2947 43.824 19.4947 45.144 21.1747 45.144C21.9667 45.144 22.5667 44.784 22.8307 44.316C22.8307 44.592 22.8667 44.88 22.8907 45H24.4147C24.3907 44.76 24.3667 44.328 24.3667 43.932V36.312ZM19.9027 42.036C19.9027 40.98 20.5507 40.38 21.3667 40.38C22.1827 40.38 22.8187 40.968 22.8187 42.024C22.8187 43.092 22.1827 43.716 21.3667 43.716C20.5267 43.716 19.9027 43.092 19.9027 42.036ZM27.2621 41.376C27.2981 40.836 27.7541 40.212 28.5821 40.212C29.4941 40.212 29.8781 40.788 29.9021 41.376H27.2621ZM30.0581 42.912C29.8661 43.44 29.4581 43.812 28.7141 43.812C27.9221 43.812 27.2621 43.248 27.2261 42.468H31.4501C31.4501 42.444 31.4741 42.204 31.4741 41.976C31.4741 40.08 30.3821 38.916 28.5581 38.916C27.0461 38.916 25.6541 40.14 25.6541 42.024C25.6541 44.016 27.0821 45.18 28.7021 45.18C30.1541 45.18 31.0901 44.328 31.3901 43.308L30.0581 42.912Z" fill="#7D2D80"/>
<path d="M23.1651 14.6198L24.2728 15.2594C24.3877 15.3257 24.5312 15.2428 24.5312 15.1103V7.35547C24.5312 7.0932 24.3751 6.86854 24.1514 6.76574C23.9505 6.62383 23.6781 6.60114 23.4513 6.73199L15.7666 11.1689L9.16149 7.35547L14.3226 4.37575C14.3682 4.34944 14.3964 4.30069 14.3964 4.24807V2.96882C14.3964 2.8363 14.2529 2.75343 14.138 2.81971L7.3616 6.73199C7.21228 6.81828 7.10327 6.96031 7.05862 7.12687C7.03853 7.20209 7.03414 7.27939 7.0413 7.35547C7.03418 7.43159 7.03853 7.50893 7.05862 7.58408C7.10327 7.75063 7.21228 7.89271 7.3616 7.97895L15.0466 12.4159V20.0427L9.90977 17.0769C9.86414 17.0506 9.80795 17.0506 9.76232 17.0769L8.65451 17.7165C8.53972 17.7828 8.53972 17.9486 8.65451 18.0148L15.4066 21.9131C15.509 21.9722 15.6209 22.0003 15.7312 22.0003C15.8683 22.0003 16.0028 21.9563 16.1144 21.8751C16.3338 21.7706 16.4865 21.5487 16.4865 21.2896V12.4158L23.0914 8.60239V14.492C23.0914 14.5447 23.1195 14.5933 23.1652 14.6197L23.1651 14.6198Z" fill="#7D2D80" stroke="#7D2D80" stroke-width="0.3"/>
<path d="M14.4295 12.8541L13.6372 12.3967L8.43987 15.3973V9.44024C8.43987 9.37933 8.40734 9.32293 8.35451 9.29244L7.28952 8.67754C7.16086 8.6032 7 8.69608 7 8.84466V16.6442C7 16.9034 7.15273 17.1253 7.37202 17.2298C7.48372 17.311 7.61828 17.3549 7.75531 17.3549C7.86559 17.3549 7.97753 17.3267 8.07988 17.2677L14.4295 13.6018V12.8541V12.8541Z" fill="#7D2D80" stroke="#7D2D80" stroke-width="0.3"/>
<path d="M22.8344 5.9603L16.1248 2.08645C15.8983 1.9558 15.6263 1.97829 15.4254 2.11987C15.2014 2.22255 15.0449 2.44745 15.0449 2.70993V9.94057L15.8155 10.3854L16.4847 9.99908V3.95693L21.5986 6.90949C21.6514 6.93999 21.7165 6.93999 21.7693 6.90949L22.8343 6.29451C22.963 6.22026 22.963 6.03451 22.8343 5.9603H22.8344Z" fill="#7D2D80" stroke="#7D2D80" stroke-width="0.3"/>
<path d="M24.4724 16.4156C24.4278 16.2491 24.3187 16.107 24.1695 16.0207L17.8913 12.396L17.1017 12.8518V13.6028L22.3697 16.6442L17.1854 19.6374C17.1326 19.6678 17.1001 19.7242 17.1001 19.7851V21.015C17.1001 21.1635 17.261 21.2564 17.3895 21.1821L24.1695 17.2677C24.3187 17.1815 24.4278 17.0394 24.4724 16.8728C24.4925 16.7977 24.497 16.7204 24.4898 16.6442C24.497 16.5682 24.4926 16.4909 24.4724 16.4156V16.4156Z" fill="#7D2D80" stroke="#7D2D80" stroke-width="0.3"/>
</svg>
