<svg width="40" height="40" viewBox="0 0 40 40" fill="none" xmlns="http://www.w3.org/2000/svg">
<path fill-rule="evenodd" clip-rule="evenodd" d="M0 0H40V40H0V0Z" fill="#EDFAFF"/>
<path fill-rule="evenodd" clip-rule="evenodd" d="M1.76071 36.8752H1.64636C1.64636 36.8182 1.61773 36.7323 1.61773 36.7034C1.61773 36.675 1.61773 36.6179 1.53181 36.6179H1.35999V36.8752H1.27408V36.2743H1.53181C1.64636 36.2743 1.73207 36.3031 1.73207 36.4172C1.73207 36.5032 1.70343 36.532 1.675 36.5602C1.70364 36.5891 1.73207 36.6177 1.73207 36.675V36.7893C1.73207 36.8182 1.73207 36.8182 1.76071 36.8182V36.8752ZM1.64636 36.4461C1.64636 36.3602 1.58909 36.3602 1.56045 36.3602H1.35999V36.532H1.53181C1.58909 36.532 1.64636 36.5032 1.64636 36.4461ZM2.13299 36.5604C2.13299 36.2172 1.84683 35.9306 1.47454 35.9306C1.1311 35.9306 0.844727 36.2172 0.844727 36.5604C0.844727 36.9325 1.1311 37.2191 1.47454 37.2191C1.84662 37.2189 2.13299 36.9325 2.13299 36.5604ZM2.04708 36.5604C2.04708 36.8754 1.78955 37.1043 1.47454 37.1043C1.15953 37.1043 0.930639 36.8752 0.930639 36.5604C0.930639 36.2743 1.15974 36.0165 1.47454 36.0165C1.78934 36.0165 2.04708 36.2743 2.04708 36.5604ZM37.3154 24.9954C37.3154 25.8543 36.7715 26.2546 35.798 26.2546H33.9376V25.3957H35.798C35.9699 25.3957 36.113 25.3672 36.1705 25.3102C36.2276 25.2527 36.2849 25.1668 36.2849 25.0524C36.2849 24.9377 36.2278 24.8233 36.1705 24.7663C36.113 24.7088 35.9987 24.6803 35.8269 24.6803C34.9398 24.6515 33.8231 24.7088 33.8231 23.4494C33.8231 22.8766 34.1952 22.2468 35.1971 22.2468H37.1149V23.1057H35.34C35.1686 23.1057 35.0539 23.1057 34.968 23.1628C34.8821 23.2487 34.825 23.3346 34.825 23.4778C34.825 23.621 34.9109 23.7069 35.0252 23.7644C35.14 23.7928 35.2546 23.8214 35.3977 23.8214H35.9128C36.4567 23.8214 36.8003 23.9358 37.0294 24.1364C37.2009 24.3367 37.3154 24.5946 37.3154 24.9954ZM33.279 24.1364C33.0499 23.9358 32.7062 23.8214 32.1623 23.8214H31.6473C31.5043 23.8214 31.3895 23.7926 31.2752 23.7644C31.1604 23.7069 31.075 23.621 31.075 23.4778C31.075 23.3346 31.1034 23.2487 31.2179 23.1628C31.3038 23.1057 31.4182 23.1057 31.59 23.1057H33.3649V22.2468H31.447C30.4163 22.2468 30.0726 22.8766 30.0726 23.4494C30.0726 24.7086 31.1893 24.6515 32.0768 24.6803C32.2483 24.6803 32.363 24.7088 32.4201 24.7663C32.4771 24.8233 32.5348 24.9377 32.5348 25.0524C32.5348 25.1668 32.4774 25.2527 32.4201 25.3102C32.3342 25.3672 32.2198 25.3957 32.048 25.3957H30.1872V26.2546H32.048C33.021 26.2546 33.5652 25.8541 33.5652 24.9954C33.5652 24.5946 33.4508 24.3367 33.279 24.1364ZM29.6147 25.4247H27.3536V24.6231H29.5576V23.8218H27.3536V23.0773H29.6147V22.2472H26.4087V26.2548H29.6147V25.4247ZM25.378 22.4477C25.063 22.2759 24.6909 22.247 24.2043 22.247H22.0002V26.2546H22.9733V24.7947H24.004C24.3473 24.7947 24.5479 24.8235 24.6911 24.9665C24.8629 25.1668 24.8629 25.5104 24.8629 25.7681V26.2546H25.8073V25.4816C25.8073 25.1095 25.7789 24.9377 25.6644 24.7374C25.5785 24.6227 25.407 24.4797 25.1779 24.3938C25.4353 24.3083 25.865 23.9646 25.865 23.3346C25.8648 22.8768 25.693 22.6191 25.378 22.4477ZM19.939 22.247H16.8758L15.6448 23.5639L14.4711 22.247H10.6065V26.2546H14.414L15.645 24.9377L16.8188 26.2546H18.6796V24.9094H19.8819C20.712 24.9094 21.5425 24.6803 21.5425 23.5639C21.5423 22.4761 20.6833 22.247 19.939 22.247ZM24.605 23.9076C24.462 23.9646 24.3188 23.9646 24.147 23.9646L22.9733 23.9935V23.0771H24.147C24.3188 23.0771 24.4907 23.0771 24.605 23.163C24.7198 23.2205 24.8052 23.3348 24.8052 23.5066C24.8052 23.6785 24.7198 23.8216 24.605 23.9076ZM19.939 24.1078H18.6793V23.0771H19.939C20.2826 23.0771 20.5115 23.2205 20.5115 23.5639C20.5115 23.9076 20.2824 24.1078 19.939 24.1078ZM16.246 24.2508L17.7345 22.6766V25.9113L16.246 24.2508ZM13.9272 25.4247H11.5511V24.6231H13.6695V23.8218H11.5511V23.0773H13.9559L15.015 24.251L13.9272 25.4247ZM34.653 19.3557H33.279L31.4755 16.3498V19.3557H29.5292L29.1567 18.4681H27.1529L26.7808 19.3557H25.6642C25.2062 19.3557 24.605 19.2411 24.2618 18.8975C23.9468 18.5541 23.7749 18.0961 23.7749 17.3803C23.7749 16.7792 23.8608 16.2353 24.29 15.8059C24.5762 15.4909 25.0916 15.3479 25.7499 15.3479H26.6658V16.2068H25.7499C25.4066 16.2068 25.206 16.2641 25.0057 16.4359C24.8339 16.6078 24.748 16.9226 24.748 17.3519C24.748 17.7813 24.8339 18.0963 25.0057 18.2967C25.1487 18.4397 25.4066 18.497 25.664 18.497H26.0935L27.4675 15.3481H28.8989L30.502 19.1268V15.3479H31.9907L33.6797 18.1247V15.3479H34.6528V19.3557H34.653ZM23.2883 15.3479H22.3153V19.3557H23.2883V15.3479ZM21.2557 15.5198C20.9407 15.3479 20.5974 15.3479 20.1108 15.3479H17.9063V19.3557H18.851V17.8956H19.8815C20.2251 17.8956 20.4542 17.9242 20.5972 18.0674C20.769 18.2679 20.7402 18.6115 20.7402 18.8404V19.3557H21.7132V18.5541C21.7132 18.2106 21.6848 18.0388 21.5418 17.8383C21.4559 17.7238 21.2841 17.5806 21.0838 17.4949C21.3412 17.3803 21.7709 17.0655 21.7709 16.4357C21.7711 15.9777 21.5705 15.72 21.2557 15.5198ZM17.2193 18.5256H14.9864V17.724H17.1906V16.8939H14.9864V16.1782H17.2193V15.3481H14.0131V19.3559H17.2193V18.5256ZM13.2974 15.3479H11.723L10.5493 18.0674L9.28963 15.3479H7.74383V19.1266L6.11213 15.3479H4.68088L2.96327 19.3557H3.9938L4.36587 18.4681H6.36966L6.74173 19.3557H8.68845V16.2068L10.0911 19.3557H10.9211L12.3239 16.2068V19.3557H13.2972V15.3479H13.2974ZM28.8134 17.6094L28.1548 16.035L27.4965 17.6094H28.8134ZM20.5115 16.9798C20.3685 17.0657 20.2254 17.0657 20.0249 17.0657H18.851V16.1784H20.0247C20.1965 16.1784 20.3966 16.1784 20.5113 16.2357C20.6257 16.3216 20.6831 16.4361 20.6831 16.6078C20.6831 16.7794 20.6259 16.9224 20.5115 16.9798ZM4.70931 17.6094L5.36776 16.035L6.02622 17.6094H4.70931ZM37.0865 2.78076H2.93442V17.2087L4.10814 14.5465H6.59855L6.94219 15.205V14.5465H9.86216L10.5206 15.9777L11.1504 14.5465H20.4542C20.8834 14.5465 21.2555 14.6324 21.542 14.8613V14.5465H24.0897V14.8613C24.5189 14.6322 25.0628 14.5465 25.6928 14.5465H29.3856L29.7292 15.205V14.5465H32.4487L32.8496 15.205V14.5465H35.5117V20.1573H32.821L32.3059 19.2986V20.1573H28.9564L28.5843 19.2413H27.7539L27.3818 20.1573H25.6357C24.9486 20.1573 24.4332 19.9855 24.0899 19.8139V20.1573H19.939V18.8691C19.939 18.6972 19.9103 18.6686 19.7958 18.6686H19.6528V20.1571H11.6371V19.4414L11.3509 20.1571H9.66191L9.37575 19.47V20.1571H6.14076L5.79732 19.2411H4.96705L4.59497 20.1571H2.93442V37.0757H37.0865V26.7985C36.7144 26.9703 36.199 27.0562 35.6837 27.0562H33.1931V26.7125C32.9069 26.9419 32.3914 27.0562 31.905 27.0562H24.0611V25.7681C24.0611 25.5963 24.0327 25.5963 23.8893 25.5963H23.7463V27.0562H21.1698V25.539C20.7406 25.7393 20.2538 25.7393 19.8244 25.7393H19.5381V27.0562H16.3892L15.645 26.1973L14.815 27.0562H9.74762V21.4456H14.9005L15.6448 22.3041L16.4465 21.4456H19.9103C20.3108 21.4456 20.9695 21.5027 21.2557 21.7888V21.4456H24.3473C24.6623 21.4456 25.2637 21.5027 25.6642 21.7888V21.4456H30.3304V21.789C30.5881 21.5599 31.075 21.4458 31.5041 21.4458H34.1091V21.789C34.3956 21.5888 34.7961 21.4458 35.3116 21.4458H37.0865V2.78076Z" fill="#0077A6"/>
</svg>
