<svg width="80" height="24" viewBox="0 0 80 24" fill="none" xmlns="http://www.w3.org/2000/svg">
<path fill-rule="evenodd" clip-rule="evenodd" d="M49.4544 18.7694C44.839 22.182 38.1257 24.0001 32.3355 24.0001C24.2235 24.0001 16.9508 21.0071 11.4123 16.0281C10.9927 15.6365 11.3563 15.105 11.8878 15.4127C17.8459 18.8812 25.2026 20.9512 32.811 20.9512C37.9299 20.9512 43.5803 19.8882 48.7831 17.6784C49.5663 17.3707 50.2097 18.2099 49.4544 18.7694Z" fill="#FF9900"/>
<path fill-rule="evenodd" clip-rule="evenodd" d="M51.3844 16.5594C50.797 15.8041 47.4683 16.1957 45.9858 16.3915C45.5383 16.4475 45.4544 16.0559 45.8739 15.7761C48.5313 13.902 52.867 14.4615 53.3705 15.0768C53.8739 15.6922 53.2306 20.0559 50.7411 22.1258C50.3495 22.4335 49.9858 22.2656 50.1537 21.8461C50.7131 20.4475 51.9719 17.3426 51.3844 16.5594Z" fill="#FF9900"/>
<path fill-rule="evenodd" clip-rule="evenodd" d="M46.0698 2.62936V0.811185C46.0698 0.531465 46.2656 0.363632 46.5173 0.363632H54.6292C54.8809 0.363632 55.1047 0.559437 55.1047 0.811185V2.34964C55.1047 2.60139 54.8809 2.93705 54.4893 3.49649L50.2935 9.48249C51.86 9.45451 53.5103 9.67829 54.9089 10.4615C55.2166 10.6293 55.3005 10.9091 55.3285 11.1608V13.0909C55.3285 13.3706 55.0488 13.6783 54.7411 13.5104C52.2516 12.1958 48.9229 12.0559 46.1817 13.5384C45.902 13.6783 45.5943 13.3986 45.5943 13.1188V11.2727C45.5943 10.993 45.5943 10.4895 45.902 10.0419L50.7691 3.07691H46.5453C46.2936 3.07691 46.0698 2.88111 46.0698 2.62936ZM16.5034 13.9021H14.0419C13.8181 13.8741 13.6223 13.7062 13.5944 13.4825V0.839158C13.5944 0.587411 13.8181 0.391605 14.0699 0.391605H16.3636C16.6153 0.391605 16.7832 0.587409 16.8111 0.811185V2.46153H16.8671C17.4545 0.867127 18.6013 0.111886 20.1118 0.111886C21.6503 0.111886 22.6293 0.867127 23.3006 2.46153C23.888 0.867127 25.2587 0.111886 26.7132 0.111886C27.7482 0.111886 28.867 0.531465 29.5663 1.51048C30.3496 2.57342 30.1817 4.11188 30.1817 5.4825V13.4825C30.1817 13.7342 29.958 13.93 29.7062 13.93H27.2726C27.0209 13.9021 26.8251 13.7062 26.8251 13.4825V6.7692C26.8251 6.23774 26.881 4.89508 26.7692 4.39159C26.5733 3.55243 26.0419 3.30069 25.3146 3.30069C24.7272 3.30069 24.0838 3.6923 23.8321 4.33565C23.5803 4.97901 23.6083 6.04193 23.6083 6.7692V13.4825C23.6083 13.7342 23.3845 13.93 23.1328 13.93H20.6713C20.4195 13.9021 20.2237 13.7062 20.2237 13.4825V6.7692C20.2237 5.37061 20.4475 3.27271 18.7132 3.27271C16.951 3.27271 17.0069 5.28669 17.0069 6.7692V13.4825C16.979 13.7062 16.7832 13.9021 16.5034 13.9021ZM62.0977 0.111886C65.762 0.111886 67.748 3.24474 67.748 7.24473C67.748 11.1049 65.5662 14.1818 62.0977 14.1818C58.5173 14.1818 56.5593 11.0489 56.5593 7.13284C56.5313 3.1888 58.5173 0.111886 62.0977 0.111886ZM62.0977 2.71327C60.2795 2.71327 60.1676 5.20278 60.1676 6.74124C60.1676 8.2797 60.1397 11.5804 62.0697 11.5804C63.9718 11.5804 64.0837 8.92305 64.0837 7.30068C64.0837 6.23774 64.0278 4.95104 63.7201 3.94405C63.4404 3.04894 62.8809 2.71327 62.0977 2.71327ZM72.4753 13.9021H70.0138C69.762 13.8741 69.5662 13.6783 69.5662 13.4545V0.783211C69.5942 0.559435 69.79 0.363632 70.0417 0.363632H72.3354C72.5592 0.363632 72.7271 0.531469 72.783 0.727272V2.65733H72.8389C73.5382 0.923074 74.4893 0.111886 76.1956 0.111886C77.2865 0.111886 78.3774 0.50349 79.0767 1.5944C79.72 2.60139 79.72 4.30768 79.72 5.53844V13.5104C79.6921 13.7342 79.4963 13.9021 79.2445 13.9021H76.783C76.5592 13.8741 76.3634 13.7062 76.3354 13.5104V6.62934C76.3354 5.23075 76.5033 3.21677 74.797 3.21677C74.2096 3.21677 73.6501 3.60838 73.3704 4.22376C73.0347 5.00698 72.9788 5.76221 72.9788 6.62934V13.4545C72.9508 13.7063 72.7271 13.9021 72.4753 13.9021ZM39.6083 7.86012C39.6083 8.81116 39.6362 9.62235 39.1607 10.4895C38.7691 11.1888 38.1537 11.6084 37.4544 11.6084C36.5034 11.6084 35.9439 10.8811 35.9439 9.81815C35.9439 7.72026 37.8181 7.32864 39.6083 7.32864V7.86012ZM42.0978 13.8741C41.9299 14.0139 41.7062 14.0419 41.5104 13.93C40.6992 13.2587 40.5313 12.923 40.0838 12.2797C38.7411 13.6503 37.7621 14.0699 36.0279 14.0699C33.9579 14.0699 32.3356 12.7832 32.3356 10.2377C32.3356 8.22375 33.4265 6.88109 34.9649 6.20977C36.3076 5.62235 38.1817 5.51047 39.6083 5.34264V5.03495C39.6083 4.44754 39.6642 3.74824 39.3006 3.24475C38.9929 2.7972 38.4334 2.60139 37.93 2.60139C36.9789 2.60139 36.1397 3.07692 35.9439 4.08391C35.888 4.30768 35.7481 4.53145 35.5244 4.53145L33.1468 4.2797C32.9509 4.22376 32.7272 4.0839 32.7831 3.77621C33.3426 0.86713 35.9439 0 38.2936 0C39.4964 0 41.0628 0.30769 42.0139 1.23076C43.2167 2.34964 43.1048 3.86013 43.1048 5.4825V9.31465C43.1048 10.4615 43.5803 10.965 44.0278 11.6084C44.1957 11.8321 44.2236 12.1118 44.0278 12.2517C43.4964 12.6713 42.6013 13.4545 42.0978 13.8741ZM7.30068 7.86012C7.30068 8.81116 7.32865 9.62235 6.85313 10.4895C6.46152 11.1888 5.84613 11.6084 5.14684 11.6084C4.19579 11.6084 3.63635 10.8811 3.63635 9.81815C3.63635 7.72026 5.51047 7.32864 7.30068 7.32864V7.86012ZM9.76221 13.8741C9.59437 14.0139 9.3706 14.0419 9.1748 13.93C8.36361 13.2587 8.19578 12.923 7.74823 12.2797C6.40557 13.6503 5.42656 14.0699 3.6923 14.0699C1.62237 14.0699 0 12.7832 0 10.2377C0 8.22375 1.0909 6.88109 2.62936 6.20977C3.97201 5.62235 5.84614 5.51047 7.2727 5.34264V5.03495C7.2727 4.44754 7.32865 3.74824 6.96501 3.24475C6.65732 2.7972 6.09788 2.60139 5.59439 2.60139C4.64334 2.60139 3.80418 3.07692 3.60838 4.08391C3.55243 4.30768 3.41258 4.53145 3.1888 4.53145L0.811185 4.2797C0.615381 4.22376 0.391609 4.0839 0.447553 3.77621C1.00699 0.86713 3.60838 0 5.95802 0C7.16082 0 8.72725 0.30769 9.67829 1.23076C10.8811 2.34964 10.7692 3.86013 10.7692 5.4825V9.31465C10.7692 10.4615 11.2447 10.965 11.6923 11.6084C11.8601 11.8321 11.8881 12.1118 11.6923 12.2517C11.1608 12.6713 10.2657 13.4545 9.76221 13.8741Z" fill="black"/>
</svg>
