<svg width="35" height="40" viewBox="0 0 35 40" fill="none" xmlns="http://www.w3.org/2000/svg">
<path d="M17.0251 9.67773C19.2342 9.67773 21.1722 8.81507 22.8389 7.08973C24.5057 5.36438 25.3392 3.35811 25.3392 1.07091C25.3392 0.819705 25.3193 0.462737 25.2796 0C24.9886 0.0396632 24.7703 0.0727158 24.6248 0.0991579C22.5876 0.390021 20.7952 1.38821 19.2474 3.09368C17.6997 4.7992 16.9259 6.62371 16.9259 8.5672C16.9259 8.79192 16.9589 9.16215 17.0251 9.67773ZM24.9423 40C26.5165 40 28.256 38.9225 30.1609 36.7675C32.0659 34.6125 33.5209 32.0806 34.5263 29.172C30.7827 27.2418 28.9108 24.472 28.9108 20.8627C28.9108 17.8483 30.4255 15.2702 33.4548 13.1284C31.3515 10.4974 28.5735 9.18194 25.1209 9.18194C23.6657 9.18194 22.3363 9.40008 21.1325 9.83638L20.3785 10.114L19.3665 10.5107C18.7051 10.7619 18.1032 10.8875 17.5608 10.8875C17.1375 10.8875 16.5819 10.742 15.894 10.4512L15.1201 10.1339L14.386 9.83638C13.3144 9.38686 12.1636 9.16211 10.9333 9.16211C7.63945 9.16211 4.99377 10.2727 2.99625 12.4938C0.998737 14.7149 0 17.6434 0 21.2791C0 26.3956 1.60063 31.1222 4.80194 35.4586C7.02434 38.4862 9.05491 40 10.8936 40C11.6741 40 12.448 39.848 13.2152 39.5439L14.1875 39.1472L14.9614 38.8696C16.0461 38.4862 17.0449 38.2945 17.9576 38.2945C18.9233 38.2945 20.0345 38.5391 21.2912 39.0283L21.9064 39.2662C23.1895 39.7554 24.2015 40 24.9423 40Z" fill="black"/>
</svg>
