<svg width="34" height="24" viewBox="0 0 34 24" fill="none" xmlns="http://www.w3.org/2000/svg">
<rect width="33.6" height="24" rx="2" fill="white"/>
<mask id="mask0_170_601" style="mask-type:alpha" maskUnits="userSpaceOnUse" x="0" y="0" width="34" height="24">
<rect width="33.6" height="24" rx="2" fill="white"/>
</mask>
<g mask="url(#mask0_170_601)">
<rect width="33.6" height="24" fill="#0A17A7"/>
<path d="M0 -0.333333H-0.901086L-0.21693 0.253086L5.26667 4.95331V6.22846L-0.193746 10.1288L-0.333333 10.2285V10.4V11.2V11.8014L0.176666 11.4827L6.4956 7.53333H7.89318L13.3373 11.422L13.531 11.1507L13.3373 11.422C13.4387 11.4944 13.5602 11.5333 13.6848 11.5333C14.2399 11.5333 14.4954 10.8427 14.0739 10.4815L9.13333 6.24669V4.97154L14.4542 1.17095C14.6294 1.04581 14.7333 0.843759 14.7333 0.628461V0V-0.601416L14.2233 -0.282666L7.9044 3.66667H6.50682L0.993746 -0.271245L0.906822 -0.333333H0.8H0Z" fill="#FF2E3B" stroke="white" stroke-width="0.666667"/>
<path fill-rule="evenodd" clip-rule="evenodd" d="M0 4V7.2H5.6V11.3333C5.6 11.7015 5.89848 12 6.26667 12H8.13333C8.50152 12 8.8 11.7015 8.8 11.3333V7.2H14.5333C14.9015 7.2 15.2 6.90152 15.2 6.53333V4.66667C15.2 4.29848 14.9015 4 14.5333 4H8.8V0H5.6V4H0Z" fill="url(#paint0_linear_170_601)"/>
<path fill-rule="evenodd" clip-rule="evenodd" d="M0 4.8H6.4V4V0H8V4V4.8H14.4V6.4H8V7.2V11.2H6.4V7.2V6.4H0V4.8Z" fill="url(#paint1_linear_170_601)"/>
<path fill-rule="evenodd" clip-rule="evenodd" d="M7.20005 19.6L5.78936 20.3416L6.05878 18.7708L4.91751 17.6584L6.49471 17.4292L7.20005 16L7.90539 17.4292L9.48258 17.6584L8.34132 18.7708L8.61073 20.3416L7.20005 19.6Z" fill="white"/>
<path fill-rule="evenodd" clip-rule="evenodd" d="M23.9999 20.7999L22.8685 21.1313L23.1999 19.9999L22.8685 18.8685L23.9999 19.1999L25.1313 18.8685L24.7999 19.9999L25.1313 21.1313L23.9999 20.7999Z" fill="white"/>
<path fill-rule="evenodd" clip-rule="evenodd" d="M23.9999 5.60019L22.8685 5.93157L23.1999 4.8002L22.8685 3.66882L23.9999 4.0002L25.1313 3.66882L24.7999 4.8002L25.1313 5.93157L23.9999 5.60019Z" fill="white"/>
<path fill-rule="evenodd" clip-rule="evenodd" d="M28.8 10.4L27.6686 10.7314L28 9.6L27.6686 8.46863L28.8 8.8L29.9313 8.46863L29.6 9.6L29.9313 10.7314L28.8 10.4Z" fill="white"/>
<path fill-rule="evenodd" clip-rule="evenodd" d="M19.2001 12.0001L18.0687 12.3315L18.4001 11.2001L18.0687 10.0687L19.2001 10.4001L20.3315 10.0687L20.0001 11.2001L20.3315 12.3315L19.2001 12.0001Z" fill="white"/>
<path fill-rule="evenodd" clip-rule="evenodd" d="M26.4001 13.9998L25.8344 14.1655L26.0001 13.5998L25.8344 13.0341L26.4001 13.1998L26.9658 13.0341L26.8001 13.5998L26.9658 14.1655L26.4001 13.9998Z" fill="white"/>
</g>
<defs>
<linearGradient id="paint0_linear_170_601" x1="0" y1="0" x2="0" y2="12" gradientUnits="userSpaceOnUse">
<stop stop-color="white"/>
<stop offset="1" stop-color="#F0F0F0"/>
</linearGradient>
<linearGradient id="paint1_linear_170_601" x1="0" y1="0" x2="0" y2="11.2" gradientUnits="userSpaceOnUse">
<stop stop-color="#FF2E3B"/>
<stop offset="1" stop-color="#FC0D1B"/>
</linearGradient>
</defs>
</svg>
