<svg width="40" height="40" viewBox="0 0 40 40" fill="none" xmlns="http://www.w3.org/2000/svg">
<path d="M39.3974 24.8384C36.7261 35.5527 25.8737 42.0727 15.1581 39.4014C4.44753 36.7302 -2.07307 25.8777 0.598794 15.164C3.26878 4.44847 14.1206 -2.07274 24.833 0.598494C35.548 3.26973 42.068 14.1234 39.3967 24.8384H39.3974Z" fill="#F7931A"/>
<path d="M28.816 17.1506C29.2135 14.4893 27.1872 13.0587 24.4166 12.1043L25.3154 8.49937L23.1204 7.9525L22.2454 11.4625C21.6691 11.3187 21.0766 11.1831 20.4879 11.0487L21.3691 7.51562L19.176 6.96875L18.2766 10.5725C17.7991 10.4637 17.3304 10.3562 16.8754 10.2431L16.8779 10.2319L13.8517 9.47624L13.2679 11.82C13.2679 11.82 14.896 12.1931 14.8617 12.2162C15.7504 12.4381 15.9117 13.0262 15.8842 13.4925L14.8604 17.5993C14.9217 17.6149 15.001 17.6374 15.0885 17.6724L14.8573 17.6149L13.4217 23.368C13.3129 23.638 13.0373 24.043 12.4161 23.8893C12.4379 23.9212 10.8211 23.4912 10.8211 23.4912L9.73169 26.0037L12.5879 26.7155C13.1192 26.8486 13.6398 26.988 14.1517 27.1193L13.2435 30.7661L15.4354 31.313L16.3354 27.7055C16.9335 27.868 17.5148 28.018 18.0835 28.1593L17.1873 31.7499L19.3816 32.2967L20.2898 28.6574C24.0316 29.3655 26.846 29.0799 28.0291 25.6962C28.9835 22.9712 27.9822 21.3993 26.0135 20.3737C27.4472 20.0418 28.5278 19.0987 28.816 17.1506ZM23.8016 24.1812C23.1229 26.9061 18.5354 25.4337 17.0473 25.0637L18.2523 20.2331C19.7398 20.6043 24.5085 21.3393 23.8016 24.1812ZM24.4797 17.1112C23.861 19.5899 20.0423 18.3306 18.8029 18.0218L19.8954 13.6406C21.1348 13.9493 25.1247 14.5256 24.4797 17.1112Z" fill="white"/>
</svg>
