<svg width="16" height="16" viewBox="0 0 16 16" fill="none" xmlns="http://www.w3.org/2000/svg">
<path d="M12.6667 2.66683H12V1.3335H10.6667V2.66683H5.33333V1.3335H4V2.66683H3.33333C2.97971 2.66683 2.64057 2.80731 2.39052 3.05735C2.14048 3.3074 2 3.64654 2 4.00016V13.3335C2 13.6871 2.14048 14.0263 2.39052 14.2763C2.64057 14.5264 2.97971 14.6668 3.33333 14.6668H12.6667C13.0203 14.6668 13.3594 14.5264 13.6095 14.2763C13.8595 14.0263 14 13.6871 14 13.3335V4.00016C14 3.64654 13.8595 3.3074 13.6095 3.05735C13.3594 2.80731 13.0203 2.66683 12.6667 2.66683ZM12.6667 13.3335H3.33333V6.66683H12.6667V13.3335ZM3.33333 5.3335V4.00016H12.6667V5.3335H3.33333ZM4.66667 8.00016H11.3333V9.3335H4.66667V8.00016ZM4.66667 10.6668H9.33333V12.0002H4.66667V10.6668Z" fill="#7D2D80"/>
</svg>
