<svg width="16" height="16" viewBox="0 0 16 16" fill="none" xmlns="http://www.w3.org/2000/svg">
<g clip-path="url(#clip0_97_2609)">
<path d="M3.33333 10.3933L4.27333 11.3333L6.66667 8.94L9.06 11.3333L10 10.3933L7.60667 8L10 5.60667L9.06 4.66667L6.66667 7.06L4.27333 4.66667L3.33333 5.60667L5.72667 8L3.33333 10.3933ZM1.33333 2C0.979711 2 0.640573 2.14048 0.390524 2.39052C0.140476 2.64057 0 2.97971 0 3.33333L0 12.6667C0 13.0203 0.140476 13.3594 0.390524 13.6095C0.640573 13.8595 0.979711 14 1.33333 14H11.3333C11.7933 14 12.1533 13.76 12.3933 13.4067L16 8L12.3933 2.58667C12.1533 2.23333 11.7933 2 11.3333 2H1.33333ZM1.33333 3.33333H11.3333L14.48 8L11.3333 12.6667H1.33333V3.33333Z" fill="#7D2D80"/>
</g>
<defs>
<clipPath id="clip0_97_2609">
<rect width="16" height="16" fill="white"/>
</clipPath>
</defs>
</svg>
