<svg width="80" height="80" viewBox="0 0 80 80" fill="none" xmlns="http://www.w3.org/2000/svg">
<circle cx="40" cy="40" r="40" fill="#F8F3F9"/>
<path d="M41.8142 44.1274C42.2534 44.042 42.6438 43.9383 42.9305 43.8285C43.1684 43.7431 43.3453 43.6394 43.4063 43.5845C43.5344 43.4687 43.6564 43.2918 43.7357 43.0722C43.8211 42.8526 43.8638 42.5903 43.8638 42.3158C43.8638 41.8034 43.6991 41.2544 43.327 40.8152C43.0037 40.437 42.5218 40.132 41.8081 40.01C41.8142 41.4191 41.8142 42.8099 41.8142 44.1274Z" fill="white"/>
<path d="M37.2392 44.6456C36.5133 44.4382 35.8728 44.1027 35.4519 43.5598C35.1713 43.1999 35.0005 42.7546 34.9761 42.2361C34.97 42.1568 34.97 42.0775 34.97 41.9982C34.97 41.1809 35.153 40.577 35.458 40.15C35.763 39.723 36.1778 39.4851 36.5804 39.3753C36.8488 39.3021 37.105 39.2777 37.3368 39.2777C37.8065 39.2777 38.1481 39.3753 38.1664 39.3814C38.2945 39.418 38.386 39.5339 38.386 39.6681V44.2613C38.7764 44.3101 39.1851 44.3345 39.5938 44.3345C40.1488 44.3345 40.7039 44.2918 41.2102 44.2247C41.2102 42.7729 41.2102 41.2297 41.2102 39.6742C41.2102 39.5888 41.2468 39.5095 41.3078 39.4546C41.3688 39.3997 41.4542 39.3692 41.5335 39.3753C42.5583 39.4607 43.3086 39.8694 43.7844 40.4306C44.2602 40.9918 44.4615 41.681 44.4615 42.3154C44.4615 42.657 44.4066 42.9864 44.2968 43.2792C44.187 43.572 44.0223 43.8343 43.8027 44.0295C43.638 44.1759 43.4184 44.2857 43.1378 44.3894C42.8633 44.4931 42.5278 44.5846 42.1557 44.6639C42.0459 44.6883 41.9239 44.7127 41.808 44.731C41.808 47.9334 41.808 50.5991 41.808 51.7764H44.6384C44.6506 51.7581 44.6628 51.7398 44.675 51.7215C44.7543 51.5934 44.8702 51.3982 45.0166 51.1603C45.3033 50.6784 45.7119 49.9891 46.1755 49.1839C47.1088 47.5674 48.2739 45.4691 49.2255 43.5293C49.8599 42.2361 50.3967 41.0162 50.6956 40.0707C50.8664 39.5339 50.9579 39.0825 50.9579 38.7897C50.9579 35.6849 49.7013 32.8789 47.67 30.8477C45.6388 28.8164 42.8328 27.5598 39.728 27.5598C36.6231 27.5598 33.8172 28.8164 31.7859 30.8477C29.7546 32.8789 28.498 35.6849 28.498 38.7897C28.498 39.0642 28.5773 39.479 28.7298 39.9731C28.8823 40.4672 29.1019 41.0467 29.3703 41.675C29.9071 42.9315 30.633 44.3772 31.3833 45.7863C32.8656 48.5617 34.4332 51.1664 34.8114 51.7886H37.7821V44.7737C37.5991 44.7371 37.4161 44.6944 37.2392 44.6456Z" fill="white"/>
<path d="M41.21 51.7832C41.21 50.6181 41.21 47.9891 41.21 44.8293C40.6976 44.8964 40.1486 44.933 39.5936 44.933C39.191 44.933 38.7823 44.9147 38.3858 44.8659V51.7832H39.7339H41.21ZM37.3366 39.8762C37.056 39.8762 36.7327 39.925 36.4521 40.0653C36.1715 40.2117 35.9275 40.4374 35.7567 40.8583C35.6469 41.1389 35.5737 41.511 35.5737 41.999C35.5737 42.0661 35.5737 42.1393 35.5798 42.2125C35.5981 42.6151 35.7201 42.9262 35.9275 43.1885C36.1349 43.4508 36.4338 43.6704 36.8059 43.8412C37.0987 43.9754 37.4342 44.0791 37.7941 44.1584V39.9128C37.666 39.8945 37.5135 39.8762 37.3366 39.8762Z" fill="white"/>
<path d="M28.1932 40.2541C28.5104 41.2483 29.0533 42.4866 29.6938 43.792C31.4749 47.4275 33.9942 51.5815 34.348 52.1671V52.0817C34.348 52.0024 34.3785 51.9231 34.4334 51.8682C34.4883 51.8133 34.5676 51.7828 34.6469 51.7828H37.7822H34.8116C34.4334 51.1606 32.8596 48.556 31.3834 45.7806C30.6331 44.3776 29.9072 42.9258 29.3705 41.6692C29.1021 41.0409 28.8825 40.4675 28.73 39.9674C28.5775 39.4733 28.4982 39.0585 28.4982 38.784C28.4982 35.6791 29.7548 32.8732 31.786 30.8419C33.8173 28.8107 36.6232 27.5541 39.7281 27.5541C42.8329 27.5541 45.6389 28.8107 47.6701 30.8419C49.7014 32.8732 50.958 35.6791 50.958 38.784C50.958 39.0768 50.8665 39.5282 50.6957 40.065C50.3968 41.0104 49.86 42.2304 49.2256 43.5236C48.274 45.4634 47.1089 47.5617 46.1756 49.1782C45.7121 49.9834 45.3034 50.6727 45.0167 51.1545C44.8703 51.3985 44.7544 51.5876 44.6751 51.7157C44.6629 51.7401 44.6507 51.7523 44.6385 51.7706H41.8081H44.7483C44.8276 51.7706 44.9069 51.8011 44.9618 51.856C45.0167 51.9109 45.0472 51.9902 45.0472 52.0695V52.2464C45.0533 52.2403 45.0594 52.2342 45.0594 52.2281C45.0594 52.2281 46.6758 49.5991 48.2923 46.6162C49.1036 45.1218 49.9088 43.548 50.5188 42.1572C50.8238 41.4618 51.08 40.8152 51.263 40.248C51.446 39.6746 51.5558 39.1866 51.5558 38.784C51.5558 32.251 46.261 26.9563 39.7281 26.9563C33.1951 26.9563 27.9004 32.251 27.9004 38.784C27.9065 39.1927 28.0102 39.6807 28.1932 40.2541Z" fill="#7D2D80"/>
<path d="M41.5154 52.7342C41.3507 52.7342 41.2165 52.6 41.2165 52.4353C41.2165 52.4353 41.2165 52.417 41.2165 52.3804H38.3922V53.2649C38.3922 53.4296 38.258 53.5638 38.0933 53.5638C37.9286 53.5638 37.7945 53.4296 37.7945 53.2649V52.3804H34.958V54.1493H44.4616V52.3804H41.8204C41.8204 52.4109 41.8204 52.4353 41.8204 52.4353C41.8143 52.6 41.6801 52.7342 41.5154 52.7342Z" fill="#7D2D80"/>
<path d="M34.6529 54.1553H34.9518V52.3864H37.7882V51.7886H34.6529C34.5736 51.7886 34.4943 51.8191 34.4394 51.874C34.3845 51.9289 34.354 52.0082 34.354 52.0875V52.1729V54.4603C34.354 54.381 34.3845 54.3017 34.4394 54.2468C34.4943 54.1858 34.5736 54.1553 34.6529 54.1553ZM44.9678 51.8679C44.9129 51.813 44.8336 51.7825 44.7543 51.7825H41.8141C41.8141 52.0875 41.8141 52.2949 41.8141 52.3803H44.4554V54.1492H44.7543C44.8336 54.1492 44.9129 54.1797 44.9678 54.2346C45.0227 54.2895 45.0532 54.3688 45.0532 54.4481V52.2522V52.0753C45.0532 52.0021 45.0227 51.9289 44.9678 51.8679ZM41.2103 51.7825H38.386V52.3803H41.2103C41.2103 52.2949 41.2103 52.0875 41.2103 51.7825Z" fill="#7D2D80"/>
<path d="M44.3882 56.6014C44.4309 56.3452 44.4553 56.0769 44.4553 55.8024V54.7532H34.9517V55.8085C34.9517 56.083 34.9761 56.3452 35.0188 56.6075H44.3882V56.6014Z" fill="white"/>
<path d="M44.7543 54.1545H44.4554H34.9518H34.6529C34.5736 54.1545 34.4943 54.185 34.4394 54.2399C34.3845 54.2948 34.354 54.3741 34.354 54.4534V55.8076C34.354 55.7283 34.3845 55.649 34.4394 55.5941C34.4943 55.5392 34.5736 55.5087 34.6529 55.5087C34.7322 55.5087 34.8115 55.5392 34.8664 55.5941C34.9213 55.649 34.9518 55.7283 34.9518 55.8076V54.7523H44.4554V55.8076C44.4554 55.7283 44.4859 55.649 44.5408 55.5941C44.5957 55.5392 44.675 55.5087 44.7543 55.5087C44.8336 55.5087 44.9129 55.5392 44.9678 55.5941C45.0227 55.649 45.0532 55.7283 45.0532 55.8076V54.4534C45.0532 54.3741 45.0227 54.2948 44.9678 54.2399C44.9129 54.185 44.8336 54.1545 44.7543 54.1545Z" fill="#7D2D80"/>
<path d="M34.4394 56.6927C34.4943 56.6378 34.5736 56.6073 34.6529 56.6073H34.7749H35.0189C34.9762 56.3511 34.9518 56.0827 34.9518 55.8082C34.9518 55.7289 34.9213 55.6496 34.8664 55.5947C34.8115 55.5398 34.7322 55.5093 34.6529 55.5093C34.5736 55.5093 34.4943 55.5398 34.4394 55.5947C34.3845 55.6496 34.354 55.7289 34.354 55.8082V56.9061C34.354 56.8207 34.3845 56.7476 34.4394 56.6927ZM44.7543 55.5032C44.675 55.5032 44.5957 55.5337 44.5408 55.5886C44.4859 55.6435 44.4554 55.7228 44.4554 55.8021C44.4554 56.0766 44.431 56.3389 44.3883 56.6012H44.6323H44.7543C44.8336 56.6012 44.9129 56.6317 44.9678 56.6866C45.0227 56.7415 45.0532 56.8208 45.0532 56.9001V55.8021C45.0532 55.7228 45.0227 55.6435 44.9678 55.5886C44.9129 55.5398 44.8336 55.5032 44.7543 55.5032ZM44.4554 57.1989H34.9518V58.7605C34.9518 60.0415 35.4703 61.2005 36.3121 62.0423C37.1538 62.884 38.3067 63.4025 39.5938 63.4025H39.8256C41.1066 63.4025 42.2656 62.884 43.1073 62.0423C43.9491 61.2005 44.4676 60.0476 44.4676 58.7605V57.1989H44.4554Z" fill="#7D2D80"/>
<path d="M44.9678 56.6923C44.9129 56.6374 44.8336 56.6069 44.7543 56.6069H44.6323H44.3883H35.0189H34.7749H34.6529C34.5736 56.6069 34.4943 56.6374 34.4394 56.6923C34.3845 56.7472 34.354 56.8265 34.354 56.9058V58.7663C34.354 61.6576 36.6963 64 39.5877 64H39.8195C42.7108 64 45.0532 61.6576 45.0593 58.7663V56.9058C45.0532 56.8204 45.0227 56.7472 44.9678 56.6923ZM39.8195 63.4022H39.5877C38.3067 63.4022 37.1477 62.8837 36.306 62.0419C35.4642 61.2002 34.9457 60.0473 34.9457 58.7602V57.1986H44.4493V58.7602C44.4493 60.0412 43.9308 61.2002 43.089 62.0419C42.2533 62.8837 41.1005 63.4022 39.8195 63.4022ZM37.7882 52.3797V53.2642C37.7882 53.4289 37.9224 53.5631 38.0871 53.5631C38.2518 53.5631 38.386 53.4289 38.386 53.2642V52.3797V51.7819V44.8647C38.7825 44.9135 39.1912 44.9318 39.5938 44.9318C40.1489 44.9318 40.6979 44.8952 41.2103 44.8281C41.2103 47.9878 41.2103 50.6108 41.2103 51.7819C41.2103 52.0869 41.2103 52.2943 41.2103 52.3797C41.2103 52.4102 41.2103 52.4346 41.2103 52.4346C41.2103 52.5993 41.3445 52.7335 41.5092 52.7335C41.6738 52.7335 41.8081 52.5993 41.8081 52.4346C41.8081 52.4346 41.8081 52.4163 41.8081 52.3797C41.8081 52.2882 41.8081 52.0869 41.8081 51.7819C41.8081 50.6047 41.8081 47.939 41.8081 44.7366C41.9301 44.7122 42.046 44.6939 42.1558 44.6695C42.5278 44.5902 42.8572 44.4987 43.1378 44.395C43.4123 44.2913 43.6319 44.1815 43.8027 44.0351C44.0223 43.8399 44.187 43.5776 44.2968 43.2848C44.4066 42.992 44.4615 42.6626 44.4615 42.321C44.4615 41.6805 44.2602 40.9912 43.7844 40.4361C43.3086 39.875 42.5584 39.4663 41.5336 39.3809C41.4482 39.3748 41.3689 39.3992 41.3079 39.4602C41.2469 39.5151 41.2103 39.6005 41.2103 39.6798C41.2103 41.2413 41.2103 42.7846 41.2103 44.2303C40.6979 44.2974 40.1489 44.3401 39.5938 44.3401C39.1851 44.3401 38.7764 44.3157 38.386 44.2669V39.6737C38.386 39.5395 38.2945 39.4236 38.1664 39.387C38.1481 39.3809 37.8065 39.2833 37.3368 39.2833C37.105 39.2833 36.8489 39.3077 36.5805 39.3809C36.184 39.4907 35.7631 39.7225 35.4581 40.1556C35.1531 40.5825 34.9701 41.1864 34.9701 42.0038C34.9701 42.0831 34.9701 42.1624 34.9762 42.2417C34.9945 42.7602 35.1653 43.2055 35.452 43.5654C35.8729 44.1022 36.5195 44.4377 37.2392 44.6512C37.4161 44.7 37.5991 44.7427 37.7882 44.7793V51.788V52.3797ZM43.333 40.8143C43.7051 41.2474 43.8698 41.7964 43.8698 42.3149C43.8698 42.5894 43.821 42.8517 43.7417 43.0713C43.6624 43.2909 43.5404 43.4678 43.4123 43.5837C43.3513 43.6447 43.1744 43.7423 42.9365 43.8277C42.6499 43.9375 42.2595 44.0412 41.8203 44.1266C41.8203 42.809 41.8203 41.4182 41.8203 40.0092C42.5217 40.1372 43.0036 40.4361 43.333 40.8143ZM36.8001 43.846C36.428 43.6752 36.1291 43.4556 35.9217 43.1933C35.7143 42.9249 35.5923 42.6138 35.574 42.2173C35.574 42.1441 35.5679 42.0709 35.5679 42.0038C35.5679 41.5158 35.6411 41.1437 35.7509 40.8631C35.9217 40.4422 36.1657 40.2165 36.4462 40.0701C36.7268 39.9299 37.0501 39.8811 37.3307 39.8811C37.5076 39.8811 37.6601 39.8994 37.7821 39.9177V44.1632C37.4283 44.0839 37.0928 43.9802 36.8001 43.846ZM51.4581 29.4137L57.619 24.2043C57.7471 24.0945 57.7593 23.9116 57.6556 23.7835C57.5458 23.6554 57.3628 23.6432 57.2347 23.7469L51.0738 28.9562C50.9457 29.066 50.9335 29.249 51.0372 29.3771C51.1409 29.5051 51.33 29.5173 51.4581 29.4137ZM56.5759 39.5761C56.5759 39.7408 56.7101 39.875 56.8748 39.875H62.1756C62.3403 39.875 62.4745 39.7408 62.4745 39.5761C62.4745 39.4114 62.3403 39.2772 62.1756 39.2772H56.8748C56.7101 39.2772 56.5759 39.4114 56.5759 39.5761ZM51.9949 48.0732C51.879 48.1952 51.8851 48.3843 52.0071 48.4941L56.6674 52.8799C56.7894 52.9958 56.9785 52.9897 57.0883 52.8677C57.2042 52.7457 57.1981 52.5566 57.0761 52.4468L52.4158 48.061C52.2999 47.9512 52.1108 47.9573 51.9949 48.0732ZM28.0101 29.4137C28.1382 29.5234 28.3273 29.5051 28.431 29.3771C28.5408 29.249 28.5225 29.0599 28.3944 28.9562L22.2335 23.7469C22.1054 23.6371 21.9163 23.6554 21.8126 23.7835C21.7028 23.9116 21.7211 24.1006 21.8492 24.2043L28.0101 29.4137ZM18.2991 39.875H23.5999C23.7646 39.875 23.8988 39.7408 23.8988 39.5761C23.8988 39.4114 23.7646 39.2772 23.5999 39.2772H18.2991C18.1344 39.2772 18.0002 39.4114 18.0002 39.5761C17.9941 39.7408 18.1283 39.875 18.2991 39.875ZM27.0463 48.061L22.386 52.4468C22.264 52.5627 22.2579 52.7518 22.3738 52.8677C22.4897 52.9897 22.6788 52.9958 22.7947 52.8799L27.455 48.4941C27.577 48.3782 27.5831 48.1891 27.4672 48.0732C27.3574 47.9573 27.1622 47.9512 27.0463 48.061ZM39.7341 22.5391C39.8988 22.5391 40.033 22.4049 40.033 22.2402V16.2989C40.033 16.1342 39.8988 16 39.7341 16C39.5694 16 39.4352 16.1342 39.4352 16.2989V22.2402C39.4352 22.4049 39.5694 22.5391 39.7341 22.5391Z" fill="#7D2D80"/>
</svg>
