<svg width="24" height="24" viewBox="0 0 24 24" fill="none" xmlns="http://www.w3.org/2000/svg">
<path d="M19.1651 14.6198L20.2728 15.2594C20.3877 15.3257 20.5312 15.2428 20.5312 15.1103V7.35547C20.5312 7.0932 20.3751 6.86854 20.1514 6.76574C19.9505 6.62383 19.6781 6.60114 19.4513 6.73199L11.7666 11.1689L5.16149 7.35547L10.3226 4.37575C10.3682 4.34944 10.3964 4.30069 10.3964 4.24807V2.96882C10.3964 2.8363 10.2529 2.75343 10.138 2.81971L3.3616 6.73199C3.21228 6.81828 3.10327 6.96031 3.05862 7.12687C3.03853 7.20209 3.03414 7.27939 3.0413 7.35547C3.03418 7.43159 3.03853 7.50893 3.05862 7.58408C3.10327 7.75063 3.21228 7.89271 3.3616 7.97895L11.0466 12.4159V20.0427L5.90977 17.0769C5.86414 17.0506 5.80795 17.0506 5.76232 17.0769L4.65451 17.7165C4.53972 17.7828 4.53972 17.9486 4.65451 18.0148L11.4066 21.9131C11.509 21.9722 11.6209 22.0003 11.7312 22.0003C11.8683 22.0003 12.0028 21.9563 12.1144 21.8751C12.3338 21.7706 12.4865 21.5487 12.4865 21.2896V12.4158L19.0914 8.60239V14.492C19.0914 14.5447 19.1195 14.5933 19.1652 14.6197L19.1651 14.6198Z" fill="#240025" stroke="#240025" stroke-width="0.3"/>
<path d="M10.4295 12.8541L9.63717 12.3967L4.43987 15.3973V9.44024C4.43987 9.37933 4.40734 9.32293 4.35451 9.29244L3.28952 8.67754C3.16086 8.6032 3 8.69608 3 8.84466V16.6442C3 16.9034 3.15273 17.1252 3.37202 17.2298C3.48372 17.311 3.61828 17.3549 3.75531 17.3549C3.86559 17.3549 3.97753 17.3267 4.07988 17.2677L10.4295 13.6018V12.8541Z" fill="#240025" stroke="#240025" stroke-width="0.3"/>
<path d="M18.8344 5.9603L12.1248 2.08645C11.8983 1.9558 11.6263 1.97829 11.4254 2.11987C11.2014 2.22255 11.0449 2.44745 11.0449 2.70993V9.94057L11.8155 10.3854L12.4847 9.99908V3.95693L17.5986 6.90949C17.6514 6.93999 17.7165 6.93999 17.7693 6.90949L18.8343 6.29451C18.963 6.22026 18.963 6.03451 18.8343 5.9603H18.8344Z" fill="#240025" stroke="#240025" stroke-width="0.3"/>
<path d="M20.4724 16.4156C20.4278 16.2491 20.3187 16.107 20.1695 16.0207L13.8913 12.396L13.1017 12.8518V13.6028L18.3697 16.6442L13.1854 19.6374C13.1326 19.6678 13.1001 19.7242 13.1001 19.7851V21.015C13.1001 21.1635 13.261 21.2564 13.3895 21.1821L20.1695 17.2677C20.3187 17.1815 20.4278 17.0394 20.4724 16.8728C20.4925 16.7977 20.497 16.7204 20.4898 16.6442C20.497 16.5682 20.4926 16.4909 20.4724 16.4156Z" fill="#240025" stroke="#240025" stroke-width="0.3"/>
</svg>
