<svg width="40" height="40" viewBox="0 0 40 40" fill="none" xmlns="http://www.w3.org/2000/svg">
<path d="M20 40C31.0457 40 40 31.0457 40 20C40 8.95431 31.0457 0 20 0C8.95431 0 0 8.95431 0 20C0 31.0457 8.95431 40 20 40Z" fill="#2573C2"/>
<path d="M33.0517 14.7363C33.0249 14.2882 32.8934 13.8525 32.6677 13.4643C32.4677 13.0644 32.1117 12.7524 31.6957 12.5924C31.2715 12.3809 30.8015 12.2779 30.3277 12.2924H12.5756L11.3036 16.1043H27.3877L24.8477 23.8963H8.76761L7.49561 27.7082H25.3317C25.8631 27.6929 26.3886 27.5915 26.8877 27.4082C27.3877 27.1242 27.9597 26.8362 28.4437 26.4362C28.9162 26.0637 29.3432 25.6368 29.7157 25.1643C30.0237 24.7013 30.2862 24.2097 30.4997 23.6963L32.8557 16.2883C33.0701 15.8009 33.1382 15.2617 33.0517 14.7363Z" fill="white"/>
<path d="M17.6439 18.2324H8.17995L6.90796 21.7565H16.4679L17.6439 18.2324Z" fill="white"/>
</svg>
