<svg width="60" height="24" viewBox="0 0 60 24" fill="none" xmlns="http://www.w3.org/2000/svg">
<path d="M7.74531 5.23633C3.52052 5.23633 0 7.02846 0 12.436C0 16.7199 2.36733 19.4175 7.8542 19.4175C14.3127 19.4175 14.7266 15.1632 14.7266 15.1632H11.5973C11.5973 15.1632 10.9264 17.454 7.6634 17.454C5.00577 17.454 3.09437 15.6586 3.09437 13.1425H15.0541V11.5633C15.0541 9.07392 13.4737 5.23633 7.74531 5.23633ZM7.63602 7.25442C10.1658 7.25442 11.8904 8.8042 11.8904 11.127H3.1635C3.1635 8.66095 5.41474 7.25442 7.63602 7.25442Z" fill="#E53238"/>
<path d="M15.0521 0V16.702C15.0521 17.65 14.9844 18.9812 14.9844 18.9812H17.9691C17.9691 18.9812 18.0763 18.0252 18.0763 17.1513C18.0763 17.1513 19.551 19.4585 23.5608 19.4585C27.7832 19.4585 30.6514 16.5267 30.6514 12.3269C30.6514 8.41961 28.017 5.27709 23.5676 5.27709C19.4012 5.27709 18.1065 7.52694 18.1065 7.52694V0H15.0521ZM22.7972 7.34293C25.6646 7.34293 27.4881 9.47111 27.4881 12.3269C27.4881 15.3893 25.3821 17.3926 22.8178 17.3926C19.7574 17.3926 18.1065 15.0029 18.1065 12.3541C18.1065 9.88588 19.5878 7.34293 22.7972 7.34293Z" fill="#0064D2"/>
<path d="M38.0689 5.23633C31.7131 5.23633 31.3055 8.71629 31.3055 9.27251H34.469C34.469 9.27251 34.6348 7.24083 37.8507 7.24083C39.9403 7.24083 41.5597 8.19744 41.5597 10.0361V10.6906H37.8507C32.9268 10.6906 30.3237 12.1311 30.3237 15.0543C30.3237 17.9309 32.7288 19.496 35.9793 19.496C40.409 19.496 41.836 17.0484 41.836 17.0484C41.836 18.022 41.9109 18.9814 41.9109 18.9814H44.7232C44.7232 18.9814 44.6143 17.7922 44.6143 17.0314V10.4555C44.6143 6.14358 41.1363 5.23633 38.0689 5.23633ZM41.5597 12.6542V13.5269C41.5597 14.6651 40.8572 17.4949 36.7223 17.4949C34.458 17.4949 33.4872 16.3649 33.4872 15.0541C33.4872 12.6696 36.7564 12.6542 41.5597 12.6542Z" fill="#F5AF02"/>
<path d="M42.9106 5.78223H46.4695L51.5772 16.0151L56.6731 5.78223H59.8971L50.615 24H47.2331L49.9115 18.9215L42.9106 5.78223Z" fill="#86B817"/>
</svg>
