<svg width="34" height="24" viewBox="0 0 34 24" fill="none" xmlns="http://www.w3.org/2000/svg">
<rect width="33.6" height="24" rx="2" fill="white"/>
<mask id="mask0_170_616" style="mask-type:alpha" maskUnits="userSpaceOnUse" x="0" y="0" width="34" height="24">
<rect width="33.6" height="24" rx="2" fill="white"/>
</mask>
<g mask="url(#mask0_170_616)">
<rect width="33.6" height="24" fill="#043CAE"/>
<path fill-rule="evenodd" clip-rule="evenodd" d="M15.6687 5.13139L16.8001 4.80002L17.9315 5.13139L17.6001 4.00002L17.9315 2.86865L16.8001 3.20002L15.6687 2.86865L16.0001 4.00002L15.6687 5.13139ZM15.6687 21.1314L16.8001 20.8001L17.9315 21.1314L17.6001 20.0001L17.9315 18.8687L16.8001 19.2001L15.6687 18.8687L16.0001 20.0001L15.6687 21.1314ZM24.8001 12.8001L23.6687 13.1314L24.0001 12.0001L23.6687 10.8687L24.8001 11.2001L25.9315 10.8687L25.6001 12.0001L25.9315 13.1314L24.8001 12.8001ZM7.6687 13.1314L8.80007 12.8001L9.93144 13.1314L9.60007 12.0001L9.93144 10.8687L8.80007 11.2001L7.6687 10.8687L8.00007 12.0001L7.6687 13.1314ZM23.7283 8.80005L22.5969 9.13142L22.9283 8.00005L22.5969 6.86868L23.7283 7.20005L24.8597 6.86868L24.5283 8.00005L24.8597 9.13142L23.7283 8.80005ZM8.74053 17.1314L9.8719 16.8L11.0033 17.1314L10.6719 16L11.0033 14.8687L9.8719 15.2L8.74053 14.8687L9.0719 16L8.74053 17.1314ZM20.8001 5.87183L19.6687 6.2032L20.0001 5.07183L19.6687 3.94046L20.8001 4.27183L21.9314 3.94046L21.6001 5.07183L21.9314 6.2032L20.8001 5.87183ZM11.6687 20.0596L12.8001 19.7282L13.9315 20.0596L13.6001 18.9282L13.9315 17.7969L12.8001 18.1282L11.6687 17.7969L12.0001 18.9282L11.6687 20.0596ZM23.7283 16.8L22.5969 17.1314L22.9283 16L22.5969 14.8687L23.7283 15.2L24.8597 14.8687L24.5283 16L24.8597 17.1314L23.7283 16.8ZM8.74053 9.13142L9.8719 8.80005L11.0033 9.13142L10.6719 8.00005L11.0033 6.86868L9.8719 7.20005L8.74053 6.86868L9.0719 8.00005L8.74053 9.13142ZM20.8001 19.7282L19.6687 20.0596L20.0001 18.9282L19.6687 17.7969L20.8001 18.1282L21.9314 17.7969L21.6001 18.9282L21.9314 20.0596L20.8001 19.7282ZM11.6687 6.2032L12.8001 5.87183L13.9315 6.2032L13.6001 5.07183L13.9315 3.94046L12.8001 4.27183L11.6687 3.94046L12.0001 5.07183L11.6687 6.2032Z" fill="#FFD429"/>
</g>
</svg>
