<svg width="80" height="80" viewBox="0 0 80 80" fill="none" xmlns="http://www.w3.org/2000/svg">
<path d="M59.3666 14.9002C59.1 14.9002 58.8333 14.8335 58.6 14.7002C52.2 11.4002 46.6666 10.0002 40.0333 10.0002C33.4333 10.0002 27.1666 11.5669 21.4666 14.7002C20.6666 15.1335 19.6666 14.8335 19.2 14.0335C18.9921 13.6437 18.9454 13.1878 19.0701 12.764C19.1948 12.3401 19.4808 11.9821 19.8666 11.7669C26.0666 8.4002 32.8666 6.66687 40.0333 6.66687C47.1333 6.66687 53.3333 8.23354 60.1333 11.7335C60.9666 12.1669 61.2666 13.1669 60.8333 13.9669C60.7015 14.2447 60.4939 14.4798 60.2345 14.6449C59.975 14.81 59.6742 14.8985 59.3666 14.9002ZM11.6666 32.4002C11.3594 32.4031 11.0573 32.3208 10.794 32.1624C10.5307 32.0041 10.3163 31.7759 10.1748 31.5032C10.0332 31.2304 9.97 30.9238 9.9921 30.6173C10.0142 30.3108 10.1208 30.0165 10.3 29.7669C13.6 25.1002 17.8 21.4335 22.8 18.8669C33.2666 13.4669 46.6666 13.4335 57.1666 18.8335C62.1666 21.4002 66.3666 25.0335 69.6666 29.6669C69.7945 29.846 69.8857 30.0487 69.9348 30.2633C69.9839 30.4778 69.9901 30.7 69.9529 30.9169C69.9157 31.1338 69.8359 31.3413 69.7181 31.5272C69.6003 31.7131 69.4469 31.8739 69.2666 32.0002C68.5 32.5335 67.4666 32.3669 66.9333 31.6002C64.0142 27.4681 60.1368 24.1054 55.6333 21.8002C46.0666 16.9002 33.8333 16.9002 24.3 21.8335C19.7666 24.1669 15.9666 27.5002 12.9666 31.7002C12.7 32.1669 12.2 32.4002 11.6666 32.4002ZM32.5 72.6335C32.2814 72.6362 32.0647 72.5931 31.8637 72.507C31.6628 72.4209 31.4821 72.2937 31.3333 72.1335C28.4333 69.2335 26.8666 67.3669 24.6333 63.3335C22.3333 59.2335 21.1333 54.2335 21.1333 48.8669C21.1333 38.9669 29.6 30.9002 40 30.9002C50.4 30.9002 58.8666 38.9669 58.8666 48.8669C58.8666 49.8002 58.1333 50.5335 57.2 50.5335C56.2666 50.5335 55.5333 49.8002 55.5333 48.8669C55.5333 40.8002 48.5666 34.2335 40 34.2335C31.4333 34.2335 24.4666 40.8002 24.4666 48.8669C24.4666 53.6669 25.5333 58.1002 27.5666 61.7002C29.7 65.5335 31.1666 67.1669 33.7333 69.7669C34.3666 70.4335 34.3666 71.4669 33.7333 72.1335C33.3666 72.4669 32.9333 72.6335 32.5 72.6335ZM56.4 66.4669C52.4333 66.4669 48.9333 65.4669 46.0666 63.5002C41.1 60.1335 38.1333 54.6669 38.1333 48.8669C38.1333 47.9335 38.8666 47.2002 39.8 47.2002C40.7333 47.2002 41.4666 47.9335 41.4666 48.8669C41.4666 53.5669 43.8666 58.0002 47.9333 60.7335C50.3 62.3335 53.0666 63.1002 56.4 63.1002C57.2 63.1002 58.5333 63.0002 59.8666 62.7669C60.7666 62.6002 61.6333 63.2002 61.8 64.1335C61.9666 65.0335 61.3666 65.9002 60.4333 66.0669C58.5333 66.4335 56.8666 66.4669 56.4 66.4669ZM49.7 73.3335C49.5666 73.3335 49.4 73.3002 49.2666 73.2669C43.9666 71.8002 40.5 69.8335 36.8666 66.2669C34.5642 63.9935 32.7386 61.2836 31.4965 58.2958C30.2545 55.308 29.621 52.1025 29.6333 48.8669C29.6333 43.4669 34.2333 39.0669 39.9 39.0669C45.5666 39.0669 50.1666 43.4669 50.1666 48.8669C50.1666 52.4335 53.2666 55.3335 57.1 55.3335C60.9333 55.3335 64.0333 52.4335 64.0333 48.8669C64.0333 36.3002 53.2 26.1002 39.8666 26.1002C30.4 26.1002 21.7333 31.3669 17.8333 39.5335C16.5333 42.2335 15.8666 45.4002 15.8666 48.8669C15.8666 51.4669 16.1 55.5669 18.1 60.9002C18.4333 61.7669 18 62.7335 17.1333 63.0335C16.2666 63.3669 15.3 62.9002 15 62.0669C13.3938 57.8512 12.5692 53.3782 12.5666 48.8669C12.5666 44.8669 13.3333 41.2335 14.8333 38.0669C19.2666 28.7669 29.1 22.7335 39.8666 22.7335C55.0333 22.7335 67.3666 34.4335 67.3666 48.8335C67.3666 54.2335 62.7666 58.6335 57.1 58.6335C51.4333 58.6335 46.8333 54.2335 46.8333 48.8335C46.8333 45.2669 43.7333 42.3669 39.9 42.3669C36.0666 42.3669 32.9666 45.2669 32.9666 48.8335C32.9666 54.5335 35.1666 59.8669 39.2 63.8669C42.3666 67.0002 45.4 68.7335 50.1 70.0335C51 70.2669 51.5 71.2002 51.2666 72.0669C51.1 72.8335 50.4 73.3335 49.7 73.3335Z" fill="#7D2D80"/>
</svg>
