<svg width="66" height="40" viewBox="0 0 66 40" fill="none" xmlns="http://www.w3.org/2000/svg">
<path fill-rule="evenodd" clip-rule="evenodd" d="M18.0863 14.9563L16.0831 16.4309L15.443 17.5439L15.4014 19.2967L16.4726 21.5228L18.2676 23.3316L24.8063 27.2969L24.9038 27.478L24.3615 29.0781H39.4704L39.5125 28.4096L40.194 28.2013L47.7905 23.6655L50.2948 21.1055L50.1002 19.7283L48.2778 17.1544L46.232 15.3596L45.6481 14.6503L42.9767 12.7998L39.7628 11.3111C39.2898 11.0884 38.6914 10.8657 37.9123 10.6572L37.1335 10.3231C37.4257 10.1004 37.5923 9.80866 37.6059 9.44677C37.6202 9.22407 37.5785 8.98756 37.4257 8.723L37.8148 8.13903L37.6758 7.37402L38.135 6.77562L38.2604 6.51106L37.9961 5.74605L37.4257 5.30065C37.4117 4.85525 37.3139 4.31294 37.0917 3.65907L37.4669 2.71301V2.28143C37.3139 1.47456 37.1335 0.987712 36.9246 0.834709L36.4378 0.417355L35.3664 0.444986C34.9071 0.222287 34.3508 0.0552624 33.7105 0L32.7785 0.097534L32.069 0.278168L30.9837 0.389517C30.8309 0.389517 30.6917 0.444986 30.5942 0.570357L30.0098 1.02936L29.0359 1.55807L28.8967 1.79458C28.7161 2.17029 28.4658 2.42062 28.1596 2.57403L27.9645 2.82415L27.3943 4.36861L28.3682 8.06954L29.4254 9.5441L29.5368 9.65545L28.7856 10.2815L25.9612 10.6572L25.6831 10.7267L21.8291 12.7303L18.0865 14.9563H18.0863ZM23.1092 19.3389L23.9439 18.4481L24.3613 18.3092L24.57 19.7841L25.1546 22.1771L25.1267 22.9003L24.1803 22.2468L23.2903 21.2867L22.3993 19.5893L23.1092 19.3389ZM40.653 23.2485L40.194 23.5682L41.2097 19.3389L42.6845 20.0625L43.2829 20.6881L40.6532 23.2483L40.653 23.2485Z" fill="white"/>
<path fill-rule="evenodd" clip-rule="evenodd" d="M19.964 15.7771L20.3119 16.3058C19.9362 16.7094 19.4075 16.9459 18.7536 17.0572L18.5728 17.2937L18.5449 17.6833L19.0043 19.297L19.7832 20.7577C20.0059 21.1056 21.1882 22.0935 23.3311 23.7353L24.2631 24.7371L24.9448 24.807C25.4738 24.3752 25.9328 24.111 26.3639 24.0558L26.4477 21.9684L25.9744 18.852L26.1274 13.4955L26.6005 12.8416C26.4615 13.7598 26.4615 14.4417 26.5726 14.8727V24.7787L26.99 25.4328L27.2405 20.6883C27.3799 18.1701 27.3937 16.5423 27.3378 15.833L27.2405 14.6502L27.3937 13.7738L28.1031 12.8416L27.8247 15.4987L27.3799 26.1564L27.0875 28.299H28.0055L28.4093 21.8708C28.5346 18.3652 28.6458 16.0973 28.7571 15.0956C28.8128 14.5112 28.9936 13.6485 29.2718 12.5218L29.4388 12.2851L29.5224 12.5218L29.536 13.2033L29.077 24.4589L28.8266 26.2122L28.8961 28.299H29.8284L31.0388 13.1478L31.8042 12.8416L30.7882 28.299H32.1519L33.1257 13.1478L33.5291 12.6187L33.9468 13.0503L33.2371 28.299H34.3918L34.6424 20.8969L35.4631 21.2448L35.2822 28.299H36.465V23.4708L36.7846 21.3425C36.9518 21.3425 37.1329 21.2174 37.3133 20.9528L36.8824 28.299H37.6474L38.4404 16.0833C38.4825 14.8449 38.301 13.6347 37.9117 12.4659L38.5378 13.0086L38.9832 16.4728L38.0924 28.299H38.7881L38.8302 27.8122L39.8457 27.5338C40.4717 26.9911 42.9482 25.5163 47.3026 23.1093L49.543 20.8415L49.3618 20.0068L47.7066 17.6416L45.661 15.8744L45.1185 15.1929L42.6284 13.4536L39.456 12.0205C38.9132 11.7566 38.1618 11.492 37.1743 11.2136L36.924 11.0466L35.8528 10.6573C35.0597 10.4346 35.1432 10.2261 36.0893 9.97578C36.6042 9.80875 36.8543 9.61369 36.8824 9.39119C36.8824 9.21056 36.7988 9.00188 36.6458 8.82063L36.6875 8.51441L37.0215 7.94426C36.9286 7.62328 36.8817 7.29072 36.8824 6.95655L37.3271 6.72003L37.4665 6.42763L37.3692 6.16349L36.7011 5.60674C36.7153 5.24526 36.6875 4.8275 36.5345 4.38271L36.3398 3.7008C36.3116 3.53377 36.465 3.13044 36.7848 2.46234L36.4372 1.41916L36.1588 1.16862L35.1849 1.21027C34.8787 0.946126 34.378 0.793123 33.6266 0.723633L32.2492 1.01562L31.0806 1.11315L30.4127 1.65547L29.536 2.1287C29.2302 2.75474 28.938 3.11642 28.6041 3.21375L28.1587 4.42416L29.0912 7.83291L29.9259 9.01549L30.3432 9.40521V10.1286H30.1484L29.0912 10.9633L25.9744 11.4087L22.1762 13.3565L16.653 16.9459L16.1662 17.7808L16.1245 19.172L17.0984 21.078L18.7538 22.7616C20.9381 24.111 23.1224 25.4328 25.2927 26.7403L25.7798 27.2971L25.4319 28.2992H26.6423C26.8219 27.848 26.9071 27.3648 26.8928 26.8793C26.8928 26.504 26.7957 26.1564 26.5728 25.8083H25.084L24.1522 25.3633C23.6095 24.9457 22.9418 24.5142 22.1766 24.0696C21.453 23.652 20.7156 23.1371 19.9642 22.5948C18.6146 21.523 17.6686 20.5074 17.1401 19.5477L16.9592 18.8099L17.0009 17.9614L17.2374 17.5024L18.1696 16.6118L19.7281 15.7355L19.9642 15.7771H19.964ZM21.5503 16.3615V16.0557L25.4736 13.6901L25.4874 14.0242L22.2178 16.431L21.8283 16.5702L21.5499 16.3615H21.5503ZM21.0493 15.0119L20.9657 14.7477L25.7101 12.2156L25.4738 12.661L22.3156 14.5112L21.0493 15.0119ZM25.5292 15.8744L25.39 16.1252L22.8024 17.6416L22.6632 17.8641L22.5242 17.6414L22.6075 17.3913L24.8894 15.5963L25.4738 15.5406L25.5292 15.8746V15.8744ZM25.1539 17.3913C25.2092 18.1701 25.2651 18.9215 25.3762 19.6449L25.8633 23.5683L25.4876 23.6656L24.9867 23.7077C24.2125 23.0607 23.4998 22.3435 22.8579 21.565C22.3156 20.8557 21.8285 20.1043 21.4248 19.2968L21.5503 19.1023C22.218 18.671 22.8999 18.2676 23.5955 17.8781C24.0545 17.6554 24.5415 17.4327 25.0422 17.2521L25.1537 17.3913H25.1539ZM43.5048 16.5005L43.4631 16.7514L42.9761 16.6539L40.3325 15.0119H39.9152L39.4698 14.664L39.3308 14.1217C39.7666 14.2567 40.1865 14.4385 40.5831 14.664L43.5048 16.5007V16.5005ZM44.1865 15.7216L43.5048 15.4989L40.6804 13.5373C39.8457 13.1895 39.4141 13.0086 39.3308 13.0086L39.2751 12.6051L40.1655 12.7305L44.3952 15.5825L44.1865 15.7216ZM35.7693 4.63305L35.6303 4.81389L34.4611 5.34239L34.7395 5.80139L35.8107 5.98265L36.465 5.84346L36.9518 6.27463L36.5345 6.58084L36.2004 6.72003L36.5345 7.09573V7.26235L35.9918 7.3739L35.6303 7.74961L35.6717 8.06963L36.1588 7.94426L36.3534 7.93045L36.4372 8.06963L36.0893 8.23666C36.0336 8.23666 35.9501 8.34801 35.8666 8.62597H36.0196L36.2283 9.0157C36.2561 9.14086 36.131 9.22417 35.9085 9.26582L34.3502 8.97384L32.6944 9.01549L32.0545 9.40521V9.68338L32.903 10.3789L32.8334 11.5479C32.8334 11.7145 32.6944 11.6869 32.3882 11.492L30.7606 10.4764L30.7882 9.48831L30.9969 9.44666L31.4285 7.51309L30.8577 6.76168L30.7882 5.88532L31.0806 5.56529L31.665 5.46776L32.3882 6.09379H32.7779L32.9447 5.34239L34.5032 4.36849H35.5744L35.7691 4.63305H35.7693ZM32.2071 13.426C32.2071 13.3146 32.2768 13.2449 32.4158 13.2449C32.5412 13.2449 32.5966 13.3144 32.5966 13.426C32.5966 13.579 32.5412 13.6347 32.4158 13.6347C32.2768 13.6347 32.2071 13.579 32.2071 13.426ZM32.4995 15.833C32.4995 15.9862 32.43 16.0557 32.2908 16.0557C32.1516 16.0557 32.0681 15.9862 32.0681 15.833C32.0681 15.6938 32.1516 15.6379 32.2908 15.6379C32.43 15.6379 32.4995 15.6936 32.4995 15.833ZM35.1847 13.0919L35.3239 13.0503L35.8662 14.1772L35.9083 14.9566L35.8105 16.7094H34.9201L35.1847 13.0919ZM36.9238 13.6347L37.5082 13.2449L37.4109 16.7514H36.8399L36.9238 13.6347ZM42.5861 17.5443L42.795 17.9198L42.4474 18.1701L40.6524 17.2521L39.7063 15.7355L42.5863 17.5441L42.5861 17.5443ZM40.388 19.2832L40.4715 18.4068C40.8196 18.5041 41.1394 18.6293 41.4176 18.7963C42.3917 19.3665 43.3237 19.9651 44.2281 20.6188C43.1988 21.6906 42.1269 22.6779 40.9584 23.5825C40.3878 24.0558 39.762 24.4447 39.0663 24.7371L39.6504 22.9841L40.3878 19.2832H40.388ZM39.5673 18.3652L39.5531 17.0989C39.5531 16.8762 39.6368 16.8347 39.8038 16.9875C39.8733 17.0989 39.9428 17.3632 39.9564 17.7808L39.7063 20.1317L39.317 21.7737L39.5673 18.3652ZM37.6051 17.7249V17.9198H34.9203V17.7249H37.6051ZM37.6051 17.1405V17.3913H34.9203V17.1405H37.6051L39.0663 26.3648L39.0803 25.1404L40.402 24.9874L45.1183 20.6883L43.5602 19.1026L44.5758 17.6416L44.9793 17.6833L46.9826 20.2709L46.8717 20.7998C45.8233 21.791 44.7024 22.7025 43.5184 23.5269C42.0715 24.5564 40.6109 25.5163 39.0663 26.3648L37.6051 17.1405Z" fill="#161413"/>
<path fill-rule="evenodd" clip-rule="evenodd" d="M31.7632 5.8017L31.137 5.78809L30.9844 6.09409L31.0817 6.33081L31.3182 6.28875L31.4574 6.53949L31.6661 6.77601L31.8748 6.76199L31.9723 6.27493L31.7632 5.8017Z" fill="#161413"/>
<path fill-rule="evenodd" clip-rule="evenodd" d="M22.2607 31.3174H19.8675V33.4881H18.8936V35.6305H19.8675V38.7333C19.8675 39.0393 19.9928 39.3313 20.2153 39.5542C20.4799 39.7769 20.758 39.8878 21.0781 39.8878H23.6381V37.7596H22.8034C22.4555 37.7596 22.2747 37.5645 22.2747 37.189V35.6307H23.1929V33.4881H22.2747L22.2607 31.3174ZM30.7892 30.7334H28.4102V38.7333C28.4102 39.5127 28.7859 39.8878 29.579 39.8878H33.1267V37.7596H31.346C30.9841 37.7596 30.7892 37.5645 30.7892 37.189V30.7334ZM62.6637 33.3213C61.8706 33.3213 61.4813 33.6965 61.4813 34.4898V39.8878H63.8743V35.9922C63.8743 35.6443 64.0549 35.4639 64.417 35.4639H65.6691V33.3213H62.6637ZM1.22464 30.7472C0.890592 30.7472 0.612217 30.8728 0.347865 31.0953C0.125372 31.3312 0 31.624 0 31.9574V39.8878H2.42103V36.6325H3.70114V34.49H2.42103V33.4604C2.42103 33.0705 2.61589 32.8899 2.96376 32.8899H4.74453V30.7474L1.22464 30.7472ZM10.0452 34.2112C9.39131 33.5576 8.59846 33.2379 7.69406 33.2379C6.73397 33.2379 5.95514 33.5576 5.30107 34.2112C4.63338 34.8793 4.29933 35.6864 4.29933 36.5908C4.29933 37.5507 4.63338 38.3297 5.30107 38.9836C5.96875 39.6515 6.76202 39.9996 7.69406 39.9996C8.59846 39.9996 9.39111 39.6515 10.0452 38.9836C10.7131 38.3161 11.0469 37.5227 11.0469 36.5908C11.0469 35.6864 10.7129 34.8793 10.0452 34.2112ZM6.6783 36.5908C6.6783 35.9508 7.02596 35.6307 7.69406 35.6307C8.33411 35.6307 8.66795 35.9508 8.66795 36.5908C8.66795 37.2445 8.3339 37.5645 7.69406 37.5645C7.02596 37.5645 6.6783 37.2443 6.6783 36.5908ZM17.447 34.2112C16.793 33.5576 15.9999 33.2379 15.0955 33.2379C14.1494 33.2379 13.3564 33.5576 12.7025 34.2112C12.0346 34.8793 11.701 35.6864 11.701 36.5908C11.701 37.5507 12.0346 38.3297 12.7025 38.9836C13.3706 39.6515 14.1633 39.9996 15.0955 39.9996C15.9999 39.9996 16.793 39.6515 17.4468 38.9836C18.1147 38.3161 18.4488 37.5227 18.4488 36.5908C18.4488 35.6864 18.1147 34.8793 17.4468 34.2112H17.447ZM14.0798 36.5908C14.0798 35.9508 14.4278 35.6307 15.0955 35.6307C15.7496 35.6307 16.0694 35.9508 16.0694 36.5908C16.0694 37.2445 15.7496 37.5645 15.0955 37.5645C14.4278 37.5645 14.08 37.2443 14.08 36.5908H14.0798ZM39.4151 34.2112C38.7614 33.5576 37.9686 33.2379 37.0223 33.2379C36.0903 33.2379 35.3108 33.5576 34.6433 34.2112C33.9891 34.8793 33.6695 35.6864 33.6695 36.5908C33.6695 37.5507 33.9891 38.3297 34.6433 38.9836C35.311 39.6515 36.0903 39.9996 37.0223 39.9996C37.9686 39.9996 38.7616 39.6515 39.4151 38.9836C40.0832 38.3299 40.4032 37.5507 40.4032 36.5908C40.4032 35.6864 40.0834 34.8793 39.4151 34.2112ZM36.3406 35.9089C36.5355 35.7281 36.758 35.6305 37.0223 35.6305C37.676 35.6305 37.9964 35.9508 37.9964 36.5908C37.9964 37.2445 37.6762 37.5645 37.0223 37.5645C36.3684 37.5645 36.062 37.2443 36.062 36.5908C36.062 36.3543 36.1598 36.1314 36.3408 35.9089H36.3406ZM42.1423 34.2112C41.4744 34.8793 41.1406 35.6864 41.1406 36.5908C41.1406 37.5507 41.4747 38.3297 42.1423 38.9836C42.81 39.6515 43.6031 39.9996 44.5355 39.9996C45.7315 39.9996 46.678 39.4707 47.3597 38.4413L45.3282 37.1336C45.1335 37.4255 44.8832 37.5645 44.5355 37.5645C43.8672 37.5645 43.5196 37.2443 43.5196 36.5908C43.5196 35.9508 43.8672 35.6307 44.5355 35.6307C44.8832 35.6307 45.1335 35.7833 45.3282 36.0902L47.3597 34.796C46.6782 33.7662 45.7315 33.2379 44.5355 33.2379C43.5752 33.2379 42.7962 33.5576 42.1423 34.2112ZM65.3488 38.6355C64.9453 38.6355 64.7364 38.8442 64.7364 39.2618C64.7364 39.6932 64.9453 39.8878 65.3488 39.8878C65.78 39.8878 65.9751 39.6932 65.9751 39.2618C65.9751 38.8442 65.78 38.6355 65.3488 38.6355ZM64.848 39.2618C64.848 38.9277 65.001 38.7473 65.3488 38.7473C65.6969 38.7473 65.8778 38.9279 65.8778 39.2618C65.8778 39.6094 65.6969 39.7909 65.3488 39.7909C65.001 39.7909 64.848 39.6094 64.848 39.2618Z" fill="#E52935"/>
<path fill-rule="evenodd" clip-rule="evenodd" d="M65.6689 39.1224C65.6689 38.9834 65.5988 38.9277 65.4321 38.9277H65.1123V39.6092H65.2097V39.3036H65.3348L65.5295 39.6092H65.6689L65.4462 39.3036C65.5988 39.3036 65.6689 39.2479 65.6689 39.1222V39.1224ZM65.2097 39.2063V39.0252H65.3903L65.5711 39.0809C65.5711 39.1642 65.4878 39.2063 65.3348 39.2063H65.2097ZM50.3366 35.2266V30.7334H47.916V39.8876H50.3366V37.954L51.9366 39.8876H54.7333L51.8949 36.479L54.1489 33.7248H51.5475L50.3366 35.2266Z" fill="#E52935"/>
<path fill-rule="evenodd" clip-rule="evenodd" d="M60.813 36.3401C60.813 35.7833 60.5903 35.1855 60.1309 34.5314C59.5465 33.725 58.7396 33.2792 57.6824 33.2239C56.4023 33.154 55.4141 33.5994 54.7048 34.5871C54.2596 35.1995 54.0371 35.8672 54.0371 36.5908C54.0371 37.5507 54.3848 38.3297 55.0527 38.9836C55.7208 39.6515 56.5136 39.9996 57.4457 39.9996C58.2251 39.9996 58.9209 39.7769 59.5048 39.3038L60.3117 38.4413L58.3643 37.189L58.1274 37.4674C57.8078 37.7313 57.4457 37.787 57.0564 37.6482L56.5695 37.2725L60.8128 36.3401H60.813ZM57.1116 35.5194C57.5851 35.3802 57.9606 35.5049 58.2664 35.8672L56.3883 36.2986C56.5136 35.9227 56.7499 35.6726 57.1118 35.5192L57.1116 35.5194Z" fill="#E52935"/>
</svg>
