<svg width="24" height="24" viewBox="0 0 24 24" fill="none" xmlns="http://www.w3.org/2000/svg">
<path d="M23.6905 12.2755C23.6905 11.4598 23.6243 10.6397 23.4831 9.83716H12.1644V14.4581H18.6461C18.3771 15.9485 17.513 17.2669 16.2475 18.1046V21.1029H20.1145C22.3853 19.0129 23.6905 15.9265 23.6905 12.2755Z" fill="#4285F4"/>
<path d="M12.1644 24C15.4009 24 18.1303 22.9373 20.1188 21.103L16.2519 18.1046C15.176 18.8366 13.7871 19.2511 12.1688 19.2511C9.0382 19.2511 6.38379 17.139 5.43137 14.2994H1.44092V17.3903C3.47804 21.4426 7.62722 24 12.1644 24Z" fill="#34A853"/>
<path d="M5.42696 14.2995C4.9243 12.8091 4.9243 11.1953 5.42696 9.70496V6.61401H1.44093C-0.261072 10.0048 -0.261072 13.9996 1.44093 17.3903L5.42696 14.2995Z" fill="#FBBC04"/>
<path d="M12.1644 4.7488C13.8752 4.72235 15.5287 5.3661 16.7678 6.54782L20.1938 3.12175C18.0245 1.08465 15.1451 -0.0353204 12.1644 -4.58293e-05C7.6272 -4.58293e-05 3.47804 2.55737 1.44092 6.61395L5.42695 9.7049C6.37495 6.86087 9.03379 4.7488 12.1644 4.7488Z" fill="#EA4335"/>
</svg>
