<svg width="40" height="50" viewBox="0 0 40 50" fill="none" xmlns="http://www.w3.org/2000/svg">
<path d="M8.14709 45V36.492H6.97109V40.128H2.62709V36.492H1.45109V45H2.62709V41.22H6.97109V45H8.14709ZM11.3065 45V39.228H10.1905V45H11.3065ZM9.93847 37.044C9.93847 37.488 10.2985 37.848 10.7425 37.848C11.1985 37.848 11.5585 37.488 11.5585 37.044C11.5585 36.588 11.1985 36.228 10.7425 36.228C10.2985 36.228 9.93847 36.588 9.93847 37.044ZM12.6856 43.5C12.7816 44.16 13.4536 45.18 15.0376 45.18C16.4656 45.18 17.1496 44.208 17.1496 43.392C17.1496 42.54 16.5976 41.904 15.5536 41.676L14.6176 41.472C14.1736 41.376 13.9576 41.124 13.9576 40.776C13.9576 40.38 14.3416 40.008 14.9176 40.008C15.8296 40.008 16.0696 40.668 16.1176 40.968L17.1136 40.596C16.9936 40.08 16.5016 39.048 14.9176 39.048C13.7896 39.048 12.8656 39.888 12.8656 40.872C12.8656 41.688 13.4056 42.3 14.3056 42.492L15.2896 42.708C15.7696 42.816 16.0336 43.092 16.0336 43.452C16.0336 43.86 15.6856 44.22 15.0496 44.22C14.2336 44.22 13.7776 43.74 13.7056 43.14L12.6856 43.5ZM20.1634 37.404H19.1314V38.34C19.1314 38.844 18.8674 39.228 18.2434 39.228H17.9314V40.248H19.0354V43.416C19.0354 44.46 19.6594 45.06 20.6434 45.06C21.0274 45.06 21.3154 44.988 21.4114 44.952V43.992C21.3154 44.016 21.1114 44.04 20.9674 44.04C20.3794 44.04 20.1634 43.776 20.1634 43.248V40.248H21.4114V39.228H20.1634V37.404ZM25.3304 44.172C24.3704 44.172 23.5304 43.452 23.5304 42.108C23.5304 40.776 24.3704 40.056 25.3304 40.056C26.2904 40.056 27.1304 40.776 27.1304 42.108C27.1304 43.452 26.2904 44.172 25.3304 44.172ZM25.3304 39.048C23.6024 39.048 22.3784 40.356 22.3784 42.108C22.3784 43.872 23.6024 45.18 25.3304 45.18C27.0584 45.18 28.2824 43.872 28.2824 42.108C28.2824 40.356 27.0584 39.048 25.3304 39.048ZM32.9296 39.168C32.8696 39.156 32.7136 39.132 32.5576 39.132C31.9696 39.132 31.2496 39.348 30.8296 40.236V39.228H29.7256V45H30.8536V42.108C30.8536 40.836 31.4896 40.332 32.4376 40.332C32.5936 40.332 32.7616 40.344 32.9296 40.368V39.168ZM35.7477 47.412L39.5037 39.228H38.2917L36.5637 43.212L34.7637 39.228H33.4677L35.9517 44.364L34.5117 47.412H35.7477Z" fill="#DDBCE4"/>
<path d="M28.5 3.5L27 2L25.5 3.5L24 2L22.5 3.5L21 2L19.5 3.5L18 2L16.5 3.5L15 2L13.5 3.5L12 2V22L13.5 20.5L15 22L16.5 20.5L18 22L19.5 20.5L21 22L22.5 20.5L24 22L25.5 20.5L27 22L28.5 20.5L30 22V2L28.5 3.5ZM28 19.09H14V4.91H28V19.09ZM15 15H27V17H15V15ZM15 11H27V13H15V11ZM15 7H27V9H15V7Z" fill="#DDBCE4"/>
</svg>
