<svg width="33" height="50" viewBox="0 0 33 50" fill="none" xmlns="http://www.w3.org/2000/svg">
<path d="M8.01623 45V36.492H6.84023V40.128H2.49623V36.492H1.32023V45H2.49623V41.22H6.84023V45H8.01623ZM12.5316 44.172C11.5716 44.172 10.7316 43.452 10.7316 42.108C10.7316 40.776 11.5716 40.056 12.5316 40.056C13.4916 40.056 14.3316 40.776 14.3316 42.108C14.3316 43.452 13.4916 44.172 12.5316 44.172ZM12.5316 39.048C10.8036 39.048 9.57961 40.356 9.57961 42.108C9.57961 43.872 10.8036 45.18 12.5316 45.18C14.2596 45.18 15.4836 43.872 15.4836 42.108C15.4836 40.356 14.2596 39.048 12.5316 39.048ZM18.0428 45V41.52C18.0428 40.656 18.5828 40.056 19.3868 40.056C20.2508 40.056 20.6108 40.632 20.6108 41.376V45H21.7388V41.508C21.7388 40.68 22.2788 40.056 23.0708 40.056C23.9228 40.056 24.2948 40.62 24.2948 41.376V45H25.4108V41.256C25.4108 39.744 24.4268 39.06 23.4188 39.06C22.6868 39.06 21.9428 39.324 21.4868 40.152C21.1748 39.408 20.4788 39.06 19.7588 39.06C19.0868 39.06 18.3668 39.36 18.0068 39.996V39.228H16.9268V45H18.0428ZM27.9479 41.52C27.9959 40.776 28.5719 40.044 29.5199 40.044C30.5399 40.044 31.0799 40.692 31.1039 41.52H27.9479ZM31.2719 43.02C31.0559 43.668 30.5879 44.184 29.6519 44.184C28.6799 44.184 27.9359 43.464 27.9119 42.432H32.2559C32.2679 42.36 32.2799 42.216 32.2799 42.072C32.2799 40.272 31.2839 39.048 29.5079 39.048C28.0559 39.048 26.7479 40.284 26.7479 42.096C26.7479 44.052 28.1039 45.18 29.6519 45.18C30.9959 45.18 31.9199 44.376 32.2439 43.356L31.2719 43.02Z" fill="#DDBCE4"/>
<path d="M13 13H19V19H22V10L16 5.5L10 10V19H13V13ZM8 21V9L16 3L24 9V21H8Z" fill="#DDBCE4"/>
</svg>
