<svg width="59" height="15" viewBox="0 0 59 15" fill="none" xmlns="http://www.w3.org/2000/svg">
<path d="M3.81738 1.75463C3.81738 2.63041 3.15155 3.33658 2.1092 3.33658C1.10936 3.33658 0.443521 2.62911 0.464342 1.75463C0.443521 0.839371 1.1095 0.152344 2.13017 0.152344C3.15083 0.152344 3.797 0.839371 3.81738 1.75463ZM0.548639 14.7695V4.58642H3.71381V14.7695H0.548639ZM9.06436 3.39991H5.29576V0.7348H16.0814V3.39991H12.2503V14.7695H9.06351L9.06436 3.39991ZM26.138 11.5007C26.138 12.8328 26.18 13.9156 26.2203 14.7701H23.472L23.3263 13.3334H23.2629C22.8673 13.9576 21.9091 14.9999 20.0764 14.9999C18.0147 14.9999 16.4948 13.7077 16.4948 10.5637V4.58854H19.6809V10.0649C19.6809 11.5432 20.1598 12.4379 21.2633 12.4379C22.1387 12.4379 22.6379 11.8346 22.8457 11.3349C22.9281 11.1475 22.9484 10.8976 22.9484 10.6478V4.58854H26.1354V11.5011H26.138V11.5007ZM28.6772 7.83441C28.6772 6.56346 28.6356 5.48085 28.5944 4.58685H31.3428L31.4885 5.9822H31.5518C31.9678 5.33718 33.008 4.3581 34.6958 4.3581C36.7784 4.3581 38.3386 5.73232 38.3386 8.73055V14.7695H35.1743V9.12619C35.1743 7.81534 34.7159 6.91921 33.5716 6.91921C32.6962 6.91921 32.176 7.52385 31.9687 8.10467C31.8858 8.31288 31.8443 8.60447 31.8443 8.89596V14.7678H28.6789V7.83484L28.6772 7.83441ZM43.3149 10.6882C43.419 12 44.7103 12.625 46.1886 12.625C47.2713 12.625 48.1462 12.4792 48.999 12.209L49.4159 14.3526C48.3752 14.7695 47.1047 14.9978 45.7297 14.9978C42.2725 14.9978 40.2954 12.9786 40.2954 9.79168C40.2954 7.20944 41.8986 4.3581 45.4382 4.3581C48.7288 4.3581 49.9776 6.91795 49.9776 9.43902C49.9776 9.98037 49.9148 10.4596 49.8744 10.6878L43.3149 10.6882ZM47.0422 8.5215C47.0422 7.75199 46.7082 6.46024 45.2512 6.46024C43.9187 6.46024 43.3774 7.6674 43.2933 8.5215H47.0422ZM51.8512 11.9999C52.4355 12.3526 53.642 12.7694 54.579 12.7694C55.5372 12.7694 55.9328 12.4355 55.9328 11.9154C55.9328 11.3953 55.62 11.1455 54.4333 10.7494C52.3299 10.042 51.5179 8.89668 51.5392 7.70945C51.5392 5.79392 53.1633 4.35641 55.6835 4.35641C56.8699 4.35641 57.9335 4.6276 58.5573 4.94035L57.9945 7.12699C57.5356 6.87714 56.6624 6.54305 55.7875 6.54305C55.018 6.54305 54.58 6.85577 54.58 7.37586C54.58 7.85518 54.9756 8.10545 56.2249 8.54225C58.1617 9.20809 58.9736 10.1876 58.9944 11.6862C58.9944 13.5814 57.4954 14.9974 54.58 14.9974C53.2484 14.9974 52.0592 14.6841 51.2897 14.2673L51.8512 11.9999Z" fill="black"/>
</svg>
