<svg width="102" height="24" viewBox="0 0 102 24" fill="none" xmlns="http://www.w3.org/2000/svg">
<path fill-rule="evenodd" clip-rule="evenodd" d="M9.97428 0.496998V13.5269C9.97428 15.1885 9.89145 16.0495 9.06584 17.4043C8.80644 17.8174 7.31981 19.4544 5.02665 19.4544C2.69152 19.4544 0.862661 18.2686 0.314438 16.4446C0.105176 15.722 0 14.861 0 13.7498C0 13.5275 -7.71441e-08 13.389 0.0261577 13.0272H1.40979V13.6114C1.40979 15.1939 1.60979 16.0277 2.02832 16.6947C3.24738 18.5438 6.62009 18.3879 7.76558 16.765C8.5247 15.6898 8.52525 15.1389 8.52525 13.5275V0.496998H9.97428ZM27.3752 11.5809C27.0395 15.9095 23.9627 19.3318 19.5862 19.3318C14.5252 19.3318 11.3704 15.6108 11.3704 9.77598C11.3704 3.99726 14.662 0 19.7502 0C23.5611 0 26.3572 1.97056 26.9403 5.52749H25.3877C24.8134 2.7771 22.6771 1.2861 19.6679 1.2861C15.6467 1.2861 12.9655 4.51714 12.9655 9.77652C12.9655 15.0642 15.6772 18.0026 19.6407 18.0026C23.0602 18.0026 25.4128 15.4152 25.8504 11.5814H27.3752V11.5809ZM28.7948 0.496998H35.7691C37.7653 0.496998 38.9206 0.628881 39.9053 1.3237C41.2094 2.24032 41.7325 3.80325 41.7325 5.69262C41.7325 8.86808 39.0464 10.9013 35.9555 10.9013H30.3403V19.0005H28.7948V0.496998ZM30.3403 1.86811V9.60976H35.5032C37.0465 9.60976 37.793 9.39069 38.5113 8.91822C39.5527 8.24901 40.265 7.2234 40.265 5.64793C40.265 4.25884 39.871 3.01742 38.8862 2.37819C38.1413 1.90626 37.1533 1.86757 35.3969 1.86757H30.3403V1.86811ZM52.5286 14.3253C51.9264 17.4599 49.6294 19.3171 47.0316 19.3171C43.32 19.3171 41.2252 16.1067 41.2252 12.4986C41.2252 8.29751 43.7548 5.22287 47.103 5.22287C50.7853 5.22287 52.8169 7.93784 52.8169 12.5645L42.5968 12.5711C42.6644 15.5291 44.3701 18.074 47.0169 18.074C49.0741 18.074 50.6659 16.5754 51.1733 14.3253H52.5286ZM51.3439 11.3553C51.285 10.2659 51.0174 9.33184 50.5842 8.57925C49.018 5.86046 45.4039 5.67354 43.6856 8.53239C43.2344 9.28388 42.7663 10.1667 42.6224 11.3553H51.3439ZM55.6299 5.74112V8.16509C56.0408 7.3591 56.2463 7.05338 56.6315 6.63703C57.5045 5.7482 58.6348 5.22341 59.995 5.22341C61.613 5.22341 63.026 5.86592 63.6936 6.97708C64.2075 7.83811 64.2832 8.66536 64.2832 10.443V18.9999H62.8206V10.9433C62.8206 9.55418 62.7437 8.91821 62.5121 8.30732C62.08 7.22503 61.1018 6.69261 59.6871 6.69261C58.146 6.69261 56.862 7.4986 56.2713 8.77653C55.8348 9.72094 55.7073 10.5269 55.7073 12.3051V18.9999H54.2174V5.74112H55.6299ZM99.7978 5.63703L94.9526 19.5002C94.2524 21.5013 93.92 22.1558 93.557 22.7389C93.1941 23.3018 92.3129 23.9078 91.3271 23.9917C90.7418 24.0419 89.9783 23.8479 89.9783 23.8479V22.431C90.5745 22.5416 90.7712 22.5618 91.1085 22.5618C91.9619 22.5618 92.739 21.7825 93.0905 20.7225L93.7706 18.7214L88.7129 5.63648H90.3734C90.3734 5.63648 94.0208 15.2484 94.5396 16.9432C94.9292 15.6097 98.2414 5.63648 98.2414 5.63648H99.7978V5.63703ZM67.4739 5.7106V8.13457C67.8848 7.32912 68.0903 7.0234 68.4755 6.60651C69.3486 5.71769 70.4777 5.19289 71.839 5.19289C73.457 5.19289 74.8695 5.8354 75.5376 6.94656C76.0504 7.80814 76.1272 8.63484 76.1272 10.413V18.9699H74.6635V10.9128C74.6635 9.52366 74.5867 8.8877 74.3561 8.2768C73.924 7.19506 72.9447 6.66264 71.53 6.66264C69.99 6.66264 68.7061 7.46863 68.1153 8.74601C67.6788 9.69042 67.5502 10.4964 67.5502 12.2741V18.9699H66.0614V5.7106H67.4739ZM88.6688 14.3111C88.0666 17.4457 85.7696 19.304 83.1724 19.304C79.4607 19.304 77.3654 16.0937 77.3654 12.4855C77.3654 8.28389 79.8956 5.20978 83.2438 5.20978C86.9255 5.20978 88.9571 7.92421 88.9571 12.5514L78.737 12.558C78.804 15.516 80.5103 18.061 83.1571 18.061C85.2132 18.061 86.8056 16.5623 87.3135 14.3111H88.6688ZM87.4851 11.3416C87.4258 10.2528 87.1582 9.31821 86.7249 8.56563C85.1582 5.84684 81.5435 5.65992 79.8258 8.51931C79.3746 9.27026 78.907 10.1536 78.7626 11.3416H87.4851ZM101.063 7.39996C100.578 7.39996 100.168 7.02612 100.168 6.51441C100.168 6.0076 100.578 5.63376 101.063 5.63376C101.543 5.63376 101.954 6.0076 101.954 6.51441C101.954 7.02558 101.543 7.39996 101.063 7.39996ZM100.345 6.51441C100.345 6.94002 100.66 7.25283 101.063 7.25283C101.461 7.25283 101.777 6.94002 101.777 6.51441C101.777 6.09588 101.462 5.7809 101.063 5.7809C100.66 5.78036 100.345 6.09588 100.345 6.51441ZM100.877 6.58417V7.02558H100.723V6.00706H101.11C101.349 6.00706 101.469 6.09589 101.469 6.29643C101.469 6.47899 101.355 6.55801 101.205 6.57708L101.494 7.02558H101.322L101.054 6.58417H100.877ZM100.877 6.45338H101.061C101.191 6.45338 101.308 6.44411 101.308 6.28771C101.308 6.16183 101.194 6.13839 101.087 6.13839H100.877V6.45338Z" fill="black"/>
</svg>
