<svg width="40" height="40" viewBox="0 0 40 40" fill="none" xmlns="http://www.w3.org/2000/svg">
<path d="M39.9998 19.9999C39.9998 31.0456 31.0456 40 20 40C8.95425 40 0 31.0456 0 19.9999C0 8.95425 8.95425 0 20 0C31.0455 0 39.9998 8.95425 39.9998 19.9999Z" fill="#BEBEBE"/>
<path d="M35.7542 20C35.7542 28.7 28.7011 35.7537 20.0007 35.7537C11.3004 35.7537 4.24683 28.7 4.24683 20C4.24683 11.2993 11.3004 4.24609 20.0007 4.24609C28.7013 4.24609 35.7542 11.2992 35.7542 20Z" fill="#BEBEBE"/>
<path d="M18.8318 25.342L20.1309 20.4505L23.2064 19.3269L23.9714 16.4522L23.9453 16.3809L20.9178 17.4869L23.0991 9.27344H16.9129L14.0603 19.9922L11.6786 20.8622L10.8916 23.8259L13.2715 22.9565L11.5903 29.2736H28.0542L29.1096 25.342H18.8318Z" fill="white"/>
</svg>
