<svg width="102" height="120" viewBox="0 0 102 120" fill="none" xmlns="http://www.w3.org/2000/svg">
<path d="M84.8107 53.8538L89.5379 56.5833C90.028 56.8663 90.6405 56.5125 90.6405 55.9468V22.8533C90.6405 21.7341 89.9742 20.7753 89.0196 20.3366C88.1622 19.731 86.9999 19.6342 86.032 20.1926L53.2375 39.1271L25.0504 22.8533L47.0754 10.1374C47.2701 10.0251 47.3902 9.81705 47.3902 9.5925V4.13332C47.3902 3.5678 46.7778 3.21415 46.2877 3.497L17.3694 20.1926C16.7322 20.5608 16.2669 21.167 16.0764 21.8777C15.9907 22.1988 15.9719 22.5286 16.0025 22.8533C15.9721 23.1782 15.9907 23.5082 16.0764 23.8289C16.2669 24.5396 16.7322 25.146 17.3694 25.514L50.165 44.4485V76.9958L28.2436 64.3396C28.0489 64.2271 27.8091 64.2271 27.6144 64.3396L22.8868 67.069C22.397 67.352 22.397 68.0592 22.8868 68.342L51.7014 84.9778C52.1382 85.2299 52.6158 85.3498 53.0865 85.3498C53.6715 85.3498 54.2455 85.1622 54.722 84.8157C55.658 84.3695 56.3098 83.4226 56.3098 82.3169V44.4483L84.4962 28.1745V53.3083C84.4962 53.5333 84.6156 53.7412 84.8107 53.8538Z" fill="white"/>
<path d="M47.533 46.3197L44.1517 44.3675L21.9722 57.1727V31.751C21.9722 31.4911 21.8334 31.2504 21.608 31.1203L17.0632 28.4962C16.5141 28.179 15.8276 28.5753 15.8276 29.2094V62.4939C15.8276 63.6 16.4794 64.5467 17.4152 64.9929C17.8919 65.3394 18.4661 65.5266 19.0509 65.5266C19.5215 65.5266 19.9992 65.4066 20.436 65.1546L47.533 49.5104V46.3197Z" fill="white"/>
<path d="M83.4016 16.9005L54.7685 0.368918C53.8021 -0.188627 52.6413 -0.0926663 51.7839 0.511557C50.8279 0.949714 50.1602 1.9095 50.1602 3.02962V33.8863L53.4487 35.7847L56.3046 34.136V8.35119L78.1279 20.9512C78.3534 21.0814 78.631 21.0814 78.8562 20.9512L83.4014 18.3268C83.9505 18.0099 83.9505 17.2172 83.4014 16.9005H83.4016Z" fill="white"/>
<path d="M90.3911 61.5185C90.2006 60.8077 89.7352 60.2016 89.0981 59.8333L62.306 44.3647L58.9364 46.31V49.5147L81.4175 62.494L59.2939 75.2672C59.0683 75.3972 58.9297 75.6377 58.9297 75.8977V81.1462C58.9297 81.7801 59.6162 82.1766 60.1649 81.8594L89.0981 65.1547C89.7352 64.7867 90.2006 64.1804 90.3911 63.4696C90.4768 63.1488 90.4957 62.8189 90.4654 62.494C90.4957 62.1694 90.477 61.8395 90.3911 61.5185Z" fill="white"/>
<path d="M0 108.352C0 115.132 4.96324 119.9 11.4835 119.9C16.5117 119.9 20.5991 117.24 22.1237 112.569H16.9009C15.8304 114.775 13.8841 115.845 11.4511 115.845C7.49344 115.845 4.67136 112.925 4.67136 108.352C4.67136 103.745 7.49362 100.858 11.4511 100.858C13.8841 100.858 15.8304 101.929 16.9009 104.102H22.1237C20.5991 99.4632 16.5117 96.7708 11.4835 96.7708C4.96324 96.7708 0 101.572 0 108.352ZM41.5225 101.734H36.9485V111.628C36.9485 114.515 35.3915 116.072 32.926 116.072C30.5254 116.072 28.9359 114.515 28.9359 111.628V101.734H24.3943V112.277C24.3943 117.208 27.4111 119.933 31.5959 119.933C33.8342 119.933 35.813 118.959 36.9484 117.435V119.706H41.5224V101.734L41.5225 101.734Z" fill="white"/>
<path d="M49.0836 104.364V95.7029H44.542V119.708H49.0836V117.145C50.1865 118.702 52.1977 120 55.0199 120C59.6264 120 63.2271 116.27 63.2271 110.657C63.2271 105.045 59.6264 101.445 55.0199 101.445C52.295 101.445 50.1865 102.71 49.0836 104.364V104.364ZM58.5884 110.657C58.5884 114.064 56.2851 116.01 53.8198 116.01C51.387 116.01 49.0837 114.128 49.0837 110.722C49.0837 107.316 51.387 105.435 53.8198 105.435C56.2851 105.435 58.5884 107.251 58.5884 110.657Z" fill="white"/>
<path d="M80.2199 96.8383H65.5898V119.708H80.2199V114.615H71.9479V110.495H79.2468V105.662H71.9479V101.931H80.2199V96.8383ZM94.2014 119.708H101.338L94.9151 110.787L101.111 101.51H94.1367L91.509 106.084L88.2326 101.51H81.0959L87.4217 110.268L81.3555 119.708H88.3301L90.9252 115.134L94.2014 119.708Z" fill="#F4BA18"/>
</svg>
