<svg width="89" height="24" viewBox="0 0 89 24" fill="none" xmlns="http://www.w3.org/2000/svg">
<path d="M9.82614 0L7.51982 7.08684H0L6.07064 11.4697L3.79084 18.5919L9.82614 14.209L15.8879 18.5919L13.5816 11.4697L19.6169 7.08684H12.1325L9.82614 0Z" fill="#E22130"/>
<path d="M40.7195 6.45989C40.26 6.00039 39.7651 5.66461 39.1377 5.4702C38.5457 5.24046 37.8476 5.14326 37.0965 5.14326C36.3366 5.14326 35.6473 5.2758 34.9493 5.57624C34.26 5.87668 33.6945 6.30083 33.235 6.76033L33.1996 6.79567C32.9699 7.06076 32.7667 7.32586 32.6076 7.61746C32.4751 7.88255 32.3425 8.1123 32.2806 8.3067C32.2188 8.17416 32.1128 7.94441 31.9802 7.71466C31.7505 7.28168 31.5472 6.95473 31.3882 6.82218C30.9287 6.29199 30.3985 5.9297 29.7092 5.6381C29.02 5.33766 28.2954 5.20511 27.4648 5.20511C26.9346 5.20511 26.1747 5.26697 25.3529 5.66461C24.3985 6.1241 23.6033 6.84869 23.0466 7.90906V5.5409H22.2866V18.7602H23.0466V11.2404C23.0466 10.3833 23.1438 9.65868 23.347 8.99595C23.5414 8.33321 23.8418 7.83837 24.2395 7.34353C24.5664 6.88404 25.0613 6.52174 25.6268 6.29199C26.1835 6.0269 26.7844 5.89435 27.4029 5.9297C28.1629 5.96505 28.8168 6.09759 29.4176 6.36269C29.9743 6.62778 30.4427 7.02542 30.8315 7.48491C31.1584 7.94441 31.3882 8.34205 31.5207 8.80154C31.7151 9.35824 31.7858 10.021 31.7858 10.9488V18.7337H32.5457V11.2846C32.5457 10.3656 32.5811 9.60566 32.7401 8.97827C32.908 8.38623 33.1378 7.92674 33.5973 7.32586C33.9949 6.79567 34.4898 6.43338 35.179 6.16828C35.7357 5.97388 36.3631 5.84133 36.9551 5.84133C37.6179 5.84133 38.1746 5.93854 38.7048 6.14177C39.2349 6.34501 39.6237 6.63661 39.9949 6.99891C40.4544 7.4584 40.7902 8.02394 40.9846 8.74852C41.2143 9.47311 41.3115 10.2949 41.3115 11.3199V18.7337H42.0714L42.204 11.2846C42.204 10.1977 42.0714 9.24337 41.8063 8.44809C41.5766 7.65281 41.2408 6.95473 40.7195 6.45989ZM55.7149 8.89874C55.3173 7.97975 54.5574 7.05193 53.5677 6.38919C52.4101 5.59391 51.0316 5.20511 49.5824 5.20511C46.9492 5.20511 45.3321 6.38919 44.4043 7.41422C43.282 8.669 42.6281 10.3833 42.6281 12.1329C42.6281 13.8825 43.2909 15.5968 44.4043 16.8515C45.2967 17.8412 46.9403 19.0607 49.5824 19.0607C50.9344 19.0607 52.1538 18.7337 53.2407 18.1063C54.2657 17.4436 55.0875 16.5864 55.7149 15.4377V18.7691H56.4749V5.57624H55.7149V8.89874ZM55.2908 9.65868C55.4233 10.021 55.5559 10.3833 55.6177 10.7456C55.7149 11.1432 55.7503 11.5673 55.7503 11.9296C55.7856 12.3626 55.7503 12.7514 55.6884 13.1137C55.6266 13.5467 55.5205 13.909 55.388 14.236C54.955 15.4554 54.2039 16.5069 53.1789 17.205C52.1892 17.9296 50.9344 18.2919 49.6531 18.2919C47.7444 18.2919 46.1627 17.6026 45.0051 16.3479C44.0155 15.2256 43.3881 13.6793 43.3881 12.0622C43.3881 10.3126 44.0508 8.7662 45.1642 7.60862C46.3218 6.4864 47.8682 5.8325 49.5824 5.8325C50.8372 5.8325 52.0566 6.19479 53.0463 6.82218C54.0713 7.58211 54.8578 8.53645 55.2908 9.65868ZM59.382 7.54677C60.0713 6.91938 60.7694 6.52174 61.4586 6.23014C62.1479 5.96505 62.9078 5.79715 63.8356 5.79715H63.8975C65.0197 5.79715 66.1684 6.1241 67.1316 6.68963C68.2539 7.41422 69.111 8.4039 69.5705 9.65868L69.6058 9.72053H70.463L70.4011 9.58799C69.8709 8.10346 68.8812 6.88404 67.5646 6.09759C66.4777 5.43486 65.1611 5.10791 63.871 5.10791C61.9623 5.10791 60.2127 5.8325 58.9226 7.12262C57.6324 8.41274 56.9078 10.1889 56.9078 12.0975C56.9078 13.8737 57.5971 15.5879 58.7193 16.8427C60.0094 18.2565 61.8209 19.0165 63.9947 19.0165C65.4085 19.0165 66.7958 18.5835 67.9181 17.797C69.0403 17.0106 69.8974 15.9149 70.3923 14.5982L70.4541 14.4657H69.597L69.5616 14.5276C69.2347 15.4819 68.5366 16.4097 67.6176 17.0636C66.5661 17.8854 65.2141 18.283 63.8268 18.283C63.005 18.283 62.2097 18.1152 61.4498 17.8236C60.6898 17.4966 60.0625 17.0636 59.4704 16.5334C58.8784 15.9414 58.4454 15.2787 58.1184 14.4922C57.7915 13.7323 57.6236 12.8751 57.6236 12.018C57.6236 11.1609 57.818 10.2684 58.1184 9.48195C58.3924 8.73969 58.8519 8.07696 59.382 7.54677ZM68.2804 7.48491C68.8724 8.04161 69.3672 8.77503 69.6942 9.63217C69.3672 8.80154 68.8724 8.1123 68.2804 7.48491Z" fill="#231F20"/>
<path d="M81.1372 5.50535H80.28L80.2447 5.56721C80.2447 5.62906 78.9545 8.63346 77.6733 11.6644L75.1372 17.629L72.7337 11.6644C71.1873 7.70563 70.2948 5.59372 70.2948 5.56721L70.2595 5.50535H69.4023L74.6777 18.6628L72.3007 24H73.1578L73.1932 23.9382C73.1932 23.9382 73.255 23.7703 73.3611 23.5052C73.7587 22.5862 74.8456 20.0413 76.1004 17.1783C76.4273 16.4184 76.7631 15.6319 77.1254 14.8366L80.227 7.67912C80.7572 6.45969 81.0841 5.66441 81.0841 5.6379L81.1372 5.50535ZM87.0753 12.3271C86.3507 11.7969 85.4582 11.5318 84.5657 11.3374L84.4685 11.3021C83.4435 11.0016 82.7896 10.71 82.3566 10.3831C81.8617 9.95009 81.5966 9.42874 81.5613 8.63346C81.5613 8.27116 81.5966 7.90887 81.7292 7.60843C81.8264 7.28148 82.0296 7.01638 82.2594 6.75129C82.5245 6.45085 82.8514 6.25645 83.1784 6.08856C83.576 5.92066 83.9737 5.85881 84.3978 5.85881H84.4597C84.8573 5.85881 85.2196 5.92066 85.5112 6.05321C85.8381 6.18576 86.1386 6.38016 86.3683 6.60991C86.5981 6.83966 86.8013 7.14009 86.925 7.46704C87.0576 7.79399 87.1194 8.15629 87.1194 8.55393V8.65113H87.8794V8.5716C87.8794 7.61726 87.5171 6.76013 86.925 6.13274C86.2976 5.50535 85.4405 5.21375 84.389 5.21375C83.47 5.21375 82.5775 5.51419 81.9148 6.03554C81.1548 6.66293 80.7925 7.55541 80.7925 8.64229C80.8279 9.66732 81.1902 10.4184 81.8441 10.984C82.5333 11.5406 83.4611 11.8411 84.3801 12.0708C85.5024 12.3359 86.2888 12.6982 86.7836 13.1577C87.3138 13.6879 87.5436 14.3153 87.5789 15.1989V15.2961C87.5789 15.7291 87.5171 16.1533 87.3492 16.4802C87.1813 16.8425 86.9869 17.1695 86.6864 17.4346C86.4214 17.735 86.0591 17.9648 85.6968 18.1238C85.2991 18.2917 84.875 18.3536 84.442 18.3536C83.4876 18.3536 82.6305 18.0531 82.0385 17.4964C81.4464 16.9044 81.146 16.1091 81.1195 15.1548V15.0576L80.3595 15.0929V15.358C80.3595 15.8175 80.4567 16.2505 80.6246 16.6746C80.7925 17.1076 81.0223 17.4964 81.3492 17.7969C81.7469 18.1945 82.2064 18.5214 82.7365 18.7158C83.2667 18.9103 83.8234 19.0428 84.4508 19.0428C85.0075 19.0428 85.5377 18.9103 86.0325 18.7158C86.5274 18.4861 86.9515 18.1857 87.3227 17.8234C87.6496 17.4611 87.9501 17.0281 88.118 16.5686C88.3124 16.1091 88.383 15.6143 88.3477 15.0841C88.2947 13.8116 87.8617 12.928 87.0753 12.3271ZM80.7042 4.51567L81.5966 3.88828L82.4891 4.51567L82.1268 3.46413L83.0458 2.8014H81.9589L81.5966 1.77637L81.2697 2.8014H80.1828L81.0399 3.46413L80.7042 4.51567Z" fill="#231F20"/>
</svg>
