<svg width="67" height="24" viewBox="0 0 67 24" fill="none" xmlns="http://www.w3.org/2000/svg">
<path fill-rule="evenodd" clip-rule="evenodd" d="M8.5419 1.06425C4.20261 6.1602 0.0420584 12.4796 0.000338715 17.2032C-0.01591 18.9804 0.551478 20.532 1.91242 21.7072C3.87105 23.3997 6.02906 23.9965 8.17652 24C11.3147 24.0044 14.431 22.7383 16.8709 21.7621C20.9801 20.1187 66.4032 0.393219 66.4032 0.393219C66.8415 0.173641 66.7593 -0.0999508 66.2108 0.0366264C65.9895 0.0919599 16.7607 13.433 16.7607 13.433C15.8282 13.6968 14.8647 13.8347 13.8956 13.8432C10.1123 13.8656 6.74576 11.7656 6.77298 7.34021C6.78352 5.60862 7.31358 3.52044 8.5419 1.06425Z" fill="black"/>
</svg>
