<svg width="84" height="32" viewBox="0 0 84 32" fill="none" xmlns="http://www.w3.org/2000/svg">
<path fill-rule="evenodd" clip-rule="evenodd" d="M0 31.7991C0.146024 31.7632 0.273617 31.7353 0.401211 31.7353C0.528804 31.7353 0.674356 31.7632 0.801949 31.7991C0.738153 29.3579 0.719722 27.4989 0.719722 26.233C0.719722 25.6314 0.729174 25.0119 0.738152 24.3924L3.57167 27.9724C4.80177 29.5129 5.81307 30.8512 6.56918 31.9815H6.72418C6.71473 30.9882 6.69677 29.9226 6.69677 28.8018C6.69677 26.8062 6.72418 24.6197 6.79695 22.2239C6.67834 22.2508 6.55075 22.2782 6.4326 22.2782C6.31446 22.2782 6.1864 22.2504 6.0588 22.2239C6.10417 23.4809 6.14954 25.4764 6.14954 28.1813C6.14954 28.5367 6.14056 28.9383 6.12213 29.4208C4.39111 27.3255 2.45027 24.9113 0.382308 22.041H0.155003V23.5262C0.155003 26.4144 0.109163 29.1751 0 31.7991ZM14.0121 31.999C16.6089 31.999 18.3215 29.9954 18.3215 27.0344C18.3215 23.9917 16.6817 22.0505 14.0121 22.0505C11.3974 22.0505 9.6938 24.0007 9.6938 27.0344C9.6938 30.0861 11.3336 31.999 14.0121 31.999Z" fill="black"/>
<path fill-rule="evenodd" clip-rule="evenodd" d="M14.0114 31.463C11.9888 31.463 10.8594 29.905 10.8594 27.0715C10.8594 24.1837 12.0073 22.5713 14.0114 22.5713C16.0615 22.5713 17.1545 24.1199 17.1545 27.0172C17.155 29.8955 16.0161 31.463 14.0114 31.463Z" fill="#F8F3F9"/>
<path fill-rule="evenodd" clip-rule="evenodd" d="M30.1113 31.7996C30.5848 31.7901 30.8948 31.7726 31.0498 31.7726C31.633 31.7726 32.2072 31.8364 32.7535 31.8364C35.7873 31.8364 37.3638 30.0227 37.3638 26.7252C37.3638 24.9763 36.826 23.6276 35.8696 22.8535C35.1773 22.2978 34.3574 22.1787 33.2549 22.1787C32.3074 22.1787 31.5512 22.2515 30.9865 22.2515C30.6586 22.2515 30.367 22.234 30.1118 22.2245C30.1576 23.655 30.1576 25.2489 30.1576 27.0168C30.1572 28.7019 30.1572 30.3049 30.1113 31.7996Z" fill="black"/>
<path fill-rule="evenodd" clip-rule="evenodd" d="M31.1577 31.1991C31.1285 29.6837 31.1134 28.168 31.1123 26.6524C31.1123 25.3953 31.1303 24.1198 31.1487 22.8164C31.8046 22.7526 32.4057 22.7437 32.9161 22.7437C35.2393 22.7437 36.2322 23.9648 36.2322 26.9893C36.2322 29.8772 34.9657 31.2718 32.3878 31.2718C32.014 31.2718 31.6043 31.2444 31.1577 31.1991Z" fill="#F8F3F9"/>
<path fill-rule="evenodd" clip-rule="evenodd" d="M40.0884 31.2446C40.6077 31.7365 41.2816 31.9827 42.0472 31.9827C43.7418 31.9827 44.8264 30.7522 44.8264 28.9574C44.8264 27.7372 44.3529 27.0624 43.2867 26.5161L42.3388 26.0241C41.5278 25.605 41.1545 25.1409 41.1545 24.3111C41.1545 23.245 41.6923 22.5711 42.5576 22.5711C43.2229 22.5711 43.7603 22.9354 44.17 23.6556C44.2706 23.2634 44.3703 22.8986 44.4975 22.5711C43.9242 22.2252 43.3676 22.0513 42.7215 22.0513C41.2452 22.0513 40.2524 23.1902 40.2524 24.7666C40.2524 25.8965 40.7533 26.5978 41.8104 27.1167L42.7575 27.5912C43.5689 27.9919 43.9417 28.4385 43.9417 29.3586C43.9417 30.634 43.2589 31.4261 42.2655 31.4261C41.4092 31.4261 40.6895 30.816 40.3341 29.7499C40.2969 30.2544 40.2146 30.7547 40.0884 31.2446ZM49.2723 31.8003C49.4632 31.7734 49.6546 31.7734 49.8281 31.7734C50.019 31.7734 50.1924 31.7734 50.3559 31.8003C50.3208 29.8751 50.3027 27.9497 50.3016 26.0241C50.3016 24.8574 50.311 23.8097 50.3559 22.8816H50.6938C51.4948 22.8816 52.1871 22.9269 52.7708 23.0541C52.7458 22.9157 52.7338 22.7754 52.7348 22.6349C52.7348 22.4889 52.7443 22.3523 52.7708 22.2252C51.6782 22.2521 50.648 22.2705 49.6546 22.2705C48.6707 22.2705 47.7506 22.2521 46.858 22.2252C46.8674 22.3617 46.8858 22.5167 46.8858 22.6628C46.8858 22.7809 46.8674 22.9269 46.858 23.0541C47.3594 22.9359 48.0885 22.8816 49.0086 22.8816H49.3271V25.2222C49.3267 27.2906 49.2988 29.4862 49.2723 31.8003ZM21.539 31.8003C21.7304 31.7644 21.9129 31.7365 22.0858 31.7365C22.2767 31.7365 22.4502 31.7644 22.6321 31.8003C22.5957 31.0168 22.5683 30.3151 22.5683 29.6865V24.2114C22.5683 23.7922 22.5778 23.3003 22.6411 22.7809C23.0144 22.753 23.3334 22.7441 23.5522 22.7441C24.9009 22.7441 25.5658 23.3726 25.5658 24.64C25.5658 26.0246 24.7001 26.698 22.9601 26.698H22.8509L24.5361 29.359C25.0006 30.0873 25.4836 30.9076 26.0029 31.8003C26.2256 31.7605 26.4511 31.7391 26.6773 31.7365C26.9141 31.7365 27.1418 31.7644 27.3786 31.8003C26.1854 30.0329 25.1192 28.4654 24.2445 27.0628C25.7662 26.7259 26.5861 25.7699 26.5861 24.4666C26.5861 22.9364 25.7024 22.1978 23.9529 22.1978C23.1968 22.1978 22.5773 22.2521 22.0764 22.2521C21.9488 22.2521 21.7574 22.2346 21.5386 22.2252C21.5934 23.4732 21.6208 25.0681 21.6208 27.0175C21.6208 28.8298 21.6118 30.4157 21.539 31.8003ZM55.4951 31.8003C55.6748 31.7619 55.8577 31.7405 56.0414 31.7365C56.2323 31.7365 56.4058 31.7644 56.5787 31.8003C56.5446 31.0962 56.5265 30.3915 56.5244 29.6865V24.2114C56.5244 23.7922 56.5338 23.3003 56.5882 22.7809C56.8943 22.7576 57.2012 22.7453 57.5083 22.7441C58.8475 22.7441 59.5224 23.3726 59.5224 24.64C59.5224 26.0246 58.6566 26.698 56.9076 26.698H56.807L58.4922 29.359C58.9572 30.0873 59.4402 30.9076 59.9505 31.8003C60.1774 31.7644 60.3962 31.7365 60.6334 31.7365C60.8612 31.7365 61.0975 31.7644 61.3347 31.8003C60.1414 30.0329 59.0753 28.4654 58.1912 27.0628C59.7133 26.7259 60.5327 25.7699 60.5327 24.4666C60.5327 22.9364 59.6585 22.1978 57.9005 22.1978C57.1529 22.1978 56.5334 22.2521 56.0324 22.2521C55.9049 22.2521 55.7139 22.2346 55.4951 22.2252C55.5495 23.4732 55.5764 25.0681 55.5764 27.0175C55.5759 28.8298 55.5585 30.4157 55.4951 31.8003ZM67.1653 32.0002C69.7616 32.0002 71.4746 29.9965 71.4746 27.0354C71.4746 23.9926 69.8343 22.0513 67.1653 22.0513C64.5505 22.0513 62.8464 24.0016 62.8464 27.0354C62.8464 30.0873 64.4867 32.0002 67.1653 32.0002Z" fill="black"/>
<path fill-rule="evenodd" clip-rule="evenodd" d="M67.1647 31.463C65.1426 31.463 64.0127 29.905 64.0127 27.0715C64.0127 24.1837 65.161 22.5713 67.1647 22.5713C69.2146 22.5713 70.3176 24.1199 70.3176 27.0172C70.3176 29.8955 69.1693 31.463 67.1647 31.463Z" fill="#F8F3F9"/>
<path fill-rule="evenodd" clip-rule="evenodd" d="M73.8164 31.8002C73.9808 31.7643 74.1349 31.7365 74.2899 31.7365C74.4359 31.7365 74.5815 31.7643 74.718 31.8002C74.7365 30.4978 74.9009 28.1747 75.2922 24.8214L77.1234 28.8576C77.6248 29.969 78.0251 30.9165 78.2349 31.7908H78.3994C78.7269 30.6793 79.6564 28.2834 81.3973 24.8029C81.5434 25.7046 81.7797 28.0287 81.998 31.8002C82.1809 31.7643 82.3534 31.7365 82.5268 31.7365C82.6993 31.7365 82.8822 31.7643 83.0546 31.8002C82.7262 28.5495 82.4164 25.2969 82.1251 22.0427H81.9791C80.7948 24.7037 79.6465 27.2456 78.5085 29.659C77.415 27.2537 76.3394 24.7212 75.219 22.0427H75.028C74.5366 26.7532 74.1628 30.0234 73.8164 31.8002ZM36.2163 1.99914C39.9061 -0.752158 43.5865 -0.579197 47.2674 1.99914V11.9935C43.5865 14.5718 39.9061 14.7358 36.2163 11.9935V1.99914Z" fill="black"/>
<path fill-rule="evenodd" clip-rule="evenodd" d="M46.8124 2.23553V11.7469C43.45 14.0247 39.9974 14.1523 36.6719 11.7564V2.22655C39.9969 -0.16039 43.4495 -0.0422496 46.8124 2.23553Z" fill="#F8F3F9"/>
<path fill-rule="evenodd" clip-rule="evenodd" d="M46.1187 2.6087V11.373C43.167 13.2591 40.2611 13.3503 37.3638 11.3915V2.59027C40.2791 0.631452 43.1944 0.750069 46.1187 2.6087Z" fill="black"/>
<path fill-rule="evenodd" clip-rule="evenodd" d="M39.0493 10.7905C39.1585 10.7541 39.2676 10.7357 39.3683 10.7357C39.4685 10.7357 39.5776 10.7541 39.6873 10.7905C39.6428 9.31795 39.6186 7.84482 39.6145 6.37157C39.6145 5.88908 39.624 5.39714 39.6329 4.91417L41.8743 7.74768C42.8488 8.97777 43.6512 10.0344 44.2518 10.9366H44.3794C44.3426 8.35216 44.3607 5.76726 44.4338 3.18364C44.3391 3.21214 44.241 3.22741 44.1422 3.229C44.0519 3.229 43.9513 3.21057 43.8516 3.18364C43.8875 4.18548 43.9243 5.77094 43.9243 7.92111C43.9243 8.19473 43.9149 8.52222 43.9059 8.89602C42.5298 7.23778 40.9812 5.32436 39.3503 3.03809H39.1684V4.22234C39.1715 6.4123 39.1318 8.60212 39.0493 10.7905Z" fill="#F8F3F9"/>
</svg>
