<svg width="304" height="304" viewBox="0 0 304 304" fill="none" xmlns="http://www.w3.org/2000/svg">
<path d="M107.776 263.895C107.7 263.842 107.654 263.766 107.639 263.682C107.624 263.598 107.639 263.507 107.692 263.431C107.692 263.431 107.708 263.408 107.738 263.363C107.768 263.317 107.822 263.241 107.882 263.15C108.012 262.96 108.194 262.679 108.43 262.314C108.901 261.577 109.577 260.49 110.383 259.099C112.002 256.318 114.16 252.305 116.318 247.418C119.465 240.297 122.596 231.298 124.07 221.494C116.075 216.957 106.879 214.297 97.0752 214.092C96.7712 214.67 96.4596 215.24 96.148 215.81C73.9104 255.922 56.7724 264.776 56.704 264.814C56.6052 264.868 56.4912 264.86 56.3924 264.807C56.3848 264.807 55.1916 264.146 53.4436 263.028L51.2852 264.51C51.2928 264.518 51.3004 264.526 51.308 264.533C51.498 264.731 51.7868 265.012 52.1516 265.346C52.4556 265.628 52.8128 265.954 53.2232 266.304L53.7324 266.061C53.8236 266.015 53.93 266.015 54.0212 266.068L57.122 267.657C57.2284 267.71 57.3044 267.824 57.3044 267.946C57.3044 268.067 57.236 268.181 57.1296 268.242L56.3316 268.66C58.7332 270.256 61.72 271.746 64.8056 272.057C66.698 272.247 68.2028 272.87 69.3808 273.684C70.5588 274.504 71.4024 275.515 72.0104 276.503C72.9452 278.023 73.31 279.475 73.4316 280.068H104.113L110.565 265.498C108.81 264.594 107.784 263.902 107.776 263.895Z" fill="url(#paint0_linear_7_353)"/>
<path d="M131.83 268.417C131.785 268.471 131.724 268.516 131.655 268.531C131.199 268.653 130.751 268.759 130.303 268.851L130.158 270.029C130.607 270.013 131.412 269.991 132.453 269.991C132.947 269.991 133.502 269.998 134.087 270.006L134.452 269.299C134.505 269.193 134.619 269.124 134.749 269.124H137.545C137.652 269.124 137.758 269.177 137.819 269.269C137.88 269.36 137.895 269.474 137.849 269.58L137.606 270.181C137.963 270.211 138.328 270.241 138.693 270.272C141.064 270.5 143.58 270.887 145.791 271.571C148.018 272.255 149.363 273.471 150.123 274.794C150.883 276.109 151.073 277.515 151.073 278.586C151.073 279.217 151.013 279.734 150.952 280.068H152.479C152.913 277.233 153.141 274.33 153.141 271.374C153.141 260.285 149.987 249.934 144.53 241.156C144.271 242.106 144.005 243.049 143.724 243.968C140.737 253.924 136.55 262.398 131.83 268.417Z" fill="url(#paint1_linear_7_353)"/>
<path d="M41.6561 252.738C41.6333 252.814 41.6029 252.882 41.5801 252.958L41.7093 252.814C41.6865 252.791 41.6713 252.761 41.6561 252.738Z" fill="url(#paint2_linear_7_353)"/>
<path d="M40.2502 278.191C39.7638 277.895 39.3002 277.583 38.8594 277.256C38.9582 278.199 39.0722 279.134 39.2166 280.061H44.6961C43.0165 279.62 41.5422 278.974 40.2502 278.191Z" fill="url(#paint3_linear_7_353)"/>
<path d="M150.427 278.578C150.427 277.574 150.252 276.29 149.568 275.112C148.884 273.934 147.699 272.84 145.609 272.194C143.466 271.532 140.988 271.145 138.64 270.924C138.206 270.886 137.781 270.848 137.355 270.818L136.291 273.486C136.246 273.592 136.154 273.668 136.04 273.691L132.468 274.306C132.347 274.329 132.218 274.276 132.142 274.177C132.066 274.078 132.058 273.942 132.111 273.828L133.753 270.666C133.289 270.658 132.856 270.651 132.453 270.651C131.237 270.651 130.348 270.681 129.983 270.696C129.862 270.704 129.801 270.704 129.801 270.704C129.702 270.712 129.611 270.674 129.542 270.598C129.474 270.529 129.444 270.43 129.459 270.332L129.626 268.979C128.197 269.23 126.791 269.344 125.416 269.344C120.559 269.344 116.159 267.983 112.967 266.623C112.306 266.342 111.698 266.06 111.15 265.787L104.827 280.06H150.306C150.321 279.999 150.328 279.923 150.344 279.832C150.382 279.528 150.427 279.094 150.427 278.578Z" fill="white"/>
<path d="M150.138 274.785C149.378 273.463 148.032 272.247 145.806 271.563C143.594 270.879 141.078 270.491 138.707 270.263C138.342 270.225 137.978 270.195 137.62 270.172L137.362 270.818C137.78 270.848 138.213 270.886 138.646 270.924C140.987 271.145 143.465 271.532 145.616 272.194C147.706 272.84 148.891 273.934 149.575 275.112C150.259 276.29 150.434 277.574 150.434 278.578C150.434 279.094 150.388 279.528 150.343 279.832C150.327 279.915 150.32 279.991 150.305 280.06H150.571H150.974C151.027 279.725 151.095 279.208 151.095 278.578C151.088 277.498 150.898 276.1 150.138 274.785ZM129.541 270.598C129.61 270.666 129.701 270.704 129.8 270.704C129.8 270.704 129.861 270.704 129.982 270.696C130.347 270.681 131.236 270.651 132.452 270.651C132.855 270.651 133.288 270.651 133.752 270.666L134.094 270.012C133.501 269.997 132.954 269.997 132.46 269.997C131.411 269.997 130.605 270.02 130.165 270.035L130.309 268.857C130.081 268.903 129.853 268.948 129.625 268.986L129.458 270.339C129.443 270.43 129.473 270.522 129.541 270.598ZM110.549 265.49L104.097 280.06H104.819L111.142 265.787C110.937 265.688 110.739 265.589 110.549 265.49ZM118.727 101.931C119.965 103.071 121.257 104.12 122.603 105.062H167.975C169.092 104.059 170.589 102.775 172.01 101.726C172.938 101.042 173.827 100.464 174.579 100.122C175.012 99.9245 175.4 99.8029 175.772 99.8029C175.962 99.8029 176.152 99.8409 176.32 99.9397C176.487 100.039 176.616 100.198 176.692 100.388C176.852 100.791 176.928 101.186 176.928 101.566C176.928 102.068 176.806 102.524 176.631 102.934C176.456 103.345 176.228 103.702 176 103.998C175.78 104.287 175.56 104.523 175.385 104.69C175.598 104.667 175.871 104.644 176.19 104.606C176.973 104.507 177.992 104.348 178.957 104.082C179.603 103.907 180.218 103.686 180.712 103.413C181.693 102.881 182.514 102.288 183.22 101.749C183.935 101.209 184.528 100.723 185.075 100.403C185.44 100.191 185.797 100.046 186.169 100.046C186.435 100.046 186.709 100.13 186.937 100.305H186.944C187.104 100.426 187.226 100.571 187.302 100.738C187.378 100.905 187.416 101.08 187.416 101.255C187.416 101.414 187.385 101.574 187.347 101.733C187.568 101.597 187.788 101.475 188.016 101.384C188.252 101.293 188.495 101.232 188.738 101.224C188.989 101.224 189.24 101.293 189.452 101.46C189.635 101.597 189.772 101.756 189.87 101.939C189.962 102.113 190.007 102.311 190.007 102.501C190.007 102.736 189.946 102.957 189.848 103.162C189.81 103.238 189.764 103.322 189.718 103.398C189.901 103.352 190.083 103.322 190.266 103.322C190.395 103.322 190.532 103.337 190.653 103.383C190.782 103.421 190.904 103.489 191.01 103.588C191.155 103.717 191.261 103.869 191.337 104.029C191.413 104.188 191.444 104.355 191.444 104.523C191.444 104.713 191.398 104.903 191.33 105.077H197.425V97.4469H117.298V100.555C117.769 101.019 118.24 101.482 118.727 101.931ZM149.096 98.6097C150.791 98.6097 152.167 99.9853 152.167 101.68C152.167 103.375 150.791 104.751 149.096 104.751C147.402 104.751 146.026 103.375 146.026 101.68C146.026 99.9853 147.402 98.6173 149.096 98.6097ZM123.005 98.3589C123.005 98.2753 123.043 98.1841 123.104 98.1233C123.165 98.0625 123.249 98.0245 123.34 98.0245H142.195C142.279 98.0245 142.37 98.0625 142.431 98.1233C142.492 98.1841 142.53 98.2677 142.53 98.3589V102.965C142.53 103.048 142.492 103.139 142.431 103.2C142.37 103.261 142.287 103.299 142.195 103.299H123.34C123.256 103.299 123.165 103.261 123.104 103.2C123.043 103.139 123.005 103.056 123.005 102.965V98.3589Z" fill="#7D2D80"/>
<path d="M123.584 105.724H167.246C167.467 105.526 167.71 105.298 167.976 105.063H122.604C122.923 105.291 123.25 105.511 123.584 105.724ZM117.253 100.495C117.269 100.511 117.284 100.526 117.299 100.541V97.4325H197.418V105.063H191.323C191.255 105.238 191.156 105.405 191.05 105.564L191.042 105.572C191.224 105.572 191.407 105.602 191.589 105.686C191.612 105.694 191.627 105.709 191.65 105.716H197.753C197.836 105.716 197.928 105.678 197.988 105.618C198.049 105.557 198.087 105.473 198.087 105.382V97.0905C198.087 97.0069 198.049 96.9157 197.988 96.8549C197.928 96.7941 197.844 96.7561 197.753 96.7561H116.965C116.881 96.7561 116.805 96.7865 116.744 96.8397C116.934 98.1013 117.109 99.3173 117.253 100.495Z" fill="#7D2D80"/>
<path d="M117.298 94.5211H197.417V69.2739H117.298V94.5211ZM133.721 74.0619C137.377 74.0619 140.334 77.0259 140.334 80.6739C140.334 84.3295 137.369 87.2859 133.721 87.2859C130.066 87.2859 127.109 84.3219 127.109 80.6739C127.109 77.0259 130.073 74.0619 133.721 74.0619Z" fill="white"/>
<path d="M116.729 68.711C116.668 68.7718 116.63 68.8554 116.63 68.9466V94.855C116.63 94.9386 116.668 95.0298 116.729 95.0906C116.79 95.1514 116.873 95.1894 116.965 95.1894H197.745C197.829 95.1894 197.92 95.1514 197.981 95.0906C198.042 95.0298 198.08 94.9462 198.08 94.855V68.9466C198.08 68.863 198.042 68.7718 197.981 68.711C197.92 68.6502 197.836 68.6122 197.745 68.6122H116.965C116.881 68.6122 116.79 68.6502 116.729 68.711ZM197.411 94.5206H117.299V69.2734H197.418L197.411 94.5206ZM185.813 52.2418H110.702V66.3702H185.813V52.2418ZM123.333 64.3334C120.552 64.3334 118.302 62.0838 118.302 59.3022C118.302 56.5206 120.552 54.271 123.333 54.271C126.115 54.271 128.365 56.5206 128.365 59.3022C128.365 62.0838 126.115 64.3334 123.333 64.3334ZM184.513 62.9122C184.513 62.9958 184.475 63.087 184.415 63.1478C184.354 63.2086 184.27 63.2466 184.179 63.2466H154.311C154.227 63.2466 154.136 63.2086 154.075 63.1478C154.015 63.087 153.977 63.0034 153.977 62.9122V60.7082C153.977 60.6246 154.015 60.5334 154.075 60.4726C154.136 60.4118 154.22 60.3738 154.311 60.3738H184.179C184.263 60.3738 184.354 60.4118 184.415 60.4726C184.475 60.5334 184.513 60.617 184.513 60.7082V62.9122ZM184.415 58.5878C184.354 58.6486 184.27 58.6866 184.179 58.6866H159.783C159.699 58.6866 159.608 58.6486 159.547 58.5878C159.487 58.527 159.449 58.4434 159.449 58.3522V55.2666C159.449 55.183 159.487 55.0918 159.547 55.031C159.608 54.9702 159.692 54.9322 159.783 54.9322H184.179C184.263 54.9322 184.354 54.9702 184.415 55.031C184.475 55.0918 184.513 55.1754 184.513 55.2666V58.3522C184.513 58.4434 184.475 58.527 184.415 58.5878Z" fill="#7D2D80"/>
<path d="M110.368 67.0325H186.14C186.223 67.0325 186.314 66.9945 186.375 66.9337C186.436 66.8729 186.474 66.7893 186.474 66.6981V51.9085C186.474 51.8249 186.436 51.7337 186.375 51.6729C186.314 51.6121 186.231 51.5741 186.14 51.5741H110.368C110.284 51.5741 110.193 51.6121 110.132 51.6729C110.071 51.7337 110.033 51.8173 110.033 51.9085V66.6981C110.033 66.7817 110.071 66.8729 110.132 66.9337C110.193 66.9945 110.284 67.0325 110.368 67.0325ZM110.702 52.2429H185.813V66.3713H110.702V52.2429Z" fill="#7D2D80"/>
<path d="M89.407 43.0469C89.3842 42.8949 89.4678 42.7429 89.6122 42.6897C90.927 42.1805 91.839 41.5117 92.4166 40.7213C92.9942 39.9309 93.2678 39.0037 93.2678 37.9321C93.2678 35.9865 92.3482 33.5621 90.7826 30.8717C89.8858 29.3213 89.0726 28.0369 88.2518 27.0413C87.8414 26.5473 87.431 26.1217 86.9978 25.7721C86.9218 25.8785 86.8458 25.9773 86.7622 26.0913C86.0478 27.0793 85.1814 28.3713 84.619 29.5721C84.239 30.3701 84.0034 31.1377 84.0034 31.7001C84.0034 31.7837 84.011 31.8673 84.0186 31.9433C84.1022 32.5817 84.1934 33.0985 84.2618 33.5317C84.3302 33.9573 84.3834 34.2917 84.3834 34.5881C84.3834 34.7401 84.3682 34.8921 84.3226 35.0289C84.277 35.1733 84.1858 35.3025 84.0718 35.4013C83.9958 35.4697 83.9046 35.5153 83.8134 35.5533C83.6918 35.6065 83.555 35.6369 83.403 35.6597C83.2966 35.6749 83.1902 35.6825 83.0914 35.6825C82.833 35.6825 82.6126 35.6217 82.4454 35.5609C82.2706 35.4925 82.149 35.4241 82.0578 35.3937C81.997 35.3709 81.9514 35.3633 81.9134 35.3633C81.8754 35.3633 81.8298 35.3709 81.7614 35.4013C81.693 35.4317 81.6094 35.4849 81.4954 35.5761C81.4954 35.6065 81.5106 35.6749 81.5486 35.7585C81.5866 35.8573 81.655 35.9789 81.7386 36.1233C81.9058 36.4045 82.149 36.7541 82.4226 37.1417C82.9698 37.9169 83.6462 38.8517 84.1022 39.8397C84.4062 40.5009 84.619 41.1849 84.619 41.8841C84.619 42.5377 84.4214 43.1913 83.9426 43.7613C83.593 44.1869 83.1826 44.4909 82.7418 44.6809C82.3086 44.8709 81.845 44.9469 81.389 44.9469C80.9482 44.9469 80.4998 44.8709 80.0742 44.7569C80.971 47.7285 81.807 51.0041 82.4834 53.8009C82.8178 55.1917 83.1142 56.4685 83.3498 57.5249C84.9762 57.0081 86.785 56.7345 88.7914 56.7345C90.167 56.7345 91.4742 56.8637 92.7282 57.1069C92.447 56.1417 92.105 54.9181 91.7402 53.5577C90.8662 50.2821 89.8706 46.2085 89.407 43.0469Z" fill="white"/>
<path d="M87.0052 25.7792C87.4308 26.1288 87.8412 26.5468 88.2592 27.0484C89.08 28.044 89.8932 29.3284 90.79 30.8788C92.3556 33.5692 93.2752 35.986 93.2752 37.9392C93.2752 39.0108 93.0092 39.938 92.424 40.7284C91.8464 41.5188 90.9344 42.1876 89.6196 42.6968C89.4752 42.75 89.3916 42.902 89.4144 43.054C89.878 46.2156 90.8812 50.2816 91.7552 53.5724C92.12 54.9328 92.462 56.1564 92.7432 57.1216C92.994 57.1672 93.2372 57.2204 93.4804 57.2812C93.108 55.9968 92.5912 54.1652 92.0668 52.136C91.3068 49.2176 90.524 45.8888 90.1136 43.2136C91.3904 42.6816 92.3328 41.9824 92.9712 41.1236C93.6476 40.2116 93.9516 39.1248 93.9516 37.9468C93.9516 35.796 92.9712 33.2956 91.3828 30.5596C90.1744 28.4772 89.1104 26.8356 87.902 25.688C87.7424 25.5436 87.5904 25.3992 87.4232 25.27C87.2788 25.4144 87.1496 25.5892 87.0052 25.7792ZM83.3572 57.532C83.1216 56.4756 82.8252 55.1988 82.4908 53.808C81.8144 51.0112 80.9784 47.7356 80.0816 44.764C79.8232 44.6956 79.5648 44.6044 79.314 44.5056C80.2564 47.576 81.1456 51.0264 81.8448 53.96C82.1868 55.3812 82.4832 56.6732 82.7264 57.7372C82.9316 57.6688 83.1444 57.6004 83.3572 57.532Z" fill="#7D2D80"/>
<path d="M72.7397 280.06C72.7245 279.984 72.7017 279.893 72.6789 279.794C72.5801 279.392 72.4053 278.822 72.1317 278.183C71.5845 276.906 70.6269 275.348 68.9929 274.224C67.9061 273.471 66.5153 272.894 64.7293 272.711C61.3473 272.362 58.1629 270.712 55.6625 269.002L52.5161 270.659C52.4173 270.712 52.2881 270.712 52.1893 270.652L49.0885 268.805C48.9821 268.744 48.9213 268.63 48.9289 268.508C48.9365 268.387 49.0049 268.28 49.1189 268.227L52.5617 266.601C51.2849 265.491 50.5325 264.678 50.5249 264.67C50.4565 264.602 50.4261 264.503 50.4413 264.412C50.4489 264.313 50.5021 264.23 50.5857 264.176L52.8429 262.634C52.6453 262.504 52.4401 262.368 52.2273 262.231C49.8409 260.642 46.8389 258.438 44.3841 255.968C43.5481 255.125 42.7729 254.258 42.1117 253.369L31.9429 264.61C31.9505 264.67 31.9657 264.739 31.9885 264.83C32.0417 265.081 32.1253 265.438 32.2469 265.886C32.4901 266.783 32.8929 268.022 33.5237 269.398C34.7853 272.149 36.9589 275.44 40.5993 277.628C43.0237 279.088 46.1017 280.06 50.0233 280.06C51.2697 280.06 52.4553 280.06 53.5953 280.06C65.0485 280.06 71.1893 280.06 72.7397 280.06Z" fill="white"/>
<path d="M69.3722 273.684C68.1942 272.863 66.6894 272.248 64.797 272.058C61.7114 271.746 58.7246 270.256 56.323 268.66L55.6618 269.01C58.1622 270.72 61.3466 272.369 64.7286 272.719C66.5222 272.901 67.9054 273.479 68.9922 274.231C70.6186 275.364 71.5762 276.914 72.131 278.191C72.4046 278.829 72.5794 279.399 72.6782 279.802C72.701 279.901 72.7238 279.984 72.739 280.068C71.1886 280.068 65.0478 280.068 53.587 280.068H73.005C73.0962 280.068 73.1342 280.068 73.1342 280.068H73.4078C73.2862 279.475 72.9214 278.024 71.9866 276.504C71.3938 275.516 70.5426 274.497 69.3722 273.684ZM44.695 280.06H50.015C46.0934 280.06 43.0154 279.088 40.591 277.628C36.9582 275.44 34.7846 272.149 33.5154 269.398C32.8846 268.022 32.4818 266.783 32.2386 265.886C32.117 265.438 32.0334 265.081 31.9802 264.83C31.9574 264.739 31.9498 264.663 31.9346 264.61L42.1034 253.369C41.9666 253.187 41.8374 253.004 41.7082 252.822L41.579 252.966L31.3418 264.29C31.2734 264.366 31.243 264.465 31.2582 264.564C31.2658 264.587 31.8966 268.6 34.5566 272.635C35.6282 274.262 37.0342 275.896 38.8658 277.264C39.3066 277.59 39.7702 277.902 40.2566 278.198C41.541 278.974 43.0154 279.62 44.695 280.06ZM50.4406 264.412C50.433 264.511 50.4634 264.602 50.5242 264.67C50.5318 264.678 51.2842 265.491 52.561 266.601L53.2146 266.289C52.8042 265.94 52.447 265.62 52.143 265.332C51.7782 264.99 51.497 264.716 51.2994 264.518C51.2918 264.511 51.2842 264.503 51.2766 264.496L53.435 263.014C53.2374 262.892 53.0398 262.763 52.8346 262.626L50.5774 264.169C50.5014 264.23 50.4482 264.313 50.4406 264.412ZM108.102 116.379H105.161C105.685 117.033 106.263 117.77 106.916 118.614C109.272 121.661 112.495 125.993 116.849 132.126C117.153 128.25 117.351 124.861 117.48 122.102C114.068 120.483 110.952 118.53 108.102 116.379ZM103.489 164.35C97.6594 159.372 92.993 154.47 89.2463 149.812C86.5178 165.224 81.1294 181.678 74.183 196.97C64.8654 217.474 52.7586 235.874 40.5226 246.826C40.477 247.099 40.4542 247.373 40.4542 247.646C40.4542 248.536 40.6822 249.463 41.0926 250.398C41.503 251.332 42.0958 252.275 42.8102 253.202C44.2466 255.064 46.1846 256.865 48.1606 258.454C51.8922 261.448 55.7454 263.675 56.5586 264.131C56.5662 264.123 56.5814 264.123 56.589 264.116C56.7182 264.047 56.9082 263.933 57.159 263.774C57.6606 263.462 58.4054 262.968 59.3782 262.246C61.3162 260.802 64.1282 258.469 67.647 254.874C74.677 247.692 84.481 235.494 95.577 215.483C102.888 202.297 107.79 186.77 111.066 171.89C108.854 169.306 106.339 166.79 103.489 164.35Z" fill="#7D2D80"/>
<path d="M42.0959 253.362C42.7647 254.251 43.5323 255.125 44.3683 255.961C46.8231 258.431 49.8251 260.635 52.2115 262.224C52.4243 262.36 52.6295 262.497 52.8271 262.626C53.0323 262.763 53.2375 262.892 53.4275 263.014C55.1755 264.131 56.3763 264.785 56.3763 264.792C56.4751 264.846 56.5891 264.846 56.6879 264.8C56.7563 264.77 73.8943 255.916 96.1319 215.795C96.4435 215.225 96.7551 214.655 97.0591 214.077C103.823 201.34 108.436 186.649 111.583 172.521C111.408 172.308 111.225 172.095 111.043 171.882C107.76 186.763 102.865 202.282 95.5543 215.476C84.4583 235.487 74.6543 247.685 67.6243 254.867C64.1131 258.462 61.2935 260.802 59.3555 262.239C58.3903 262.961 57.6379 263.455 57.1363 263.766C56.8855 263.926 56.6955 264.032 56.5663 264.108C56.5511 264.116 56.5435 264.124 56.5359 264.124C55.7227 263.668 51.8771 261.441 48.1379 258.446C46.1619 256.858 44.2239 255.057 42.7875 253.195C42.0731 252.268 41.4803 251.318 41.0699 250.39C40.6595 249.456 40.4315 248.536 40.4315 247.639C40.4315 247.366 40.4543 247.092 40.4999 246.818C52.7359 235.867 64.8427 217.467 74.1603 196.962C81.1067 181.679 86.4951 165.225 89.2235 149.804C89.0411 149.576 88.8587 149.341 88.6763 149.113C85.9935 164.624 80.5747 181.253 73.5599 196.689C64.2499 217.186 52.1279 235.57 39.9679 246.408C39.9147 246.454 39.8767 246.522 39.8615 246.59C39.7931 246.94 39.7627 247.29 39.7627 247.639C39.7627 248.68 40.0363 249.722 40.4999 250.748C40.8039 251.416 41.1839 252.078 41.6247 252.731C41.6399 252.754 41.6627 252.784 41.6779 252.807C41.8299 252.997 41.9667 253.18 42.0959 253.362ZM117.473 122.102C117.343 124.861 117.146 128.251 116.842 132.127C117.039 132.4 117.237 132.681 117.435 132.97C117.769 128.881 117.982 125.302 118.119 122.399C117.906 122.3 117.693 122.201 117.473 122.102Z" fill="#7D2D80"/>
<path d="M70.7411 188.952C70.7411 179.208 66.4091 170.476 59.5691 164.571V171.251C59.5691 171.335 59.5311 171.426 59.4703 171.487C59.4095 171.548 59.3259 171.586 59.2347 171.586H28.7283C28.6447 171.586 28.5535 171.548 28.4927 171.487C28.4319 171.426 28.3939 171.342 28.3939 171.251V158.407C15.6031 162.656 6.36914 174.724 6.36914 188.952C6.36914 206.728 20.7787 221.13 38.5551 221.13C56.3315 221.13 70.7411 206.72 70.7411 188.952Z" fill="url(#paint4_linear_7_353)"/>
<path d="M29.062 158.194V170.924H58.8997V164.024C53.3517 159.494 46.2684 156.773 38.5544 156.773C35.2484 156.773 32.064 157.267 29.062 158.194Z" fill="url(#paint5_linear_7_353)"/>
<path d="M169.64 156.773C169.64 183.647 191.429 205.436 218.311 205.436C222.012 205.436 225.614 205.018 229.08 204.235C229.543 203.802 229.969 203.354 230.319 202.844C230.858 202.046 231.215 201.119 231.215 199.835C231.215 199.113 231.101 198.505 230.904 197.965C230.706 197.426 230.433 196.962 230.098 196.536C229.437 195.678 228.548 194.971 227.681 194.196C227.111 193.679 226.549 193.124 226.093 192.455C225.485 191.574 225.075 190.479 225.075 189.073C225.075 188.283 225.204 187.591 225.424 186.983C225.645 186.375 225.964 185.843 226.329 185.372C227.058 184.43 227.985 183.7 228.821 182.948C229.376 182.446 229.901 181.922 230.303 181.329C230.843 180.531 231.2 179.604 231.2 178.319C231.2 178.137 231.345 177.985 231.535 177.985C231.717 177.985 231.869 178.129 231.869 178.319C231.869 179.11 231.74 179.801 231.519 180.409C231.299 181.017 230.98 181.549 230.615 182.02C229.885 182.963 228.958 183.692 228.122 184.445C227.567 184.946 227.043 185.471 226.64 186.064C226.101 186.862 225.743 187.789 225.743 189.073C225.743 189.795 225.857 190.403 226.055 190.943C226.253 191.482 226.526 191.946 226.861 192.372C227.522 193.23 228.411 193.937 229.277 194.712C229.847 195.229 230.41 195.784 230.866 196.453C231.474 197.334 231.884 198.429 231.884 199.835C231.884 200.625 231.755 201.317 231.535 201.925C231.314 202.533 230.995 203.065 230.63 203.536C230.524 203.673 230.41 203.81 230.296 203.939C236.452 202.381 242.144 199.645 247.115 195.989C246.529 195.366 245.838 194.796 245.169 194.188C244.599 193.671 244.037 193.116 243.581 192.448C242.973 191.566 242.562 190.472 242.562 189.066C242.562 188.275 242.691 187.584 242.912 186.976C243.132 186.368 243.451 185.836 243.816 185.364C244.546 184.422 245.473 183.692 246.309 182.94C246.864 182.438 247.388 181.914 247.791 181.321C248.331 180.523 248.688 179.596 248.688 178.312C248.688 178.129 248.832 177.977 249.022 177.977C249.205 177.977 249.357 178.122 249.357 178.312C249.357 179.102 249.227 179.794 249.007 180.402C248.787 181.01 248.467 181.542 248.103 182.013C247.373 182.955 246.446 183.685 245.61 184.437C245.055 184.939 244.531 185.463 244.128 186.056C243.588 186.854 243.231 187.781 243.231 189.066C243.231 189.788 243.345 190.396 243.543 190.935C243.74 191.475 244.014 191.938 244.348 192.364C245.009 193.223 245.899 193.93 246.765 194.705C247.069 194.986 247.373 195.275 247.662 195.586C259.404 186.702 266.996 172.619 266.996 156.758C266.996 129.884 245.207 108.095 218.326 108.095C191.445 108.095 169.64 129.892 169.64 156.773Z" fill="url(#paint6_linear_7_353)"/>
<path d="M212.131 284.316C216.152 284.316 219.86 282.978 222.84 280.721H201.423C204.394 282.978 208.103 284.316 212.131 284.316Z" fill="url(#paint7_linear_7_353)"/>
<path d="M226.913 276.397C220.051 271.799 215.529 263.964 215.529 255.08V253.408V249.19V249.121C214.427 248.908 213.294 248.794 212.131 248.794C202.32 248.794 194.37 256.744 194.37 266.555C194.37 271.959 196.787 276.8 200.602 280.061H223.661C224.899 278.997 226.001 277.765 226.913 276.397Z" fill="url(#paint8_linear_7_353)"/>
<path d="M266.957 264.306C266.775 264.306 266.623 264.161 266.623 263.971C266.623 263.789 266.767 263.637 266.957 263.637H275.773C276.267 263.637 276.754 263.614 277.24 263.561C278.198 260.908 278.722 258.051 278.722 255.072V233.944H266.965C266.782 233.944 266.63 233.799 266.63 233.609C266.63 233.427 266.775 233.275 266.965 233.275H278.722V228.897H216.197V248.908C224.23 250.755 230.226 257.937 230.226 266.532C230.226 269.884 229.314 273.015 227.726 275.706C227.68 275.782 227.604 275.842 227.513 275.858C227.452 275.873 227.384 275.865 227.323 275.842C231.29 278.487 236.048 280.03 241.17 280.03H253.741C260.642 280.03 266.881 277.233 271.403 272.711C273.797 270.317 275.712 267.429 276.982 264.222C276.579 264.252 276.184 264.268 275.773 264.268L266.957 264.306ZM220.696 269.398C221.532 270.591 222.474 271.716 223.5 272.742C224.542 273.783 225.674 274.725 226.882 275.569C224.504 273.859 222.414 271.776 220.696 269.398Z" fill="white"/>
<path d="M277.711 264.183C277.468 264.213 277.225 264.236 276.974 264.259C275.705 267.466 273.797 270.347 271.395 272.748C266.873 277.27 260.634 280.067 253.733 280.067H259.547C267.915 278.121 274.709 272.087 277.711 264.183ZM215.649 248.937C215.725 248.877 215.832 248.854 215.923 248.869C216.014 248.884 216.098 248.915 216.181 248.93V228.919H278.707V233.296H279.368V228.592C279.368 228.509 279.33 228.417 279.269 228.356C279.208 228.296 279.125 228.258 279.033 228.258H215.847C215.764 228.258 215.672 228.296 215.611 228.356C215.551 228.417 215.513 228.501 215.513 228.592V249.127V249.196C215.528 249.097 215.573 248.998 215.649 248.937ZM227.247 275.834C227.125 275.75 227.004 275.659 226.89 275.575C225.681 274.732 224.549 273.782 223.508 272.748C222.474 271.715 221.539 270.597 220.703 269.404C217.451 264.913 215.535 259.387 215.535 253.421V255.093C215.535 263.978 220.057 271.806 226.92 276.411C229.451 278.106 232.301 279.368 235.364 280.075H241.178C236.055 280.075 231.29 278.532 227.331 275.887C227.293 275.864 227.27 275.849 227.247 275.834ZM277.232 263.567C277.475 263.545 277.719 263.514 277.962 263.476C278.874 260.847 279.375 258.019 279.375 255.071V233.942H278.714V255.071C278.714 258.065 278.19 260.923 277.232 263.567Z" fill="#7D2D80"/>
<path d="M216.19 249.614V253.414C216.19 262.344 220.583 270.248 227.332 275.081C228.746 272.558 229.559 269.655 229.559 266.562C229.559 258.331 223.851 251.438 216.19 249.614Z" fill="#7D2D80"/>
<path d="M220.697 269.397C222.414 271.776 224.504 273.859 226.883 275.576C227.005 275.66 227.119 275.751 227.24 275.835C227.263 275.85 227.286 275.865 227.316 275.873C227.377 275.895 227.438 275.903 227.506 275.888C227.598 275.865 227.674 275.812 227.719 275.736C229.308 273.046 230.22 269.914 230.22 266.563C230.22 257.967 224.223 250.785 216.19 248.938C216.099 248.915 216.015 248.893 215.932 248.878C215.833 248.855 215.734 248.885 215.658 248.946C215.582 249.007 215.536 249.105 215.536 249.204V253.422C215.529 259.381 217.444 264.906 220.697 269.397ZM227.332 275.082C220.59 270.249 216.19 262.345 216.19 253.415V249.615C223.858 251.446 229.558 258.332 229.558 266.563C229.558 269.656 228.745 272.559 227.332 275.082ZM278.715 233.298H266.958C266.776 233.298 266.624 233.442 266.624 233.632C266.624 233.814 266.768 233.966 266.958 233.966H278.715H279.376H296.963C296.902 242.152 294.523 249.546 290.723 254.904C288.8 257.618 286.513 259.806 283.982 261.319C282.097 262.443 280.076 263.188 277.97 263.5C277.727 263.538 277.484 263.561 277.241 263.591C276.754 263.637 276.268 263.667 275.774 263.667H266.958C266.776 263.667 266.624 263.811 266.624 264.001C266.624 264.184 266.768 264.336 266.958 264.336H275.774C276.177 264.336 276.58 264.321 276.982 264.29C277.226 264.275 277.476 264.245 277.72 264.214C280.045 263.925 282.272 263.128 284.324 261.904C288.253 259.556 291.582 255.657 293.923 250.77C296.264 245.876 297.632 239.993 297.632 233.655C297.632 233.571 297.594 233.48 297.533 233.419C297.472 233.358 297.388 233.32 297.297 233.32H279.376H278.715V233.298ZM253.734 280.06H241.164H235.35H223.646H200.587H152.487H150.959H150.556H150.29H104.812H104.09H73.4164H73.1428C73.1428 280.06 73.0972 280.06 73.0136 280.06H53.588C52.448 280.06 51.2624 280.06 50.016 280.06H44.696H39.2164H28.7284C28.546 280.06 28.394 280.205 28.394 280.395C28.394 280.577 28.5384 280.729 28.7284 280.729H201.416H222.832H291.111C291.293 280.729 291.445 280.585 291.445 280.395C291.445 280.212 291.301 280.06 291.111 280.06H259.54H253.734ZM231.527 201.932C231.747 201.324 231.876 200.633 231.876 199.842C231.876 198.436 231.466 197.35 230.858 196.46C230.402 195.799 229.847 195.244 229.27 194.72C228.411 193.945 227.514 193.238 226.853 192.379C226.518 191.954 226.245 191.482 226.047 190.95C225.85 190.411 225.736 189.803 225.736 189.081C225.736 187.796 226.093 186.869 226.632 186.071C227.043 185.478 227.56 184.954 228.114 184.452C228.95 183.692 229.878 182.97 230.607 182.028C230.972 181.557 231.284 181.025 231.512 180.417C231.732 179.809 231.861 179.117 231.861 178.327C231.861 178.144 231.717 177.992 231.527 177.992C231.344 177.992 231.192 178.137 231.192 178.327C231.192 179.611 230.835 180.538 230.296 181.336C229.885 181.929 229.368 182.454 228.814 182.955C227.978 183.715 227.05 184.437 226.321 185.38C225.956 185.851 225.644 186.383 225.416 186.991C225.196 187.599 225.067 188.29 225.067 189.081C225.067 190.487 225.477 191.574 226.085 192.463C226.541 193.124 227.096 193.679 227.674 194.203C228.532 194.978 229.429 195.685 230.09 196.544C230.425 196.97 230.698 197.441 230.896 197.973C231.094 198.512 231.208 199.12 231.208 199.842C231.208 201.127 230.85 202.054 230.311 202.852C229.961 203.361 229.536 203.81 229.072 204.243C228.988 204.319 228.912 204.395 228.821 204.471C227.985 205.231 227.058 205.953 226.328 206.895C225.964 207.366 225.652 207.898 225.424 208.506C225.204 209.114 225.074 209.806 225.074 210.596C225.074 212.002 225.485 213.089 226.093 213.978C226.549 214.64 227.104 215.194 227.681 215.719C228.54 216.494 229.437 217.201 230.098 218.06C230.432 218.485 230.706 218.956 230.904 219.488C231.101 220.028 231.215 220.636 231.215 221.358C231.215 221.54 231.36 221.692 231.55 221.692C231.732 221.692 231.884 221.548 231.884 221.358C231.884 219.952 231.474 218.865 230.866 217.976C230.41 217.315 229.855 216.76 229.277 216.236C228.418 215.46 227.522 214.754 226.86 213.895C226.526 213.469 226.252 212.998 226.055 212.466C225.857 211.926 225.743 211.318 225.743 210.596C225.743 209.312 226.1 208.385 226.64 207.587C227.05 206.994 227.567 206.47 228.122 205.968C228.836 205.322 229.612 204.699 230.28 203.946C230.394 203.817 230.508 203.68 230.615 203.544C230.987 203.072 231.306 202.54 231.527 201.932ZM246.75 194.72C245.891 193.945 244.994 193.238 244.333 192.379C243.998 191.954 243.725 191.482 243.527 190.95C243.33 190.411 243.216 189.803 243.216 189.081C243.216 187.796 243.573 186.869 244.112 186.071C244.523 185.478 245.04 184.954 245.594 184.452C246.43 183.692 247.358 182.97 248.087 182.028C248.452 181.557 248.764 181.025 248.992 180.417C249.212 179.809 249.341 179.117 249.341 178.327C249.341 178.144 249.197 177.992 249.007 177.992C248.824 177.992 248.672 178.137 248.672 178.327C248.672 179.611 248.315 180.538 247.776 181.336C247.365 181.929 246.848 182.454 246.294 182.955C245.458 183.715 244.53 184.437 243.801 185.38C243.436 185.851 243.124 186.383 242.896 186.991C242.676 187.599 242.547 188.29 242.547 189.081C242.547 190.487 242.957 191.574 243.565 192.463C244.021 193.124 244.576 193.679 245.154 194.203C245.822 194.811 246.514 195.374 247.099 196.004C247.266 196.179 247.418 196.362 247.563 196.544C247.897 196.97 248.171 197.441 248.368 197.973C248.566 198.512 248.68 199.12 248.68 199.842C248.68 201.127 248.323 202.054 247.783 202.852C247.373 203.445 246.856 203.969 246.301 204.471C245.465 205.231 244.538 205.953 243.808 206.895C243.444 207.366 243.132 207.898 242.904 208.506C242.684 209.114 242.554 209.806 242.554 210.596C242.554 212.002 242.965 213.089 243.573 213.978C244.029 214.64 244.584 215.194 245.161 215.719C246.02 216.494 246.917 217.201 247.578 218.06C247.912 218.485 248.186 218.956 248.384 219.488C248.581 220.028 248.695 220.636 248.695 221.358C248.695 221.54 248.84 221.692 249.03 221.692C249.212 221.692 249.364 221.548 249.364 221.358C249.364 219.952 248.954 218.865 248.346 217.976C247.89 217.315 247.335 216.76 246.757 216.236C245.898 215.46 245.002 214.754 244.34 213.895C244.006 213.469 243.732 212.998 243.535 212.466C243.337 211.926 243.223 211.318 243.223 210.596C243.223 209.312 243.58 208.385 244.12 207.587C244.53 206.994 245.047 206.47 245.602 205.968C246.438 205.208 247.365 204.486 248.095 203.544C248.46 203.072 248.771 202.54 248.999 201.932C249.22 201.324 249.349 200.633 249.349 199.842C249.349 198.436 248.938 197.35 248.33 196.46C248.118 196.149 247.882 195.868 247.639 195.602C247.358 195.29 247.061 195.001 246.75 194.72ZM263.781 204.463C262.945 205.223 262.018 205.945 261.288 206.888C260.924 207.359 260.612 207.891 260.384 208.499C260.164 209.107 260.034 209.798 260.034 210.589C260.034 211.995 260.445 213.082 261.053 213.971C261.509 214.632 262.064 215.187 262.641 215.711C263.5 216.486 264.397 217.193 265.058 218.052C265.392 218.478 265.666 218.949 265.864 219.481C266.061 220.02 266.175 220.628 266.175 221.35C266.175 221.533 266.32 221.685 266.51 221.685C266.692 221.685 266.844 221.54 266.844 221.35C266.844 219.944 266.434 218.858 265.826 217.968C265.37 217.307 264.815 216.752 264.237 216.228C263.378 215.453 262.482 214.746 261.82 213.887C261.486 213.462 261.212 212.99 261.015 212.458C260.817 211.919 260.703 211.311 260.703 210.589C260.703 209.304 261.06 208.377 261.6 207.579C262.01 206.986 262.527 206.462 263.082 205.96C263.918 205.2 264.845 204.478 265.575 203.536C265.94 203.065 266.251 202.533 266.479 201.925C266.7 201.317 266.829 200.625 266.829 199.835C266.829 198.429 266.418 197.342 265.81 196.453C265.354 195.792 264.8 195.237 264.222 194.712C263.363 193.937 262.466 193.23 261.805 192.372C261.471 191.946 261.197 191.475 261 190.943C260.802 190.403 260.688 189.795 260.688 189.073C260.688 187.789 261.045 186.862 261.585 186.064C261.995 185.471 262.512 184.946 263.067 184.445C263.903 183.685 264.83 182.963 265.56 182.02C265.924 181.549 266.236 181.017 266.464 180.409C266.684 179.801 266.814 179.11 266.814 178.319C266.814 178.137 266.669 177.985 266.479 177.985C266.297 177.985 266.145 178.129 266.145 178.319C266.145 179.604 265.788 180.531 265.248 181.329C264.838 181.922 264.321 182.446 263.766 182.948C262.93 183.708 262.003 184.43 261.273 185.372C260.908 185.843 260.597 186.375 260.369 186.983C260.148 187.591 260.019 188.283 260.019 189.073C260.019 190.479 260.43 191.566 261.038 192.455C261.494 193.116 262.048 193.671 262.626 194.196C263.485 194.971 264.382 195.678 265.043 196.536C265.377 196.962 265.651 197.433 265.848 197.965C266.046 198.505 266.16 199.113 266.16 199.835C266.16 201.119 265.803 202.046 265.263 202.844C264.86 203.445 264.344 203.962 263.781 204.463ZM74.7844 116.379C74.792 116.546 74.8072 116.782 74.83 117.078C74.8832 117.755 74.9972 118.743 75.2252 120.012C75.6812 122.55 76.5932 126.191 78.4096 130.606C82.05 139.445 89.3308 151.392 103.915 163.849C112.108 170.841 117.534 178.517 120.909 186.406C124.283 194.294 125.606 202.388 125.606 210.232C125.606 224.459 121.258 237.842 116.926 247.684C113.119 256.318 109.311 262.215 108.43 263.53C108.452 263.546 108.475 263.561 108.498 263.576C108.726 263.72 109.068 263.925 109.509 264.176C110.383 264.678 111.66 265.347 113.225 266.015C116.364 267.353 120.681 268.683 125.416 268.683C127.354 268.683 129.36 268.455 131.382 267.923C136.002 262.003 140.137 253.62 143.116 243.778C146.103 233.883 147.927 222.513 147.927 210.672C147.927 192.09 143.443 172.338 131.952 155.253C119.047 136.056 111.219 125.286 106.606 119.298C105.732 118.158 104.972 117.2 104.31 116.379H74.7844Z" fill="#7D2D80"/>
<path d="M89.247 149.811C92.9938 154.47 97.6602 159.372 103.489 164.35C106.347 166.79 108.855 169.305 111.059 171.889C111.241 172.102 111.416 172.315 111.599 172.528C115.391 177.088 118.233 181.838 120.301 186.664C123.637 194.461 124.944 202.464 124.944 210.231C124.944 214.062 124.625 217.831 124.078 221.487C122.603 231.291 119.465 240.289 116.326 247.41C114.167 252.297 112.009 256.31 110.39 259.092C109.585 260.482 108.908 261.569 108.437 262.306C108.201 262.679 108.019 262.96 107.89 263.142C107.829 263.234 107.776 263.31 107.745 263.355C107.715 263.401 107.7 263.424 107.7 263.424C107.647 263.5 107.631 263.583 107.647 263.674C107.662 263.758 107.715 263.834 107.783 263.887C107.791 263.895 108.809 264.594 110.557 265.483C110.747 265.582 110.945 265.681 111.15 265.78C111.705 266.053 112.305 266.334 112.967 266.616C116.159 267.976 120.559 269.336 125.415 269.336C126.791 269.336 128.197 269.222 129.626 268.972C129.854 268.934 130.082 268.888 130.31 268.842C130.758 268.751 131.214 268.645 131.663 268.523C131.731 268.508 131.792 268.462 131.837 268.409C136.557 262.39 140.737 253.916 143.747 243.96C144.028 243.033 144.294 242.098 144.552 241.148C147.075 231.876 148.588 221.472 148.588 210.664C148.588 191.976 144.081 172.094 132.506 154.88C126.426 145.836 121.471 138.654 117.451 132.97C117.253 132.688 117.048 132.407 116.858 132.126C112.511 125.993 109.288 121.661 106.925 118.613C106.279 117.777 105.693 117.04 105.169 116.379H104.318C104.979 117.192 105.739 118.157 106.613 119.297C111.226 125.278 119.047 136.048 131.959 155.253C143.443 172.338 147.934 192.09 147.934 210.672C147.934 222.52 146.11 233.89 143.123 243.778C140.152 253.62 136.017 262.002 131.389 267.923C129.367 268.462 127.361 268.683 125.423 268.683C120.696 268.683 116.371 267.353 113.233 266.015C111.667 265.346 110.39 264.678 109.516 264.176C109.075 263.925 108.741 263.72 108.505 263.576C108.475 263.56 108.46 263.545 108.437 263.53C109.319 262.208 113.119 256.318 116.934 247.684C121.273 237.85 125.613 224.466 125.613 210.231C125.613 202.388 124.291 194.294 120.916 186.405C117.542 178.516 112.115 170.84 103.923 163.848C89.3382 151.392 82.0574 139.445 78.417 130.606C76.593 126.19 75.6886 122.55 75.2326 120.012C75.0046 118.742 74.8906 117.754 74.8374 117.078C74.8146 116.782 74.7994 116.554 74.7918 116.379H74.4498C74.2978 116.379 74.1686 116.272 74.1306 116.128C74.1306 116.128 74.1306 116.113 74.123 116.09C74.1306 116.607 74.2902 122.299 77.809 130.857C79.9522 136.063 83.3494 142.325 88.7074 149.12C88.8746 149.348 89.057 149.576 89.247 149.811Z" fill="#7D2D80"/>
<path d="M92.789 100.031C86.2758 90.5618 83.3878 82.2246 83.3802 82.2094C83.3194 82.0346 83.4106 81.8446 83.5854 81.7914C83.7602 81.7306 83.9502 81.8218 84.0034 81.9966C84.0034 81.9966 84.0034 82.0042 84.011 82.0118L102.479 76.5854C102.433 76.4182 102.517 76.2435 102.684 76.1827C102.859 76.1219 103.049 76.2054 103.11 76.3802C106.553 85.8346 110.945 93.7842 116.478 99.697C115.391 91.4586 113.339 81.5026 109.471 73.3327C106.735 67.5491 103.095 62.6699 98.2838 59.8959C95.5326 58.3075 92.4014 57.4031 88.799 57.4031C85.2346 57.4031 82.3618 58.2923 80.0362 59.8427C77.7106 61.3931 75.9322 63.6123 74.5946 66.2951C71.9042 71.6607 70.9922 78.8958 70.9922 86.1766C70.9922 99.8718 74.2146 113.711 74.701 115.718H107.244C106.606 115.216 105.983 114.707 105.375 114.19C100.214 109.782 96.0494 104.766 92.789 100.031Z" fill="white"/>
<path d="M74.4417 116.379H74.7837H104.317H105.168H108.11C107.821 116.159 107.532 115.938 107.251 115.718H74.7001C74.2137 113.712 70.9837 99.8721 70.9913 86.1769C70.9913 78.8961 71.9033 71.6609 74.5937 66.2953C75.9389 63.6125 77.7173 61.3933 80.0353 59.8429C82.3609 58.2925 85.2337 57.4109 88.7981 57.4033C92.3929 57.4033 95.5317 58.3077 98.2829 59.8961C103.094 62.6701 106.734 67.5493 109.47 73.3329C113.338 81.5029 115.39 91.4589 116.477 99.6973C116.728 99.9709 116.986 100.237 117.245 100.503C117.1 99.3249 116.926 98.1013 116.736 96.8549C116.226 93.5337 115.565 90.0073 114.691 86.4809C112.86 79.0861 110.108 71.6761 105.959 66.0901C103.884 63.3009 101.452 60.9601 98.6097 59.3185C97.0289 58.4065 95.3113 57.7073 93.4645 57.2741C93.2213 57.2133 92.9781 57.1601 92.7273 57.1145C91.4733 56.8713 90.1661 56.7421 88.7905 56.7421C86.7841 56.7421 84.9753 57.0157 83.3489 57.5325C83.1361 57.6009 82.9233 57.6693 82.7181 57.7453C81.6085 58.1481 80.5901 58.6649 79.6629 59.2881C77.8313 60.5041 76.3341 62.1153 75.1181 64.0077C73.2941 66.8501 72.0933 70.3309 71.3485 74.1309C70.6037 77.9309 70.3149 82.0501 70.3149 86.1769C70.3149 100.678 73.8945 115.262 74.0997 116.09C74.1073 116.113 74.1073 116.128 74.1073 116.128C74.1529 116.273 74.2897 116.379 74.4417 116.379Z" fill="#7D2D80"/>
<path d="M170.682 110.155C171.388 111.242 171.943 112.443 172.346 113.613C172.369 113.613 172.392 113.613 172.414 113.613C172.612 113.621 172.863 113.628 173.152 113.628C174.314 113.628 176.138 113.552 178.145 113.294C180.151 113.035 182.332 112.602 184.217 111.895C186.634 110.991 188.853 109.387 190.198 108.095C190.647 107.662 191.004 107.267 191.232 106.955C191.361 106.773 191.452 106.621 191.498 106.522C191.513 106.492 191.521 106.469 191.521 106.446C191.452 106.378 191.384 106.332 191.316 106.302C191.232 106.264 191.133 106.249 191.027 106.249C190.86 106.249 190.662 106.294 190.464 106.385C190.366 106.431 190.267 106.477 190.168 106.537C189.659 106.993 189.18 107.297 189.172 107.305C189.028 107.396 188.846 107.366 188.739 107.237C188.633 107.107 188.64 106.917 188.762 106.796C188.77 106.788 188.929 106.629 189.188 106.423C189.347 106.294 189.552 106.15 189.773 106.013C189.948 105.853 190.122 105.679 190.282 105.504C190.472 105.283 190.632 105.048 190.708 104.843C190.753 104.729 190.776 104.615 190.776 104.523C190.776 104.447 190.761 104.371 190.73 104.303C190.7 104.235 190.647 104.159 190.563 104.075C190.533 104.045 190.502 104.029 190.449 104.014C190.404 103.999 190.343 103.991 190.259 103.991C190.039 103.991 189.72 104.075 189.37 104.227C189.112 104.341 188.846 104.478 188.58 104.63C188.504 104.691 188.435 104.751 188.359 104.812C187.576 105.428 186.809 105.853 186.801 105.861C186.649 105.945 186.459 105.899 186.368 105.762C186.269 105.618 186.3 105.428 186.436 105.321C186.444 105.321 186.778 105.048 187.265 104.698C187.538 104.508 187.858 104.295 188.192 104.098C188.336 103.976 188.481 103.847 188.61 103.718C188.891 103.437 189.127 103.148 189.241 102.889C189.309 102.745 189.34 102.616 189.34 102.502C189.34 102.411 189.324 102.335 189.279 102.251C189.233 102.167 189.165 102.084 189.043 101.985C188.96 101.917 188.868 101.894 188.739 101.886C188.504 101.879 188.131 102.023 187.744 102.266C187.356 102.509 186.938 102.844 186.55 103.201C186.528 103.224 186.497 103.247 186.474 103.269C186.368 103.406 186.262 103.535 186.155 103.657C185.547 104.356 184.939 104.881 184.932 104.888C184.802 105.002 184.605 104.995 184.483 104.873C184.362 104.751 184.346 104.561 184.46 104.425C184.46 104.417 184.742 104.083 185.167 103.627C185.403 103.376 185.684 103.095 185.988 102.806C186.155 102.593 186.307 102.373 186.436 102.16C186.649 101.81 186.763 101.468 186.763 101.24C186.763 101.149 186.748 101.073 186.718 101.005C186.687 100.936 186.642 100.875 186.558 100.815C186.429 100.723 186.315 100.693 186.186 100.685C185.996 100.685 185.737 100.769 185.426 100.959C185.106 101.141 184.742 101.415 184.316 101.742C183.465 102.388 182.408 103.239 181.04 103.976C180.478 104.28 179.824 104.516 179.148 104.698C178.472 104.881 177.78 105.017 177.157 105.116C175.91 105.314 174.938 105.367 174.93 105.367C174.748 105.375 174.596 105.238 174.58 105.055L174.558 104.698C174.55 104.592 174.596 104.485 174.679 104.417L174.687 104.409L174.717 104.387C174.74 104.364 174.778 104.333 174.824 104.295C174.915 104.212 175.044 104.09 175.188 103.931C175.477 103.619 175.812 103.171 176.032 102.646C176.176 102.304 176.275 101.924 176.275 101.537C176.275 101.24 176.222 100.936 176.093 100.609C176.062 100.533 176.032 100.511 175.994 100.488C175.956 100.465 175.888 100.442 175.789 100.442C175.599 100.442 175.302 100.518 174.945 100.67C174.588 100.822 174.178 101.058 173.729 101.339C172.84 101.901 171.829 102.669 170.856 103.459C169.298 104.729 167.847 106.059 167.132 106.727C168.569 107.495 169.762 108.734 170.682 110.155Z" fill="white"/>
<path d="M191.034 105.58L191.041 105.572C191.148 105.413 191.246 105.245 191.315 105.071C191.383 104.896 191.429 104.706 191.429 104.516C191.429 104.349 191.398 104.181 191.322 104.022C191.254 103.862 191.14 103.71 190.996 103.581C190.889 103.482 190.768 103.414 190.638 103.376C190.509 103.338 190.38 103.315 190.251 103.315C190.068 103.315 189.894 103.345 189.704 103.391C189.749 103.315 189.795 103.239 189.833 103.155C189.932 102.943 189.992 102.722 189.992 102.494C189.992 102.304 189.947 102.114 189.856 101.932C189.764 101.757 189.62 101.597 189.438 101.453C189.225 101.286 188.974 101.217 188.723 101.217C188.48 101.217 188.244 101.278 188.001 101.377C187.781 101.468 187.553 101.59 187.332 101.727C187.378 101.567 187.401 101.407 187.401 101.248C187.401 101.073 187.37 100.891 187.287 100.731C187.211 100.564 187.082 100.419 186.93 100.298H186.922C186.694 100.131 186.42 100.039 186.154 100.039C185.782 100.039 185.425 100.191 185.06 100.397C184.513 100.716 183.92 101.202 183.206 101.742C182.499 102.281 181.67 102.874 180.698 103.406C180.204 103.672 179.588 103.9 178.942 104.075C177.977 104.341 176.951 104.501 176.176 104.599C175.856 104.637 175.583 104.668 175.37 104.683C175.537 104.516 175.758 104.288 175.986 103.991C176.214 103.695 176.442 103.338 176.616 102.927C176.791 102.517 176.913 102.053 176.913 101.559C176.913 101.179 176.844 100.784 176.677 100.381C176.601 100.199 176.472 100.032 176.305 99.9329C176.138 99.8341 175.948 99.7961 175.758 99.7961C175.393 99.7961 175.005 99.9253 174.564 100.115C173.804 100.457 172.915 101.043 171.996 101.719C170.574 102.768 169.085 104.052 167.96 105.055C167.694 105.291 167.451 105.519 167.23 105.717C166.896 106.021 166.622 106.279 166.44 106.446C166.448 106.446 166.455 106.446 166.455 106.446C166.676 106.53 166.888 106.629 167.094 106.735C167.808 106.066 169.26 104.736 170.818 103.467C171.79 102.677 172.801 101.909 173.69 101.347C174.131 101.065 174.549 100.837 174.906 100.678C175.264 100.518 175.56 100.442 175.75 100.45C175.856 100.45 175.917 100.473 175.955 100.495C175.993 100.518 176.024 100.549 176.054 100.617C176.183 100.936 176.236 101.248 176.236 101.544C176.236 101.932 176.145 102.312 175.993 102.654C175.773 103.171 175.431 103.619 175.15 103.938C175.005 104.098 174.876 104.219 174.785 104.303C174.739 104.341 174.701 104.379 174.678 104.394L174.648 104.417L174.64 104.425C174.557 104.493 174.511 104.599 174.519 104.706L174.542 105.063C174.549 105.245 174.709 105.382 174.891 105.375C174.899 105.375 175.872 105.321 177.118 105.124C177.741 105.025 178.433 104.888 179.109 104.706C179.786 104.523 180.439 104.288 181.002 103.984C182.362 103.239 183.426 102.395 184.277 101.749C184.703 101.423 185.068 101.157 185.387 100.967C185.706 100.784 185.964 100.693 186.147 100.693C186.284 100.693 186.39 100.723 186.519 100.822C186.603 100.883 186.648 100.944 186.679 101.012C186.709 101.081 186.724 101.157 186.724 101.248C186.724 101.476 186.61 101.81 186.398 102.167C186.268 102.38 186.116 102.601 185.949 102.813C185.645 103.095 185.364 103.383 185.128 103.634C184.703 104.09 184.422 104.425 184.422 104.432C184.315 104.561 184.323 104.759 184.444 104.881C184.566 105.002 184.764 105.002 184.893 104.896C184.9 104.888 185.501 104.364 186.116 103.665C186.223 103.543 186.329 103.414 186.436 103.277C186.458 103.254 186.489 103.231 186.512 103.209C186.899 102.859 187.317 102.517 187.705 102.274C188.092 102.031 188.465 101.894 188.7 101.894C188.83 101.894 188.921 101.924 189.004 101.993C189.126 102.084 189.194 102.175 189.24 102.259C189.286 102.342 189.301 102.418 189.301 102.509C189.301 102.616 189.27 102.745 189.202 102.897C189.088 103.148 188.852 103.444 188.571 103.725C188.442 103.855 188.298 103.984 188.153 104.105C187.819 104.303 187.5 104.516 187.226 104.706C186.74 105.048 186.398 105.321 186.398 105.329C186.261 105.435 186.238 105.633 186.329 105.77C186.428 105.914 186.618 105.96 186.762 105.869C186.77 105.861 187.538 105.435 188.32 104.82C188.396 104.759 188.465 104.698 188.541 104.637C188.807 104.485 189.073 104.341 189.331 104.235C189.681 104.083 190.008 103.991 190.22 103.999C190.296 103.999 190.357 104.007 190.41 104.022C190.456 104.037 190.494 104.06 190.524 104.083C190.608 104.159 190.661 104.235 190.692 104.311C190.722 104.379 190.737 104.455 190.737 104.531C190.737 104.622 190.714 104.729 190.669 104.85C190.593 105.055 190.433 105.291 190.243 105.511C190.091 105.694 189.916 105.861 189.734 106.021C189.514 106.157 189.308 106.302 189.149 106.431C188.89 106.636 188.731 106.796 188.723 106.803C188.602 106.925 188.594 107.115 188.7 107.244C188.807 107.373 188.997 107.404 189.134 107.313C189.141 107.305 189.612 107.001 190.129 106.545C190.228 106.492 190.327 106.439 190.426 106.393C190.623 106.309 190.821 106.256 190.988 106.256C191.094 106.256 191.186 106.271 191.277 106.309C191.345 106.34 191.414 106.385 191.482 106.454C191.474 106.469 191.467 106.499 191.459 106.53C191.414 106.636 191.322 106.788 191.193 106.963C190.965 107.275 190.608 107.677 190.16 108.103C188.807 109.395 186.595 110.991 184.178 111.903C182.301 112.61 180.112 113.043 178.106 113.301C176.1 113.56 174.276 113.636 173.113 113.636C172.824 113.636 172.573 113.628 172.376 113.621C172.353 113.621 172.33 113.621 172.307 113.621C172.383 113.849 172.452 114.069 172.52 114.289C172.695 114.297 172.892 114.297 173.113 114.297C174.298 114.297 176.145 114.213 178.19 113.955C180.226 113.697 182.453 113.248 184.406 112.519C186.496 111.736 188.404 110.482 189.802 109.311C190.502 108.726 191.072 108.164 191.474 107.677C191.68 107.434 191.839 107.214 191.953 107.016C192.014 106.917 192.06 106.819 192.098 106.72C192.136 106.621 192.158 106.53 192.158 106.416C192.158 106.363 192.151 106.302 192.136 106.249C192.12 106.188 192.082 106.127 192.044 106.081C191.915 105.929 191.771 105.823 191.611 105.739C191.588 105.732 191.573 105.717 191.55 105.709C191.398 105.618 191.216 105.58 191.034 105.58Z" fill="#7D2D80"/>
<path d="M84.0326 82.0425C84.0478 82.0805 84.063 82.1261 84.0858 82.2021C84.139 82.3389 84.215 82.5441 84.3138 82.8101C84.519 83.3421 84.8306 84.1173 85.2562 85.0977C86.0998 87.0433 87.3842 89.7869 89.155 92.9333C92.689 99.2261 98.1382 107.153 105.807 113.689C110.914 118.044 117.009 121.783 124.176 124.017C129.967 125.819 135.652 126.541 141.033 126.541C154.348 126.541 165.839 122.133 172.58 118.827C172.527 117.709 172.39 116.585 172.178 115.46C171.82 113.856 171.129 112.055 170.118 110.512C169.138 109.007 167.861 107.753 166.341 107.123C157.798 110.505 150.168 112.085 143.358 112.085C133.258 112.085 124.981 108.597 118.271 102.418C111.56 96.2317 106.407 87.3701 102.485 76.6009C102.485 76.5933 102.485 76.5857 102.478 76.5781L84.0098 82.0045C84.0174 82.0197 84.025 82.0273 84.0326 82.0425Z" fill="white"/>
<path d="M172.345 113.612C171.942 112.434 171.388 111.241 170.681 110.154C169.754 108.733 168.568 107.494 167.109 106.749C166.904 106.643 166.691 106.544 166.47 106.461C166.463 106.461 166.455 106.461 166.455 106.461C166.379 106.438 166.303 106.438 166.235 106.468C157.7 109.858 150.108 111.431 143.374 111.431C135.744 111.431 129.2 109.417 123.584 105.731C123.257 105.518 122.93 105.298 122.603 105.07C121.258 104.12 119.966 103.079 118.727 101.939C118.241 101.49 117.762 101.027 117.291 100.548C117.276 100.533 117.26 100.517 117.245 100.502C116.987 100.236 116.728 99.9701 116.478 99.6965C110.945 93.7761 106.56 85.8341 103.109 76.3797C103.048 76.2049 102.858 76.1213 102.684 76.1821C102.516 76.2429 102.433 76.4177 102.478 76.5849C102.478 76.5925 102.478 76.6001 102.486 76.6077C106.408 87.3769 111.56 96.2385 118.271 102.425C124.982 108.611 133.258 112.1 143.359 112.092C150.161 112.092 157.791 110.511 166.341 107.129C167.869 107.753 169.138 109.007 170.118 110.519C171.122 112.062 171.821 113.863 172.178 115.467C172.391 116.591 172.528 117.716 172.581 118.833C165.84 122.139 154.341 126.547 141.033 126.547C135.645 126.547 129.968 125.825 124.176 124.024C117.01 121.79 110.922 118.051 105.807 113.696C98.1388 107.16 92.6896 99.2329 89.1556 92.9401C87.3924 89.7937 86.1004 87.0577 85.2568 85.1045C84.8312 84.1317 84.5196 83.3489 84.3144 82.8169C84.208 82.5509 84.132 82.3457 84.0864 82.2089C84.0636 82.1405 84.0408 82.0873 84.0332 82.0493C84.0256 82.0341 84.0256 82.0189 84.018 82.0113C84.018 82.0037 84.0104 81.9961 84.0104 81.9961C83.9496 81.8213 83.7596 81.7301 83.5924 81.7909C83.4176 81.8517 83.3264 82.0417 83.3872 82.2089C83.3948 82.2241 86.2828 90.5613 92.796 100.031C96.0488 104.766 100.214 109.782 105.382 114.19C105.99 114.707 106.613 115.216 107.251 115.717C107.532 115.938 107.821 116.158 108.11 116.379C110.96 118.529 114.076 120.483 117.481 122.101C117.694 122.2 117.914 122.299 118.127 122.398C119.996 123.249 121.942 124.009 123.979 124.647C129.838 126.471 135.592 127.201 141.033 127.201C154.622 127.201 166.303 122.671 173.075 119.327C173.189 119.267 173.265 119.153 173.257 119.016C173.212 117.792 173.067 116.561 172.832 115.33V115.322C172.756 114.98 172.664 114.638 172.558 114.281C172.497 114.061 172.421 113.84 172.345 113.612ZM75.7264 26.5617L74.7156 29.9133C74.6852 30.0045 74.6244 30.0805 74.5332 30.1185C74.442 30.1565 74.3432 30.1565 74.2596 30.1185C74.2596 30.1185 74.1152 30.0501 73.8644 29.9285C73.6896 30.7721 73.606 31.6613 73.606 32.5657C73.606 35.9021 74.7612 39.4665 76.7448 42.2177C76.76 42.2329 76.7904 42.2557 76.8208 42.2785C76.8892 42.3393 76.9956 42.4153 77.1324 42.5217C77.406 42.7193 77.786 42.9853 78.242 43.2513C79.154 43.7833 80.3396 44.3001 81.4036 44.3001C81.7912 44.3001 82.156 44.2317 82.498 44.0873C82.84 43.9353 83.1592 43.7073 83.448 43.3577C83.828 42.9017 83.9724 42.4229 83.9724 41.8985C83.9724 41.1765 83.6684 40.3633 83.22 39.5653C82.7792 38.7749 82.2168 38.0073 81.7532 37.3461C81.4416 36.9053 81.1756 36.5177 81.0084 36.1757C80.9172 35.9781 80.8412 35.7957 80.8412 35.5829C80.8412 35.4993 80.8564 35.4081 80.8944 35.3245C80.9324 35.2409 80.9932 35.1573 81.0616 35.0965C81.2136 34.9673 81.358 34.8761 81.5024 34.8153C81.6468 34.7545 81.7912 34.7241 81.9204 34.7241C82.0572 34.7241 82.1864 34.7545 82.2928 34.7925C82.3992 34.8305 82.4904 34.8761 82.574 34.9141C82.7412 34.9901 82.8856 35.0433 83.106 35.0433C83.1668 35.0433 83.2352 35.0357 83.3188 35.0281C83.448 35.0053 83.5392 34.9825 83.5924 34.9521C83.6456 34.9217 83.6684 34.9065 83.6836 34.8837C83.6912 34.8685 83.7064 34.8457 83.714 34.8153C83.7292 34.7697 83.7368 34.7013 83.7368 34.6025C83.7368 34.3973 83.6912 34.0781 83.6228 33.6525C83.5544 33.2269 83.4632 32.7025 83.372 32.0489C83.3568 31.9425 83.3492 31.8285 83.3492 31.7221C83.3492 30.9849 83.6304 30.1641 84.0256 29.3129C84.4208 28.4693 84.9452 27.6029 85.4696 26.8201C86.2448 25.6649 87.0124 24.6921 87.362 24.2589C87.324 24.2285 87.286 24.1905 87.2404 24.1525C87.02 23.9625 86.6932 23.7117 86.2752 23.4533C85.424 22.9441 84.1928 22.4349 82.6272 22.4349C81.32 22.4349 79.7696 22.7921 78.0064 23.8257C76.9652 24.4413 76.1368 25.2241 75.4756 26.1361L75.5592 26.1741C75.7036 26.2349 75.772 26.4021 75.7264 26.5617Z" fill="#7D2D80"/>
<path d="M80.0807 44.7638C80.5139 44.8778 80.9548 44.9538 81.3956 44.9538C81.8516 44.9538 82.3152 44.8778 82.7484 44.6878C83.1816 44.4978 83.592 44.1938 83.9492 43.7682C84.428 43.1982 84.6256 42.537 84.6256 41.891C84.6256 41.1994 84.4128 40.5078 84.1088 39.8466C83.6528 38.8586 82.9764 37.9238 82.4292 37.1486C82.1556 36.761 81.9124 36.419 81.7452 36.1302C81.6616 35.9934 81.5932 35.8642 81.5552 35.7654C81.5172 35.6742 81.502 35.6058 81.502 35.583C81.616 35.4918 81.6996 35.4386 81.768 35.4082C81.8364 35.3778 81.882 35.3702 81.92 35.3702C81.958 35.3702 82.0036 35.3778 82.0644 35.4006C82.1556 35.431 82.2848 35.4994 82.452 35.5678C82.6192 35.6362 82.8396 35.6894 83.098 35.6894C83.1968 35.6894 83.3032 35.6818 83.4096 35.6666C83.5616 35.6438 83.6908 35.6134 83.82 35.5602C83.9112 35.5222 84.0024 35.469 84.0784 35.4082C84.2 35.3094 84.2836 35.1726 84.3292 35.0358C84.3748 34.8914 84.39 34.747 84.39 34.595C84.39 34.3062 84.3368 33.9718 84.2684 33.5386C84.2 33.113 84.1088 32.5886 84.0252 31.9502C84.0176 31.8742 84.01 31.7906 84.01 31.707C84.01 31.1446 84.2456 30.377 84.6256 29.579C85.188 28.3782 86.0468 27.0862 86.7688 26.0982C86.8524 25.9842 86.9284 25.8778 87.0044 25.779C87.1488 25.589 87.2856 25.4142 87.4072 25.2546C87.506 25.1254 87.6048 25.0038 87.6884 24.8974C87.8024 24.753 87.9012 24.639 87.962 24.5554C87.9924 24.5174 88.0228 24.487 88.038 24.4642C88.0532 24.4414 88.0608 24.4338 88.0608 24.4338C88.1672 24.3046 88.1672 24.1222 88.0532 24.0006C88.038 23.9854 87.5364 23.4306 86.6092 22.8758C85.682 22.321 84.3292 21.7662 82.6192 21.7662C81.1904 21.7662 79.5107 22.1614 77.6639 23.2482C76.5087 23.9322 75.5815 24.8138 74.8671 25.8398L75.4751 26.1286C76.1287 25.2166 76.9647 24.4338 78.0059 23.8182C79.7692 22.777 81.3196 22.4274 82.6268 22.4274C84.1848 22.4274 85.4236 22.9366 86.2748 23.4458C86.7004 23.7042 87.0272 23.955 87.24 24.145C87.2856 24.183 87.3236 24.221 87.3616 24.2514C87.012 24.6846 86.2444 25.6498 85.4692 26.8126C84.9448 27.5954 84.428 28.4618 84.0252 29.3054C83.63 30.1566 83.3488 30.9774 83.3488 31.7146C83.3488 31.8286 83.3564 31.935 83.3716 32.0414C83.4552 32.695 83.554 33.227 83.6224 33.645C83.6908 34.0706 83.7364 34.3822 83.7364 34.595C83.7364 34.6938 83.7288 34.7622 83.7136 34.8078C83.706 34.8458 83.6908 34.861 83.6832 34.8762C83.668 34.899 83.6452 34.9142 83.592 34.9446C83.5388 34.9674 83.4476 34.9978 83.3184 35.0206C83.2424 35.0358 83.174 35.0358 83.1056 35.0358C82.8852 35.0358 82.7408 34.9826 82.5736 34.9066C82.49 34.8686 82.3988 34.823 82.2924 34.785C82.186 34.747 82.0644 34.7166 81.92 34.7166C81.7832 34.7166 81.6388 34.747 81.502 34.8078C81.3576 34.8686 81.2208 34.9598 81.0612 35.089C80.9852 35.1498 80.9244 35.2258 80.894 35.317C80.856 35.4006 80.8407 35.4918 80.8407 35.5754C80.8407 35.7882 80.9168 35.9706 81.008 36.1682C81.1752 36.5102 81.4488 36.8978 81.7528 37.3386C82.2164 37.9998 82.7788 38.7674 83.2196 39.5578C83.6604 40.3482 83.972 41.1614 83.972 41.891C83.972 42.4154 83.8276 42.8866 83.4476 43.3502C83.1588 43.6998 82.8396 43.9354 82.4976 44.0798C82.1556 44.2242 81.7908 44.2926 81.4032 44.2926C80.3391 44.2926 79.1535 43.7758 78.2415 43.2438C77.7855 42.9778 77.3979 42.7118 77.1319 42.5142C76.9951 42.4154 76.8887 42.3318 76.8203 42.271C76.7899 42.2482 76.7595 42.2254 76.7443 42.2102C74.7607 39.459 73.6055 35.8946 73.6055 32.5582C73.6055 31.6538 73.6891 30.7722 73.8639 29.921C73.7043 29.845 73.4915 29.7462 73.2559 29.6246C73.0507 30.567 72.9443 31.555 72.9443 32.5506C72.9443 36.0466 74.1451 39.7478 76.2351 42.6206C76.2503 42.6434 76.2655 42.6586 76.2883 42.6814C76.2959 42.689 76.9571 43.2438 77.9147 43.8062C78.3327 44.0494 78.8115 44.3002 79.3207 44.4978C79.5639 44.6042 79.8223 44.6954 80.0807 44.7638ZM65.5267 20.345C64.5463 20.345 63.6647 20.7402 63.0263 21.3786C62.3879 22.017 61.9927 22.9062 61.9927 23.879C61.9927 24.8594 62.3879 25.741 63.0263 26.3794C63.6647 27.0178 64.5539 27.413 65.5267 27.413C66.2867 27.413 66.9935 27.1698 67.5711 26.7594C67.2519 26.5846 66.9859 26.425 66.7959 26.3034C66.6971 26.235 66.6135 26.1818 66.5451 26.121C66.4387 26.0298 66.4083 25.8778 66.4615 25.741L67.7155 22.8074C67.7535 22.7238 67.8219 22.663 67.9055 22.625C67.9891 22.5946 68.0803 22.5946 68.1639 22.6326L68.9543 23.005C68.7947 22.3742 68.4755 21.8118 68.0271 21.3634C67.3887 20.7402 66.5071 20.345 65.5267 20.345Z" fill="#7D2D80"/>
<path d="M67.5709 26.7672C66.9933 27.1776 66.2941 27.4208 65.5265 27.4208C64.5461 27.4208 63.6645 27.0256 63.0261 26.3872C62.3877 25.7488 61.9925 24.8596 61.9925 23.8868C61.9925 22.9064 62.3877 22.0248 63.0261 21.3864C63.6645 20.748 64.5537 20.3528 65.5265 20.3528C66.5069 20.3528 67.3885 20.748 68.0269 21.3864C68.4753 21.8348 68.7945 22.3972 68.9541 23.028L69.6913 23.3776C69.4405 21.2952 67.6697 19.684 65.5265 19.684C63.2085 19.684 61.3237 21.5612 61.3237 23.8868C61.3237 26.2048 63.2009 28.0896 65.5265 28.0896C66.5449 28.0896 67.4797 27.7248 68.2093 27.1244C67.9813 26.9952 67.7685 26.8736 67.5709 26.7672Z" fill="#7D2D80"/>
<path d="M74.1913 29.3515L75.0121 26.6383L68.1949 23.3931L67.1841 25.7719C67.2449 25.8099 67.3133 25.8555 67.3969 25.9087C67.6021 26.0303 67.8681 26.1823 68.1721 26.3495C68.7801 26.6839 69.5477 27.0791 70.3381 27.4743C71.8809 28.2419 73.4997 29.0247 74.1913 29.3515Z" fill="#7D2D80"/>
<path d="M73.8566 29.9288C74.1074 30.0504 74.2518 30.1188 74.2518 30.1188C74.343 30.1568 74.4418 30.1644 74.5254 30.1188C74.6166 30.0808 74.6774 30.0048 74.7078 29.9136L75.7186 26.5619C75.7642 26.4023 75.6958 26.2351 75.5438 26.1667L75.4602 26.1287L74.8522 25.8399L69.6843 23.3775L68.9471 23.0279L68.1719 22.6479C68.0883 22.6099 67.9971 22.6023 67.9135 22.6403C67.8299 22.6707 67.7615 22.7391 67.7235 22.8227L66.4695 25.7563C66.4163 25.8855 66.4467 26.0375 66.5531 26.1363C66.6215 26.1971 66.6975 26.2503 66.8039 26.3187C66.9939 26.4479 67.2599 26.5999 67.5791 26.7747C67.7767 26.8811 67.9895 26.9951 68.2175 27.1243C68.3315 27.1851 68.4531 27.2459 68.5747 27.3143C70.0795 28.1047 72.0707 29.07 73.2487 29.64C73.4843 29.7464 73.6971 29.8452 73.8566 29.9288ZM68.1643 26.3415C67.8603 26.1743 67.5943 26.0299 67.3891 25.9007C67.3055 25.8475 67.2371 25.8095 67.1763 25.7639L68.1947 23.3927L75.0118 26.6379L74.1911 29.3512C73.4995 29.0168 71.8807 28.2415 70.3379 27.4587C69.5475 27.0635 68.7799 26.6683 68.1643 26.3415Z" fill="#7D2D80"/>
<path d="M49.9619 268.561L52.3711 269.99L56.2547 267.946L53.8607 266.722L49.9619 268.561Z" fill="white"/>
<path d="M52.5612 266.6L49.1184 268.226C49.0044 268.28 48.936 268.386 48.9284 268.508C48.9208 268.629 48.9816 268.743 49.088 268.804L52.1888 270.651C52.2876 270.712 52.4092 270.712 52.5156 270.658L55.662 269.002L56.3232 268.652L57.1212 268.234C57.2276 268.173 57.296 268.067 57.296 267.938C57.296 267.816 57.2276 267.702 57.1136 267.649L54.0128 266.06C53.9216 266.015 53.8152 266.015 53.724 266.053L53.2148 266.296L52.5612 266.6ZM53.8608 266.722L56.2472 267.945L52.3636 269.99L49.9544 268.561L53.8608 266.722Z" fill="#7D2D80"/>
<path d="M133.008 273.539L135.752 273.068L137.059 269.777H134.962L133.008 273.539Z" fill="white"/>
<path d="M133.76 270.658L132.119 273.82C132.058 273.934 132.073 274.063 132.149 274.169C132.225 274.268 132.347 274.321 132.476 274.299L136.048 273.683C136.162 273.66 136.253 273.584 136.299 273.478L137.363 270.81L137.621 270.164L137.864 269.564C137.902 269.465 137.895 269.343 137.834 269.252C137.773 269.161 137.667 269.108 137.56 269.108H134.763C134.642 269.108 134.528 269.176 134.467 269.282L134.102 269.989L133.76 270.658ZM134.961 269.776H137.066L135.751 273.06L133.015 273.531L134.961 269.776Z" fill="#7D2D80"/>
<path d="M129.511 84.8842C130.59 85.9634 132.072 86.6246 133.721 86.6246C135.363 86.6246 136.853 85.9558 137.932 84.8842C139.011 83.805 139.672 82.323 139.672 80.6737C139.672 79.0321 139.003 77.5425 137.932 76.4633C136.853 75.3841 135.371 74.7229 133.721 74.7229C132.08 74.7229 130.59 75.3917 129.511 76.4633C128.432 77.5425 127.771 79.0245 127.771 80.6737C127.771 82.323 128.432 83.805 129.511 84.8842Z" fill="white"/>
<path d="M133.722 87.2941C137.377 87.2941 140.334 84.3301 140.334 80.6821C140.334 77.0265 137.37 74.0701 133.722 74.0701C130.066 74.0701 127.11 77.0341 127.11 80.6821C127.11 84.3301 130.074 87.2941 133.722 87.2941ZM133.722 74.7237C135.363 74.7237 136.853 75.3925 137.932 76.4641C139.011 77.5433 139.673 79.0253 139.673 80.6745C139.673 82.3161 139.004 83.8057 137.932 84.8849C136.853 85.9641 135.371 86.6253 133.722 86.6253C132.08 86.6253 130.591 85.9565 129.511 84.8849C128.432 83.8057 127.771 82.3237 127.771 80.6745C127.771 79.0329 128.44 77.5433 129.511 76.4641C130.591 75.3925 132.08 74.7237 133.722 74.7237Z" fill="#7D2D80"/>
<path d="M183.852 55.6022H160.117V58.0266H183.852V55.6022Z" fill="white"/>
<path d="M184.414 55.0319C184.353 54.9711 184.269 54.9331 184.178 54.9331H159.782C159.699 54.9331 159.607 54.9711 159.547 55.0319C159.486 55.0927 159.448 55.1763 159.448 55.2675V58.3531C159.448 58.4367 159.486 58.5279 159.547 58.5887C159.607 58.6495 159.691 58.6875 159.782 58.6875H184.178C184.262 58.6875 184.353 58.6495 184.414 58.5887C184.475 58.5279 184.513 58.4443 184.513 58.3531V55.2675C184.513 55.1839 184.475 55.0927 184.414 55.0319ZM160.117 55.6019H183.844V58.0263H160.109V55.6019H160.117Z" fill="#7D2D80"/>
<path d="M191.937 40.6451H142.515V49.7575H191.937V40.6451ZM191.299 44.5743C191.299 44.6579 191.261 44.7491 191.2 44.8099C191.139 44.8707 191.056 44.9087 190.965 44.9087H174.837C174.754 44.9087 174.663 44.8707 174.602 44.8099C174.541 44.7491 174.503 44.6655 174.503 44.5743V42.5375C174.503 42.4539 174.541 42.3627 174.602 42.3019C174.663 42.2411 174.746 42.2031 174.837 42.2031H190.965C191.048 42.2031 191.139 42.2411 191.2 42.3019C191.261 42.3627 191.299 42.4463 191.299 42.5375V44.5743Z" fill="white"/>
<path d="M142.188 50.4265H192.272C192.356 50.4265 192.447 50.3885 192.508 50.3277C192.569 50.2669 192.607 50.1833 192.607 50.0921V40.3185C192.607 40.2349 192.569 40.1437 192.508 40.0829C192.447 40.0221 192.364 39.9841 192.272 39.9841H142.188C142.105 39.9841 142.014 40.0221 141.953 40.0829C141.892 40.1437 141.854 40.2273 141.854 40.3185V50.0921C141.854 50.1757 141.892 50.2669 141.953 50.3277C142.014 50.3885 142.097 50.4265 142.188 50.4265ZM142.515 40.6453H191.938V49.7577H142.515V40.6453Z" fill="#7D2D80"/>
<path d="M190.639 42.864H175.18V44.2396H190.639V42.864Z" fill="white"/>
<path d="M190.972 42.203H174.845C174.762 42.203 174.67 42.241 174.61 42.3018C174.549 42.3626 174.511 42.4462 174.511 42.5374V44.5742C174.511 44.6578 174.549 44.749 174.61 44.8098C174.67 44.8706 174.754 44.9086 174.845 44.9086H190.972C191.056 44.9086 191.147 44.8706 191.208 44.8098C191.269 44.749 191.307 44.6654 191.307 44.5742V42.5374C191.307 42.4538 191.269 42.3626 191.208 42.3018C191.147 42.241 191.056 42.203 190.972 42.203ZM175.18 42.8642H190.638V44.2398H175.18V42.8642Z" fill="#7D2D80"/>
<path d="M183.843 61.0428H154.637V62.5857H183.843V61.0428Z" fill="white"/>
<path d="M184.178 60.382H154.31C154.227 60.382 154.136 60.42 154.075 60.4808C154.014 60.5416 153.976 60.6252 153.976 60.7164V62.9204C153.976 63.004 154.014 63.0952 154.075 63.156C154.136 63.2168 154.219 63.2548 154.31 63.2548H184.178C184.262 63.2548 184.353 63.2168 184.414 63.156C184.475 63.0952 184.513 63.0116 184.513 62.9204V60.7164C184.513 60.6328 184.475 60.5416 184.414 60.4808C184.353 60.42 184.262 60.382 184.178 60.382ZM154.637 61.0432H183.844V62.586H154.637V61.0432Z" fill="#7D2D80"/>
<path d="M141.861 98.686H123.667V102.63H141.861V98.686Z" fill="white"/>
<path d="M123.332 103.291H142.188C142.271 103.291 142.362 103.253 142.423 103.192C142.484 103.132 142.522 103.048 142.522 102.957V98.3512C142.522 98.2676 142.484 98.1764 142.423 98.1156C142.362 98.0548 142.279 98.0168 142.188 98.0168H123.332C123.248 98.0168 123.157 98.0548 123.096 98.1156C123.036 98.1764 122.998 98.26 122.998 98.3512V102.957C122.998 103.04 123.036 103.132 123.096 103.192C123.157 103.253 123.248 103.291 123.332 103.291ZM123.666 98.6856H141.861V102.63H123.666V98.6856Z" fill="#7D2D80"/>
<path d="M147.395 103.382C147.828 103.816 148.428 104.089 149.097 104.089C149.766 104.089 150.359 103.823 150.8 103.382C151.233 102.949 151.506 102.349 151.506 101.68C151.506 101.011 151.24 100.418 150.8 99.9777C150.366 99.5445 149.766 99.2709 149.097 99.2709C148.428 99.2709 147.836 99.5369 147.395 99.9777C146.962 100.411 146.688 101.011 146.688 101.68C146.688 102.349 146.962 102.949 147.395 103.382Z" fill="white"/>
<path d="M149.096 104.751C150.791 104.751 152.167 103.375 152.167 101.68C152.167 99.9856 150.791 98.61 149.096 98.61C147.401 98.61 146.026 99.9856 146.026 101.68C146.026 103.375 147.401 104.751 149.096 104.751ZM149.096 99.2788C149.765 99.2788 150.358 99.5448 150.799 99.9856C151.232 100.419 151.505 101.019 151.505 101.688C151.505 102.357 151.239 102.95 150.799 103.39C150.365 103.824 149.765 104.097 149.096 104.097C148.427 104.097 147.835 103.831 147.394 103.39C146.961 102.957 146.687 102.357 146.687 101.688C146.687 101.019 146.953 100.426 147.394 99.9856C147.835 99.5448 148.427 99.2788 149.096 99.2788Z" fill="#7D2D80"/>
<path d="M126.426 56.2166C125.636 55.4262 124.541 54.9398 123.333 54.9398C122.124 54.9398 121.03 55.4262 120.24 56.2166C119.449 57.007 118.963 58.1014 118.963 59.3098C118.963 60.5182 119.449 61.605 120.24 62.403C121.03 63.1934 122.124 63.6798 123.333 63.6798C124.541 63.6798 125.628 63.1934 126.426 62.403C127.216 61.6126 127.703 60.5182 127.703 59.3098C127.703 58.0938 127.216 57.007 126.426 56.2166Z" fill="white"/>
<path d="M123.333 54.2721C120.552 54.2721 118.302 56.5217 118.302 59.3033C118.302 62.0849 120.552 64.3345 123.333 64.3345C126.115 64.3345 128.365 62.0849 128.365 59.3033C128.365 56.5293 126.115 54.2721 123.333 54.2721ZM123.333 63.6733C122.125 63.6733 121.031 63.1869 120.24 62.3965C119.45 61.6061 118.963 60.5117 118.963 59.3033C118.963 58.0949 119.45 57.0081 120.24 56.2101C121.031 55.4197 122.125 54.9333 123.333 54.9333C124.542 54.9333 125.629 55.4197 126.427 56.2101C127.217 57.0005 127.703 58.0949 127.703 59.3033C127.703 60.5117 127.217 61.5985 126.427 62.3965C125.636 63.1869 124.542 63.6733 123.333 63.6733Z" fill="#7D2D80"/>
<path d="M180.902 204.098V197.562L171.015 196.551V202.251L180.902 204.098Z" fill="url(#paint9_linear_7_353)"/>
<path d="M24.5703 228.463L16.3547 222.429C16.2103 222.322 15.9975 222.353 15.8911 222.497C15.7847 222.641 15.8151 222.854 15.9595 222.961L24.1751 228.995C24.3195 229.101 24.5323 229.071 24.6387 228.927C24.7451 228.775 24.7147 228.569 24.5703 228.463ZM7.94915 166.553C8.13155 166.553 8.28355 166.409 8.28355 166.219V160.519C8.28355 160.337 8.13915 160.185 7.94915 160.185C7.76675 160.185 7.61475 160.329 7.61475 160.519V166.219C7.61475 166.409 7.76675 166.553 7.94915 166.553ZM154.462 136.26C154.295 136.328 154.219 136.526 154.287 136.693L157.054 143.229C157.122 143.396 157.32 143.472 157.487 143.404C157.654 143.335 157.73 143.138 157.662 142.971L154.895 136.435C154.819 136.267 154.629 136.184 154.462 136.26ZM222.809 100.981C222.991 101.019 223.158 100.897 223.196 100.722C223.234 100.54 223.113 100.373 222.938 100.335L214.228 98.6171C214.046 98.5791 213.879 98.7007 213.841 98.8755C213.803 99.0579 213.924 99.2251 214.099 99.2631L222.809 100.981ZM28.4995 171.486C28.5603 171.547 28.6439 171.585 28.7351 171.585H59.2339C59.3175 171.585 59.4087 171.547 59.4695 171.486C59.5303 171.425 59.5683 171.341 59.5683 171.25V164.57V134.717C59.5683 134.633 59.5303 134.542 59.4695 134.481C59.4087 134.421 59.3251 134.383 59.2339 134.383H28.7275C28.6439 134.383 28.5527 134.421 28.4919 134.481C28.4311 134.542 28.3931 134.626 28.3931 134.717V158.406V171.25C28.4007 171.334 28.4311 171.425 28.4995 171.486ZM58.8995 135.051V164.015V170.916H29.0619V158.186V135.051H58.8995ZM211.964 64.2955C211.941 64.2879 211.926 64.2727 211.91 64.2575C211.926 64.2651 211.941 64.2803 211.964 64.2955ZM211.888 64.2347C211.872 64.2195 211.865 64.2119 211.857 64.1967C211.865 64.2119 211.88 64.2195 211.888 64.2347ZM214.464 60.5715C214.51 60.6703 214.502 60.7919 214.449 60.8831L214.289 61.1415L231.184 69.4255L231.496 68.8403L214.312 60.4119H214.304C214.373 60.4423 214.434 60.5031 214.464 60.5715ZM212.594 63.8775L212.412 64.1739C212.351 64.2727 212.245 64.3335 212.131 64.3335C212.078 64.3335 212.017 64.3183 211.971 64.2955L229.033 73.4231L229.345 72.8379L212.594 63.8775Z" fill="#7D2D80"/>
<path d="M211.85 64.1827C211.85 64.1903 211.857 64.1903 211.857 64.1903C211.865 64.2055 211.88 64.2207 211.888 64.2283C211.895 64.2359 211.903 64.2435 211.903 64.2435C211.918 64.2587 211.941 64.2739 211.956 64.2815L211.964 64.2891C212.009 64.3119 212.07 64.3271 212.123 64.3271C212.237 64.3271 212.344 64.2663 212.405 64.1675L212.587 63.8711L214.282 61.1274L214.441 60.869C214.502 60.7702 214.51 60.6562 214.456 60.5574C214.426 60.489 214.365 60.4282 214.297 60.3978C214.266 60.3826 214.236 60.375 214.206 60.3674L209.653 59.691C209.524 59.6682 209.395 59.729 209.327 59.8354C209.258 59.9418 209.258 60.0862 209.327 60.1926L211.85 64.1827ZM213.62 60.9678L212.123 63.3847L210.277 60.4738L213.62 60.9678Z" fill="#7D2D80"/>
<path d="M232.066 69.1749L229.657 73.6665L231.8 74.7533L234.377 70.3301L232.066 69.1749Z" fill="#7D2D80"/>
<path d="M229.345 72.8458L229.033 73.4311L228.911 73.6514C228.866 73.7274 228.858 73.8186 228.889 73.9098C228.919 73.9934 228.972 74.0618 229.056 74.1074L231.777 75.4906C231.936 75.5666 232.126 75.5134 232.21 75.3614L235.121 70.3606C235.166 70.2846 235.181 70.1859 235.151 70.1023C235.128 70.0187 235.06 69.9426 234.984 69.9046L232.073 68.4531C231.913 68.3695 231.716 68.4379 231.632 68.5899L231.488 68.8559L231.176 69.4411L229.345 72.8458ZM229.656 73.6666L232.065 69.1751L234.376 70.3303L231.799 74.7534L229.656 73.6666ZM33.0063 139.992H37.1939C37.3763 139.992 37.5283 139.847 37.5283 139.657C37.5283 139.475 37.3839 139.323 37.1939 139.323H33.0063C32.8239 139.323 32.6719 139.467 32.6719 139.657C32.6719 139.847 32.8239 139.992 33.0063 139.992ZM42.4683 139.992H56.3763C56.5587 139.992 56.7107 139.847 56.7107 139.657C56.7107 139.475 56.5663 139.323 56.3763 139.323H42.4683C42.2859 139.323 42.1339 139.467 42.1339 139.657C42.1415 139.847 42.2859 139.992 42.4683 139.992ZM33.0063 145.692H56.3839C56.5663 145.692 56.7183 145.547 56.7183 145.357C56.7183 145.175 56.5739 145.023 56.3839 145.023H33.0063C32.8239 145.023 32.6719 145.167 32.6719 145.357C32.6719 145.54 32.8239 145.692 33.0063 145.692ZM33.0063 150.966H56.3839C56.5663 150.966 56.7183 150.822 56.7183 150.632C56.7183 150.449 56.5739 150.297 56.3839 150.297H33.0063C32.8239 150.297 32.6719 150.442 32.6719 150.632C32.6719 150.822 32.8239 150.966 33.0063 150.966ZM56.3839 154.918H47.2487C47.0663 154.918 46.9143 155.063 46.9143 155.253C46.9143 155.435 47.0587 155.587 47.2487 155.587H56.3839C56.5663 155.587 56.7183 155.443 56.7183 155.253C56.7107 155.063 56.5663 154.918 56.3839 154.918Z" fill="#7D2D80"/>
<path d="M164.252 250.405C163.705 249.857 162.952 249.523 162.124 249.523C161.288 249.523 160.543 249.857 159.996 250.405C159.449 250.952 159.114 251.704 159.114 252.533C159.114 253.361 159.449 254.113 159.996 254.66C160.543 255.208 161.295 255.542 162.124 255.542C162.96 255.542 163.705 255.208 164.252 254.66C164.799 254.113 165.133 253.361 165.133 252.533C165.133 251.704 164.791 250.952 164.252 250.405Z" fill="white"/>
<path d="M158.445 252.533C158.445 254.562 160.087 256.204 162.116 256.204C164.145 256.204 165.787 254.562 165.787 252.533C165.787 250.504 164.145 248.862 162.116 248.862C160.095 248.862 158.445 250.511 158.445 252.533ZM162.124 255.542C161.288 255.542 160.543 255.208 159.996 254.661C159.449 254.114 159.114 253.361 159.114 252.533C159.114 251.697 159.449 250.952 159.996 250.405C160.543 249.858 161.295 249.523 162.124 249.523C162.96 249.523 163.704 249.858 164.252 250.405C164.799 250.952 165.133 251.704 165.133 252.533C165.133 253.361 164.799 254.114 164.252 254.661C163.704 255.208 162.952 255.542 162.124 255.542Z" fill="#7D2D80"/>
<defs>
<linearGradient id="paint0_linear_7_353" x1="87.6772" y1="311.516" x2="87.6772" y2="220.417" gradientUnits="userSpaceOnUse">
<stop stop-color="#FBD027"/>
<stop offset="1" stop-color="#FCEFBC"/>
</linearGradient>
<linearGradient id="paint1_linear_7_353" x1="141.659" y1="311.517" x2="141.659" y2="220.417" gradientUnits="userSpaceOnUse">
<stop stop-color="#FBD027"/>
<stop offset="1" stop-color="#FCEFBC"/>
</linearGradient>
<linearGradient id="paint2_linear_7_353" x1="41.6407" y1="311.516" x2="41.6407" y2="220.417" gradientUnits="userSpaceOnUse">
<stop stop-color="#FBD027"/>
<stop offset="1" stop-color="#FCEFBC"/>
</linearGradient>
<linearGradient id="paint3_linear_7_353" x1="41.7664" y1="311.518" x2="41.7664" y2="220.417" gradientUnits="userSpaceOnUse">
<stop stop-color="#FBD027"/>
<stop offset="1" stop-color="#FCEFBC"/>
</linearGradient>
<linearGradient id="paint4_linear_7_353" x1="38.5659" y1="251.325" x2="38.5659" y2="162.921" gradientUnits="userSpaceOnUse">
<stop stop-color="#FBD027"/>
<stop offset="1" stop-color="#FCEFBC"/>
</linearGradient>
<linearGradient id="paint5_linear_7_353" x1="43.9591" y1="251.325" x2="43.9591" y2="162.921" gradientUnits="userSpaceOnUse">
<stop stop-color="#FBD027"/>
<stop offset="1" stop-color="#FCEFBC"/>
</linearGradient>
<linearGradient id="paint6_linear_7_353" x1="218.309" y1="251.089" x2="218.309" y2="117.404" gradientUnits="userSpaceOnUse">
<stop stop-color="#FBD027"/>
<stop offset="1" stop-color="#FCEFBC"/>
</linearGradient>
<linearGradient id="paint7_linear_7_353" x1="212.138" y1="300.978" x2="212.138" y2="252.194" gradientUnits="userSpaceOnUse">
<stop stop-color="#FBD027"/>
<stop offset="1" stop-color="#FCEFBC"/>
</linearGradient>
<linearGradient id="paint8_linear_7_353" x1="210.641" y1="300.979" x2="210.641" y2="252.195" gradientUnits="userSpaceOnUse">
<stop stop-color="#FBD027"/>
<stop offset="1" stop-color="#FCEFBC"/>
</linearGradient>
<linearGradient id="paint9_linear_7_353" x1="175.953" y1="207.633" x2="175.953" y2="197.275" gradientUnits="userSpaceOnUse">
<stop stop-color="#FBD027"/>
<stop offset="1" stop-color="#FCEFBC"/>
</linearGradient>
</defs>
</svg>
