<svg width="304" height="304" viewBox="0 0 304 304" fill="none" xmlns="http://www.w3.org/2000/svg">
<path d="M160.481 53.0779L191.793 50.3951C191.786 50.3115 191.778 50.2279 191.778 50.1367C191.778 50.0075 191.786 49.8859 191.801 49.7567L160.436 52.4471C160.466 52.6447 160.481 52.8423 160.481 53.0475C160.481 53.0551 160.481 53.0703 160.481 53.0779ZM109.371 92.4307H121.166C121.258 92.4307 121.341 92.3927 121.402 92.3319L154.31 56.5739C154.128 56.4675 153.953 56.3459 153.786 56.2091L121.03 91.7999H109.326C109.348 91.9899 109.371 92.1799 109.371 92.3775C109.379 92.3927 109.371 92.4079 109.371 92.4307ZM83.4705 125.779L103.626 96.1091C103.428 96.0255 103.246 95.9191 103.071 95.8051L83.0069 125.346C83.1665 125.476 83.3261 125.62 83.4705 125.779ZM63.9081 125.217L76.4405 127.877C76.4785 127.664 76.5241 127.459 76.5925 127.261L63.9233 124.571C63.9233 124.639 63.9309 124.708 63.9309 124.784C63.9309 124.928 63.9233 125.073 63.9081 125.217ZM56.7717 127.482C56.6273 127.322 56.4981 127.147 56.3841 126.965L29.0545 159.44C29.2293 159.561 29.3889 159.698 29.5409 159.843L56.7717 127.482ZM198.96 47.4539L216.896 25.7027C216.736 25.5963 216.584 25.4899 216.425 25.3759C216.41 25.3607 216.394 25.3531 216.372 25.3379L198.512 46.9979C198.671 47.1423 198.823 47.2943 198.96 47.4539ZM271.342 286.238H217.732C217.762 286.459 217.785 286.672 217.793 286.869H271.342C271.517 286.869 271.662 286.725 271.662 286.55C271.662 286.375 271.517 286.238 271.342 286.238ZM26.6681 286.238C26.4933 286.238 26.3489 286.383 26.3489 286.558C26.3489 286.732 26.4933 286.877 26.6681 286.877H133.41C133.425 286.664 133.463 286.459 133.524 286.246H26.6681V286.238ZM160.671 286.238V286.717C160.671 286.77 160.648 286.824 160.626 286.869H190.402L190.334 286.238H160.671Z" fill="#7D2D80"/>
<path d="M220.636 69.9124C221.137 69.5172 221.51 69.084 221.806 68.6052C222.102 68.1264 222.323 67.6096 222.513 67.0548C222.893 65.9452 223.128 64.6836 223.6 63.3536C223.881 62.5556 224.116 61.8868 224.276 61.3168C224.436 60.7544 224.519 60.2984 224.519 59.9564C224.519 59.736 224.489 59.5688 224.428 59.432C224.367 59.2952 224.283 59.1812 224.154 59.0824C224.025 58.976 223.926 58.9532 223.85 58.9532C223.789 58.9532 223.729 58.9684 223.653 59.0064C223.577 59.0444 223.493 59.1128 223.41 59.1964C223.242 59.3712 223.075 59.622 222.931 59.888C222.9 59.9488 222.87 60.002 222.84 60.0628C222.634 60.648 222.437 61.0812 222.429 61.0812C222.361 61.2332 222.186 61.3016 222.034 61.2408C221.882 61.18 221.798 61.0128 221.844 60.8532C221.844 60.8456 221.927 60.5872 222.064 60.2376C222.117 60.1084 222.178 59.9716 222.247 59.8272C222.353 59.5232 222.467 59.1736 222.543 58.8316C222.619 58.5124 222.665 58.1932 222.665 57.9348C222.665 57.7828 222.65 57.6612 222.619 57.5624C222.589 57.4636 222.551 57.4028 222.513 57.3648C222.482 57.3344 222.452 57.3192 222.406 57.304C222.163 57.2128 221.958 57.1824 221.798 57.1824C221.654 57.1824 221.54 57.2052 221.449 57.2432C221.35 57.2812 221.266 57.3344 221.19 57.4028C221.038 57.532 220.924 57.7144 220.818 57.8816C220.727 58.0336 220.559 58.33 220.392 58.6416C220.225 58.9456 220.05 59.2648 219.944 59.4624C219.868 59.5992 219.822 59.6828 219.822 59.6828C219.746 59.8272 219.572 59.888 219.42 59.8196C219.268 59.7512 219.192 59.584 219.245 59.4244C219.397 58.976 219.587 58.444 219.731 57.912C219.883 57.38 219.99 56.848 219.982 56.4224C219.982 56.2172 219.959 56.0348 219.914 55.898C219.868 55.7612 219.799 55.6624 219.708 55.5864C219.647 55.5408 219.572 55.4952 219.473 55.4648C219.435 55.4496 219.397 55.4496 219.359 55.4496C219.275 55.4496 219.176 55.48 219.062 55.5484C218.948 55.6168 218.827 55.7232 218.705 55.8676C218.454 56.1488 218.219 56.544 218.006 56.962C217.786 57.4028 217.603 57.8588 217.474 58.1932L217.276 58.7632C217.223 58.9228 217.041 59.014 216.881 58.9608C216.714 58.9076 216.623 58.7328 216.676 58.5656C216.676 58.558 216.752 58.3224 216.881 57.9804L218.28 53.9144C218.295 53.8612 218.356 53.6332 218.439 53.2912C218.538 52.896 218.675 52.3564 218.827 51.756C219.123 50.5628 219.465 49.1492 219.632 48.2828C219.693 47.9636 219.724 47.6596 219.724 47.386C219.724 47.0592 219.686 46.778 219.61 46.5652C219.541 46.3524 219.442 46.2156 219.359 46.1548C219.298 46.1168 219.252 46.094 219.176 46.094C219.077 46.094 218.918 46.1396 218.705 46.2916C218.606 46.36 218.447 46.5348 218.28 46.7932C218.105 47.0516 217.907 47.3936 217.702 47.804C217.284 48.6248 216.813 49.7116 216.319 50.9656C215.331 53.4736 214.244 56.6428 213.241 59.7056C213.188 59.8728 213.005 59.964 212.846 59.9108C212.678 59.8576 212.587 59.6752 212.64 59.5156C213.081 58.1552 213.545 56.7796 214.008 55.442C214.001 55.3964 213.986 55.328 213.963 55.2596C213.917 55.1152 213.834 54.9632 213.735 54.8872C213.666 54.834 213.606 54.8112 213.499 54.8036H213.492C213.476 54.8112 213.454 54.8264 213.423 54.8492C213.362 54.9024 213.279 55.0012 213.188 55.1456C213.005 55.4344 212.8 55.8904 212.587 56.4528C212.154 57.5928 211.675 59.1888 211.151 60.99C210.71 62.4872 210.588 63.8704 210.588 64.9572C210.588 66.3784 210.801 67.298 210.809 67.336C210.824 67.3892 210.824 67.45 210.801 67.5032L210.254 69.35C210.459 69.388 210.672 69.4336 210.885 69.4944C211.417 69.6388 211.994 69.844 212.58 70.0796C213.758 70.566 215.012 71.2044 216.159 71.8428C216.775 72.1848 217.368 72.5268 217.892 72.846C218.652 71.8656 219.602 70.7332 220.636 69.9124Z" fill="white"/>
<path d="M210.277 69.3506L210.824 67.5038C210.84 67.4506 210.84 67.3898 210.832 67.3366C210.824 67.2986 210.612 66.3714 210.612 64.9578C210.612 63.871 210.741 62.4878 211.174 60.9906C211.698 59.197 212.177 57.5934 212.61 56.4534C212.823 55.8834 213.036 55.435 213.211 55.1462C213.302 55.0018 213.386 54.8954 213.446 54.8498C213.477 54.8194 213.5 54.8118 213.515 54.8042H213.522C213.629 54.8042 213.69 54.8346 213.758 54.8878C213.857 54.9638 213.94 55.1158 213.986 55.2602C214.009 55.3286 214.024 55.397 214.032 55.4426C213.568 56.7802 213.112 58.1558 212.664 59.5162C212.61 59.6834 212.702 59.8582 212.869 59.9114C213.036 59.9646 213.211 59.8734 213.264 59.7062C214.26 56.6434 215.354 53.4742 216.342 50.9662C216.836 49.7122 217.307 48.6254 217.725 47.8046C217.93 47.3942 218.128 47.0522 218.303 46.7938C218.478 46.5354 218.637 46.3606 218.728 46.2922C218.941 46.1402 219.101 46.0946 219.2 46.0946C219.276 46.0946 219.329 46.1098 219.382 46.1554C219.466 46.2162 219.564 46.353 219.633 46.5658C219.701 46.7786 219.747 47.0598 219.747 47.3866C219.747 47.6602 219.716 47.9642 219.656 48.2834C219.488 49.1422 219.154 50.5634 218.85 51.7566C218.698 52.357 218.561 52.8966 218.462 53.2918C218.371 53.6338 218.318 53.8694 218.303 53.915L216.904 57.981C216.775 58.3306 216.707 58.5662 216.699 58.5662C216.646 58.7334 216.737 58.9082 216.904 58.9614C217.072 59.0146 217.246 58.9234 217.3 58.7638L217.497 58.1938C217.626 57.8518 217.801 57.4034 218.029 56.9626C218.234 56.5522 218.478 56.1494 218.728 55.8682C218.85 55.7314 218.972 55.6174 219.086 55.549C219.2 55.4806 219.291 55.4502 219.382 55.4502C219.42 55.4502 219.458 55.4578 219.496 55.4654C219.595 55.4958 219.671 55.5338 219.732 55.587C219.823 55.663 219.884 55.7542 219.937 55.8986C219.982 56.0354 220.013 56.2178 220.005 56.423C220.005 56.8486 219.899 57.3806 219.754 57.9126C219.602 58.4446 219.42 58.9766 219.268 59.425C219.215 59.5846 219.291 59.7518 219.443 59.8202C219.595 59.8886 219.77 59.8278 219.846 59.6834C219.846 59.6834 219.891 59.5998 219.967 59.463C220.074 59.2578 220.248 58.9462 220.416 58.6422C220.583 58.3382 220.75 58.0418 220.841 57.8822C220.94 57.715 221.062 57.5326 221.214 57.4034C221.29 57.335 221.373 57.2818 221.472 57.2438C221.571 57.2058 221.685 57.183 221.822 57.183C221.981 57.183 222.179 57.2134 222.43 57.3046C222.475 57.3198 222.506 57.3426 222.536 57.3654C222.574 57.4034 222.62 57.4642 222.642 57.563C222.673 57.6618 222.688 57.791 222.688 57.9354C222.688 58.1938 222.642 58.5054 222.566 58.8322C222.49 59.1742 222.376 59.5162 222.27 59.8278C222.202 59.9722 222.141 60.109 222.088 60.2382C221.943 60.5878 221.867 60.8462 221.867 60.8538C221.822 61.0134 221.905 61.1806 222.057 61.2414C222.209 61.3022 222.384 61.2262 222.452 61.0818C222.452 61.0742 222.65 60.6486 222.863 60.0634C222.893 60.0026 222.924 59.9494 222.954 59.8886C223.091 59.6226 223.258 59.3718 223.433 59.197C223.516 59.1134 223.6 59.045 223.676 59.007C223.752 58.969 223.813 58.9538 223.874 58.9538C223.95 58.9538 224.048 58.9766 224.178 59.083C224.307 59.1894 224.39 59.2958 224.451 59.4326C224.512 59.5694 224.542 59.7442 224.542 59.957C224.542 60.299 224.459 60.755 224.299 61.3174C224.14 61.8798 223.912 62.5562 223.623 63.3542C223.152 64.6842 222.908 65.9458 222.536 67.0554C222.346 67.6102 222.126 68.127 221.829 68.6058C221.533 69.0846 221.16 69.5178 220.659 69.913C219.625 70.7338 218.675 71.8738 217.953 72.8466C218.143 72.9606 218.326 73.067 218.493 73.1734C219.192 72.231 220.112 71.1518 221.054 70.407C221.609 69.9662 222.034 69.4722 222.369 68.9402C222.863 68.1422 223.152 67.2682 223.41 66.3638C223.661 65.4594 223.881 64.517 224.223 63.5594C224.504 62.7614 224.74 62.0774 224.907 61.4846C225.074 60.8918 225.173 60.3902 225.173 59.9494C225.173 59.6682 225.135 59.4098 225.036 59.1818C224.938 58.9462 224.786 58.741 224.58 58.5814C224.368 58.4066 224.124 58.3154 223.881 58.3154C223.691 58.3154 223.516 58.3686 223.372 58.4522C223.342 58.4674 223.319 58.4902 223.288 58.5054C223.319 58.3154 223.334 58.1254 223.334 57.943C223.334 57.6846 223.304 57.4414 223.197 57.221C223.144 57.107 223.076 57.0082 222.984 56.917C222.893 56.8258 222.779 56.7574 222.65 56.7118C222.346 56.6054 222.08 56.5522 221.829 56.5522C221.609 56.5522 221.419 56.5902 221.244 56.6586C220.986 56.7574 220.788 56.9246 220.644 57.0918C220.621 57.1146 220.606 57.1374 220.59 57.1602C220.628 56.9094 220.659 56.6662 220.659 56.4306C220.659 56.0886 220.606 55.7694 220.461 55.4882C220.385 55.3438 220.286 55.2146 220.157 55.1158C220.028 55.0094 219.876 54.9334 219.701 54.8802C219.602 54.8498 219.504 54.8346 219.405 54.8346C219.169 54.8346 218.956 54.9182 218.766 55.0322C218.698 55.0778 218.637 55.1234 218.569 55.1766L218.934 54.1126L218.941 54.0898C218.941 54.0898 219.2 53.1094 219.496 51.9086C219.792 50.7078 220.134 49.2942 220.309 48.405C220.378 48.0478 220.408 47.7058 220.408 47.3866C220.408 46.885 220.324 46.4366 220.15 46.087C220.058 45.9122 219.937 45.7602 219.785 45.6386C219.625 45.5246 219.435 45.4562 219.23 45.4562C218.949 45.4562 218.668 45.5702 218.394 45.7678C218.189 45.9198 218.006 46.1402 217.809 46.429C217.467 46.9382 217.094 47.6602 216.692 48.5646C215.977 50.153 215.179 52.2658 214.366 54.561C214.313 54.4926 214.26 54.4318 214.184 54.371C214.024 54.2418 213.804 54.143 213.545 54.1506C213.446 54.1506 213.355 54.1734 213.272 54.2114C213.12 54.2798 213.006 54.3938 212.892 54.523C212.702 54.7586 212.527 55.0702 212.352 55.473C212.086 56.0658 211.805 56.841 211.516 57.753C211.227 58.6574 210.916 59.691 210.596 60.8006C210.14 62.3662 210.004 63.8102 210.004 64.9426C210.004 66.2194 210.171 67.1162 210.224 67.3898L209.669 69.2594C209.852 69.2822 210.057 69.305 210.277 69.3506Z" fill="#7D2D80"/>
<path d="M185.106 262.443C184.08 257.138 182.666 249.858 181.047 241.422L169.64 241.019C169.632 241.019 169.624 241.019 169.609 241.019C169.602 241.019 169.586 241.019 169.579 241.011C169.571 241.011 169.564 241.004 169.556 241.004C169.541 241.004 169.533 240.996 169.518 240.988C169.51 240.988 169.51 240.981 169.503 240.981C169.488 240.973 169.48 240.966 169.465 240.958C169.465 240.958 169.465 240.958 169.457 240.95C169.412 240.92 169.374 240.874 169.351 240.814C169.343 240.798 169.336 240.776 169.336 240.76C169.328 240.738 169.328 240.722 169.328 240.7V209.98C168.18 209.251 166.995 208.582 165.771 207.966C165.627 210.558 165.475 213.142 165.323 215.696C163.613 245.13 161.895 271.153 161.895 271.153C161.888 271.305 161.766 271.426 161.622 271.442C161.614 271.442 161.333 271.48 160.664 271.518V284.742C171.555 280.987 180.401 272.855 185.106 262.443Z" fill="url(#paint0_linear_7_419)"/>
<path d="M139.681 279.619C142.044 277.993 144.4 276.724 145.388 276.214C145.251 276.1 145.115 275.948 145.001 275.751C144.894 275.568 144.826 275.34 144.826 275.09C144.826 275.036 144.826 274.976 144.833 274.915C144.856 274.755 144.909 274.611 144.978 274.474C145.046 274.337 145.137 274.2 145.236 274.064C145.434 273.798 145.677 273.547 145.92 273.319C146.224 273.038 146.513 272.802 146.688 272.665L146.437 271.464C146.239 271.457 146.034 271.449 145.837 271.442C145.692 271.434 145.563 271.328 145.54 271.183C144.659 266.479 144.066 260.087 143.686 252.594C143.313 245.1 143.154 236.504 143.154 227.422C143.154 219.739 143.268 211.698 143.45 203.68C129.641 204.858 117.747 212.762 111.059 224.094H121.182C121.266 224.094 121.349 224.124 121.403 224.185C121.463 224.246 121.494 224.322 121.494 224.405V269.443C121.494 269.526 121.463 269.61 121.403 269.663C121.342 269.724 121.266 269.754 121.182 269.754H113.233C118.347 276.8 125.613 282.188 134.064 284.954C134.406 284.354 134.87 283.754 135.409 283.168C136.58 281.907 138.13 280.691 139.681 279.619Z" fill="url(#paint1_linear_7_419)"/>
<path d="M195.123 193.01C195.237 193.595 195.351 194.188 195.465 194.773C195.685 194.286 195.883 193.762 196.065 193.207L195.123 193.01ZM196.795 190.152C197.319 187.241 197.464 184.118 197.494 181.952C197.456 181.974 197.426 181.99 197.403 181.997C197.35 182.012 197.297 182.02 197.243 182.012C197.236 182.012 195.245 181.67 192.744 181.07C193.307 183.836 193.869 186.656 194.431 189.506L196.795 190.152Z" fill="white"/>
<path d="M196.681 193.336L196.058 193.207C195.883 193.762 195.678 194.287 195.457 194.773C195.526 195.115 195.586 195.449 195.655 195.791C195.845 195.442 196.027 195.077 196.187 194.682C196.377 194.256 196.536 193.808 196.681 193.336ZM197.494 181.952C197.464 184.11 197.312 187.241 196.795 190.152L197.41 190.319C197.578 189.384 197.707 188.434 197.813 187.492C198.079 185.045 198.132 182.719 198.14 181.154C198.041 181.351 197.942 181.503 197.851 181.625C197.707 181.807 197.578 181.898 197.494 181.952Z" fill="#7D2D80"/>
<path d="M199.583 193.298C199.682 193.321 199.766 193.389 199.811 193.48L203.277 201.468L206.94 201.764L201.719 192.15L194.575 190.205C194.712 190.919 194.856 191.634 194.993 192.348L199.583 193.298Z" fill="#7D2D80"/>
<path d="M196.794 190.152L194.438 189.506C194.483 189.734 194.529 189.97 194.575 190.198L201.719 192.143L206.94 201.757L207.692 201.818L202.205 191.725C202.167 191.649 202.091 191.596 202.007 191.573L197.409 190.319L196.794 190.152Z" fill="#7D2D80"/>
<path d="M199.583 193.299L194.993 192.341C195.039 192.562 195.084 192.79 195.122 193.01L196.065 193.208L196.688 193.337L199.302 193.884L202.57 201.408L203.285 201.469L199.819 193.481C199.773 193.382 199.682 193.314 199.583 193.299Z" fill="#7D2D80"/>
<path d="M203.596 241.589L225.78 242.38L224.663 203.825L196.763 201.575C198.876 212.724 200.875 223.98 202.494 234.331C202.889 236.809 203.254 239.233 203.596 241.589ZM172.451 203.331C172.496 203.384 172.527 203.452 172.534 203.521L175.346 240.586L180.917 240.784C178.69 229.224 176.068 215.574 173.484 201.963L171.296 202.084L172.451 203.331Z" fill="white"/>
<path d="M170.582 201.491C170.673 201.483 170.764 201.521 170.833 201.59L171.296 202.084L173.485 201.962C173.447 201.757 173.409 201.544 173.363 201.339L169.624 201.537L170.582 201.491ZM169.465 240.958C169.465 240.958 169.457 240.958 169.465 240.958C169.457 240.958 169.465 240.958 169.465 240.958ZM169.518 240.988C169.51 240.988 169.51 240.981 169.503 240.981C169.51 240.981 169.51 240.988 169.518 240.988ZM169.335 240.76C169.328 240.737 169.328 240.722 169.328 240.699C169.328 240.722 169.328 240.745 169.335 240.76ZM169.579 241.011C169.571 241.011 169.563 241.003 169.556 241.003C169.556 241.003 169.563 241.003 169.579 241.011ZM206.94 201.757L203.277 201.461L202.563 201.4L196.642 200.921C196.68 201.134 196.726 201.346 196.764 201.567L224.663 203.817L225.781 242.371L203.596 241.581C203.627 241.794 203.657 242.007 203.687 242.219L226.1 243.017C226.183 243.017 226.275 242.987 226.335 242.926C226.396 242.865 226.434 242.782 226.427 242.691L225.294 203.52C225.287 203.36 225.165 203.224 225.005 203.216L207.693 201.818L206.94 201.757ZM175.355 240.692C175.362 240.783 175.332 240.867 175.271 240.927C175.21 240.988 175.127 241.026 175.035 241.026L169.639 241.011C169.624 241.011 169.617 241.011 169.601 241.003C169.609 241.003 169.617 241.003 169.632 241.003L181.039 241.406C181.001 241.193 180.956 240.981 180.918 240.768L175.347 240.57L175.355 240.692Z" fill="#7D2D80"/>
<path d="M179.414 109.296C179.657 109.296 179.893 109.288 180.136 109.265C182.484 109.052 184.605 108.27 186.581 106.985C185.502 105.07 184.415 103.444 183.366 102.076C178.821 96.1476 174.915 94.886 174.588 94.7872L172.612 94.62C172.597 94.6276 172.582 94.6352 172.566 94.6428L177.446 109.098C178.122 109.22 178.776 109.296 179.414 109.296ZM192.615 180.386C194.85 180.926 196.734 181.275 197.228 181.366C197.259 181.344 197.297 181.298 197.342 181.237C197.487 181.047 197.707 180.667 197.935 179.953C198.384 178.509 198.855 175.712 198.855 170.407C198.855 164.183 198.216 154.508 196.18 139.513C195.435 134.026 194.492 129.2 193.421 124.959C193.178 125.142 192.934 125.316 192.691 125.484C190.274 127.156 187.721 128.273 185.046 128.615C184.354 128.706 183.662 128.767 182.978 128.812L185.312 137.826C185.334 137.917 185.319 138.016 185.258 138.092C185.205 138.168 185.114 138.214 185.023 138.221C185.023 138.221 184.536 138.244 183.678 138.282C185.638 147.09 189.036 162.686 192.615 180.386Z" fill="white"/>
<path d="M172.779 94.3839C172.764 94.4903 172.703 94.5739 172.612 94.6195L174.588 94.7867C174.914 94.8855 178.828 96.1471 183.366 102.075C184.414 103.451 185.501 105.069 186.58 106.985C186.755 106.871 186.93 106.749 187.105 106.627C185.98 104.636 184.848 102.957 183.753 101.543C178.935 95.3187 174.785 94.1863 174.724 94.1711L174.671 94.1635L171.555 93.8899C172.163 93.9735 172.513 94.0267 172.513 94.0267C172.688 94.0495 172.809 94.2091 172.779 94.3839ZM193.42 124.951C194.492 129.192 195.434 134.01 196.179 139.505C198.208 154.507 198.854 164.182 198.854 170.399C198.854 175.704 198.391 178.508 197.935 179.945C197.707 180.667 197.486 181.047 197.342 181.229C197.296 181.29 197.258 181.328 197.228 181.358C196.734 181.267 194.842 180.917 192.615 180.378C192.66 180.606 192.706 180.834 192.752 181.062C195.244 181.655 197.243 181.997 197.251 182.004C197.304 182.012 197.357 182.012 197.41 181.989C197.433 181.981 197.464 181.966 197.502 181.943C197.585 181.89 197.707 181.799 197.851 181.617C197.942 181.503 198.041 181.343 198.14 181.145C198.383 180.667 198.657 179.914 198.892 178.706C199.227 177.003 199.485 174.397 199.485 170.391C199.485 164.129 198.839 154.431 196.81 139.406C196.05 133.782 195.077 128.85 193.968 124.518C193.785 124.677 193.603 124.814 193.42 124.951Z" fill="#7D2D80"/>
<path d="M147.083 271.487L147.342 272.733C147.364 272.855 147.319 272.976 147.22 273.052L147.212 273.06L147.19 273.075C147.167 273.09 147.136 273.113 147.098 273.144C147.022 273.204 146.908 273.288 146.787 273.394C146.536 273.607 146.209 273.896 145.951 274.192C145.776 274.39 145.632 274.588 145.548 274.755C145.502 274.854 145.472 274.937 145.464 274.99C145.457 275.021 145.457 275.051 145.457 275.082C145.457 275.211 145.487 275.325 145.548 275.424C145.601 275.53 145.685 275.621 145.768 275.697C145.943 275.857 146.133 275.948 146.141 275.948C146.255 276.001 146.323 276.108 146.331 276.229C146.331 276.351 146.262 276.465 146.156 276.518C146.156 276.518 146.133 276.526 146.095 276.548C146.057 276.571 145.996 276.594 145.92 276.632C145.768 276.708 145.548 276.822 145.274 276.966C144.727 277.255 143.952 277.681 143.071 278.198C141.3 279.239 139.081 280.668 137.279 282.233C136.079 283.274 135.075 284.369 134.521 285.418C134.232 285.957 134.065 286.482 134.034 286.976C134.072 286.998 134.118 287.021 134.171 287.044C134.285 287.097 134.437 287.15 134.612 287.196C134.969 287.295 135.433 287.378 135.98 287.439C137.082 287.568 138.526 287.622 140.16 287.622C147.076 287.622 157.336 286.672 159.79 286.436C159.889 286.428 159.973 286.421 160.049 286.413V271.532C159.068 271.578 157.579 271.616 155.413 271.616C153.308 271.639 150.587 271.601 147.083 271.487Z" fill="white"/>
<path d="M160.671 286.238V284.749V271.525C160.489 271.532 160.284 271.548 160.041 271.555V286.436C159.965 286.444 159.881 286.451 159.782 286.459C157.327 286.694 147.075 287.644 140.151 287.644C138.517 287.644 137.073 287.591 135.971 287.462C135.417 287.401 134.953 287.318 134.603 287.219C134.429 287.173 134.277 287.12 134.163 287.067C134.109 287.044 134.064 287.021 134.026 286.998C134.056 286.504 134.223 285.98 134.512 285.44C135.067 284.392 136.078 283.297 137.271 282.256C139.065 280.698 141.291 279.262 143.062 278.22C143.944 277.704 144.719 277.278 145.266 276.989C145.54 276.845 145.76 276.731 145.912 276.655C145.988 276.617 146.049 276.586 146.087 276.571C146.125 276.548 146.148 276.541 146.148 276.541C146.254 276.488 146.33 276.374 146.323 276.252C146.323 276.13 146.247 276.016 146.133 275.971C146.125 275.971 145.935 275.88 145.76 275.72C145.677 275.644 145.593 275.545 145.54 275.446C145.487 275.34 145.449 275.234 145.449 275.104C145.449 275.074 145.449 275.044 145.456 275.013C145.464 274.952 145.487 274.869 145.54 274.778C145.623 274.61 145.768 274.413 145.943 274.215C146.201 273.919 146.528 273.63 146.779 273.417C146.908 273.311 147.014 273.227 147.09 273.166C147.128 273.136 147.159 273.113 147.181 273.098L147.204 273.083L147.212 273.075C147.311 272.999 147.364 272.878 147.333 272.756L147.075 271.51C146.862 271.502 146.642 271.494 146.429 271.487L146.68 272.688C146.505 272.824 146.209 273.06 145.912 273.341C145.677 273.562 145.433 273.82 145.228 274.086C145.129 274.215 145.038 274.352 144.97 274.496C144.901 274.633 144.848 274.785 144.825 274.937C144.818 274.998 144.818 275.051 144.818 275.112C144.818 275.363 144.894 275.591 144.993 275.773C145.107 275.971 145.243 276.115 145.38 276.237C144.392 276.746 142.036 278.015 139.673 279.642C138.122 280.706 136.572 281.929 135.394 283.206C134.854 283.791 134.398 284.384 134.049 284.992C134.018 285.045 133.98 285.106 133.95 285.159C133.752 285.524 133.608 285.889 133.509 286.261C133.456 286.474 133.418 286.679 133.395 286.892C133.387 286.983 133.38 287.074 133.38 287.173C133.38 287.257 133.418 287.34 133.479 287.401C133.593 287.508 133.729 287.591 133.889 287.667C134.163 287.796 134.505 287.888 134.915 287.971C136.139 288.214 137.985 288.298 140.144 288.298C148.109 288.298 160.375 287.052 160.375 287.052C160.481 287.044 160.565 286.976 160.611 286.892C160.633 286.846 160.656 286.793 160.656 286.74V286.238H160.671Z" fill="#7D2D80"/>
<path d="M191.118 287.66C191.14 287.66 191.156 287.66 191.178 287.66C191.391 287.667 191.703 287.682 192.106 287.705C192.904 287.743 194.036 287.789 195.389 287.834C198.094 287.926 201.674 288.017 205.162 288.017C208.955 288.017 212.648 287.903 214.982 287.576C215.757 287.47 216.388 287.325 216.798 287.173C216.958 287.112 217.072 287.052 217.163 286.998C217.14 286.231 216.942 285.235 216.532 284.247C216.099 283.191 215.43 282.142 214.526 281.352C212.8 279.862 210.536 278.684 208.651 277.871C206.774 277.058 205.284 276.617 205.117 276.564L205.102 276.556C204.972 276.518 204.881 276.404 204.874 276.275C204.866 276.146 204.942 276.016 205.064 275.963L205.071 275.956C205.079 275.948 205.094 275.94 205.117 275.933C205.155 275.91 205.216 275.872 205.284 275.826C205.413 275.735 205.565 275.598 205.649 275.439C205.71 275.332 205.748 275.218 205.748 275.082C205.748 275.051 205.748 275.021 205.74 274.99C205.732 274.876 205.641 274.686 205.489 274.481C205.345 274.276 205.14 274.056 204.934 273.858C204.524 273.455 204.091 273.128 204 273.06L203.984 273.045C203.886 272.969 203.832 272.847 203.863 272.726L204.045 271.867C196.369 271.867 191.878 271.867 189.491 271.867L191.118 287.66Z" fill="white"/>
<path d="M217.116 284.004C216.652 282.872 215.938 281.739 214.935 280.873C213.073 279.262 210.664 278.038 208.71 277.21C207.517 276.7 206.499 276.343 205.883 276.146C205.99 276.039 206.104 275.91 206.187 275.758C206.294 275.576 206.362 275.348 206.362 275.097C206.362 275.044 206.362 274.983 206.354 274.93C206.332 274.77 206.278 274.626 206.21 274.489C206.088 274.246 205.906 274.01 205.708 273.79C205.283 273.311 204.758 272.885 204.5 272.688L204.667 271.89C204.454 271.89 204.234 271.89 204.021 271.89L203.839 272.748C203.816 272.87 203.862 272.992 203.96 273.068L203.976 273.083C204.067 273.151 204.5 273.478 204.91 273.881C205.116 274.078 205.321 274.299 205.465 274.504C205.617 274.709 205.701 274.899 205.716 275.013C205.724 275.044 205.724 275.074 205.724 275.104C205.724 275.241 205.686 275.348 205.625 275.462C205.534 275.621 205.389 275.758 205.26 275.849C205.199 275.895 205.138 275.933 205.093 275.956C205.07 275.963 205.055 275.978 205.047 275.978L205.04 275.986C204.918 276.039 204.842 276.161 204.85 276.298C204.857 276.427 204.948 276.541 205.078 276.579L205.093 276.586C205.26 276.632 206.75 277.08 208.627 277.894C210.504 278.707 212.776 279.885 214.502 281.374C215.414 282.165 216.075 283.214 216.508 284.27C216.918 285.258 217.116 286.254 217.139 287.021C217.055 287.074 216.934 287.135 216.774 287.196C216.364 287.348 215.733 287.485 214.958 287.599C212.624 287.933 208.923 288.04 205.138 288.04C201.65 288.04 198.07 287.948 195.365 287.857C194.012 287.812 192.88 287.766 192.082 287.728C191.686 287.713 191.367 287.698 191.154 287.682C191.132 287.682 191.116 287.682 191.094 287.682L189.452 271.897C189.224 271.897 189.011 271.897 188.814 271.897L190.311 286.261L190.379 286.892L190.493 288.017C190.508 288.169 190.638 288.29 190.79 288.298C190.79 288.298 198.131 288.67 205.131 288.67C208.026 288.67 210.869 288.61 213.118 288.427C214.243 288.336 215.224 288.214 215.991 288.062C216.379 287.986 216.713 287.895 216.987 287.789C217.268 287.682 217.488 287.568 217.663 287.401C217.724 287.34 217.762 287.257 217.762 287.173C217.762 287.082 217.754 286.991 217.754 286.892C217.747 286.694 217.724 286.482 217.694 286.261C217.633 285.547 217.435 284.779 217.116 284.004ZM174.176 202.251C179.982 232.75 185.918 263.34 187.233 270.119C187.332 270.643 187.408 271.016 187.453 271.244C187.598 271.244 187.803 271.244 188.084 271.244C188.707 271.244 189.695 271.244 191.139 271.244C193.982 271.244 198.58 271.244 205.663 271.244C205.67 270.826 205.678 270.4 205.678 269.959C205.678 262.314 204.348 250.594 202.296 237.142C200.252 223.69 197.493 208.513 194.658 193.921C190.166 170.848 185.47 149.248 183.038 138.297C181.267 138.358 178.455 138.434 175.126 138.434C173.142 138.434 170.976 138.403 168.75 138.335C168.757 138.783 168.757 139.254 168.757 139.756C168.757 146.041 168.392 156.392 167.838 168.606C169.753 178.911 171.957 190.57 174.176 202.251Z" fill="#7D2D80"/>
<path d="M203.597 241.589C203.255 239.233 202.89 236.809 202.502 234.331C200.884 223.98 198.885 212.724 196.772 201.575C196.734 201.362 196.689 201.149 196.651 200.929C196.324 199.211 195.997 197.501 195.663 195.791C195.594 195.449 195.533 195.115 195.465 194.773C195.351 194.188 195.237 193.595 195.123 193.01C195.077 192.782 195.032 192.561 194.994 192.341C194.857 191.627 194.713 190.912 194.576 190.198C194.53 189.97 194.484 189.734 194.439 189.506C193.876 186.656 193.314 183.837 192.752 181.07C192.706 180.842 192.66 180.614 192.615 180.386C189.035 162.686 185.638 147.091 183.677 138.275C183.48 138.282 183.267 138.29 183.039 138.297C185.471 149.249 190.168 170.848 194.659 193.922C197.502 208.514 200.253 223.699 202.297 237.143C204.342 250.595 205.679 262.314 205.679 269.96C205.679 270.401 205.672 270.834 205.664 271.244C198.589 271.244 193.983 271.244 191.141 271.244C189.697 271.244 188.716 271.244 188.085 271.244C187.804 271.244 187.599 271.244 187.455 271.244C187.409 271.016 187.341 270.636 187.234 270.12C185.919 263.34 179.984 232.75 174.177 202.251C171.958 190.578 169.754 178.912 167.831 168.606C167.793 169.518 167.748 170.438 167.702 171.365C169.443 180.698 171.388 190.996 173.357 201.347C173.395 201.552 173.433 201.765 173.478 201.97C176.07 215.582 178.684 229.224 180.911 240.791C180.949 241.004 180.995 241.217 181.033 241.43C182.659 249.866 184.065 257.146 185.091 262.451C186.208 268.212 186.869 271.632 186.869 271.632C186.9 271.784 187.029 271.89 187.181 271.89C187.181 271.89 187.447 271.89 188.078 271.89C188.291 271.89 188.541 271.89 188.83 271.89C189.02 271.89 189.233 271.89 189.469 271.89C191.855 271.89 196.347 271.89 204.022 271.89C204.235 271.89 204.448 271.89 204.668 271.89C205.094 271.89 205.52 271.89 205.968 271.89C206.143 271.89 206.28 271.754 206.287 271.586C206.302 271.07 206.31 270.53 206.31 269.975C206.31 263.272 205.299 253.521 203.688 242.243C203.658 242.015 203.627 241.802 203.597 241.589ZM151.993 136.489C149.964 135.979 148.246 135.356 146.992 134.551C146.916 135.843 146.825 137.385 146.726 139.149C146.399 144.909 145.959 153.041 145.525 162.526C144.651 181.488 143.777 205.846 143.777 227.423C143.777 236.497 143.929 245.085 144.309 252.564C144.674 259.913 145.259 266.19 146.103 270.819C150.085 270.956 153.125 271.001 155.405 271.001C158.977 271.001 160.695 270.887 161.295 270.842C161.311 270.644 161.326 270.34 161.356 269.937C161.409 269.17 161.478 268.037 161.577 266.586C161.767 263.69 162.033 259.518 162.352 254.426C162.998 244.242 163.849 230.379 164.708 215.665C166.418 186.238 168.135 153.383 168.135 139.757C168.135 139.247 168.135 138.769 168.128 138.313C166.524 138.252 164.898 138.176 163.287 138.062C159.198 137.773 155.208 137.287 151.993 136.489Z" fill="#7D2D80"/>
<path d="M143.678 252.601C144.051 260.095 144.644 266.494 145.533 271.191C145.563 271.335 145.685 271.442 145.829 271.449C146.034 271.457 146.232 271.464 146.429 271.472C146.65 271.48 146.863 271.487 147.075 271.495C150.579 271.609 153.308 271.647 155.398 271.647C157.564 271.647 159.061 271.609 160.034 271.563C160.277 271.556 160.482 271.54 160.664 271.533C161.333 271.495 161.607 271.457 161.622 271.457C161.774 271.442 161.888 271.312 161.896 271.168C161.896 271.168 163.606 245.146 165.323 215.711C165.475 213.157 165.62 210.573 165.772 207.982C166.486 195.48 167.17 182.727 167.702 171.38C167.748 170.453 167.786 169.533 167.831 168.621C168.394 156.416 168.751 146.064 168.751 139.772C168.751 139.27 168.751 138.799 168.743 138.35C168.53 138.343 168.325 138.335 168.112 138.328C168.12 138.784 168.12 139.262 168.12 139.772C168.12 153.398 166.41 186.246 164.692 215.68C163.834 230.394 162.982 244.256 162.336 254.44C162.017 259.532 161.744 263.705 161.561 266.6C161.47 268.052 161.394 269.184 161.341 269.952C161.31 270.362 161.295 270.659 161.28 270.856C160.68 270.91 158.962 271.016 155.39 271.016C153.11 271.016 150.07 270.97 146.087 270.834C145.236 266.205 144.659 259.928 144.294 252.578C143.921 245.1 143.762 236.512 143.762 227.438C143.762 205.861 144.636 181.503 145.51 162.541C145.943 153.056 146.384 144.924 146.711 139.164C146.81 137.4 146.901 135.858 146.977 134.566C146.901 134.52 146.832 134.474 146.764 134.421C146.688 134.368 146.635 134.284 146.627 134.193C146.574 133.654 146.521 133.114 146.467 132.582C145.92 141.588 144.134 172.512 143.427 203.695C143.245 211.713 143.131 219.754 143.131 227.438C143.146 236.512 143.298 245.108 143.678 252.601Z" fill="#7D2D80"/>
<path d="M156.727 120.658C150.631 116.554 146.915 112.458 146.9 112.442C146.786 112.313 146.793 112.116 146.923 111.994C147.021 111.903 147.166 111.888 147.28 111.948L155.815 95.084C155.685 95.0156 155.617 94.8712 155.655 94.7268C155.701 94.5596 155.868 94.4532 156.043 94.4988C156.392 94.59 156.772 94.7952 157.205 95.0916C157.646 95.388 158.132 95.768 158.68 96.224C159.774 97.1284 161.081 98.314 162.533 99.606C165.444 102.182 168.955 105.177 172.496 107.145C174.168 108.072 175.84 108.772 177.452 109.098L172.572 94.6432C172.527 94.6584 172.481 94.666 172.428 94.6584C172.428 94.6584 172.291 94.6356 172.04 94.6052C171.79 94.5672 171.425 94.5216 170.961 94.4532C170.71 94.4152 170.422 94.3772 170.118 94.3392L170.498 95.7528C170.52 95.8288 170.513 95.9048 170.475 95.9808C170.467 95.9884 170.156 96.5964 169.631 97.364C169.107 98.1316 168.37 99.0512 167.488 99.6896C166.903 100.115 166.242 100.412 165.527 100.419C165.193 100.419 164.843 100.351 164.509 100.199C164.167 100.047 163.84 99.8112 163.513 99.492C163.498 99.4768 163.475 99.454 163.468 99.4312C160.587 94.6128 159.865 93.412 159.683 93.108C159.66 93.0776 159.652 93.0548 159.645 93.0396C158.824 92.9484 158.011 92.8648 157.236 92.7888C155.093 92.5836 153.2 92.4392 151.992 92.4392C150.92 92.4392 150.031 92.7888 149.256 93.5108C148.481 94.2328 147.827 95.3348 147.303 96.832C146.261 99.834 145.76 104.386 145.76 110.428C145.76 116.691 146.292 124.549 147.257 133.973C148.42 134.741 150.115 135.372 152.151 135.881C154.257 136.405 156.711 136.793 159.326 137.082C164.547 137.652 170.361 137.811 175.134 137.811C179.785 137.811 183.448 137.667 184.611 137.614L182.346 128.851C181.852 128.874 181.366 128.889 180.879 128.889C171.311 128.874 162.822 124.754 156.727 120.658Z" fill="white"/>
<path d="M146.778 134.405C146.847 134.451 146.923 134.497 146.991 134.55C148.245 135.355 149.97 135.979 151.992 136.488C155.207 137.286 159.189 137.772 163.278 138.061C164.889 138.175 166.523 138.259 168.119 138.312C168.332 138.319 168.537 138.327 168.75 138.335C170.977 138.411 173.143 138.433 175.126 138.433C178.448 138.433 181.267 138.357 183.038 138.297C183.274 138.289 183.486 138.281 183.676 138.274C184.535 138.243 185.022 138.213 185.022 138.213C185.113 138.205 185.204 138.16 185.257 138.084C185.31 138.008 185.333 137.909 185.31 137.818L182.977 128.804C182.764 128.819 182.544 128.827 182.331 128.835L184.596 137.597C183.433 137.651 179.77 137.795 175.119 137.795C170.346 137.795 164.532 137.635 159.311 137.065C156.704 136.777 154.242 136.389 152.136 135.865C150.107 135.355 148.405 134.725 147.242 133.957C146.269 124.533 145.745 116.667 145.745 110.412C145.745 104.37 146.239 99.8178 147.288 96.8158C147.812 95.3186 148.466 94.209 149.241 93.4946C150.016 92.7726 150.905 92.423 151.977 92.423C153.185 92.423 155.07 92.5598 157.221 92.7726C157.996 92.8486 158.809 92.9322 159.63 93.0234C159.615 92.993 159.607 92.993 159.607 92.993C159.577 92.9398 159.562 92.879 159.562 92.8182C159.562 92.8182 159.569 92.6662 159.577 92.385C158.794 92.3014 158.019 92.2178 157.282 92.1494C155.123 91.9442 153.231 91.7998 151.977 91.7998C150.761 91.7998 149.689 92.2178 148.808 93.0386C148.146 93.6542 147.592 94.4826 147.128 95.5162C146.429 97.0666 145.927 99.0806 145.6 101.566C145.274 104.051 145.114 107 145.114 110.42C145.114 116.386 145.593 123.781 146.467 132.574C146.52 133.106 146.573 133.638 146.626 134.185C146.649 134.269 146.702 134.352 146.778 134.405ZM170.11 94.3306C170.414 94.3762 170.703 94.4142 170.954 94.4446C171.418 94.5054 171.782 94.5586 172.033 94.5966C172.284 94.6346 172.421 94.6498 172.421 94.6498C172.474 94.6574 172.52 94.6498 172.565 94.6346C172.58 94.627 172.596 94.6194 172.611 94.6118C172.694 94.5662 172.763 94.4826 172.778 94.3762C172.801 94.2014 172.679 94.0418 172.512 94.019C172.512 94.019 172.162 93.9658 171.554 93.8822C171.129 93.8214 170.582 93.7454 169.928 93.6618L170.11 94.3306Z" fill="#7D2D80"/>
<path d="M147.371 112.017L147.379 112.025L147.409 112.055C147.439 112.085 147.477 112.131 147.538 112.192C147.652 112.313 147.819 112.481 148.032 112.709C148.473 113.149 149.119 113.788 149.955 114.548C151.627 116.068 154.059 118.105 157.076 120.134C163.111 124.2 171.493 128.251 180.872 128.243C182.217 128.243 183.585 128.159 184.96 127.985C187.43 127.665 189.817 126.655 192.104 125.112C194.392 123.569 196.588 121.494 198.663 119.055C202.813 114.183 206.484 107.875 209.554 101.552C215.596 89.0953 219.305 76.5781 219.829 74.7845C219.738 74.7237 219.616 74.6477 219.472 74.5489C219.122 74.3209 218.621 74.0017 218.028 73.6369C216.835 72.9073 215.246 71.9877 213.688 71.2429C212.655 70.7489 211.629 70.3309 210.747 70.0953C210.246 69.9585 209.797 69.8901 209.432 69.8901C209.212 69.8901 209.03 69.9205 208.878 69.9661C205.351 77.9233 202.243 85.3257 199.074 91.5577C195.889 97.8201 192.644 102.889 188.806 106.127C186.252 108.285 183.418 109.615 180.195 109.897C179.937 109.919 179.679 109.927 179.42 109.927C176.525 109.927 173.469 108.567 170.536 106.689C167.595 104.812 164.767 102.411 162.351 100.267C160.739 98.8462 159.303 97.5389 158.148 96.5889C157.487 96.0494 156.917 95.6238 156.468 95.3654C156.233 95.2286 156.027 95.1374 155.883 95.0994C155.86 95.0918 155.837 95.0841 155.822 95.0765L147.28 111.949C147.31 111.964 147.341 111.987 147.371 112.017Z" fill="white"/>
<path d="M186.58 106.985C184.604 108.269 182.483 109.052 180.135 109.265C179.899 109.287 179.656 109.295 179.413 109.295C178.774 109.295 178.113 109.219 177.444 109.082C175.833 108.755 174.161 108.056 172.489 107.129C168.948 105.161 165.436 102.166 162.526 99.5899C161.066 98.2979 159.759 97.1123 158.672 96.2079C158.125 95.7519 157.631 95.3719 157.198 95.0755C156.757 94.7791 156.385 94.5739 156.035 94.4827C155.868 94.4371 155.693 94.5435 155.648 94.7107C155.61 94.8551 155.678 95.0071 155.807 95.0679C155.83 95.0755 155.845 95.0831 155.868 95.0907C156.012 95.1287 156.218 95.2199 156.453 95.3567C156.902 95.6151 157.472 96.0407 158.133 96.5803C159.288 97.5303 160.724 98.8375 162.336 100.259C164.76 102.394 167.587 104.803 170.521 106.681C173.462 108.558 176.51 109.918 179.405 109.918C179.664 109.918 179.922 109.911 180.18 109.888C183.403 109.607 186.23 108.269 188.791 106.118C192.629 102.888 195.874 97.8115 199.059 91.5491C202.228 85.3171 205.336 77.9147 208.863 69.9575C209.015 69.9119 209.205 69.8815 209.417 69.8815C209.782 69.8815 210.238 69.9575 210.732 70.0867C211.606 70.3223 212.632 70.7403 213.673 71.2343C215.231 71.9791 216.82 72.8987 218.013 73.6283C218.613 73.9931 219.107 74.3123 219.457 74.5403C219.609 74.6391 219.723 74.7151 219.814 74.7759C219.297 76.5695 215.589 89.0867 209.539 101.543C206.469 107.866 202.798 114.174 198.648 119.046C196.574 121.485 194.385 123.56 192.09 125.103C189.802 126.646 187.416 127.657 184.946 127.976C183.562 128.151 182.194 128.234 180.857 128.234C171.478 128.234 163.096 124.183 157.061 120.125C154.044 118.096 151.612 116.059 149.94 114.539C149.104 113.779 148.458 113.141 148.017 112.7C147.797 112.479 147.63 112.305 147.523 112.183C147.47 112.122 147.424 112.077 147.394 112.046L147.364 112.016L147.356 112.008C147.326 111.978 147.295 111.955 147.265 111.94C147.151 111.879 147.014 111.894 146.908 111.985C146.778 112.099 146.771 112.305 146.885 112.434C146.9 112.449 150.609 116.545 156.712 120.649C162.807 124.753 171.296 128.865 180.857 128.873C181.343 128.873 181.83 128.857 182.324 128.835C182.536 128.827 182.749 128.819 182.97 128.804C183.654 128.759 184.345 128.698 185.037 128.607C187.704 128.265 190.258 127.147 192.682 125.475C192.926 125.308 193.169 125.133 193.412 124.951C193.594 124.814 193.777 124.67 193.959 124.533C197.691 121.599 201.103 117.381 204.151 112.616C209.243 104.659 213.324 95.1971 216.136 87.7187C218.948 80.2403 220.491 74.7455 220.491 74.7379C220.529 74.6087 220.475 74.4643 220.361 74.3883C220.361 74.3883 219.594 73.8715 218.454 73.1723C218.279 73.0659 218.104 72.9595 217.914 72.8455C217.382 72.5263 216.797 72.1843 216.181 71.8423C215.034 71.2039 213.78 70.5655 212.602 70.0791C212.009 69.8359 211.439 69.6383 210.907 69.4939C210.687 69.4331 210.481 69.3875 210.276 69.3495C210.056 69.3115 209.843 69.2811 209.638 69.2735C209.569 69.2659 209.493 69.2659 209.425 69.2659C209.091 69.2659 208.779 69.3115 208.505 69.4331C208.437 69.4635 208.376 69.5243 208.346 69.5927C203.611 80.2707 199.644 89.9531 195.304 97.0743C193.138 100.639 190.874 103.557 188.396 105.647C187.97 106.004 187.545 106.331 187.112 106.635C186.937 106.757 186.762 106.871 186.58 106.985Z" fill="#7D2D80"/>
<path d="M167.952 72.8463C167.01 73.6595 166.014 74.2979 164.981 74.5867C165.3 76.1979 165.733 78.3943 165.733 78.3943C165.756 78.5083 165.718 78.6223 165.627 78.6983C165.536 78.7743 165.422 78.7971 165.315 78.7515C165.308 78.7515 164.852 78.5843 164.236 78.2803C163.734 78.0371 163.126 77.7027 162.556 77.2847C162.29 78.3639 161.827 79.2683 161.401 79.9295C161.036 80.4995 160.702 80.8947 160.55 81.0619C160.406 86.2223 160.231 91.9527 160.208 92.7432C160.368 93.0016 161.044 94.134 163.978 99.0512C164.244 99.3096 164.502 99.492 164.76 99.606C165.019 99.72 165.27 99.7732 165.52 99.7732C166.03 99.7732 166.554 99.5604 167.063 99.2032C167.565 98.846 168.044 98.3596 168.454 97.858C169.168 96.9916 169.678 96.0872 169.845 95.7832L166.539 83.3875C166.501 83.2355 166.577 83.0759 166.729 83.0151C166.729 83.0151 169.138 82.0423 171.312 81.2823C171.395 81.2519 171.479 81.1911 171.562 81.0543C171.654 80.9175 171.737 80.7199 171.798 80.4691C171.927 79.9675 171.996 79.2607 171.996 78.4551C171.996 76.2359 171.532 73.2491 170.992 71.1971C170.871 70.7411 170.749 70.3231 170.628 69.9811C169.83 70.9843 168.925 72.0027 167.952 72.8463Z" fill="white"/>
<path d="M159.57 92.8183C159.57 92.8791 159.586 92.9399 159.616 92.9931C159.616 92.9931 159.616 92.9931 159.639 93.0235C159.646 93.0387 159.662 93.0615 159.677 93.0919C159.859 93.3959 160.581 94.5967 163.462 99.4151C163.477 99.4379 163.492 99.4607 163.507 99.4759C163.826 99.7951 164.161 100.031 164.503 100.183C164.845 100.335 165.187 100.403 165.521 100.403C166.236 100.403 166.897 100.099 167.482 99.6735C168.364 99.0351 169.093 98.1155 169.625 97.3479C170.15 96.5803 170.461 95.9723 170.469 95.9647C170.507 95.8963 170.514 95.8127 170.492 95.7367L170.112 94.3231L169.937 93.6619L167.224 83.4931C167.269 83.4779 167.315 83.4551 167.376 83.4323C168.151 83.1207 169.906 82.4367 171.518 81.8743C171.761 81.7907 171.951 81.6083 172.095 81.3955C172.308 81.0687 172.43 80.6507 172.513 80.1567C172.597 79.6627 172.627 79.0851 172.627 78.4543C172.627 76.5087 172.285 74.0615 171.852 72.0703C171.632 71.0747 171.388 70.2007 171.145 69.5471C171.122 69.4863 171.1 69.4331 171.077 69.3799C170.932 69.5775 170.78 69.7751 170.621 69.9727C170.742 70.3223 170.864 70.7327 170.986 71.1887C171.525 73.2483 171.989 76.2351 171.989 78.4467C171.989 79.2523 171.928 79.9591 171.791 80.4607C171.723 80.7115 171.639 80.9091 171.556 81.0459C171.464 81.1827 171.381 81.2435 171.305 81.2739C169.139 82.0339 166.73 83.0067 166.722 83.0067C166.578 83.0675 166.494 83.2271 166.532 83.3791L169.838 95.7747C169.678 96.0787 169.162 96.9755 168.447 97.8495C168.037 98.3511 167.558 98.8375 167.056 99.1947C166.547 99.5519 166.023 99.7647 165.514 99.7647C165.263 99.7647 165.012 99.7115 164.754 99.5975C164.503 99.4835 164.244 99.3011 163.971 99.0427C161.03 94.1331 160.353 93.0007 160.201 92.7347C160.224 91.9443 160.399 86.2063 160.543 81.0535C160.49 81.1143 160.46 81.1447 160.46 81.1447C160.399 81.2131 160.3 81.2435 160.209 81.2359C160.118 81.2283 160.034 81.1827 159.973 81.1067C159.973 81.1067 159.95 81.0687 159.912 81.0155C159.874 82.4823 159.829 83.9947 159.783 85.4235C159.722 87.4223 159.669 89.2691 159.631 90.6143C159.608 91.2831 159.593 91.8303 159.586 92.2103C159.586 92.2635 159.586 92.3167 159.578 92.3623C159.578 92.6663 159.57 92.8183 159.57 92.8183Z" fill="#7D2D80"/>
<path d="M160.262 80.4232C160.421 80.2332 160.634 79.9521 160.862 79.5949C161.318 78.8805 161.827 77.8621 162.032 76.6765C162.055 76.5625 162.131 76.4713 162.238 76.4333C162.344 76.3953 162.466 76.4181 162.549 76.4865C163.127 76.9653 163.826 77.368 164.396 77.6568C164.624 77.7709 164.829 77.8621 164.996 77.9381C164.951 77.7025 164.89 77.406 164.829 77.0716C164.67 76.2508 164.464 75.2249 164.305 74.4193C164.274 74.252 164.381 74.0848 164.548 74.0468C165.49 73.8568 166.486 73.2564 167.444 72.4508C168.401 71.6376 169.313 70.6192 170.111 69.616C171.365 68.02 172.33 66.4544 172.748 65.7476C172.703 65.74 172.65 65.7324 172.596 65.7248C172.216 65.664 171.669 65.5804 171.008 65.4968C169.686 65.3296 167.892 65.17 166.038 65.17C164.571 65.17 163.066 65.2764 161.736 65.5576C160.398 65.8388 159.243 66.31 158.445 67.0016C157.913 67.4652 157.548 68.02 157.366 68.7192C157.161 69.5096 157.077 70.3152 157.077 71.1208C157.077 73.5224 157.875 75.8632 158.704 77.6416C159.319 78.9412 159.942 79.9368 160.262 80.4232Z" fill="#7D2D80"/>
<path d="M160.216 81.2521C160.308 81.2597 160.399 81.2217 160.467 81.1609C160.467 81.1609 160.498 81.1229 160.551 81.0697C160.703 80.9025 161.037 80.5073 161.402 79.9373C161.828 79.2685 162.291 78.3641 162.557 77.2925C163.127 77.7105 163.735 78.0449 164.237 78.2881C164.86 78.5921 165.308 78.7593 165.316 78.7593C165.422 78.7973 165.544 78.7745 165.628 78.7061C165.711 78.6377 165.757 78.5161 165.734 78.4021C165.734 78.4021 165.301 76.2057 164.982 74.5945C166.015 74.3057 167.011 73.6673 167.953 72.8541C168.926 72.0105 169.83 70.9921 170.621 69.9889C170.773 69.7913 170.925 69.5937 171.077 69.3961C171.366 69.0085 171.639 68.6209 171.89 68.2637C172.893 66.8045 173.516 65.6721 173.524 65.6645C173.57 65.5733 173.577 65.4669 173.532 65.3757C173.486 65.2845 173.402 65.2161 173.304 65.2009C173.296 65.2009 169.808 64.5321 166.038 64.5321C164.047 64.5321 161.964 64.7145 160.262 65.2997C159.411 65.5885 158.643 65.9837 158.035 66.5157C157.427 67.0477 156.971 67.7241 156.766 68.5525C156.546 69.4037 156.454 70.2625 156.454 71.1061C156.454 73.7281 157.344 76.2209 158.225 78.0677C158.97 79.6333 159.715 80.7277 159.928 81.0317C159.966 81.0849 159.988 81.1229 159.988 81.1229C160.034 81.1989 160.125 81.2445 160.216 81.2521ZM157.078 71.1061C157.078 70.3081 157.169 69.5025 157.366 68.7045C157.541 68.0053 157.914 67.4505 158.446 66.9869C159.236 66.2953 160.399 65.8241 161.736 65.5429C163.074 65.2617 164.571 65.1553 166.038 65.1553C167.892 65.1553 169.678 65.3225 171.008 65.4821C171.67 65.5657 172.217 65.6493 172.597 65.7101C172.65 65.7177 172.703 65.7253 172.749 65.7329C172.338 66.4321 171.373 68.0053 170.112 69.6013C169.314 70.6121 168.402 71.6305 167.444 72.4361C166.486 73.2493 165.491 73.8421 164.548 74.0321C164.381 74.0701 164.267 74.2297 164.305 74.4045C164.465 75.2101 164.67 76.2361 164.83 77.0569C164.898 77.3913 164.951 77.6877 164.997 77.9233C164.822 77.8473 164.617 77.7561 164.396 77.6421C163.826 77.3533 163.127 76.9505 162.55 76.4717C162.466 76.3957 162.344 76.3805 162.238 76.4185C162.132 76.4565 162.056 76.5477 162.033 76.6617C161.828 77.8473 161.318 78.8657 160.862 79.5801C160.634 79.9373 160.422 80.2185 160.262 80.4085C159.935 79.9221 159.312 78.9265 158.704 77.6117C157.876 75.8485 157.078 73.5077 157.078 71.1061Z" fill="#7D2D80"/>
<path d="M169.959 240.388L174.701 240.403L171.912 203.68L170.468 202.13L169.959 202.16V240.388Z" fill="#7D2D80"/>
<path d="M175.044 241.033C175.135 241.033 175.218 240.995 175.279 240.934C175.34 240.874 175.37 240.782 175.363 240.699L175.355 240.592L172.543 203.527C172.536 203.459 172.505 203.39 172.46 203.337L171.304 202.098L170.841 201.604C170.78 201.536 170.689 201.498 170.59 201.506L169.632 201.559C169.465 201.566 169.336 201.703 169.336 201.87V209.987V240.706C169.336 240.729 169.336 240.752 169.344 240.767C169.351 240.79 169.351 240.805 169.359 240.82C169.382 240.874 169.42 240.919 169.465 240.957C169.465 240.957 169.465 240.957 169.473 240.965C169.488 240.972 169.495 240.98 169.511 240.988C169.518 240.988 169.518 240.995 169.526 240.995C169.534 241.003 169.549 241.003 169.564 241.01C169.572 241.01 169.579 241.018 169.587 241.018C169.594 241.018 169.61 241.018 169.617 241.026C169.632 241.026 169.64 241.033 169.655 241.033H175.044ZM170.468 202.129L171.912 203.679L174.701 240.402L169.959 240.387V202.159L170.468 202.129ZM102.836 94.8171C103.467 95.4403 104.326 95.8279 105.283 95.8279C106.241 95.8279 107.1 95.4403 107.73 94.8171C108.354 94.1863 108.741 93.3275 108.741 92.3699C108.741 91.4123 108.354 90.5535 107.73 89.9227C107.1 89.2995 106.241 88.9119 105.283 88.9119C104.326 88.9119 103.467 89.2995 102.836 89.9227C102.213 90.5535 101.825 91.4123 101.825 92.3699C101.825 93.3275 102.213 94.1939 102.836 94.8171Z" fill="#7D2D80"/>
<path d="M105.283 96.4673C107.525 96.4673 109.341 94.6661 109.372 92.4317C109.372 92.4089 109.372 92.3937 109.372 92.3785C109.372 92.1809 109.357 91.9909 109.326 91.8009C109.045 89.8097 107.343 88.2821 105.275 88.2821C103.018 88.2821 101.187 90.1137 101.187 92.3709C101.187 93.8149 101.931 95.0765 103.064 95.8061C103.239 95.9201 103.429 96.0189 103.619 96.1101C104.135 96.3381 104.69 96.4673 105.283 96.4673ZM105.283 88.9129C106.241 88.9129 107.099 89.3005 107.73 89.9237C108.353 90.5545 108.741 91.4133 108.741 92.3709C108.741 93.3285 108.353 94.1873 107.73 94.8181C107.099 95.4413 106.241 95.8289 105.283 95.8289C104.325 95.8289 103.467 95.4413 102.836 94.8181C102.213 94.1873 101.825 93.3285 101.825 92.3709C101.825 91.4133 102.213 90.5545 102.836 89.9237C103.467 89.3005 104.325 88.9129 105.283 88.9129ZM57.3954 127.232C58.0262 127.855 58.885 128.243 59.8426 128.243C60.8002 128.243 61.659 127.855 62.2898 127.232C62.913 126.601 63.3006 125.742 63.3006 124.785C63.3006 123.827 62.913 122.968 62.2898 122.338C61.659 121.714 60.8002 121.327 59.8426 121.327C58.885 121.327 58.0262 121.714 57.3954 122.338C56.7722 122.968 56.3846 123.827 56.3846 124.785C56.377 125.742 56.7646 126.601 57.3954 127.232Z" fill="#7D2D80"/>
<path d="M59.843 128.873C61.9558 128.873 63.6962 127.27 63.909 125.21C63.9242 125.066 63.9318 124.921 63.9318 124.777C63.9318 124.709 63.9242 124.64 63.9242 124.564C63.8102 122.406 62.0318 120.681 59.843 120.681C57.5858 120.681 55.7542 122.512 55.7542 124.769C55.7542 125.575 55.9898 126.32 56.3926 126.951C56.5066 127.133 56.6358 127.308 56.7802 127.467C57.525 128.334 58.6194 128.873 59.843 128.873ZM59.843 121.319C60.8006 121.319 61.6594 121.707 62.2902 122.33C62.9134 122.961 63.301 123.819 63.301 124.777C63.301 125.735 62.9134 126.593 62.2902 127.224C61.6594 127.847 60.8006 128.235 59.843 128.235C58.8854 128.235 58.0266 127.847 57.3958 127.224C56.7726 126.593 56.385 125.735 56.385 124.777C56.385 123.819 56.7726 122.961 57.3958 122.33C58.019 121.707 58.8854 121.319 59.843 121.319ZM77.0114 128.562C77.0114 129.519 77.399 130.378 78.0222 131.009C78.653 131.632 79.5118 132.02 80.4694 132.02C81.427 132.02 82.2858 131.632 82.9166 131.009C83.5398 130.378 83.9274 129.519 83.9274 128.562C83.9274 127.604 83.5398 126.745 82.9166 126.115C82.2858 125.491 81.427 125.104 80.4694 125.104C79.5118 125.104 78.653 125.491 78.0222 126.115C77.399 126.738 77.0114 127.604 77.0114 128.562Z" fill="#7D2D80"/>
<path d="M76.3801 128.562C76.3801 130.819 78.2117 132.65 80.4689 132.65C82.7261 132.65 84.5577 130.819 84.5577 128.562C84.5577 127.49 84.1397 126.51 83.4633 125.78C83.3189 125.62 83.1593 125.476 82.9921 125.347C82.2929 124.8 81.4189 124.465 80.4613 124.465C78.6525 124.465 77.1249 125.636 76.5853 127.254C76.5169 127.452 76.4713 127.657 76.4333 127.87C76.4029 128.098 76.3801 128.326 76.3801 128.562ZM80.4689 125.096C81.4265 125.096 82.2853 125.484 82.9161 126.107C83.5393 126.738 83.9269 127.596 83.9269 128.554C83.9269 129.512 83.5393 130.37 82.9161 131.001C82.2853 131.624 81.4265 132.012 80.4689 132.012C79.5113 132.012 78.6525 131.624 78.0217 131.001C77.3985 130.37 77.0109 129.512 77.0109 128.554C77.0109 127.596 77.3985 126.738 78.0217 126.107C78.6525 125.484 79.5189 125.096 80.4689 125.096ZM153.946 55.4952C154.577 56.1184 155.435 56.506 156.393 56.506C157.351 56.506 158.209 56.1184 158.84 55.4952C159.463 54.8644 159.851 54.0056 159.851 53.048C159.851 52.0904 159.463 51.2316 158.84 50.6008C158.209 49.9776 157.351 49.59 156.393 49.59C155.435 49.59 154.577 49.9776 153.946 50.6008C153.323 51.2316 152.935 52.0904 152.935 53.048C152.935 54.0056 153.315 54.872 153.946 55.4952Z" fill="#7D2D80"/>
<path d="M156.393 57.1442C158.642 57.1442 160.466 55.3278 160.482 53.0782C160.482 53.0706 160.482 53.063 160.482 53.0478C160.482 52.8426 160.459 52.645 160.436 52.4474C160.147 50.4714 158.445 48.959 156.393 48.959C154.136 48.959 152.304 50.7906 152.304 53.0478C152.304 54.317 152.882 55.4494 153.794 56.2018C153.961 56.3386 154.136 56.4526 154.318 56.5666C154.918 56.9314 155.633 57.1442 156.393 57.1442ZM156.393 49.5898C157.35 49.5898 158.209 49.9774 158.84 50.6006C159.463 51.2314 159.851 52.0902 159.851 53.0478C159.851 54.0054 159.463 54.8642 158.84 55.495C158.209 56.1182 157.35 56.5058 156.393 56.5058C155.435 56.5058 154.576 56.1182 153.946 55.495C153.322 54.8642 152.935 54.0054 152.935 53.0478C152.935 52.0902 153.322 51.2314 153.946 50.6006C154.569 49.9774 155.435 49.5898 156.393 49.5898ZM192.417 50.137C192.417 51.0946 192.804 51.9534 193.428 52.5842C194.058 53.2074 194.917 53.595 195.875 53.595C196.832 53.595 197.691 53.2074 198.322 52.5842C198.945 51.9534 199.333 51.0946 199.333 50.137C199.333 49.1794 198.945 48.3206 198.322 47.6898C197.691 47.0666 196.832 46.679 195.875 46.679C194.917 46.679 194.058 47.0666 193.428 47.6898C192.804 48.313 192.417 49.1794 192.417 50.137Z" fill="#7D2D80"/>
<path d="M191.794 50.3882C191.923 52.5314 193.701 54.2262 195.875 54.2262C198.132 54.2262 199.964 52.3946 199.964 50.1374C199.964 49.1114 199.584 48.1766 198.961 47.4546C198.824 47.295 198.672 47.143 198.512 47.0062C197.798 46.4058 196.878 46.041 195.875 46.041C193.739 46.041 191.991 47.675 191.801 49.7574C191.786 49.879 191.779 50.0082 191.779 50.1374C191.786 50.221 191.794 50.3046 191.794 50.3882ZM195.875 46.6718C196.833 46.6718 197.691 47.0594 198.322 47.6826C198.945 48.3134 199.333 49.1722 199.333 50.1298C199.333 51.0874 198.945 51.9462 198.322 52.577C197.691 53.2002 196.833 53.5878 195.875 53.5878C194.917 53.5878 194.059 53.2002 193.428 52.577C192.805 51.9462 192.417 51.0874 192.417 50.1298C192.417 49.1722 192.805 48.3134 193.428 47.6826C194.059 47.0594 194.917 46.6718 195.875 46.6718ZM24.2214 165.209C24.8522 165.832 25.711 166.22 26.6686 166.22C27.6262 166.22 28.485 165.832 29.1158 165.209C29.739 164.578 30.1266 163.719 30.1266 162.762C30.1266 161.804 29.739 160.945 29.1158 160.315C28.485 159.691 27.6262 159.304 26.6686 159.304C25.711 159.304 24.8522 159.691 24.2214 160.315C23.5982 160.945 23.2106 161.804 23.2106 162.762C23.203 163.719 23.5906 164.586 24.2214 165.209Z" fill="#7D2D80"/>
<path d="M30.7572 162.762C30.7572 161.622 30.286 160.588 29.5336 159.844C29.3816 159.699 29.222 159.562 29.0472 159.441C28.3784 158.954 27.5576 158.673 26.6608 158.673C24.4036 158.673 22.572 160.505 22.572 162.762C22.572 165.019 24.4036 166.851 26.6608 166.851C28.9256 166.858 30.7572 165.027 30.7572 162.762ZM26.6684 159.304C27.626 159.304 28.4848 159.692 29.1156 160.315C29.7388 160.946 30.1264 161.804 30.1264 162.762C30.1264 163.72 29.7388 164.578 29.1156 165.209C28.4848 165.832 27.626 166.22 26.6684 166.22C25.7108 166.22 24.852 165.832 24.2212 165.209C23.598 164.578 23.2104 163.72 23.2104 162.762C23.2104 161.804 23.598 160.946 24.2212 160.315C24.8444 159.692 25.7108 159.304 26.6684 159.304ZM219.777 26.8434C220.081 27.0258 220.332 27.1778 220.514 27.2614C220.909 25.6958 222.665 18.7114 223.258 16.363L213.537 22.5874C213.636 22.6634 213.758 22.747 213.894 22.8382C214.35 23.1574 214.974 23.6058 215.665 24.0846C217.056 25.0574 218.713 26.1898 219.777 26.8434Z" fill="#7D2D80"/>
<path d="M216.896 25.7031C217.664 26.2275 218.431 26.7367 219.062 27.1395C219.442 27.3827 219.777 27.5803 220.043 27.7247C220.172 27.8007 220.293 27.8539 220.392 27.8995C220.445 27.9223 220.491 27.9375 220.537 27.9527C220.582 27.9679 220.635 27.9831 220.704 27.9831C220.749 27.9831 220.81 27.9755 220.886 27.9375C220.924 27.9147 220.962 27.8843 220.993 27.8463C221.023 27.8083 221.046 27.7627 221.053 27.7171C221.107 27.5043 221.859 24.5099 222.604 21.5687C222.976 20.1019 223.341 18.6427 223.615 17.5559C223.751 17.0087 223.865 16.5603 223.949 16.2411C224.025 15.9219 224.071 15.7471 224.071 15.7471C224.101 15.6179 224.055 15.4887 223.949 15.4127C223.843 15.3367 223.706 15.3367 223.592 15.4051L212.807 22.3059C212.716 22.3591 212.663 22.4579 212.663 22.5643C212.663 22.6707 212.708 22.7695 212.792 22.8303C212.792 22.8303 214.532 24.0843 216.372 25.3459C216.387 25.3611 216.402 25.3687 216.425 25.3839C216.577 25.4903 216.736 25.5967 216.896 25.7031ZM213.894 22.8379C213.757 22.7391 213.643 22.6555 213.537 22.5871L223.257 16.3627C222.665 18.7111 220.909 25.6955 220.514 27.2611C220.339 27.1699 220.081 27.0255 219.777 26.8431C218.713 26.1895 217.056 25.0571 215.665 24.0919C214.973 23.6055 214.35 23.1571 213.894 22.8379Z" fill="#7D2D80"/>
<path d="M217.26 158.619C217.2 158.558 217.169 158.482 217.169 158.399V113.711H212.982V162.526H276.609V158.71H217.481C217.397 158.71 217.314 158.68 217.26 158.619Z" fill="url(#paint2_linear_7_419)"/>
<path d="M280.798 158.08V109.896H217.801V158.08H280.798ZM277.644 129.101C277.796 129.185 277.849 129.382 277.765 129.534L274.581 135.143C274.52 135.25 274.398 135.31 274.277 135.303C274.155 135.288 274.049 135.212 274.011 135.09L270.94 126.13L266.114 134.155C266.054 134.254 265.947 134.315 265.826 134.307C265.712 134.3 265.605 134.231 265.56 134.125L264.055 130.925L260.437 145.852C260.399 145.996 260.278 146.095 260.133 146.095C259.989 146.095 259.86 145.996 259.829 145.852L255.809 129.398L253.4 133.532C253.339 133.638 253.217 133.699 253.088 133.684C252.966 133.669 252.86 133.578 252.822 133.464L250.458 125.529L246.529 141.862C246.499 141.998 246.385 142.09 246.24 142.105C246.104 142.112 245.974 142.036 245.921 141.907L241.012 129.367L235.068 141.968C235.015 142.082 234.901 142.15 234.772 142.15C234.65 142.15 234.536 142.074 234.491 141.953L231.512 134.748L223.729 149.811C223.646 149.963 223.456 150.024 223.304 149.948C223.152 149.864 223.091 149.674 223.167 149.522L231.261 133.851C231.314 133.745 231.436 133.676 231.557 133.684C231.679 133.692 231.785 133.768 231.838 133.882L234.802 141.056L240.753 128.44C240.806 128.326 240.92 128.258 241.05 128.258C241.179 128.265 241.285 128.341 241.331 128.455L246.142 140.744L250.116 124.245C250.147 124.108 250.268 124.009 250.413 124.002C250.557 124.002 250.686 124.093 250.724 124.23L253.217 132.59L255.657 128.41C255.725 128.296 255.847 128.235 255.976 128.258C256.105 128.273 256.204 128.372 256.234 128.493L260.133 144.446L263.66 129.907C263.69 129.778 263.804 129.679 263.933 129.664C264.062 129.648 264.192 129.724 264.252 129.846L265.886 133.327L270.758 125.225C270.819 125.119 270.94 125.058 271.062 125.073C271.184 125.088 271.29 125.172 271.328 125.286L274.391 134.224L277.226 129.223C277.302 129.071 277.492 129.018 277.644 129.101ZM274.307 112.176C275.196 112.176 275.918 112.898 275.918 113.787C275.918 114.676 275.196 115.398 274.307 115.398C273.418 115.398 272.696 114.676 272.696 113.787C272.696 112.898 273.418 112.176 274.307 112.176ZM268.645 112.176C269.534 112.176 270.256 112.898 270.256 113.787C270.256 114.676 269.534 115.398 268.645 115.398C267.756 115.398 267.034 114.676 267.034 113.787C267.034 112.898 267.756 112.176 268.645 112.176ZM262.656 112.176C263.546 112.176 264.268 112.898 264.268 113.787C264.268 114.676 263.546 115.398 262.656 115.398C261.767 115.398 261.045 114.676 261.045 113.787C261.045 112.898 261.767 112.176 262.656 112.176Z" fill="white"/>
<path d="M281.337 109.356C281.277 109.295 281.201 109.265 281.117 109.265H217.49C217.406 109.265 217.323 109.295 217.269 109.356C217.209 109.417 217.178 109.493 217.178 109.576V113.703V158.391C217.178 158.475 217.209 158.558 217.269 158.612C217.33 158.672 217.406 158.703 217.49 158.703H276.618H281.125C281.208 158.703 281.292 158.672 281.345 158.612C281.406 158.551 281.436 158.475 281.436 158.391V109.576C281.429 109.493 281.391 109.417 281.337 109.356ZM217.794 109.896H280.79V158.08H217.794V109.896Z" fill="#7D2D80"/>
<path d="M267.664 113.788C267.664 114.061 267.77 114.304 267.953 114.479C268.127 114.654 268.371 114.768 268.644 114.768C268.918 114.768 269.161 114.662 269.336 114.479C269.511 114.304 269.625 114.061 269.625 113.788C269.625 113.514 269.518 113.271 269.336 113.096C269.161 112.921 268.918 112.807 268.644 112.807C268.371 112.807 268.127 112.914 267.953 113.096C267.77 113.271 267.664 113.514 267.664 113.788Z" fill="#7D2D80"/>
<path d="M267.034 113.787C267.034 114.676 267.756 115.398 268.645 115.398C269.535 115.398 270.257 114.676 270.257 113.787C270.257 112.898 269.535 112.176 268.645 112.176C267.756 112.176 267.034 112.898 267.034 113.787ZM268.645 112.807C268.919 112.807 269.162 112.913 269.337 113.096C269.512 113.27 269.626 113.514 269.626 113.787C269.626 114.061 269.519 114.304 269.337 114.479C269.162 114.654 268.919 114.768 268.645 114.768C268.372 114.768 268.129 114.661 267.954 114.479C267.779 114.304 267.665 114.061 267.665 113.787C267.665 113.514 267.771 113.27 267.954 113.096C268.129 112.913 268.372 112.807 268.645 112.807ZM273.327 113.787C273.327 114.061 273.433 114.304 273.616 114.479C273.791 114.654 274.034 114.768 274.307 114.768C274.581 114.768 274.824 114.661 274.999 114.479C275.174 114.304 275.288 114.061 275.288 113.787C275.288 113.514 275.181 113.27 274.999 113.096C274.824 112.921 274.581 112.807 274.307 112.807C274.034 112.807 273.791 112.913 273.616 113.096C273.441 113.27 273.327 113.514 273.327 113.787Z" fill="#7D2D80"/>
<path d="M272.696 113.787C272.696 114.676 273.418 115.398 274.307 115.398C275.197 115.398 275.919 114.676 275.919 113.787C275.919 112.898 275.197 112.176 274.307 112.176C273.418 112.176 272.696 112.898 272.696 113.787ZM274.307 112.807C274.581 112.807 274.824 112.913 274.999 113.096C275.174 113.27 275.288 113.514 275.288 113.787C275.288 114.061 275.181 114.304 274.999 114.479C274.824 114.654 274.581 114.768 274.307 114.768C274.034 114.768 273.791 114.661 273.616 114.479C273.441 114.304 273.327 114.061 273.327 113.787C273.327 113.514 273.433 113.27 273.616 113.096C273.791 112.913 274.034 112.807 274.307 112.807ZM261.676 113.787C261.676 114.061 261.783 114.304 261.965 114.479C262.14 114.654 262.383 114.768 262.657 114.768C262.93 114.768 263.173 114.661 263.348 114.479C263.523 114.304 263.637 114.061 263.637 113.787C263.637 113.514 263.531 113.27 263.348 113.096C263.173 112.921 262.93 112.807 262.657 112.807C262.383 112.807 262.14 112.913 261.965 113.096C261.79 113.27 261.676 113.514 261.676 113.787Z" fill="#7D2D80"/>
<path d="M262.655 115.398C263.544 115.398 264.266 114.676 264.266 113.787C264.266 112.898 263.544 112.176 262.655 112.176C261.766 112.176 261.044 112.898 261.044 113.787C261.044 114.676 261.766 115.398 262.655 115.398ZM262.655 112.807C262.929 112.807 263.172 112.913 263.347 113.096C263.522 113.27 263.636 113.514 263.636 113.787C263.636 114.061 263.529 114.304 263.347 114.479C263.172 114.654 262.929 114.768 262.655 114.768C262.382 114.768 262.138 114.661 261.964 114.479C261.789 114.304 261.675 114.061 261.675 113.787C261.675 113.514 261.781 113.27 261.964 113.096C262.138 112.913 262.382 112.807 262.655 112.807ZM88.9649 213.811H95.7593C95.9341 213.811 96.0785 213.666 96.0785 213.492C96.0785 213.317 95.9341 213.172 95.7593 213.172H88.9649C88.7901 213.172 88.6458 213.317 88.6458 213.492C88.6458 213.666 88.7901 213.811 88.9649 213.811ZM108.049 191.368L101.254 187.728C101.102 187.644 100.912 187.705 100.829 187.857C100.745 188.009 100.806 188.199 100.958 188.282L107.752 191.923C107.904 192.006 108.094 191.946 108.178 191.794C108.261 191.642 108.201 191.452 108.049 191.368ZM122.945 172.452C122.8 172.543 122.755 172.74 122.846 172.885L125.597 177.255C125.688 177.399 125.886 177.445 126.03 177.354C126.175 177.262 126.22 177.065 126.129 176.92L123.378 172.55C123.287 172.398 123.089 172.353 122.945 172.452ZM274.374 134.216L271.312 125.278C271.274 125.164 271.167 125.081 271.046 125.066C270.924 125.05 270.802 125.111 270.742 125.218L265.87 133.319L264.236 129.838C264.183 129.717 264.054 129.648 263.917 129.656C263.788 129.671 263.674 129.762 263.643 129.899L260.117 144.438L256.218 128.486C256.188 128.364 256.081 128.265 255.96 128.25C255.83 128.235 255.709 128.296 255.64 128.402L253.201 132.582L250.708 124.222C250.67 124.085 250.541 123.994 250.396 123.994C250.252 123.994 250.13 124.1 250.1 124.237L246.125 140.737L241.314 128.448C241.269 128.334 241.155 128.25 241.033 128.25C240.904 128.242 240.79 128.318 240.737 128.432L234.786 141.048L231.822 133.874C231.776 133.76 231.67 133.684 231.541 133.676C231.419 133.669 231.305 133.737 231.244 133.844L223.15 149.515C223.067 149.667 223.128 149.857 223.287 149.94C223.439 150.024 223.629 149.963 223.713 149.804L231.495 134.74L234.474 141.945C234.52 142.059 234.634 142.135 234.756 142.143C234.877 142.143 234.999 142.074 235.052 141.96L240.995 129.36L245.905 141.9C245.958 142.029 246.08 142.112 246.224 142.097C246.361 142.09 246.475 141.991 246.513 141.854L250.442 125.522L252.806 133.456C252.844 133.578 252.942 133.661 253.072 133.676C253.193 133.692 253.315 133.631 253.383 133.524L255.792 129.39L259.813 145.844C259.851 145.988 259.972 146.087 260.117 146.087C260.261 146.087 260.39 145.988 260.421 145.844L264.038 130.918L265.543 134.117C265.596 134.224 265.695 134.292 265.809 134.3C265.923 134.307 266.037 134.246 266.098 134.148L270.924 126.122L273.994 135.082C274.032 135.196 274.139 135.28 274.26 135.295C274.382 135.31 274.504 135.242 274.564 135.136L277.749 129.527C277.832 129.375 277.779 129.185 277.627 129.094C277.475 129.01 277.285 129.063 277.194 129.215L274.374 134.216Z" fill="#7D2D80"/>
<path d="M120.855 269.139V224.732H34.6709V269.139H120.855ZM61.7345 236.877C61.7345 236.793 61.7649 236.71 61.8257 236.656C61.8865 236.596 61.9625 236.565 62.0461 236.565H63.8853V229.383C63.8853 229.208 64.0297 229.064 64.2045 229.064C64.3793 229.064 64.5237 229.208 64.5237 229.383V236.565H66.3629C66.4465 236.565 66.5301 236.596 66.5833 236.656C66.6441 236.717 66.6745 236.793 66.6745 236.877V246.263C66.6745 246.346 66.6441 246.43 66.5833 246.483C66.5225 246.544 66.4465 246.574 66.3629 246.574H64.5237V249.979C64.5237 250.154 64.3793 250.298 64.2045 250.298C64.0297 250.298 63.8853 250.154 63.8853 249.979V246.574H62.0461C61.9625 246.574 61.8789 246.544 61.8257 246.483C61.7649 246.422 61.7345 246.346 61.7345 246.263V236.877ZM38.6381 259.479C38.6381 259.479 40.0897 258.256 42.7421 257.017V254.19H40.6825C40.5989 254.19 40.5153 254.159 40.4621 254.098C40.4013 254.038 40.3709 253.962 40.3709 253.878V238.67C40.3709 238.587 40.4013 238.503 40.4621 238.45C40.5229 238.389 40.5989 238.359 40.6825 238.359H42.7421V232.849C42.7421 232.674 42.8865 232.53 43.0613 232.53C43.2361 232.53 43.3805 232.674 43.3805 232.849V238.359H45.0069C45.0905 238.359 45.1741 238.389 45.2273 238.45C45.2881 238.511 45.3185 238.587 45.3185 238.67V253.878C45.3185 253.962 45.2881 254.045 45.2273 254.098C45.1665 254.152 45.0905 254.19 45.0069 254.19H43.3805V256.736C47.0133 255.147 52.5917 253.673 59.5685 254.843C67.3053 256.143 75.4753 254.972 81.6921 253.323V242.387C81.6921 242.303 81.7225 242.22 81.7833 242.166C81.8441 242.106 81.9201 242.075 82.0037 242.075H83.8429V234.992C83.8429 234.817 83.9873 234.673 84.1621 234.673C84.3369 234.673 84.4813 234.817 84.4813 234.992V242.068H86.3205C86.4041 242.068 86.4877 242.098 86.5409 242.159C86.6017 242.22 86.6321 242.296 86.6321 242.379V251.773C88.3877 251.134 89.7937 250.504 90.7361 249.987C92.8793 248.809 97.1505 246.878 102.014 245.609V238.009C102.014 237.926 102.045 237.842 102.106 237.789C102.166 237.728 102.242 237.698 102.326 237.698H104.165V232.834C104.165 232.659 104.31 232.514 104.484 232.514C104.659 232.514 104.804 232.659 104.804 232.834V237.698H106.643C106.726 237.698 106.81 237.728 106.863 237.789C106.924 237.85 106.954 237.926 106.954 238.009V244.629C110.443 244.165 113.969 244.234 117.047 245.282C117.047 260.239 117.047 265.202 117.047 265.202H38.6153V259.479H38.6381Z" fill="white"/>
<path d="M121.394 269.679C121.455 269.618 121.485 269.542 121.485 269.458V224.421C121.485 224.337 121.455 224.254 121.394 224.2C121.333 224.14 121.257 224.109 121.174 224.109H111.051H34.3514C34.2678 224.109 34.1842 224.14 34.131 224.2C34.0702 224.261 34.0398 224.337 34.0398 224.421V269.458C34.0398 269.542 34.0702 269.626 34.131 269.679C34.1918 269.74 34.2678 269.77 34.3514 269.77H113.224H121.174C121.25 269.778 121.333 269.74 121.394 269.679ZM34.6706 224.732H120.855V269.139H34.6706V224.732Z" fill="#7D2D80"/>
<path d="M117.07 265.195C117.07 265.195 117.07 260.232 117.07 245.275C113.992 244.226 110.458 244.158 106.977 244.622V247.282C106.977 247.365 106.947 247.449 106.886 247.502C106.825 247.563 106.749 247.593 106.666 247.593H104.826V251.104C104.826 251.279 104.682 251.424 104.507 251.424C104.332 251.424 104.188 251.279 104.188 251.104V247.593H102.349C102.265 247.593 102.182 247.563 102.128 247.502C102.068 247.441 102.037 247.365 102.037 247.282V245.602C97.1733 246.871 92.9021 248.794 90.7589 249.98C89.8165 250.496 88.4105 251.127 86.6549 251.766V257.587C86.6549 257.671 86.6245 257.754 86.5637 257.808C86.5029 257.868 86.4269 257.899 86.3433 257.899H84.5041V260.012C84.5041 260.187 84.3597 260.331 84.1849 260.331C84.0101 260.331 83.8657 260.187 83.8657 260.012V257.899H82.0265C81.9429 257.899 81.8593 257.868 81.8061 257.808C81.7453 257.747 81.7149 257.671 81.7149 257.587V253.316C75.4981 254.973 67.3281 256.143 59.5913 254.836C52.6145 253.666 47.0361 255.14 43.4033 256.728V259.48C43.4033 259.655 43.2589 259.799 43.0841 259.799C42.9093 259.799 42.7649 259.655 42.7649 259.48V257.017C40.1125 258.264 38.6609 259.48 38.6609 259.48V265.195H117.07Z" fill="white"/>
<path d="M117.07 265.195C117.07 265.195 117.07 260.232 117.07 245.275C113.992 244.226 110.458 244.158 106.977 244.622V247.282C106.977 247.365 106.947 247.449 106.886 247.502C106.825 247.563 106.749 247.593 106.666 247.593H104.826V251.104C104.826 251.279 104.682 251.424 104.507 251.424C104.332 251.424 104.188 251.279 104.188 251.104V247.593H102.349C102.265 247.593 102.182 247.563 102.128 247.502C102.068 247.441 102.037 247.365 102.037 247.282V245.602C97.1733 246.871 92.9021 248.794 90.7589 249.98C89.8165 250.496 88.4105 251.127 86.6549 251.766V257.587C86.6549 257.671 86.6245 257.754 86.5637 257.808C86.5029 257.868 86.4269 257.899 86.3433 257.899H84.5041V260.012C84.5041 260.187 84.3597 260.331 84.1849 260.331C84.0101 260.331 83.8657 260.187 83.8657 260.012V257.899H82.0265C81.9429 257.899 81.8593 257.868 81.8061 257.808C81.7453 257.747 81.7149 257.671 81.7149 257.587V253.316C75.4981 254.973 67.3281 256.143 59.5913 254.836C52.6145 253.666 47.0361 255.14 43.4033 256.728V259.48C43.4033 259.655 43.2589 259.799 43.0841 259.799C42.9093 259.799 42.7649 259.655 42.7649 259.48V257.017C40.1125 258.264 38.6609 259.48 38.6609 259.48V265.195H117.07Z" fill="url(#paint3_linear_7_419)"/>
<path d="M43.3803 238.344V232.834C43.3803 232.659 43.2359 232.514 43.0611 232.514C42.8863 232.514 42.7419 232.659 42.7419 232.834V238.344H43.3803ZM43.0611 259.791C43.2359 259.791 43.3803 259.646 43.3803 259.472V256.728V254.182H42.7495V257.009V259.472C42.7495 259.654 42.8863 259.791 43.0611 259.791ZM63.8927 246.582V249.987C63.8927 250.162 64.0371 250.306 64.2119 250.306C64.3867 250.306 64.5311 250.162 64.5311 249.987V246.582H63.8927ZM64.5235 236.565V229.383C64.5235 229.208 64.3791 229.064 64.2043 229.064C64.0295 229.064 63.8851 229.208 63.8851 229.383V236.565H64.5235ZM84.4811 242.068V234.992C84.4811 234.817 84.3367 234.673 84.1619 234.673C83.9871 234.673 83.8427 234.817 83.8427 234.992V242.068H84.4811ZM83.8503 257.906V260.019C83.8503 260.194 83.9947 260.338 84.1695 260.338C84.3443 260.338 84.4887 260.194 84.4887 260.019V257.906H83.8503ZM104.819 237.698V232.834C104.819 232.659 104.674 232.514 104.5 232.514C104.325 232.514 104.18 232.659 104.18 232.834V237.698H104.819ZM104.188 247.6V251.112C104.188 251.286 104.332 251.431 104.507 251.431C104.682 251.431 104.826 251.286 104.826 251.112V247.6H104.188Z" fill="#7D2D80"/>
<path d="M44.6963 238.974H41.0103V253.551H44.6963V238.974Z" fill="white"/>
<path d="M43.3812 254.182H45.0076C45.0912 254.182 45.1748 254.151 45.228 254.09C45.2812 254.03 45.3192 253.954 45.3192 253.87V238.662C45.3192 238.579 45.2888 238.495 45.228 238.442C45.1672 238.381 45.0912 238.351 45.0076 238.351H43.3812H42.7504H40.6908C40.6072 238.351 40.5236 238.381 40.4704 238.442C40.4096 238.503 40.3792 238.579 40.3792 238.662V253.87C40.3792 253.954 40.4096 254.037 40.4704 254.09C40.5312 254.151 40.6072 254.182 40.6908 254.182H42.7504H43.3812ZM41.0099 238.974H44.6884V253.551H41.0024V238.974H41.0099Z" fill="#7D2D80"/>
<path d="M66.0522 237.196H62.3662V245.951H66.0522V237.196Z" fill="white"/>
<path d="M62.0535 246.582H63.8927H64.5235H66.3627C66.4463 246.582 66.5299 246.552 66.5831 246.491C66.6439 246.43 66.6743 246.354 66.6743 246.271V236.885C66.6743 236.801 66.6439 236.718 66.5831 236.664C66.5223 236.604 66.4463 236.573 66.3627 236.573H64.5235H63.8927H62.0535C61.9699 236.573 61.8863 236.604 61.8331 236.664C61.7723 236.725 61.7419 236.801 61.7419 236.885V246.271C61.7419 246.354 61.7723 246.438 61.8331 246.491C61.8863 246.544 61.9699 246.582 62.0535 246.582ZM62.3651 237.196H66.0511V245.952H62.3651V237.196Z" fill="#7D2D80"/>
<path d="M86.0088 242.698H82.3228V257.275H86.0088V242.698Z" fill="white"/>
<path d="M81.7831 257.815C81.8439 257.876 81.9199 257.906 82.0035 257.906H83.8427H84.4735H86.3127C86.3963 257.906 86.4799 257.876 86.5331 257.815C86.5939 257.754 86.6243 257.678 86.6243 257.594V251.773V242.379C86.6243 242.296 86.5939 242.212 86.5331 242.159C86.4723 242.098 86.3963 242.068 86.3127 242.068H84.4735H83.8427H82.0035C81.9199 242.068 81.8363 242.098 81.7831 242.159C81.7223 242.22 81.6919 242.296 81.6919 242.379V253.316V257.587C81.6919 257.67 81.7299 257.754 81.7831 257.815ZM86.0087 257.275H82.3227V242.698H86.0087V257.275Z" fill="#7D2D80"/>
<path d="M106.347 238.328H102.661V246.977H106.347V238.328Z" fill="white"/>
<path d="M102.121 247.509C102.182 247.57 102.258 247.6 102.342 247.6H104.181H104.812H106.651C106.734 247.6 106.818 247.57 106.871 247.509C106.932 247.448 106.962 247.372 106.962 247.289V244.629V238.009C106.962 237.926 106.932 237.842 106.871 237.789C106.81 237.728 106.734 237.698 106.651 237.698H104.812H104.181H102.342C102.258 237.698 102.174 237.728 102.121 237.789C102.06 237.85 102.03 237.926 102.03 238.009V245.609V247.289C102.03 247.372 102.06 247.456 102.121 247.509ZM106.347 246.97H102.661V238.321H106.347V246.97Z" fill="#7D2D80"/>
<path d="M111.249 64.2802C111.31 64.341 111.34 64.417 111.34 64.5006V77.907H118.492V64.5006C118.492 64.417 118.522 64.3334 118.583 64.2802C118.644 64.2194 118.72 64.189 118.803 64.189H122.398L114.912 56.8398L107.426 64.189H111.021C111.104 64.189 111.188 64.2194 111.249 64.2802Z" fill="white"/>
<path d="M106.658 64.8206H110.708V78.227C110.708 78.3106 110.739 78.3942 110.8 78.4474C110.86 78.5082 110.936 78.5386 111.02 78.5386H118.802C118.886 78.5386 118.97 78.5082 119.023 78.4474C119.084 78.3866 119.114 78.3106 119.114 78.227V64.8206H123.165C123.294 64.8206 123.408 64.7446 123.454 64.623C123.499 64.5014 123.476 64.3722 123.385 64.281L115.139 56.1642C115.018 56.0426 114.82 56.0426 114.698 56.1642L106.445 64.2734C106.354 64.3646 106.323 64.5014 106.376 64.6154C106.43 64.7294 106.528 64.8206 106.658 64.8206ZM114.911 56.833L122.397 64.1822H118.802C118.719 64.1822 118.635 64.2126 118.582 64.2734C118.521 64.3342 118.491 64.4102 118.491 64.4938V77.9002H111.339V64.4938C111.339 64.4102 111.309 64.3266 111.248 64.2734C111.187 64.2126 111.111 64.1822 111.028 64.1822H107.433L114.911 56.833ZM84.3593 157.313C84.2757 157.313 84.1921 157.282 84.1389 157.221C84.0857 157.161 84.0477 157.085 84.0477 157.001V143.595H76.8961V157.001C76.8961 157.085 76.8657 157.168 76.8049 157.221C76.7441 157.282 76.6681 157.313 76.5845 157.313H72.9897L80.4757 164.662L87.9617 157.313H84.3593Z" fill="#7D2D80"/>
<path d="M84.5877 143.055C84.5269 142.994 84.4509 142.963 84.3673 142.963H76.5849C76.5013 142.963 76.4177 142.994 76.3645 143.055C76.3037 143.115 76.2733 143.191 76.2733 143.275V156.681H72.2225C72.0933 156.681 71.9793 156.757 71.9337 156.879C71.8881 157.001 71.9109 157.13 72.0021 157.221L80.2557 165.33C80.3773 165.452 80.5749 165.452 80.6965 165.33L88.9501 157.221C89.0413 157.13 89.0717 156.993 89.0185 156.879C88.9653 156.765 88.8513 156.681 88.7297 156.681H84.6789V143.275C84.6789 143.199 84.6409 143.115 84.5877 143.055ZM72.9901 157.312H76.5849C76.6685 157.312 76.7521 157.282 76.8053 157.221C76.8661 157.16 76.8965 157.084 76.8965 157.001V143.594H84.0481V157.001C84.0481 157.084 84.0785 157.168 84.1393 157.221C84.2001 157.274 84.2761 157.312 84.3597 157.312H87.9545L80.4685 164.661L72.9901 157.312Z" fill="#7D2D80"/>
<path d="M228.622 198.778C229.04 199.188 229.603 199.447 230.241 199.447C230.872 199.447 231.442 199.188 231.86 198.778C232.27 198.36 232.529 197.798 232.529 197.159C232.529 196.528 232.27 195.958 231.86 195.54C231.442 195.13 230.88 194.872 230.241 194.872C229.61 194.872 229.04 195.13 228.622 195.54C228.212 195.958 227.954 196.521 227.954 197.159C227.954 197.79 228.212 198.36 228.622 198.778Z" fill="white"/>
<path d="M233.153 197.16C233.153 195.548 231.846 194.241 230.234 194.241C228.623 194.241 227.316 195.548 227.316 197.16C227.316 198.771 228.623 200.078 230.234 200.078C231.853 200.078 233.153 198.771 233.153 197.16ZM230.242 194.872C230.873 194.872 231.443 195.13 231.861 195.541C232.271 195.959 232.53 196.521 232.53 197.16C232.53 197.79 232.271 198.36 231.861 198.778C231.443 199.189 230.88 199.447 230.242 199.447C229.611 199.447 229.041 199.189 228.623 198.778C228.213 198.36 227.954 197.798 227.954 197.16C227.954 196.529 228.213 195.959 228.623 195.541C229.041 195.13 229.604 194.872 230.242 194.872Z" fill="#7D2D80"/>
<path d="M235.942 210.764C236.368 211.189 236.945 211.448 237.591 211.448C238.237 211.448 238.815 211.189 239.24 210.764C239.666 210.338 239.924 209.76 239.924 209.114C239.924 208.468 239.666 207.883 239.24 207.465C238.815 207.04 238.237 206.781 237.591 206.781C236.945 206.781 236.36 207.04 235.942 207.465C235.516 207.891 235.258 208.468 235.258 209.114C235.258 209.76 235.516 210.338 235.942 210.764Z" fill="white"/>
<path d="M240.555 209.114C240.555 207.472 239.225 206.15 237.591 206.15C235.949 206.15 234.627 207.48 234.627 209.114C234.627 210.756 235.957 212.078 237.591 212.078C239.225 212.078 240.555 210.748 240.555 209.114ZM237.591 206.773C238.237 206.773 238.815 207.032 239.24 207.457C239.666 207.883 239.924 208.46 239.924 209.106C239.924 209.752 239.666 210.33 239.24 210.756C238.815 211.181 238.237 211.44 237.591 211.44C236.945 211.44 236.36 211.181 235.942 210.756C235.516 210.33 235.258 209.752 235.258 209.106C235.258 208.46 235.516 207.875 235.942 207.457C236.36 207.039 236.945 206.773 237.591 206.773Z" fill="#7D2D80"/>
<path d="M92.3628 202.859L90.9188 195.259L83.22 197.66L85.7204 205.063L92.3628 202.859Z" fill="url(#paint4_linear_7_419)"/>
<defs>
<linearGradient id="paint0_linear_7_419" x1="172.891" y1="291.665" x2="172.891" y2="222.364" gradientUnits="userSpaceOnUse">
<stop stop-color="#FBD027"/>
<stop offset="1" stop-color="#FCEFBC"/>
</linearGradient>
<linearGradient id="paint1_linear_7_419" x1="128.867" y1="291.665" x2="128.867" y2="222.364" gradientUnits="userSpaceOnUse">
<stop stop-color="#FBD027"/>
<stop offset="1" stop-color="#FCEFBC"/>
</linearGradient>
<linearGradient id="paint2_linear_7_419" x1="244.814" y1="172.714" x2="244.814" y2="116.556" gradientUnits="userSpaceOnUse">
<stop stop-color="#FBD027"/>
<stop offset="1" stop-color="#FCEFBC"/>
</linearGradient>
<linearGradient id="paint3_linear_7_419" x1="38.644" y1="254.794" x2="117.072" y2="254.794" gradientUnits="userSpaceOnUse">
<stop stop-color="#FBD027"/>
<stop offset="1" stop-color="#FCEFBC"/>
</linearGradient>
<linearGradient id="paint4_linear_7_419" x1="87.5423" y1="215.767" x2="87.9173" y2="192.514" gradientUnits="userSpaceOnUse">
<stop stop-color="#FBD027"/>
<stop offset="1" stop-color="#FCEFBC"/>
</linearGradient>
</defs>
</svg>
