<svg width="108" height="24" viewBox="0 0 108 24" fill="none" xmlns="http://www.w3.org/2000/svg">
<path d="M14.7143 2.71423L11.9999 0L0 11.9999L11.9999 24L14.7143 21.2856L5.42864 11.9999L14.7143 2.71423Z" fill="#008CD1"/>
<path d="M29.4291 11.9999L17.4291 0L14.7148 2.71423L24.0007 11.9999L14.7148 21.2856L17.4291 24L29.4291 11.9999Z" fill="#519136"/>
<path d="M24.0161 11.9729L14.7229 21.2661L5.42969 11.9729L14.7229 2.67969L24.0161 11.9729Z" fill="#0064A4"/>
<path d="M106.572 15.1426C107.001 15.1426 107.286 15.4284 107.286 15.8568C107.286 16.2853 107.001 16.5712 106.572 16.5712C106.143 16.5712 105.858 16.2853 105.858 15.8568C105.858 15.4284 106.143 15.1426 106.572 15.1426ZM106.572 16.4283C106.858 16.4283 107.143 16.1426 107.143 15.8568C107.143 15.5711 106.858 15.2853 106.572 15.2853C106.286 15.2853 106 15.5711 106 15.8568C106 16.1426 106.286 16.4283 106.572 16.4283ZM106.286 15.4284H106.572C106.715 15.4284 106.858 15.5711 106.858 15.7141C106.858 15.8568 106.715 15.9997 106.715 15.9997L107.001 16.4283H106.858L106.572 15.9997H106.429V16.4283H106.287V15.4284H106.286ZM106.429 15.7141H106.572C106.715 15.7141 106.715 15.7141 106.715 15.5713C106.715 15.4286 106.572 15.4286 106.572 15.4286H106.429V15.7141ZM33.2861 6.71403C33.2861 8.28545 34.1431 9.42826 35.8574 10.2855C36.1432 10.4282 36.8574 10.7139 37.1431 10.8568C39.0003 11.5712 39.4289 12.4284 39.4289 13.4283C39.4289 14.8569 38.2859 15.9997 36.7147 15.9997C35.0004 15.9997 34.0004 14.714 33.7147 12.5711H33.1432V14.5712C33.1432 15.2853 33.1432 15.9995 33.0005 16.2853H33.4289C33.5718 16.1426 33.7147 15.9995 33.8574 15.9995C34.0002 15.9995 34.286 16.1424 34.5717 16.1424C35.1432 16.2851 35.8574 16.571 36.7147 16.571C39.1433 16.571 40.8576 14.9994 40.8576 12.7138C40.8576 10.2851 39.4291 9.57078 37.2861 8.57085C35.5718 7.85666 34.7146 7.42787 34.7146 5.99931C34.7146 4.57094 35.7147 3.7137 37.1433 3.7137C38.7147 3.7137 39.7148 4.85668 39.8575 6.71368H40.429V5.14225C40.429 4.57076 40.429 3.8564 40.5719 3.42795H40.0004C40.0004 3.57065 39.8575 3.7137 39.5718 3.7137C39.286 3.7137 39.0003 3.57083 38.7145 3.42795C38.429 3.28526 37.8575 2.99951 36.8574 2.99951C34.8575 3.14256 33.2861 4.57129 33.2861 6.71403ZM52.1433 7.85701V9.14269C53.2861 8.28545 54.2863 7.85701 55.1431 7.85701C56.0004 7.85701 56.7147 8.28545 57.1432 9.14269C58.4289 8.28545 59.429 7.85701 60.286 7.85701C61.8576 7.85701 62.4291 8.99982 62.4291 11.4283V15.5713L63.4291 15.7141V16.1426H59.8576V15.7141L61.0006 15.5713C61.1433 14.714 61.1433 13.5712 61.1433 12.2855C61.1433 9.85688 61.0006 8.71407 59.5718 8.71407C59.0004 8.71407 58.2862 8.99982 57.4289 9.57131C57.5716 10.2857 57.5716 10.9999 57.5716 11.8571V15.7143L58.5717 15.857V16.2855H55.0003V15.857L56.0002 15.7143V12.4286C55.8575 9.99993 55.7145 8.85712 54.2861 8.85712C53.7146 8.85712 53.0002 9.14287 52.286 9.57131V15.5714L53.429 15.7143V16.1428H49.5718V15.7143L50.7148 15.5714C50.7148 14.9999 50.8577 14.4285 50.8577 13.7143V10.2857C50.8577 9.57131 50.8577 8.99982 50.7148 8.42833H49.5718V7.99989L52.1433 7.85701ZM64.429 6.28541L63.286 8.5712H63.0003L63.286 6.28541H64.429ZM64.1432 10.1426C64.1432 11.1426 64.7147 11.8569 65.7147 12.4284L66.2862 12.7142C66.8577 12.9999 67.2863 13.1426 67.5718 13.4283C67.7147 13.7141 67.8576 13.9998 67.8576 14.2856C67.8576 15.1428 67.1434 15.857 66.2862 15.857C65.2862 15.857 64.572 15.1428 64.429 13.7141V13.5712H64.0006V16.1428H64.429C64.429 15.9999 64.5719 15.9999 64.7147 15.9999C64.8576 15.9999 65.0005 15.9999 65.1432 16.1428C65.4289 16.2855 66.0004 16.4285 66.5717 16.4285C68.1432 16.4285 69.286 15.4286 69.286 13.857C69.286 12.2855 68.4287 11.8571 67.0004 11.1427C66.0002 10.7143 65.4288 10.4285 65.4288 9.57131C65.4288 8.71407 66.0002 8.14293 66.8573 8.14293C67.8574 8.14293 68.4287 8.85712 68.5716 10.0001V10.1428H69V9.14287V8.00006H68.5716C68.5716 8.14293 68.4287 8.14293 68.2859 8.14293C68.143 8.14293 68.143 8.14293 68.0001 8.00006C67.7144 7.85736 67.2859 7.71431 66.7144 7.71431C65.1432 7.85701 64.1432 8.71407 64.1432 10.1426ZM46.4289 14.4283V11.8569C44.286 12.2854 43.1432 12.8569 43.1432 14.1425C43.1432 14.9998 43.7147 15.5711 44.5718 15.5711C45.1433 15.5711 45.7148 15.2853 46.4289 14.9996V14.4283ZM42.429 9.99993C42.429 8.71408 43.7147 7.71414 45.429 7.71414C47.2862 7.71414 48.0004 8.71407 48.0004 10.5714V10.857L47.8577 13.7143V15.5714L49.0005 15.7143V16.1428H46.4291V15.2855C45.5719 15.9997 44.7148 16.2855 43.8576 16.2855C42.7148 16.2855 41.8577 15.5713 41.8577 14.4283C41.8577 12.8569 43.4291 11.9996 46.4291 11.5712V10.1426V9.99993C46.4291 8.85695 46.0007 8.28563 44.8577 8.28563C44.0005 8.28563 43.4291 8.71407 43.4291 9.28556V10.1428C43.4291 10.5714 43.1434 10.7143 42.715 10.7143C42.7146 10.7141 42.429 10.4284 42.429 9.99993ZM87.8575 13.857V15.7143L89.0005 15.857V16.2855H85.1433V15.857L86.2863 15.7143C86.2863 15.1428 86.4291 14.5713 86.4291 13.857V5.71427C86.4291 4.9999 86.4291 4.42841 86.2863 3.85692H85.1433V3.42848L87.8575 3.28578V13.857ZM90.429 10.2855C90.429 9.57114 90.429 8.99964 90.2862 8.42815H89.1434V7.99971L91.8576 7.85701V11.7141C91.8576 14.1427 92.0003 15.2855 93.429 15.2855C94.0005 15.2855 94.7147 14.9998 95.4289 14.4283V10.1426C95.4289 9.42844 95.4289 8.85695 95.2862 8.28546H94.1432V7.85701L96.8574 7.71414V13.7143C96.8574 14.4285 96.8574 14.8573 97.0003 15.4286L98.1431 15.5713V15.9997H95.5718V14.8569C94.4288 15.7141 93.4288 16.1426 92.5718 16.1426C91.8576 16.1426 90.4289 15.7141 90.4289 13.4283V10.2855H90.429ZM102.001 7.99971C102.286 7.85701 102.572 7.85701 102.715 7.85701C104.572 7.85701 106 9.71418 106 11.8569C106 14.5712 104.001 16.4283 101.715 16.4283C100.286 16.4283 99.1434 15.9997 98.8577 15.8568C98.8577 15.4284 99.0004 14.7139 99.0004 13.7139V6.14254C99.0004 5.14261 99.0003 4.28537 98.8577 3.99962H97.7147V3.571C98.4289 3.571 99.8576 3.42831 100.429 3.42831V8.5712L102.001 7.99971ZM100.572 13.4283V15.4284C100.715 15.4284 101.143 15.7141 101.715 15.7141C103.286 15.7141 104.429 14.4283 104.429 12.2854C104.429 10.1425 103.429 8.85677 101.715 8.85677C101.286 8.85677 100.715 9.14251 100.429 9.14251V13.4282H100.572V13.4283ZM84.5719 12.4284C84.2862 14.1425 82.8577 16.5714 80.0004 16.5714C76.286 16.5714 73.7148 13.857 73.7148 9.85688C73.7148 6.14254 76.1435 3.14256 80.0004 3.14256C82.0004 3.14256 82.7146 3.85675 83.2861 3.85675C83.5718 3.85675 83.7147 3.71405 83.8576 3.571H84.2862C84.2862 3.71388 84.1433 4.28537 84.1433 4.99955V6.85672H83.7149C83.4291 5.1426 82.2863 3.85675 80.2861 3.85675C77.5719 3.85675 76.1433 6.71403 76.1433 9.99975C76.1433 13.1426 77.2861 16.1426 80.2861 16.1426C82.8577 16.1426 83.7149 13.9997 84.1433 12.714H84.5719V12.4284Z" fill="#004280"/>
</svg>
