<svg width="40" height="40" viewBox="0 0 40 40" fill="none" xmlns="http://www.w3.org/2000/svg">
<rect width="40" height="40" rx="20" fill="#EC9408"/>
<path d="M26.5335 21.9998V20.9998C26.5335 20.0665 25.6002 19.3332 24.6668 19.3332C23.7335 19.3332 22.8002 20.0665 22.8002 20.9998V21.9998C22.4002 21.9998 22.0002 22.3998 22.0002 22.7998V25.1332C22.0002 25.5998 22.4002 25.9998 22.8002 25.9998H26.4668C26.9335 25.9998 27.3335 25.5998 27.3335 25.1998V22.8665C27.3335 22.3998 26.9335 21.9998 26.5335 21.9998ZM25.6668 21.9998H23.6668V20.9998C23.6668 20.4665 24.1335 20.1332 24.6668 20.1332C25.2002 20.1332 25.6668 20.4665 25.6668 20.9998V21.9998ZM20.6868 25.3332H14.6668C13.9335 25.3332 13.3335 24.7398 13.3335 23.9998V15.9998C13.3335 15.2598 13.9335 14.6665 14.6668 14.6665H25.3335C26.0735 14.6665 26.6668 15.2598 26.6668 15.9998V18.6932C26.2802 18.3998 25.8335 18.1732 25.3335 18.0732V17.3332H14.6668V19.3332H22.0268C21.6668 19.8132 21.4668 20.3865 21.4668 20.9998V21.1598C21.0002 21.5598 20.6668 22.1598 20.6668 22.7998V25.1332C20.6668 25.1998 20.6668 25.2665 20.6868 25.3332Z" fill="white"/>
</svg>
