<svg width="40" height="40" viewBox="0 0 40 40" fill="none" xmlns="http://www.w3.org/2000/svg">
<rect width="40" height="40" rx="20" fill="#7D2D80"/>
<path d="M19.3333 17.3333C19.3333 18.8067 18.14 20 16.6667 20C15.1933 20 14 18.8067 14 17.3333C14 15.86 15.1933 14.6667 16.6667 14.6667C18.14 14.6667 19.3333 15.86 19.3333 17.3333ZM19.3333 21.8133V25.3333H12V24C12 22.5267 14.0867 21.3333 16.6667 21.3333C17.6667 21.3333 18.58 21.5133 19.3333 21.8133ZM28 25.3333H20.6667V14H28V25.3333ZM22.6667 19.6667C22.6667 18.7467 23.4133 18 24.3333 18C25.2533 18 26 18.7467 26 19.6667C26 20.5867 25.2533 21.3333 24.3333 21.3333C23.4133 21.3333 22.6667 20.5867 22.6667 19.6667ZM26.6667 16.6667C25.9333 16.6667 25.3333 16.0733 25.3333 15.3333H23.3333C23.3333 16.0733 22.74 16.6667 22 16.6667V22.6667C22.74 22.6667 23.3333 23.2667 23.3333 24H25.3333C25.3333 23.2667 25.9333 22.6667 26.6667 22.6667V16.6667Z" fill="white"/>
</svg>
