<svg width="124" height="16" viewBox="0 0 124 16" fill="none" xmlns="http://www.w3.org/2000/svg">
<path d="M60.9136 6.4321H53.1605V0.481481H50.8148V15.5926H53.1605V8.4321H60.9136V15.5926H63.2346V0.481481H60.9136V6.4321ZM38.037 0.432099C37.1852 0.407407 35.4568 0.407407 33.9259 0.407407V15.5802H36.2963V9.82716C36.8889 9.82716 38.1111 9.77778 39.0988 9.75309C40.4815 9.72839 44.0864 9.03704 44.0617 4.87654C44.0988 0.185185 38.9012 0.432099 38.037 0.432099ZM37.9136 7.81481H36.3457V2.34568H37.679C38.2963 2.34568 41.9383 2.07407 42.0494 4.90123C42.1975 7.67901 39.321 7.81481 37.9136 7.81481ZM16.1605 0.407407L16.1852 15.5802H25.7037V13.6049H18.5556V8.45679H23.6173C23.6173 8.02469 23.5926 7.39506 23.6173 6.5679H18.5556V2.4321H25.7037C25.679 1.23457 25.7037 0.407407 25.7037 0.407407H16.1605ZM2.32099 4.11111C2.32099 1.62963 5.60494 1.53086 7.54321 3.12346C8.20988 1.20988 8.25926 1.07407 8.25926 1.07407C2.60494 -1.64198 0.0246914 1.95062 0.0246914 4.24691C0.0246914 9.74074 7.81481 8.5679 6.69136 12.4321C6.2963 13.8395 3.79012 14.642 0.901235 12.8889C0.691358 13.4815 0.345679 14.1975 0 14.9136C3.81481 16.9136 8.76543 15.9506 8.92593 11.8272C9.14815 6.64198 2.32099 7.01235 2.32099 4.11111ZM102.37 4.66667C102.025 0.160494 97.6543 0.506173 96.6914 0.45679C95.8889 0.432099 94.1852 0.407407 92.716 0.407407V15.5556H95.0864V9.18518C95.8889 9.18518 96.1481 9.18518 97.358 9.1358L101.679 15.5556H104.556L99.7778 8.74074C101.062 8.2716 102.556 7.17284 102.37 4.66667ZM96.5555 7.40741C96.0247 7.40741 95.6173 7.40741 95.0864 7.38272V2.25926H96.3333C96.9259 2.25926 100.037 2.07407 100.309 4.55556C100.642 7.49383 97.1975 7.40741 96.5555 7.40741ZM118.012 0.432099H115.272L110.309 15.6049H112.654C113.395 12.8642 113.642 12.0864 113.642 12.0864L119.778 12.0617C120.494 14.0864 121.025 15.6296 121.025 15.6296H123.457L118.012 0.432099ZM114.185 10.3457L116.58 2.85185H116.605L119.111 10.321L114.185 10.3457ZM77.9506 0C73.1235 0 69.9753 3.5679 69.9753 8C69.9753 12.4321 73.1235 16 77.9506 16C82.7778 16 85.9259 12.4321 85.9259 8C85.9259 3.5679 82.7778 0 77.9506 0ZM77.9506 13.8148C74.4074 13.8148 72.4074 11.2346 72.4074 8C72.4074 4.80247 74.4074 2.18519 77.9506 2.18519C81.4691 2.18519 83.4938 4.76543 83.4938 8C83.4938 11.1975 81.4938 13.8148 77.9506 13.8148Z" fill="black"/>
</svg>
