<svg width="45" height="50" viewBox="0 0 45 50" fill="none" xmlns="http://www.w3.org/2000/svg">
<path d="M6.92002 38.424C6.72802 37.5 5.96002 36.312 4.04002 36.312C2.46802 36.312 1.23202 37.512 1.23202 38.844C1.23202 40.116 2.09602 40.908 3.30802 41.172L4.52002 41.436C5.37202 41.616 5.79202 42.144 5.79202 42.756C5.79202 43.5 5.21602 44.112 4.04002 44.112C2.75602 44.112 2.08402 43.236 2.00002 42.288L0.872016 42.648C1.02802 43.86 2.00002 45.18 4.05202 45.18C5.86402 45.18 6.99202 43.98 6.99202 42.66C6.99202 41.472 6.20002 40.584 4.78402 40.272L3.51202 39.996C2.79202 39.84 2.42002 39.372 2.42002 38.76C2.42002 37.968 3.10402 37.344 4.06402 37.344C5.25202 37.344 5.76802 38.184 5.86402 38.796L6.92002 38.424ZM9.10411 41.52C9.15211 40.776 9.72811 40.044 10.6761 40.044C11.6961 40.044 12.2361 40.692 12.2601 41.52H9.10411ZM12.4281 43.02C12.2121 43.668 11.7441 44.184 10.8081 44.184C9.83611 44.184 9.09211 43.464 9.06811 42.432H13.4121C13.4241 42.36 13.4361 42.216 13.4361 42.072C13.4361 40.272 12.4401 39.048 10.6641 39.048C9.21211 39.048 7.90411 40.284 7.90411 42.096C7.90411 44.052 9.26011 45.18 10.8081 45.18C12.1521 45.18 13.0761 44.376 13.4001 43.356L12.4281 43.02ZM16.388 37.404H15.356V38.34C15.356 38.844 15.092 39.228 14.468 39.228H14.156V40.248H15.26V43.416C15.26 44.46 15.884 45.06 16.868 45.06C17.252 45.06 17.54 44.988 17.636 44.952V43.992C17.54 44.016 17.336 44.04 17.192 44.04C16.604 44.04 16.388 43.776 16.388 43.248V40.248H17.636V39.228H16.388V37.404ZM20.6536 37.404H19.6216V38.34C19.6216 38.844 19.3576 39.228 18.7336 39.228H18.4216V40.248H19.5256V43.416C19.5256 44.46 20.1496 45.06 21.1336 45.06C21.5176 45.06 21.8056 44.988 21.9016 44.952V43.992C21.8056 44.016 21.6016 44.04 21.4576 44.04C20.8696 44.04 20.6536 43.776 20.6536 43.248V40.248H21.9016V39.228H20.6536V37.404ZM24.5233 45V39.228H23.4073V45H24.5233ZM23.1553 37.044C23.1553 37.488 23.5153 37.848 23.9593 37.848C24.4153 37.848 24.7753 37.488 24.7753 37.044C24.7753 36.588 24.4153 36.228 23.9593 36.228C23.5153 36.228 23.1553 36.588 23.1553 37.044ZM27.5704 41.664C27.5704 40.788 28.0264 40.08 28.9144 40.08C29.9224 40.08 30.2584 40.728 30.2584 41.532V45H31.3864V41.34C31.3864 40.056 30.7024 39.06 29.3224 39.06C28.6504 39.06 27.9664 39.336 27.5464 40.056V39.228H26.4424V45H27.5704V41.664ZM32.7607 45.312C32.9047 46.548 33.9847 47.46 35.4247 47.46C37.5967 47.46 38.3167 46.032 38.3167 44.568V39.228H37.2007V40.032C36.9127 39.456 36.3127 39.12 35.4247 39.12C33.8407 39.12 32.7727 40.368 32.7727 41.928C32.7727 43.56 33.8887 44.724 35.4247 44.724C36.2887 44.724 36.9127 44.304 37.1887 43.776V44.604C37.1887 45.852 36.6367 46.476 35.4247 46.476C34.5487 46.476 33.9367 45.864 33.8527 45.06L32.7607 45.312ZM35.5927 43.776C34.5727 43.776 33.9247 43.056 33.9247 41.928C33.9247 40.812 34.5967 40.08 35.5927 40.08C36.5647 40.08 37.2367 40.812 37.2367 41.928C37.2367 43.044 36.5647 43.776 35.5927 43.776ZM39.5782 43.5C39.6742 44.16 40.3462 45.18 41.9302 45.18C43.3582 45.18 44.0422 44.208 44.0422 43.392C44.0422 42.54 43.4902 41.904 42.4462 41.676L41.5102 41.472C41.0662 41.376 40.8502 41.124 40.8502 40.776C40.8502 40.38 41.2342 40.008 41.8102 40.008C42.7222 40.008 42.9622 40.668 43.0102 40.968L44.0062 40.596C43.8862 40.08 43.3942 39.048 41.8102 39.048C40.6822 39.048 39.7582 39.888 39.7582 40.872C39.7582 41.688 40.2982 42.3 41.1982 42.492L42.1822 42.708C42.6622 42.816 42.9262 43.092 42.9262 43.452C42.9262 43.86 42.5782 44.22 41.9422 44.22C41.1262 44.22 40.6702 43.74 40.5982 43.14L39.5782 43.5Z" fill="#DDBCE4"/>
<path d="M21.9998 8C23.0607 8 24.0781 8.42143 24.8283 9.17157C25.5784 9.92172 25.9998 10.9391 25.9998 12C25.9998 13.0609 25.5784 14.0783 24.8283 14.8284C24.0781 15.5786 23.0607 16 21.9998 16C20.939 16 19.9216 15.5786 19.1714 14.8284C18.4213 14.0783 17.9998 13.0609 17.9998 12C17.9998 10.9391 18.4213 9.92172 19.1714 9.17157C19.9216 8.42143 20.939 8 21.9998 8V8ZM21.9998 10C21.4694 10 20.9607 10.2107 20.5856 10.5858C20.2106 10.9609 19.9998 11.4696 19.9998 12C19.9998 12.5304 20.2106 13.0391 20.5856 13.4142C20.9607 13.7893 21.4694 14 21.9998 14C22.5303 14 23.039 13.7893 23.4141 13.4142C23.7891 13.0391 23.9998 12.5304 23.9998 12C23.9998 11.4696 23.7891 10.9609 23.4141 10.5858C23.039 10.2107 22.5303 10 21.9998 10ZM19.9998 22C19.7498 22 19.5398 21.82 19.4998 21.58L19.1298 18.93C18.4998 18.68 17.9598 18.34 17.4398 17.94L14.9498 18.95C14.7298 19.03 14.4598 18.95 14.3398 18.73L12.3398 15.27C12.2098 15.05 12.2698 14.78 12.4598 14.63L14.5698 12.97L14.4998 12L14.5698 11L12.4598 9.37C12.2698 9.22 12.2098 8.95 12.3398 8.73L14.3398 5.27C14.4598 5.05 14.7298 4.96 14.9498 5.05L17.4398 6.05C17.9598 5.66 18.4998 5.32 19.1298 5.07L19.4998 2.42C19.5398 2.18 19.7498 2 19.9998 2H23.9998C24.2498 2 24.4598 2.18 24.4998 2.42L24.8698 5.07C25.4998 5.32 26.0398 5.66 26.5598 6.05L29.0498 5.05C29.2698 4.96 29.5398 5.05 29.6598 5.27L31.6598 8.73C31.7898 8.95 31.7298 9.22 31.5398 9.37L29.4298 11L29.4998 12L29.4298 13L31.5398 14.63C31.7298 14.78 31.7898 15.05 31.6598 15.27L29.6598 18.73C29.5398 18.95 29.2698 19.04 29.0498 18.95L26.5598 17.95C26.0398 18.34 25.4998 18.68 24.8698 18.93L24.4998 21.58C24.4598 21.82 24.2498 22 23.9998 22H19.9998ZM21.2498 4L20.8798 6.61C19.6798 6.86 18.6198 7.5 17.8498 8.39L15.4398 7.35L14.6898 8.65L16.7998 10.2C16.3998 11.37 16.3998 12.64 16.7998 13.8L14.6798 15.36L15.4298 16.66L17.8598 15.62C18.6298 16.5 19.6798 17.14 20.8698 17.38L21.2398 20H22.7598L23.1298 17.39C24.3198 17.14 25.3698 16.5 26.1398 15.62L28.5698 16.66L29.3198 15.36L27.1998 13.81C27.5998 12.64 27.5998 11.37 27.1998 10.2L29.3098 8.65L28.5598 7.35L26.1498 8.39C25.3798 7.5 24.3198 6.86 23.1198 6.62L22.7498 4H21.2498Z" fill="#DDBCE4"/>
</svg>
