<svg width="40" height="40" viewBox="0 0 40 40" fill="none" xmlns="http://www.w3.org/2000/svg">
<path d="M19.7505 0C9.33899 0 0.809935 8.10121 0 18.3957L10.6225 22.8278C11.5501 22.1858 12.6516 21.8425 13.7797 21.8438C13.8851 21.8438 13.9893 21.8468 14.0919 21.8525L18.8165 14.9418V14.845C18.8165 10.6867 22.169 7.30271 26.2903 7.30271C30.4114 7.30271 33.764 10.6867 33.764 14.845C33.764 19.0032 30.4114 22.3885 26.2903 22.3885C26.2331 22.3885 26.1775 22.3871 26.1206 22.3858L19.3825 27.2356C19.3868 27.3256 19.3896 27.4154 19.3896 27.5038C19.3896 30.6267 16.8728 33.1666 13.7797 33.1666C11.0646 33.1666 8.7929 31.21 8.27958 28.6204L0.681644 25.4502C3.03463 33.8453 10.678 40 19.7505 40C30.6967 40 39.5694 31.0446 39.5694 20C39.5694 8.95412 30.6967 0 19.7505 0ZM12.4198 30.3466L9.98555 29.3314C10.4163 30.2383 11.1635 30.9969 12.1546 31.4134C14.2964 32.3146 16.7663 31.2893 17.6591 29.126C18.0913 28.0858 18.0938 26.9167 17.6662 25.8747C17.2383 24.8251 16.4298 24.0066 15.3931 23.5702C14.3621 23.1382 13.2584 23.1538 12.2886 23.5232L14.8042 24.5727C16.3842 25.2374 17.1314 27.0682 16.4726 28.6626C15.8152 30.2568 13.9998 31.0113 12.4198 30.3466ZM31.2705 14.845C31.2705 12.0744 29.0359 9.81846 26.2908 9.81846C23.5442 9.81846 21.3096 12.0744 21.3096 14.845C21.3096 17.6158 23.5442 19.8703 26.2908 19.8703C29.0359 19.8703 31.2705 17.6158 31.2705 14.845ZM22.5575 14.8365C22.5575 12.7517 24.233 11.062 26.298 11.062C28.3643 11.062 30.0398 12.7517 30.0398 14.8365C30.0398 16.9213 28.3643 18.6112 26.2979 18.6112C24.233 18.6112 22.5573 16.9213 22.5573 14.8367L22.5575 14.8365Z" fill="#1A1918"/>
</svg>
