<svg width="32" height="40" viewBox="0 0 32 40" fill="none" xmlns="http://www.w3.org/2000/svg">
<path d="M15.7921 25.9491C10.0596 25.9491 5.40738 21.3043 5.40738 15.5708C5.40738 9.82685 10.0595 5.18545 15.7921 5.18545C21.5297 5.18545 26.1761 9.82685 26.1761 15.5708C26.1761 21.3043 21.5297 25.9491 15.7921 25.9491ZM15.7921 0C7.19831 0 0.229492 6.97067 0.229492 15.5708C0.229492 24.1643 7.19839 31.1328 15.7921 31.1328C24.3897 31.1328 31.3695 24.1643 31.3695 15.5708C31.3695 6.97067 24.3897 0 15.7921 0Z" fill="#CC0000"/>
<path d="M15.7923 10.2349C12.8466 10.2349 10.4597 12.6159 10.4597 15.5706C10.4597 18.5155 12.8465 20.9035 15.7923 20.9035C18.7409 20.9035 21.1328 18.5154 21.1328 15.5706C21.1328 12.616 18.7409 10.2349 15.7923 10.2349ZM1.71649 35.1937H0V34.1344H4.6925V35.1937H2.976V39.8623H1.71649V35.1937ZM4.14708 39.8623H5.42195L5.87154 38.5865H8.01339L8.44672 39.8623H9.75403L7.61217 34.1344H6.32096L4.14708 39.8623ZM6.94653 35.5458H6.9623L7.68395 37.6478H6.2009L6.94653 35.5458ZM10.2508 39.8623H11.5108V37.6242H12.7695C13.4039 37.6242 13.636 37.8887 13.724 38.4901C13.789 38.9475 13.7726 39.501 13.9252 39.8623H15.184C14.9596 39.5416 14.9678 38.8669 14.9435 38.506C14.9032 37.9276 14.7274 37.3267 14.1093 37.1664V37.1506C14.7438 36.8941 15.0163 36.3893 15.0163 35.7145C15.0163 34.8488 14.366 34.1348 13.3395 34.1348H10.2508L10.2508 39.8623ZM11.5108 35.113H12.8908C13.4514 35.113 13.7565 35.3538 13.7565 35.9067C13.7565 36.484 13.4514 36.7251 12.8908 36.7251H11.5108V35.113ZM20.021 39.2121C19.5794 39.7824 19.0029 39.9998 18.449 39.9998C16.6767 39.9998 15.6335 38.674 15.6335 37.0214C15.6335 35.3217 16.6766 33.9987 18.449 33.9987C19.6199 33.9987 20.7273 34.7207 20.8641 36.019H19.6601C19.5154 35.3846 19.0422 35.057 18.449 35.057C17.3178 35.057 16.8921 36.019 16.8921 37.0214C16.8921 37.9765 17.3178 38.9386 18.449 38.9386C19.2675 38.9386 19.7397 38.4977 19.8123 37.7031H18.5455V36.7656H20.9514V39.8621H20.1486L20.021 39.2121ZM21.8101 34.1344H26.0922V35.1937H23.0693V36.4206H25.8442V37.4001H23.0693V38.803H26.1571V39.8623H21.8101V34.1344ZM28.4352 35.1937H26.7186V34.1344H31.4118V35.1937H29.6943V39.8623H28.4352V35.1937Z" fill="#CC0000"/>
</svg>
