<svg width="31" height="50" viewBox="0 0 31 50" fill="none" xmlns="http://www.w3.org/2000/svg">
<path d="M7.16759 37.584V36.492H0.303594V37.584H3.14759V45H4.32359V37.584H7.16759ZM10.7343 39.168C10.6743 39.156 10.5183 39.132 10.3623 39.132C9.77431 39.132 9.05431 39.348 8.63431 40.236V39.228H7.53031V45H8.65831V42.108C8.65831 40.836 9.29431 40.332 10.2423 40.332C10.3983 40.332 10.5663 40.344 10.7343 40.368V39.168ZM11.5766 43.452C11.5766 44.364 12.3326 45.18 13.5086 45.18C14.5406 45.18 15.1166 44.628 15.3686 44.22C15.3686 44.64 15.4046 44.856 15.4286 45H16.5326C16.5086 44.856 16.4606 44.556 16.4606 44.052V41.16C16.4606 40.032 15.7886 39.048 14.0606 39.048C12.8126 39.048 11.8166 39.816 11.6966 40.92L12.7766 41.172C12.8486 40.5 13.2926 40.008 14.0846 40.008C14.9606 40.008 15.3326 40.476 15.3326 41.04C15.3326 41.244 15.2366 41.424 14.8886 41.472L13.3286 41.7C12.3326 41.844 11.5766 42.42 11.5766 43.452ZM13.6646 44.232C13.0886 44.232 12.7286 43.824 12.7286 43.392C12.7286 42.876 13.0886 42.6 13.5686 42.528L15.3326 42.264V42.528C15.3326 43.788 14.5886 44.232 13.6646 44.232ZM18.8898 42.096C18.8898 40.908 19.5618 40.068 20.5938 40.068C21.6258 40.068 22.2498 40.884 22.2498 42.072C22.2498 43.26 21.6138 44.16 20.5818 44.16C19.5018 44.16 18.8898 43.284 18.8898 42.096ZM22.2618 44.22C22.2618 44.568 22.2978 44.868 22.3218 45H23.4138C23.4018 44.904 23.3538 44.484 23.3538 43.932V36.312H22.2378V40.044C22.0458 39.576 21.4938 39.072 20.4738 39.072C18.8418 39.072 17.7378 40.464 17.7378 42.096C17.7378 43.812 18.7818 45.156 20.4738 45.156C21.3738 45.156 21.9858 44.676 22.2618 44.124V44.22ZM26.0045 41.52C26.0525 40.776 26.6285 40.044 27.5765 40.044C28.5965 40.044 29.1365 40.692 29.1605 41.52H26.0045ZM29.3285 43.02C29.1125 43.668 28.6445 44.184 27.7085 44.184C26.7365 44.184 25.9925 43.464 25.9685 42.432H30.3125C30.3245 42.36 30.3365 42.216 30.3365 42.072C30.3365 40.272 29.3405 39.048 27.5645 39.048C26.1125 39.048 24.8045 40.284 24.8045 42.096C24.8045 44.052 26.1605 45.18 27.7085 45.18C29.0525 45.18 29.9765 44.376 30.3005 43.356L29.3285 43.02Z" fill="#DDBCE4"/>
<path d="M22.1651 14.6198L23.2728 15.2594C23.3877 15.3257 23.5312 15.2428 23.5312 15.1103V7.35547C23.5312 7.0932 23.3751 6.86854 23.1514 6.76574C22.9505 6.62383 22.6781 6.60114 22.4513 6.73199L14.7666 11.1689L8.16149 7.35547L13.3226 4.37575C13.3682 4.34944 13.3964 4.30069 13.3964 4.24807V2.96882C13.3964 2.8363 13.2529 2.75343 13.138 2.81971L6.3616 6.73199C6.21228 6.81828 6.10327 6.96031 6.05862 7.12687C6.03853 7.20209 6.03414 7.27939 6.0413 7.35547C6.03418 7.43159 6.03853 7.50893 6.05862 7.58408C6.10327 7.75063 6.21228 7.89271 6.3616 7.97895L14.0466 12.4159V20.0427L8.90977 17.0769C8.86414 17.0506 8.80795 17.0506 8.76232 17.0769L7.65451 17.7165C7.53972 17.7828 7.53972 17.9486 7.65451 18.0148L14.4066 21.9131C14.509 21.9722 14.6209 22.0003 14.7312 22.0003C14.8683 22.0003 15.0028 21.9563 15.1144 21.8751C15.3338 21.7706 15.4865 21.5487 15.4865 21.2896V12.4158L22.0914 8.60239V14.492C22.0914 14.5447 22.1195 14.5933 22.1652 14.6197L22.1651 14.6198Z" fill="#DDBCE4" stroke="#DDBCE4" stroke-width="0.3"/>
<path d="M13.4295 12.8541L12.6372 12.3967L7.43987 15.3973V9.44024C7.43987 9.37933 7.40734 9.32293 7.35451 9.29244L6.28952 8.67754C6.16086 8.6032 6 8.69608 6 8.84466V16.6442C6 16.9034 6.15273 17.1253 6.37202 17.2298C6.48372 17.311 6.61828 17.3549 6.75531 17.3549C6.86559 17.3549 6.97753 17.3267 7.07988 17.2677L13.4295 13.6018V12.8541V12.8541Z" fill="#DDBCE4" stroke="#DDBCE4" stroke-width="0.3"/>
<path d="M21.8344 5.9603L15.1248 2.08645C14.8983 1.9558 14.6263 1.97829 14.4254 2.11987C14.2014 2.22255 14.0449 2.44745 14.0449 2.70993V9.94057L14.8155 10.3854L15.4847 9.99908V3.95693L20.5986 6.90949C20.6514 6.93999 20.7165 6.93999 20.7693 6.90949L21.8343 6.29451C21.963 6.22026 21.963 6.03451 21.8343 5.9603H21.8344Z" fill="#DDBCE4" stroke="#DDBCE4" stroke-width="0.3"/>
<path d="M23.4724 16.4156C23.4278 16.2491 23.3187 16.107 23.1695 16.0207L16.8913 12.396L16.1017 12.8518V13.6028L21.3697 16.6442L16.1854 19.6374C16.1326 19.6678 16.1001 19.7242 16.1001 19.7851V21.015C16.1001 21.1635 16.261 21.2564 16.3895 21.1821L23.1695 17.2677C23.3187 17.1815 23.4278 17.0394 23.4724 16.8728C23.4925 16.7977 23.497 16.7204 23.4898 16.6442C23.497 16.5682 23.4926 16.4909 23.4724 16.4156V16.4156Z" fill="#DDBCE4" stroke="#DDBCE4" stroke-width="0.3"/>
</svg>
