<svg width="40" height="40" viewBox="0 0 40 40" fill="none" xmlns="http://www.w3.org/2000/svg">
<path d="M20 40C31.0457 40 40 31.0457 40 20C40 8.9543 31.0457 0 20 0C8.9543 0 0 8.9543 0 20C0 31.0457 8.9543 40 20 40Z" fill="#FF0000"/>
<path d="M33.1402 14.0788C32.0057 13.2854 30.7926 12.4395 29.6057 11.6001C29.5795 11.5805 29.5533 11.5608 29.5205 11.5411C29.3893 11.4428 29.2385 11.3378 29.0549 11.2788L29.0418 11.2723C25.868 10.505 22.6418 9.71817 19.5205 8.95751C16.6877 8.26898 13.8615 7.58046 11.0287 6.89194C10.9565 6.87226 10.8844 6.85259 10.8057 6.83292C10.55 6.76079 10.2549 6.6821 9.94016 6.72144C9.84835 6.73456 9.76966 6.76735 9.69753 6.81325L9.61884 6.87882C9.49425 6.99685 9.42868 7.14767 9.39589 7.23292L9.37622 7.28538V7.58702L9.38934 7.63292C11.1795 12.6493 13.0156 17.7378 14.7861 22.6624C16.15 26.4526 17.5664 30.3805 18.95 34.2362C19.0352 34.4985 19.2779 34.669 19.5795 34.6952H19.6451C19.927 34.6952 20.1762 34.5575 20.3008 34.3346L25.4943 26.7608C26.7598 24.9182 28.0254 23.069 29.291 21.2264C29.809 20.4723 30.327 19.7116 30.8451 18.9575C31.6975 17.7116 32.5762 16.4264 33.4484 15.1739L33.4943 15.1083V15.0296C33.5139 14.8001 33.5205 14.328 33.1402 14.0788ZM27.0549 16.8395C25.8352 17.4755 24.5893 18.1313 23.3369 18.7805C24.0647 18.0001 24.7992 17.2132 25.527 16.4329C26.4385 15.4493 27.3893 14.4329 28.3205 13.4362L28.3402 13.4165C28.4188 13.3116 28.5172 13.2132 28.6221 13.1083C28.6943 13.0362 28.7729 12.9641 28.8451 12.8788C29.3303 13.2132 29.8221 13.5542 30.2943 13.8887C30.6352 14.1313 30.9828 14.3739 31.3369 14.6165C29.8943 15.351 28.4516 16.105 27.0549 16.8395ZM23.9205 16.5247C22.9828 17.5411 22.0123 18.5837 21.0484 19.6132C19.1795 17.3444 17.2713 15.0428 15.4221 12.8198C14.5828 11.81 13.7369 10.7936 12.8975 9.78374L12.891 9.77718C12.7008 9.56079 12.5172 9.32472 12.3336 9.10177C12.2156 8.95095 12.091 8.80669 11.9664 8.65587C12.727 8.85259 13.4943 9.0362 14.2484 9.21325C14.9106 9.37062 15.5992 9.53456 16.2746 9.70505C20.0779 10.6296 23.8877 11.5542 27.691 12.4788C26.4254 13.8296 25.1533 15.2001 23.9205 16.5247ZM20.6221 29.305C20.6943 28.6165 20.7729 27.9083 20.8385 27.2132C20.8975 26.6559 20.9565 26.0854 21.0156 25.5411C21.1074 24.669 21.2057 23.7641 21.2844 22.8788L21.3041 22.7214C21.3697 22.1575 21.4352 21.5739 21.4746 20.9903C21.5467 20.951 21.6254 20.9116 21.7106 20.8788C21.809 20.8329 21.9074 20.7936 22.0057 20.7346C23.5205 19.9411 25.0352 19.1477 26.5565 18.3608C28.0713 17.5739 29.6254 16.7608 31.1664 15.9542C29.7631 17.987 28.3533 20.0395 26.9893 22.0395C25.8156 23.751 24.609 25.5149 23.409 27.2526C22.9369 27.9477 22.4451 28.6559 21.9795 29.3378C21.4549 30.0985 20.9172 30.8788 20.3926 31.6591C20.4582 30.8723 20.5369 30.0788 20.6221 29.305ZM11.4811 10.2034C11.3959 9.96735 11.3041 9.72472 11.2254 9.49521C12.9959 11.6329 14.7795 13.7837 16.5172 15.869C17.4156 16.951 18.3139 18.0264 19.2123 19.1149C19.3893 19.3182 19.5664 19.5346 19.7369 19.7444C19.9598 20.0132 20.1828 20.2952 20.4254 20.5641C20.3467 21.2395 20.2811 21.9214 20.209 22.5772C20.1631 23.0362 20.1172 23.4952 20.0647 23.9608V23.9673C20.0451 24.2624 20.0057 24.5575 19.9729 24.846C19.927 25.246 19.8221 26.1509 19.8221 26.1509L19.8156 26.1969C19.6975 27.5214 19.5533 28.8591 19.4156 30.1575C19.3565 30.6952 19.3041 31.246 19.2451 31.7969C19.2123 31.6985 19.1729 31.6001 19.1402 31.5083C19.0418 31.246 18.9434 30.9706 18.8516 30.7018L18.15 28.7542C15.927 22.5706 13.7041 16.3936 11.4811 10.2034Z" fill="white"/>
</svg>
