<svg width="34" height="24" viewBox="0 0 34 24" fill="none" xmlns="http://www.w3.org/2000/svg">
<rect width="33.6" height="24" rx="2" fill="white"/>
<mask id="mask0_170_544" style="mask-type:alpha" maskUnits="userSpaceOnUse" x="0" y="0" width="34" height="24">
<rect width="33.6" height="24" rx="2" fill="white"/>
</mask>
<g mask="url(#mask0_170_544)">
<path fill-rule="evenodd" clip-rule="evenodd" d="M33.6 0H0V1.6H33.6V0ZM33.6 3.19996H0V4.79996H33.6V3.19996ZM0 6.40001H33.6V8.00001H0V6.40001ZM33.6 9.6H0V11.2H33.6V9.6ZM0 12.8H33.6V14.4H0V12.8ZM33.6 16H0V17.6H33.6V16ZM0 19.2H33.6V20.8H0V19.2ZM33.6 22.4H0V24H33.6V22.4Z" fill="#D02F44"/>
<rect width="14.4" height="11.2" fill="#46467F"/>
<g filter="url(#filter0_d_170_544)">
<path fill-rule="evenodd" clip-rule="evenodd" d="M3.2001 2.4001C3.2001 2.84193 2.84193 3.2001 2.4001 3.2001C1.95827 3.2001 1.6001 2.84193 1.6001 2.4001C1.6001 1.95827 1.95827 1.6001 2.4001 1.6001C2.84193 1.6001 3.2001 1.95827 3.2001 2.4001ZM6.4001 2.4001C6.4001 2.84193 6.04193 3.2001 5.6001 3.2001C5.15828 3.2001 4.8001 2.84193 4.8001 2.4001C4.8001 1.95827 5.15828 1.6001 5.6001 1.6001C6.04193 1.6001 6.4001 1.95827 6.4001 2.4001ZM8.8001 3.2001C9.24193 3.2001 9.6001 2.84193 9.6001 2.4001C9.6001 1.95827 9.24193 1.6001 8.8001 1.6001C8.35827 1.6001 8.0001 1.95827 8.0001 2.4001C8.0001 2.84193 8.35827 3.2001 8.8001 3.2001ZM12.8001 2.4001C12.8001 2.84193 12.4419 3.2001 12.0001 3.2001C11.5583 3.2001 11.2001 2.84193 11.2001 2.4001C11.2001 1.95827 11.5583 1.6001 12.0001 1.6001C12.4419 1.6001 12.8001 1.95827 12.8001 2.4001ZM4.00008 4.8001C4.44191 4.8001 4.80008 4.44193 4.80008 4.0001C4.80008 3.55827 4.44191 3.2001 4.00008 3.2001C3.55825 3.2001 3.20008 3.55827 3.20008 4.0001C3.20008 4.44193 3.55825 4.8001 4.00008 4.8001ZM8.0001 4.0001C8.0001 4.44193 7.64192 4.8001 7.2001 4.8001C6.75827 4.8001 6.4001 4.44193 6.4001 4.0001C6.4001 3.55827 6.75827 3.2001 7.2001 3.2001C7.64192 3.2001 8.0001 3.55827 8.0001 4.0001ZM10.4001 4.8001C10.8419 4.8001 11.2001 4.44193 11.2001 4.0001C11.2001 3.55827 10.8419 3.2001 10.4001 3.2001C9.95827 3.2001 9.6001 3.55827 9.6001 4.0001C9.6001 4.44193 9.95827 4.8001 10.4001 4.8001ZM12.8001 5.60006C12.8001 6.04189 12.4419 6.40006 12.0001 6.40006C11.5583 6.40006 11.2001 6.04189 11.2001 5.60006C11.2001 5.15823 11.5583 4.80006 12.0001 4.80006C12.4419 4.80006 12.8001 5.15823 12.8001 5.60006ZM8.8001 6.40006C9.24193 6.40006 9.6001 6.04189 9.6001 5.60006C9.6001 5.15823 9.24193 4.80006 8.8001 4.80006C8.35827 4.80006 8.0001 5.15823 8.0001 5.60006C8.0001 6.04189 8.35827 6.40006 8.8001 6.40006ZM6.4001 5.60006C6.4001 6.04189 6.04193 6.40006 5.6001 6.40006C5.15828 6.40006 4.8001 6.04189 4.8001 5.60006C4.8001 5.15823 5.15828 4.80006 5.6001 4.80006C6.04193 4.80006 6.4001 5.15823 6.4001 5.60006ZM2.4001 6.40006C2.84193 6.40006 3.2001 6.04189 3.2001 5.60006C3.2001 5.15823 2.84193 4.80006 2.4001 4.80006C1.95827 4.80006 1.6001 5.15823 1.6001 5.60006C1.6001 6.04189 1.95827 6.40006 2.4001 6.40006ZM4.80008 7.20011C4.80008 7.64193 4.44191 8.00011 4.00008 8.00011C3.55825 8.00011 3.20008 7.64193 3.20008 7.20011C3.20008 6.75828 3.55825 6.40011 4.00008 6.40011C4.44191 6.40011 4.80008 6.75828 4.80008 7.20011ZM7.2001 8.00011C7.64192 8.00011 8.0001 7.64193 8.0001 7.20011C8.0001 6.75828 7.64192 6.40011 7.2001 6.40011C6.75827 6.40011 6.4001 6.75828 6.4001 7.20011C6.4001 7.64193 6.75827 8.00011 7.2001 8.00011ZM11.2001 7.20011C11.2001 7.64193 10.8419 8.00011 10.4001 8.00011C9.95827 8.00011 9.6001 7.64193 9.6001 7.20011C9.6001 6.75828 9.95827 6.40011 10.4001 6.40011C10.8419 6.40011 11.2001 6.75828 11.2001 7.20011ZM12.0001 9.60011C12.4419 9.60011 12.8001 9.24194 12.8001 8.80011C12.8001 8.35828 12.4419 8.00011 12.0001 8.00011C11.5583 8.00011 11.2001 8.35828 11.2001 8.80011C11.2001 9.24194 11.5583 9.60011 12.0001 9.60011ZM9.6001 8.80011C9.6001 9.24194 9.24193 9.60011 8.8001 9.60011C8.35827 9.60011 8.0001 9.24194 8.0001 8.80011C8.0001 8.35828 8.35827 8.00011 8.8001 8.00011C9.24193 8.00011 9.6001 8.35828 9.6001 8.80011ZM5.6001 9.60011C6.04193 9.60011 6.4001 9.24194 6.4001 8.80011C6.4001 8.35828 6.04193 8.00011 5.6001 8.00011C5.15828 8.00011 4.8001 8.35828 4.8001 8.80011C4.8001 9.24194 5.15828 9.60011 5.6001 9.60011ZM3.2001 8.80011C3.2001 9.24194 2.84193 9.60011 2.4001 9.60011C1.95827 9.60011 1.6001 9.24194 1.6001 8.80011C1.6001 8.35828 1.95827 8.00011 2.4001 8.00011C2.84193 8.00011 3.2001 8.35828 3.2001 8.80011Z" fill="url(#paint0_linear_170_544)"/>
</g>
</g>
<defs>
<filter id="filter0_d_170_544" x="1.6001" y="1.6001" width="11.2" height="9" filterUnits="userSpaceOnUse" color-interpolation-filters="sRGB">
<feFlood flood-opacity="0" result="BackgroundImageFix"/>
<feColorMatrix in="SourceAlpha" type="matrix" values="0 0 0 0 0 0 0 0 0 0 0 0 0 0 0 0 0 0 127 0" result="hardAlpha"/>
<feOffset dy="1"/>
<feColorMatrix type="matrix" values="0 0 0 0 0 0 0 0 0 0 0 0 0 0 0 0 0 0 0.06 0"/>
<feBlend mode="normal" in2="BackgroundImageFix" result="effect1_dropShadow_170_544"/>
<feBlend mode="normal" in="SourceGraphic" in2="effect1_dropShadow_170_544" result="shape"/>
</filter>
<linearGradient id="paint0_linear_170_544" x1="1.6001" y1="1.6001" x2="1.6001" y2="9.6001" gradientUnits="userSpaceOnUse">
<stop stop-color="white"/>
<stop offset="1" stop-color="#F0F0F0"/>
</linearGradient>
</defs>
</svg>
