<svg width="80" height="32" viewBox="0 0 80 32" fill="none" xmlns="http://www.w3.org/2000/svg">
<path d="M54.9421 26.1528C49.6687 25.2648 50.4891 16.5338 52.3809 12.8136C57.1016 12.9476 63.3958 6.19431 62.1737 1.40163C61.9393 0.513427 61.2527 0.295578 60.7176 0.161547C54.5572 -1.29638 51.3429 7.4846 49.7527 11.5903C48.2966 11.3725 46.773 10.6183 46.5052 9.57948C49.6187 10.6185 50.3052 5.57437 47.6268 4.98784C46.2039 4.78679 44.9816 5.59117 44.8312 7.33397C44.8312 8.20537 44.9816 9.19399 45.6178 10.2498C46.4048 11.5905 48.0621 12.2105 49.4178 12.596C48.7649 14.8415 48.0787 17.3216 47.9617 19.8856C47.8445 22.2149 48.1626 30.3592 53.3351 29.6388C54.4904 29.471 54.9757 27.879 55.3442 26.6221C55.4614 26.2366 55.2101 26.22 54.9425 26.1528H54.9421ZM58.809 1.63628C62.7767 1.56927 55.9965 11.5735 52.883 11.4899C54.2559 8.13835 56.8003 1.65308 58.809 1.63628ZM28.7938 25.0468C26.6845 21.444 27.1364 17.4389 27.6721 12.9478C25.3118 11.0878 23.4536 14.0873 22.9681 16.1988C20.5407 14.1041 17.3098 15.9977 16.4728 17.4389C15.3345 19.3995 15.2507 22.2145 16.1379 24.3932C17.427 27.5603 23.9891 29.3199 25.7635 24.7283C26.6845 26.0354 29.3459 27.862 30.3001 26.9908C31.1037 26.2196 29.4297 26.4039 28.7938 25.0468ZM21.7294 24.4938C19.7707 23.9241 19.1682 20.9412 19.7205 18.6621C20.1222 17.5061 21.7294 17.4389 22.7504 18.1092C23.9557 18.8802 24.2569 20.9749 24.6588 22.483C24.1567 23.8569 22.8508 24.8123 21.7294 24.4938ZM64.082 27.6444C60.5163 26.2871 59.4781 22.5668 59.5953 18.4613C67.9322 16.6847 72.0838 7.41779 70.6774 5.2393C69.1873 3.09421 66.9778 4.25067 64.7515 5.57437C63.3286 6.42896 58.4071 9.57948 56.9169 17.2212C56.264 17.5397 55.6448 17.5897 54.8915 17.238C54.5902 17.1208 54.4058 17.3552 54.4394 17.6905C54.473 17.8916 55.2263 18.5283 56.6157 18.7461C56.214 22.2653 57.369 27.8622 59.6121 30.2249C60.1313 30.7781 61.2359 31.2642 61.9559 31.2306C62.9937 31.1802 65.2704 29.8397 64.9858 28.6496C64.8685 28.2307 64.8853 27.9624 64.082 27.6444ZM67.7648 6.34535C68.8864 6.83125 66.2246 11.2555 65.6385 12.1771C64.4336 14.0875 62.3914 15.6795 60.0474 16.4334C61.3027 12.1435 66.2078 5.65819 67.7644 6.34535H67.7648ZM17.2094 11.8252C18.8499 10.5349 21.093 9.84774 23.1353 9.6969C24.2904 6.66382 20.5239 5.35672 17.9793 5.89284C14.9158 6.64701 12.321 11.691 11.367 14.7408C10.1786 18.5617 10.9151 23.187 11.9196 27.1749C9.86049 25.2478 7.2657 22.4828 6.09404 19.6676C5.9098 19.2317 5.40768 17.908 5.30726 17.6567C4.48708 15.2101 4.62091 12.0428 5.64214 10.4845C4.33664 10.233 3.08096 10.9538 2.05973 11.8252C1.33996 12.4787 0.285325 13.7858 0.08448 14.6238C-0.317211 16.3164 0.804243 18.2434 1.54081 19.668C3.03075 22.5168 4.01837 23.8069 6.12765 25.9354C8.20352 28.0471 10.0783 29.4712 12.6229 30.9795C13.8784 31.7171 15.6026 32.5381 16.7577 31.5326C15.8705 29.3708 9.67665 17.7409 17.2094 11.8252ZM46.5718 13.702C46.2201 12.6296 44.6968 11.9592 43.5751 12.8474C42.119 14.0539 42.2026 21.0085 42.7213 22.0309C43.0226 23.321 45.2157 24.0922 45.768 22.5672C46.0025 21.7462 45.1819 22.6174 44.7468 21.9137C42.7717 18.8806 47.2075 15.6797 46.5714 13.7024L46.5718 13.702ZM38.8711 23.0361C38.6366 21.1089 40.6122 18.3273 40.545 16.0817C40.5118 14.7747 40.0763 13.4173 38.7538 13.0487C35.4393 12.5962 33.9829 14.6072 32.493 16.5174C31.7394 14.9255 29.9986 13.4173 28.3583 14.8417C27.6385 15.646 29.1451 17.8413 29.8146 19.4333C30.2833 20.5726 30.8692 21.746 30.9363 22.9021C30.9865 23.6899 30.501 24.8127 31.1539 24.9131C33.2966 25.1644 32.7107 21.4776 33.1628 19.5337C33.5813 17.7741 34.4182 16.9027 36.1926 16.2828C38.4526 15.646 31.3882 28.6834 40.6623 27.8288C41.8003 27.3261 43.1902 25.8346 42.1186 24.4604C40.6287 24.5777 39.0887 24.7623 38.8711 23.0361ZM78.6122 17.5395C77.357 17.3554 76.4528 18.5951 75.5824 18.9976C76.3359 17.0034 74.6449 15.7131 74.2432 15.2942C68.4679 11.4735 60.3155 21.5784 64.4 25.4827C66.1578 26.8736 68.9369 27.2089 70.8955 25.7007C71.1632 28.8512 77.3404 29.3371 77.3908 26.2536C69.8745 28.1975 78.7633 21.8801 79.8515 19.5337C80.2868 18.6121 79.7343 17.7071 78.613 17.5395H78.6122ZM70.2253 24.3768C69.1039 24.3266 68.3337 24.2596 68.0993 23.2542C67.7644 20.3551 69.723 18.4781 71.5644 17.992C76.6368 16.6513 72.4518 24.494 70.2253 24.3768Z" fill="black"/>
</svg>
