<svg width="74" height="24" viewBox="0 0 74 24" fill="none" xmlns="http://www.w3.org/2000/svg">
<path d="M32.0701 23.6H26.0336L29.8063 0.414295H35.8434L32.0701 23.6ZM20.9554 0.414295L15.2005 16.3616L14.5196 12.9275L14.5202 12.9288L12.489 2.5019C12.489 2.5019 12.2434 0.414295 9.62555 0.414295H0.111637L0 0.806883C0 0.806883 2.90937 1.4122 6.31428 3.45701L11.5587 23.6006H17.8482L27.452 0.414295H20.9554ZM68.435 23.6H73.9778L69.1452 0.413675H64.2927C62.0519 0.413675 61.5061 2.14156 61.5061 2.14156L52.5033 23.6H58.7958L60.0542 20.156H67.728L68.435 23.6ZM61.7927 15.3984L64.9644 6.72176L66.7487 15.3984H61.7927ZM52.9752 5.98992L53.8367 1.01093C53.8367 1.01093 51.1785 0 48.4074 0C45.4119 0 38.2981 1.30925 38.2981 7.67563C38.2981 13.6656 46.6473 13.74 46.6473 16.8863C46.6473 20.0326 39.1584 19.4688 36.6869 17.4848L35.7894 22.6908C35.7894 22.6908 38.4848 24 42.603 24C46.7224 24 52.9368 21.8671 52.9368 16.062C52.9368 10.0336 44.5126 9.47236 44.5126 6.85138C44.5132 4.22979 50.3921 4.56655 52.9752 5.98992Z" fill="#2566AF"/>
<path d="M14.5201 12.9274L12.4889 2.50067C12.4889 2.50067 12.2433 0.413086 9.62549 0.413086H0.111636L0 0.80567C0 0.80567 4.57273 1.75333 8.95877 5.30395C13.1526 8.69767 14.5201 12.9274 14.5201 12.9274Z" fill="#E6A540"/>
</svg>
