<svg width="40" height="40" viewBox="0 0 40 40" fill="none" xmlns="http://www.w3.org/2000/svg">
<rect width="40" height="40" rx="4" fill="#E2F5E2"/>
<path d="M25.12 17.88C24.56 17.32 23.8 17 23 17C22.2 17 21.44 17.32 20.88 17.88C20.32 18.44 20 19.2 20 20C20 20.8 20.32 21.56 20.88 22.12C21.44 22.68 22.2 23 23 23C23.8 23 24.56 22.68 25.12 22.12C25.68 21.56 26 20.8 26 20C26 19.2 25.68 18.44 25.12 17.88ZM15 14V26H31V14H15ZM29 22C28.47 22 27.96 22.21 27.59 22.59C27.21 22.96 27 23.47 27 24H19C19 23.47 18.79 22.96 18.41 22.59C18.04 22.21 17.53 22 17 22V18C17.53 18 18.04 17.79 18.41 17.41C18.79 17.04 19 16.53 19 16H27C27 16.53 27.21 17.04 27.59 17.41C27.96 17.79 28.47 18 29 18V22ZM13 16H11C10.45 16 10 15.55 10 15C10 14.45 10.45 14 11 14H13V16ZM13 21H10C9.45 21 9 20.55 9 20C9 19.45 9.45 19 10 19H13V21ZM13 26H9C8.448 26 8 25.55 8 25C8 24.45 8.448 24 9 24H13V26Z" fill="#0FA90F"/>
</svg>
