<svg width="40" height="40" viewBox="0 0 40 40" fill="none" xmlns="http://www.w3.org/2000/svg">
<rect width="40" height="40" rx="4" fill="#F8F3F9"/>
<path d="M23 23V25H31V23H23ZM22.97 19.61C22.85 18.28 21.59 16.97 20 17C18.3 17.03 17 18.3 17 20C17 21.7 18.3 22.94 20 23C20.38 23 20.77 22.92 21.14 22.77C21.41 21.67 21.86 20.63 22.97 19.61ZM21 24H15C15 22.9 14.11 22 13 22V18C14.11 18 15 17.11 15 16H25C25 17.11 25.9 18 27 18V18.06C27.67 18.06 28.34 18.18 29 18.4V14H11V26H21.32C21.1 25.33 21 24.66 21 24Z" fill="#7D2D80"/>
</svg>
