<svg width="101" height="24" viewBox="0 0 101 24" fill="none" xmlns="http://www.w3.org/2000/svg">
<path d="M88.6936 8.07935C89.256 8.07935 89.7189 7.78696 89.7814 7.40921L90.3366 1.13012C90.3366 0.509498 89.6096 0 88.6954 0C87.7822 0 87.0558 0.509495 87.0558 1.13023L87.6107 7.40921C87.6717 7.78685 88.1346 8.07935 88.6955 8.07935H88.6936ZM85.3 10.0406C85.5821 9.55418 85.5608 9.00749 85.2635 8.76462L80.1025 5.14426C79.5659 4.8335 78.7613 5.20755 78.3047 5.99947C77.8465 6.79037 77.9277 7.6737 78.4628 7.98458L84.1776 10.6454C84.5349 10.7778 85.022 10.523 85.3018 10.0369L85.3 10.0406ZM92.0903 10.0372C92.3719 10.5233 92.8565 10.7783 93.2141 10.6458L98.9289 7.98492C99.4674 7.67415 99.5439 6.79071 99.09 5.9998C98.6311 5.20867 97.8251 4.83383 97.2899 5.14459L92.1286 8.76495C91.8335 9.00749 91.8115 9.55463 92.092 10.0409L92.0903 10.0372ZM88.6936 15.9229C89.256 15.9229 89.7189 16.2128 89.7814 16.5909L90.3366 22.8691C90.3366 23.4916 89.6096 24 88.6954 24C87.7822 24 87.0558 23.4916 87.0558 22.8691L87.6107 16.5909C87.6717 16.2128 88.1346 15.9229 88.6955 15.9229H88.6936ZM92.0903 13.9612C92.3719 13.4738 92.8565 13.221 93.2141 13.355L98.9289 16.0141C99.4674 16.3252 99.5439 17.2094 99.09 18.001C98.6311 18.7895 97.8251 19.1654 97.2899 18.8551L92.1286 15.2381C91.8335 14.9936 91.8115 14.4462 92.092 13.9602H92.0898L92.0903 13.9612ZM85.3 13.9605C85.5821 14.4462 85.5608 14.9936 85.2635 15.2385L80.1025 18.8554C79.5659 19.1657 78.7613 18.7899 78.3047 18.0013C77.8465 17.2097 77.9277 16.3255 78.4628 16.0144L84.1776 13.3554C84.5349 13.2214 85.022 13.4741 85.3018 13.9616H85.3" fill="#FDBB30"/>
<path d="M56.139 15.2264C56.139 15.4191 56.1218 15.6178 56.069 15.7923C55.8501 16.5172 55.0996 17.1303 54.1606 17.1303C53.3776 17.1303 52.7557 16.6855 52.7557 15.7462C52.7557 14.3085 54.3381 13.9115 56.1394 13.9215L56.139 15.2263V15.2264ZM58.9643 12.721C58.9643 10.3504 57.9513 8.26447 54.5287 8.26447C52.7718 8.26447 51.3774 8.75795 50.6163 9.19777L51.1737 11.1036C51.8693 10.6644 52.9779 10.3009 54.027 10.3009C55.7631 10.2961 56.0474 11.284 56.0474 11.9163V12.066C52.2631 12.0604 49.8708 13.3708 49.8708 16.0401C49.8708 17.6712 51.0892 19.1989 53.2072 19.1989C54.5086 19.1989 55.5986 18.6795 56.251 17.8466H56.3154C56.3154 17.8466 56.747 19.6549 59.1299 18.963C59.0056 18.211 58.9647 17.4082 58.9647 16.4429L58.9644 12.721H58.9643ZM0 5.03609C0 5.03609 2.47299 15.1693 2.86788 16.8139C3.32853 18.7335 4.15876 19.4401 6.55131 18.963L8.09537 12.6808C8.4869 11.1196 8.74893 10.0065 9.00122 8.41997H9.04513C9.22225 10.0233 9.47352 11.1244 9.79571 12.6859C9.79571 12.6859 10.424 15.5381 10.7463 17.0357C11.0689 18.5328 11.9669 19.477 14.3107 18.963L17.9901 5.03564H15.0203L13.7636 11.0574C13.4257 12.8095 13.1194 14.1801 12.883 15.7827H12.841C12.6263 14.1943 12.3528 12.8795 12.0097 11.172L10.7023 5.03564H7.6075L6.20829 11.0173C5.81227 12.8355 5.4409 14.303 5.20565 15.8523H5.16285C4.92132 14.3934 4.59981 12.5483 4.25186 10.7891C4.25186 10.7891 3.42118 6.51047 3.12901 5.03564L0 5.03609ZM23.6078 15.2264C23.6078 15.4191 23.5907 15.6178 23.5371 15.7923C23.3187 16.5172 22.5676 17.1303 21.6286 17.1303C20.8456 17.1303 20.2246 16.6855 20.2246 15.7462C20.2246 14.3085 21.8065 13.9115 23.6081 13.9215L23.6078 15.2263V15.2264ZM26.4328 12.721C26.4328 10.3504 25.4198 8.26447 21.9979 8.26447C20.2405 8.26447 18.845 8.75795 18.0843 9.19777L18.6411 11.1036C19.3366 10.6644 20.4452 10.3009 21.4946 10.3009C23.2319 10.2961 23.5163 11.284 23.5163 11.9163V12.066C19.7303 12.0604 17.3392 13.3708 17.3392 16.0401C17.3392 17.6712 18.557 19.1989 20.6734 19.1989C21.9766 19.1989 23.0659 18.6795 23.719 17.8466H23.7827C23.7827 17.8466 24.2155 19.6549 26.5979 18.963C26.4733 18.211 26.4328 17.4082 26.4328 16.4429V12.721ZM31.1475 16.0066V5.03609H28.3188V18.9635H31.1475V16.0066ZM68.1517 5.03609V15.31C68.1517 16.7272 68.4188 17.719 68.9885 18.3259C69.4877 18.8566 70.3078 19.2001 71.2914 19.2001C72.128 19.2001 72.9505 19.0404 73.3387 18.8965L73.3022 16.6866C73.0134 16.7572 72.6818 16.8143 72.2279 16.8143C71.264 16.8143 70.9417 16.1968 70.9417 14.9252V10.9942H73.4049V8.32911H70.9417V5.03609H68.1517ZM60.8505 8.50074V18.9635H63.7684V13.6063C63.7684 13.3168 63.7859 13.0645 63.8317 12.8337C64.0476 11.711 64.9057 10.9942 66.1383 10.9942C66.4762 10.9942 66.7181 11.031 66.9801 11.0682V8.32911C66.7602 8.28531 66.611 8.26481 66.3374 8.26481C65.2485 8.26481 64.0096 8.96744 63.4897 10.4746H63.4108V8.50074H60.8505ZM33.1281 8.50074V18.9635H35.971V12.8281C35.971 12.5402 36.0049 12.2357 36.1046 11.9718C36.3402 11.3541 36.9151 10.6306 37.8325 10.6306C38.9802 10.6306 39.5161 11.6004 39.5161 13.0001V18.9627H42.3568V12.7526C42.3568 12.4779 42.3943 12.1468 42.4755 11.9046C42.7088 11.2015 43.328 10.6298 44.181 10.6298C45.344 10.6298 45.9022 11.5826 45.9022 13.2301V18.9623H48.7448V12.7998C48.7448 9.5502 47.0946 8.2638 45.2316 8.2638C44.4073 8.2638 43.756 8.47027 43.167 8.83122C42.6724 9.13593 42.2287 9.56768 41.8417 10.1352H41.7997C41.3504 9.00766 40.2935 8.26436 38.9161 8.26436C37.1466 8.26436 36.3514 9.16136 35.869 9.92202H35.8266V8.5004H33.1281" fill="#1A75CF"/>
<path d="M100.361 18.455H100.404C100.461 18.455 100.498 18.4315 100.498 18.3965C100.498 18.3568 100.463 18.3352 100.411 18.3352C100.392 18.3352 100.374 18.3389 100.362 18.3389V18.456V18.4549L100.361 18.455ZM100.355 18.7371H100.204V18.2448C100.238 18.238 100.318 18.226 100.42 18.226C100.532 18.226 100.581 18.2417 100.618 18.2664C100.649 18.2879 100.671 18.3246 100.671 18.3743C100.671 18.4248 100.625 18.4676 100.556 18.4863V18.4926C100.612 18.5075 100.643 18.548 100.659 18.6191C100.674 18.6902 100.683 18.7192 100.693 18.7374H100.522C100.507 18.7192 100.498 18.6756 100.488 18.6321C100.478 18.5823 100.455 18.5573 100.404 18.5573H100.354L100.355 18.7371ZM100.417 18.0843C100.2 18.0843 100.037 18.2611 100.037 18.4865C100.037 18.7061 100.201 18.8852 100.423 18.8852C100.647 18.8889 100.811 18.7062 100.811 18.4829C100.811 18.2607 100.647 18.0843 100.421 18.0843H100.417ZM100.427 17.9507C100.73 17.9507 100.971 18.1889 100.971 18.4828C100.971 18.7802 100.73 19.0187 100.423 19.0187C100.116 19.0187 99.8721 18.7799 99.8721 18.4829C99.8721 18.1889 100.117 17.9508 100.423 17.9508H100.426" fill="#FDBB30"/>
</svg>
